<svg width="151" height="96" fill="none" xmlns="http://www.w3.org/2000/svg"><path d="M146.565 128.65l-1.622-1.107-4.281-2.841c-14.463-9.597-32.73-16.11-52.33-18.664-7.803-1.016-25.768-.683-33.72.623-17.414 2.863-33.897 9.137-47.21 17.972l-4.384 2.909-1.512 1.107L0 129.756h72.61l77.393 1.764-3.438-2.87zm-2.215-4.64c-2.871-2.979-8.6-7.289-13.557-10.2l-3.935-2.31V77.024l1.771-1.684 1.771-1.685V59.346h-2.81c-3.316 0-4.276.729-4.276 3.245 0 .895-.199 1.626-.443 1.626-.243 0-.443-1.096-.443-2.435v-2.436h-2.569c-1.412 0-2.807.24-3.099.532-.292.292-.532 1.389-.532 2.436 0 1.735-.098 1.904-1.107 1.904-1.047 0-1.107-.132-1.107-2.435v-2.435H108.7v2.468c0 2.112-.112 2.447-.775 2.321-.497-.094-.819-.623-.896-1.471-.302-3.29-.328-3.317-3.209-3.317-1.47 0-2.649.196-2.649.443 0 .243 1.097.442 2.436.442h2.435v4.428h3.1v-4.428h4.428v4.428h3.542v-4.428h4.871v4.48l1.883-.135c1.877-.137 1.882-.142 2.103-2.13.217-1.94.263-1.992 1.772-1.992h1.55v11.07l-1.443.14c-1.165.112-1.522-.06-1.854-.886l-.411-1.025-.027.997c-.025.882-.259.997-2.022.997-1.698 0-1.993-.131-1.993-.886 0-.487-.199-.885-.442-.885-.244 0-.443.398-.443.885 0 .755-.295.886-1.993.886-1.763 0-1.996-.115-2.021-.997l-.028-.997-.401.997c-.323.804-.748.997-2.2.997-1.453 0-1.878-.193-2.201-.997l-.401-.997-.028.997c-.025.882-.258.997-2.021.997-1.698 0-1.993-.131-1.993-.886 0-.487-.199-.885-.443-.885-.243 0-.442.398-.442.885 0 .755-.295.886-1.993.886-1.763 0-1.997-.115-2.022-.997l-.027-.997-.41 1.022c-.352.879-.675 1.003-2.297.885-1.68-.121-1.886-.256-1.886-1.243 0-.82.219-1.088.845-1.033 1.884.163 2.792-.583 2.721-2.238-.098-2.252-.688-2.548-.688-.346 0 1.813-.026 1.845-1.55 1.845-1.542 0-1.55-.01-1.55-1.993v-1.993H99.4c.974 0 1.771-.176 1.771-.393 0-.216-.349-.365-.776-.332-.585.046-.808-.333-.909-1.553-.169-2.033-1.153-2.932-3.407-3.114-2.62-.212-2.628-1.53-.023-3.166 1.097-.688 2.497-1.85 3.112-2.581 1.112-1.32 1.117-1.38 1.117-9.93 0-7.883-.064-8.605-.775-8.636-2.568-.115-6.603.16-7.225.494-.608.325-2.082-1.734-8.765-12.24l-8.034-12.632V.448l-4.097.016-4.097.016 1.312 1.071c.72.59 1.22 1.143 1.107 1.23-.113.088-.78.595-1.482 1.127l-1.277.968h6.766v2.639c0 2.632-.02 2.671-7.527 15.075-4.141 6.84-7.528 12.62-7.528 12.845 0 .224.398.622.886.883.719.385.885.927.885 2.894 0 1.33.2 2.42.443 2.42.25 0 .443-1.255.443-2.879v-2.878h7.085v2.878c0 2.636.078 2.879.937 2.879.876 0 .924-.186.755-2.849-.1-1.566-.023-2.75.17-2.63.193.119.352 1.4.352 2.848 0 2.044.148 2.63.664 2.63.523 0 .664-.614.664-2.878v-2.878h7.085v2.878c0 2.264.142 2.879.664 2.879.506 0 .666-.557.671-2.326.004-1.278.2-2.624.436-2.99.3-.465.431.232.436 2.326.005 1.693.2 2.99.45 2.99s.443-1.255.443-2.879v-2.878h7.085v5.757H93.2v-5.757h5.757v14.613H96.48c-2.105 0-2.511-.134-2.71-.886-.126-.487-.406-.886-.621-.886-.215 0-.392.399-.392.886 0 .778-.295.886-2.435.886-2.141 0-2.436-.108-2.436-.886 0-1.148-.714-1.148-1.014 0-.196.752-.604.886-2.71.886-2.18 0-2.476-.106-2.476-.886 0-.487-.2-.886-.443-.886-.244 0-.443.399-.443.886 0 .787-.295.886-2.657.886s-2.657-.099-2.657-.886c0-.487-.199-.886-.442-.886-.244 0-.443.399-.443.886 0 .78-.295.886-2.45.886-2.112 0-2.5-.134-2.806-.965l-.357-.964-.251.964c-.222.845-.558.965-2.729.965-2.181 0-2.477-.106-2.477-.886 0-.487-.2-.886-.443-.886-.244 0-.443.399-.443.886 0 .768-.295.886-2.214.886-2.166 0-2.214-.03-2.214-1.329 0-1.315.025-1.328 2.435-1.328 1.34 0 2.436-.2 2.436-.443 0-.244-1.097-.443-2.436-.443h-2.435v-11.07h-7.58l.138 8.692.137 8.693 2.455 2.267c3.097 2.862 3.135 3.55.206 3.735-2.662.168-3.675.979-3.854 3.084-.075.869-.384 1.661-.688 1.761-.398.131-.554-.51-.554-2.291v-2.472h-2.57c-1.412 0-2.807.24-3.099.532-.292.292-.532 1.388-.532 2.435 0 1.609-.138 1.905-.886 1.905-.778 0-.885-.295-.885-2.436v-2.435h-2.657c-1.476 0-2.657.197-2.657.443 0 .243 1.097.443 2.436.443h2.435v4.428h3.1V60.23h4.87v4.428h3.543V60.23h3.986v5.092c0 2.8.05 5.241.111 5.425.062.183-.577.398-1.42.478-1.075.102-1.7-.088-2.104-.638-.524-.717-.572-.72-.572-.035 0 .592-.417.749-1.993.749-1.476 0-1.992-.172-1.992-.664 0-.366-.2-.665-.443-.665-.244 0-.443.3-.443.665 0 1.032-3.852.929-4.123-.112-.192-.737-.204-.737-.254 0-.042.627-.47.776-2.234.776-1.705 0-2.225-.17-2.384-.776-.192-.737-.204-.737-.254 0-.07 1.047-4.036 1.156-4.036.112 0-.366-.2-.665-.443-.665-.244 0-.443.3-.443.665 0 1.032-3.851.929-4.123-.112-.192-.737-.204-.737-.254 0-.078 1.185-3.593 1.123-3.593-.063 0-.989.688-1.324 2.34-1.142.661.072 1.202-.05 1.202-.272 0-.223-.796-.404-1.771-.404h-1.771v-1.992c0-1.92.05-1.993 1.328-1.993.731 0 1.329-.193 1.329-.428 0-.236-.3-.315-.665-.175-.518.2-.666-.12-.678-1.453-.023-2.709-.718-3.258-4.131-3.258h-2.94v14.128l1.618 1.57c.89.865 1.79 1.572 1.998 1.572.21 0 .328 7.607.265 16.905l-.117 16.905-3.68 2.114c-4.955 2.848-9.059 5.961-12.262 9.302-1.678 1.751-2.087 2.333-1.107 1.58 10.434-8.019 22.719-13.638 36.977-16.913 10.924-2.51 26.316-3.693 38.199-2.939 24.106 1.533 44.125 7.9 60.962 19.389l4.905 3.347-2.215-2.296zm-22.081-14.495c-2.366-1.204-9.743-3.715-15.32-5.214-4.059-1.091-5.108-1.501-3.894-1.525 2.65-.049 1.918-.917-.775-.917h-2.436v-7.926l2.221-.133c3.524-.212 2.833-1.005-1.003-1.15l-3.432-.129v-3.439c0-2.053.223-3.744.554-4.196.455-.622.526-.085.397 3.016l-.156 3.773h6.388l-.166-3.282c-.197-3.888-1.001-5.132-3.321-5.132h-1.482v-6.199h9.964c6.348 0 9.965-.16 9.965-.442 0-.282-3.617-.443-9.965-.443-8.561 0-9.964-.093-9.964-.665 0-.575 1.723-.664 12.843-.664h12.842v35.93l-.997-.308c-.547-.171-1.566-.6-2.263-.955zm-3.16-7.657c-.151-.244-1.658-.443-3.348-.443-1.754 0-3.073.19-3.073.443 0 .257 1.411.443 3.347.443 2.119 0 3.247-.163 3.074-.443zm-7.972-3.985c.17-.277-.734-.443-2.409-.443-1.494 0-2.683.196-2.683.443 0 .243 1.084.442 2.409.442 1.324 0 2.532-.199 2.683-.442zm7.973-4.43c.423-.686-.734-.944-3.559-.796-1.562.081-2.644.352-2.756.688-.226.689 5.891.792 6.315.107zm-.223-5.09c0-3.79-.784-5.093-3.068-5.093-2.126 0-3.132 1.726-3.132 5.374v3.04h6.199l.001-3.322zm-7.768 1.58c.385-.623-.206-.79-2.601-.74-1.313.027-2.251.265-2.362.598-.223.665 4.554.802 4.963.141zm8.469-9.294c.735-.735-.703-.922-7.096-.922-4.376 0-7.391.176-7.554.442-.151.244-.113.457.085.476 1.556.145 14.421.148 14.565.004zm-86.435 22.284c.142-.372.868-.622 1.802-.622.86 0 1.564-.199 1.564-.443s-.796-.443-1.77-.443h-1.772v-7.527h1.771c1.28 0 1.771-.185 1.771-.665 0-.365-.149-.664-.332-.663-.182 0-.278-1.344-.21-2.99.135-3.319-.452-4.952-2.03-5.647-.779-.342-.98-.744-.878-1.771.145-1.492-.099-1.444 7.547-1.514 2.264-.022 3.875-.22 3.875-.479 0-.272-2.214-.443-5.756-.443h-5.757V77.06h11.293c7.233 0 11.293-.16 11.293-.443 0-.283-4.06-.443-11.293-.443-10.997 0-11.293-.024-11.293-.886s.295-.885 11.24-.885c10.869 0 11.249.029 11.473.885.183.704.604.886 2.045.886 2.396 0 2.34.797-.07.97-1.74.127-1.878.229-1.831 1.355.048 1.166-.04 1.219-2.078 1.219-1.974 0-3.66.834-1.873.927.44.024 1.499.074 2.351.112 1.498.066 1.551.128 1.57 1.84.02 1.761.031 1.773 1.882 1.908 2.372.173 2.446.97.092.97-1.1 0-1.787.21-1.812.555a145.95 145.95 0 00-.111 1.85c-.064 1.181-.211 1.295-1.62 1.27-3.22-.056-3.1.028-3.1-2.206 0-2.498-1.253-4.125-3.177-4.125-2.28 0-3.023 1.307-3.023 5.313v3.543h3.1c2.46 0 3.1-.138 3.1-.664 0-.511.568-.665 2.463-.665 2.08 0 2.45.12 2.384.776-.17 1.672.032 1.882 1.795 1.882.974 0 1.771.2 1.771.443 0 .244-.785.443-1.745.443-1.697 0-1.749.046-1.883 1.661l-.137 1.661-2.325.134c-1.28.073-2.326.312-2.326.53 0 .22 1.047.458 2.325.531 2.25.13 2.326.176 2.326 1.443 0 1.666-.811 1.91-6.532 1.969-3.264.032-4.318.187-4.318.63 0 .377-1.773 1.03-4.982 1.833-2.74.685-5.38 1.392-5.868 1.572-.745.273-.908.116-1.027-.989-.08-.728-.037-1.599.096-1.942zm10.008-5.05c0-.244-1.096-.443-2.435-.443s-2.435.199-2.435.443c0 .243 1.096.442 2.435.442s2.435-.199 2.435-.442zm7.97-4.65c0-.59-.518-.682-3.21-.572-1.766.072-3.211.329-3.211.572 0 .244 1.445.502 3.21.573 2.693.11 3.212.017 3.212-.573zm-7.97-3.274c0-.217-.315-.516-.7-.664-1.502-.576-4.172-.15-4.172.664 0 .218 1.097.396 2.436.396s2.436-.178 2.436-.396zm45.28 11.179c-2.093-.251-2.325-.386-2.325-1.36 0-.97-.136-1.05-1.329-.788l-1.328.292v-5.806l1.328.266c1.328.266 1.329.263 1.329-1.838 0-2.102-.001-2.103-1.329-1.838l-1.328.266v-5.736h1.328c1.255 0 1.329-.098 1.329-1.771 0-1.652-.083-1.767-1.219-1.711-1.044.05-1.075.088-.22.253.762.146.996.496.996 1.49 0 1.081-.18 1.297-1.087 1.297-.91 0-1.132-.268-1.368-1.66-.455-2.698-.64-3.136-2.167-5.137-1.216-1.593-1.366-2.031-.914-2.648.7-.956.914-.934 2.06.212.919.918.924.975.137 1.55-.45.329-.604.597-.344.597.261 0 .728-.306 1.038-.68.473-.568.36-.893-.685-1.984-1.031-1.077-1.367-1.21-1.922-.759-.56.456-.625.418-.383-.227.213-.564-.072-.958-1.063-1.47-1.56-.808-2.624-.57-2.551.568.048.739.064.74.254.014.237-.909.59-.953 2.091-.27.931.425 1.035.646.64 1.382-.337.632-.332.793.019.576.267-.165.487-.102.487.141 0 .86-.716.858-3.305-.017-3.964-1.339-7.653-.272-10.34 2.988-1.954 2.37-2.293 4.469-2.33 14.437-.02 4.946-.136 8.744-.259 8.44-.123-.304-.588-.554-1.035-.554-.447 0-.912.248-1.035.554-.123.305-.24.084-.258-.492-.03-.898.12-1.004 1.072-.766.638.16 1.107.087 1.107-.173 0-.247-.498-.45-1.107-.45-1.017 0-1.107-.163-1.107-1.993 0-1.863.08-1.997 1.218-2.06l1.218-.066-1.218-.185c-1.117-.169-1.218-.346-1.218-2.149 0-1.83.082-1.967 1.218-2.029l1.218-.067-1.218-.184c-1.117-.17-1.218-.346-1.218-2.148 0-1.798.093-1.963 1.107-1.963.609 0 1.107-.222 1.107-.492 0-.302-.425-.383-1.107-.213-1.058.264-1.107.189-1.107-1.695 0-1.894.057-1.981 1.44-2.156 1.307-.165 1.348-.213.442-.522-1.123-.384-1.233-1.005-.474-2.67.444-.975.724-1.107 1.883-.886 1.295.248 1.319.228.49-.432-.852-.677-.839-.723.577-2.125 1.4-1.385 1.469-1.403 2.083-.579.35.469.775.715.944.546.168-.169.073-.54-.211-.825-.397-.397-.234-.707.694-1.318.667-.44.973-.8.681-.803-.393-.003-.521-1.906-.495-7.317l.037-7.314 11.786.118 11.787.118V75.95l-1.44.139c-.791.076-1.44.313-1.44.525 0 .212.648.45 1.44.526l1.44.138v7.085l-1.44.14c-.791.075-1.44.312-1.44.525 0 .212.648.449 1.44.525 1.43.137 1.44.156 1.575 2.777.198 3.845-.101 4.668-1.694 4.668-1.783 0-1.686.794.12.968l1.439.139.132 3.056c.198 4.597.244 4.558-4.673 3.967zm-2.325-4.805c0-1.617-.147-1.986-.776-1.957-.462.02-.551.124-.221.258.882.355.698 3.147-.222 3.386-.582.152-.527.215.222.254.895.046.997-.154.997-1.941zm-22.77.948c.42-1.094.014-2.254-.847-2.42-.661-.128-.775.096-.659 1.288.152 1.548 1.081 2.245 1.507 1.132zm-.367-4.145c.795-.285.684-2.194-.147-2.512-1.044-.401-1.07-.375-1.07 1.033-.002 1.394.33 1.798 1.217 1.48zm23.137-5.66c0-1.892-.06-1.99-1.219-1.931-1.107.055-1.122.078-.178.258.917.174 1.02.402.874 1.932-.09.954-.01 1.735.178 1.735.19 0 .346-.898.345-1.993zM63.228 88.73c.167-.168.304-.869.304-1.56 0-.971-.206-1.254-.913-1.254-.76 0-.891.236-.776 1.405.135 1.372.773 2.02 1.385 1.409zm.304-5.914c0-1.034-.197-1.328-.886-1.328-.69 0-.886.294-.886 1.328s.197 1.328.886 1.328c.69 0 .886-.294.886-1.328zM85.23 80.16c.81-.522.11-.522-1.107 0-.584.252-.659.39-.221.405.365.013.964-.169 1.328-.405zm-20.847-1.21c.704-1.544-.16-2.527-1.103-1.252-.799 1.083-.808 1.857-.025 2.157.364.14.819-.225 1.128-.905zm20.593-.562c-.436-1.68-.899-1.944-2.02-1.158-.562.393-.818.715-.569.715.25 0 .675-.221.945-.491.36-.36.684-.153 1.212.776.67 1.176.7 1.188.432.158zM67.251 75.51c.703-.532.747-.75.266-1.33-.515-.62-.681-.593-1.602.273-1.597 1.5-.45 2.408 1.336 1.057zm8.62-3.433c.058-1.156-.04-1.218-1.932-1.218-2.087 0-2.194.11-1.51 1.55.392.825.408.817.233-.111-.166-.873-.006-.997 1.289-.997 1.18 0 1.515.2 1.669.997.163.855.199.824.251-.22zm-4.406.555c.013-.366-.169-.963-.404-1.329-.523-.81-.523-.11 0 1.107.25.583.387.66.404.222zm20.852-.886c0-.271-2.141-.443-5.536-.443-3.395 0-5.535.172-5.535.443s2.141.443 5.535.443c3.395 0 5.535-.172 5.535-.443zm-5.314-9.01c0-2.972-.152-3.826-.776-4.362-1.213-1.041-2.244-1.261-3.415-.727-1.394.636-2.01 2.466-2.01 5.971v2.813h6.2v-3.696zm-7.086 3.252c0-.243-.498-.442-1.107-.442-.61 0-1.107.199-1.107.442 0 .244.498.443 1.107.443s1.107-.199 1.107-.443zm-3.1-3.05c0-4.185-.747-5.511-3.1-5.511-2.352 0-3.1 1.327-3.1 5.51v3.494h6.2v-3.494zm15.278-2.263c.168-.271-.521-.443-1.771-.443-1.251 0-1.94.172-1.771.443.15.243.947.443 1.77.443.825 0 1.621-.2 1.772-.443zm-12.178 0c0-.244-.498-.443-1.107-.443-.61 0-1.107.199-1.107.443 0 .243.498.443 1.107.443s1.107-.2 1.107-.443zm4.243 40.029c-.963-.37-.878-.91.185-1.188.955-.25 1.55.296 1.107 1.014-.321.52-.374.526-1.292.174zm0-7.528c-1.483-.568-.597-2.83 1.107-2.83.224 0 .406.696.406 1.549 0 1.565-.24 1.77-1.513 1.281zm-55.154-3.385c.01-1.766.258-3.647.554-4.18.452-.814.539-.304.539 3.21 0 3.048-.15 4.18-.554 4.18-.395 0-.55-.928-.539-3.21zm27.662-18.045c.159-.257 2.588-.443 5.783-.443 3.377 0 5.509.172 5.509.443 0 .273-2.223.443-5.783.443-3.743 0-5.687-.157-5.509-.443zm3.321-9.025c0-2.921.157-3.838.736-4.318.669-.551.688-.515.202.397-.312.586-.48 2.248-.405 3.985l.131 2.98 2.879.256 2.878.255-3.211.077-3.211.076V62.72h.001zm-3.985-7.803c0-.871.295-.885 18.351-.885 11.757 0 18.45.158 18.626.442.15.244.15.642 0 .886-.176.284-6.869.443-18.626.443-18.056 0-18.351-.015-18.351-.886zm19.042-20.657l-6.864-.282 3.321-.804c1.827-.443 4.567-.94 6.09-1.107 1.522-.166 2.768-.456 2.768-.646 0-.537-6.443-1.007-9.864-.72-1.696.142-2.992.167-2.882.056.651-.651 6.883-2.422 9.447-2.684 2.564-.264 2.86-.375 1.944-.74-.595-.235-2.974-.44-5.287-.454l-4.207-.026 1.853-.808c1.019-.444 3.097-.938 4.619-1.098 2.33-.244 2.598-.354 1.691-.696-.592-.224-2.612-.34-4.49-.258l-3.416.148 1.421-.758c.782-.417 2.373-.894 3.536-1.058 1.163-.163 2.206-.449 2.32-.634.296-.48-3.44-.968-4.94-.646-1.21.261-1.227.243-.4-.427.872-.703 3.252-1.505 4.892-1.648.488-.042-.31-.2-1.77-.352-1.493-.155-2.367-.407-1.994-.576a68.883 68.883 0 011.993-.839l1.329-.537-1.772-.292-1.771-.292 1.44-.346c1.63-.393 1.936-1.122.469-1.122-.949 0-.951-.014-.112-.65.84-.635.838-.65-.114-.664-.894-.013-.934-.125-.496-1.38.39-1.115.576-1.258 1.02-.776.864.943 13.514 22.879 13.514 23.437 0 .355-.946.423-3.211.23-1.769-.146-6.302-.395-10.077-.55zM125.3 69.17c.126-.126.201-1.14.165-2.257l-.062-2.03-.27 1.772c-.261 1.712-.337 1.78-2.263 2.037-1.096.147-1.793.314-1.55.373 1.005.244 3.768.317 3.98.105zm-5.713-.043c.393-.393.16-4.022-.258-4.022-.244 0-.443.796-.443 1.771v1.771h-1.771c-.975 0-1.771.154-1.771.341-.001.346 3.906.474 4.243.139zm-6.172-.269c.12-.309.137-1.33.04-2.269l-.177-1.707-.075 1.883-.074 1.882h-2.066c-2.503 0-2.334.396.263.616 1.23.104 1.948-.035 2.089-.405zm-6.154.344c.663-.223.767-4.098.111-4.098-.244 0-.443.796-.443 1.77v1.772h-1.844c-1.016 0-1.731.115-1.591.256.328.327 3.044.543 3.767.3zm-54.954-.223c.113-.182-.691-.333-1.788-.333h-1.994l-.183-1.882c-.167-1.708-.18-1.679-.137.318l.048 2.2 1.924.015c1.059.008 2.016-.136 2.13-.318zm-6.24.065c.134-.218-.652-.398-1.748-.398h-1.994l-.17-1.882-.168-1.883-.078 2.104c-.042 1.157.072 2.118.254 2.135 2.787.274 3.697.257 3.903-.076zm-6.006-.047c0-.192-.797-.35-1.771-.35h-1.772v-1.772c0-.975-.199-1.771-.442-1.771-.507 0-.616 3.961-.11 4.03 1.638.227 4.095.145 4.095-.137zm-5.94.029c.128-.208-.663-.38-1.76-.38H30.37l-.184-1.882c-.17-1.743-.18-1.722-.136.29l.047 2.174 1.896.088c1.043.05 2.001-.082 2.13-.29zm1.51-4.687c0-.207-.547-.368-1.218-.36-1.035.015-1.235-.18-1.339-1.31-.301-3.295-.327-3.322-3.208-3.322-1.47 0-2.65.197-2.65.443 0 .244 1.086.443 2.413.443h2.412l.134 2.104c.134 2.083.151 2.105 1.797 2.241.913.075 1.66-.032 1.66-.24zM94.087 47.39c0-.243-1.097-.443-2.436-.443h-2.435V44.76c0-1.204-.2-2.311-.443-2.462-.278-.172-.443.807-.443 2.63v2.905h2.878c1.624 0 2.879-.193 2.879-.443zm-7.97 0c0-.243-1.097-.443-2.436-.443h-2.436V44.76c0-1.204-.199-2.311-.442-2.462-.278-.172-.443.807-.443 2.63v2.905h2.878c1.623 0 2.878-.193 2.878-.443zm-7.972.024c0-.23-1.047-.48-2.326-.554l-2.325-.134-.23-2.435c-.228-2.387-.237-2.4-.444-.665-.116.975-.148 2.32-.072 2.99.135 1.176.23 1.218 2.769 1.218 1.445 0 2.627-.19 2.627-.42zm-7.528-.024c0-.243-1.097-.443-2.436-.443h-2.435v-2.435c0-1.34-.2-2.435-.443-2.435-.25 0-.443 1.255-.443 2.878v2.878h2.879c1.623 0 2.878-.193 2.878-.443z" fill="#000" opacity=".2"/></svg>