<svg width="258" height="73" fill="none" xmlns="http://www.w3.org/2000/svg"><g clip-path="url(#clip0)" filter="url(#filter0_d)"><mask id="a" maskUnits="userSpaceOnUse" x="-93" y="-222" width="444" height="289"><path d="M17.253 64.197v-1.875h223.2v3.749h-223.2v-1.874zM-92.48 56.322v-2.25h442.668v4.5H-92.481v-2.25zm105.256-30.37V3.833h26.58l2.385 2.473c2.299 2.383 2.385 2.702 2.385 8.77 0 5.811-.155 6.459-2.005 8.4l-2.006 2.103 2.006 2.103c1.872 1.963 2.005 2.549 2.005 8.851 0 6.648-.036 6.784-2.463 9.144L39.2 48.072H12.77v-22.12h.005zm21.648 8.626v-3.75H22.48v7.5h11.944v-3.75zm0-17.248v-3.749H22.48v7.498h11.944V17.33zM48.007 45.6l-2.385-2.473V8.623l2.462-2.396 2.463-2.395h21.66l2.384 2.473 2.386 2.473v34.505l-2.463 2.395-2.462 2.396h-21.66l-2.385-2.473zM67.27 25.954V13.58H55.326v24.744h11.943V25.953zM81.599 45.6l-2.386-2.474V3.832h9.704v34.495h11.943V3.832h9.704v39.446l-2.463 2.396-2.462 2.396h-21.66L81.6 45.6zm30.46-19.648V3.832h9.694l5.936 11.81 5.937 11.81.039-11.81.04-11.81h9.704v44.242h-9.695l-5.936-11.81-5.936-11.81-.04 11.81-.04 11.81h-9.703V25.953zm32.845 0V3.832h26.58l2.385 2.473 2.385 2.473v34.505l-2.463 2.395-2.462 2.396h-26.43V25.953h.005zm21.648 0V13.58h-11.943v24.744h11.943V25.953zm11.66 21.52c-.203-.33 2.045-10.202 4.996-21.933l5.366-21.331 6.868-.215 6.868-.216.747 2.84c3.021 11.509 9.778 39.384 9.778 40.345 0 .976-.819 1.144-4.666.96l-4.666-.224-1.087-4.312-1.086-4.313h-11.581l-.819 3.188a213.64 213.64 0 01-1.2 4.499c-.304 1.058-1.23 1.313-4.763 1.313-2.409 0-4.549-.27-4.755-.601zm20.426-18.707c-.02-.928-2.836-11.549-3.143-11.855-.157-.158-.976 2.573-1.822 6.067l-1.539 6.351h3.26c1.791-.002 3.25-.255 3.244-.563zm16.437-2.813V3.832h26.579l2.385 2.473 2.386 2.473v17.379l-2.858 2.524-2.858 2.525 3.94 7.973c2.166 4.385 3.732 8.18 3.478 8.436-.254.255-2.921.461-5.929.461h-5.47l-5.937-11.81-5.936-11.81-.039 11.81-.04 11.81h-9.704l.003-22.123zm21.646-8.623V13.58h-11.943v7.498h11.943V17.33zM-91.734-4.79v-1.875H7.669l7.217-4.811c24.378-16.25 55.17-27.281 88.211-31.603 13.153-1.72 43.436-1.157 56.839 1.054 29.356 4.85 57.142 15.473 79.583 30.434l7.389 4.924h104.028v3.749h-442.67V-4.79zM8.669-12.648c4.839-5.045 14.496-12.343 22.853-17.272l6.634-3.911V-92.21l-2.986-2.853-2.986-2.853v-24.228h4.737c5.59 0 7.208 1.233 7.208 5.495 0 1.515.336 2.753.747 2.753.41 0 .746-1.857.746-4.124v-4.124h4.33c2.381 0 4.733.406 5.226.901.492.494.896 2.351.896 4.123 0 2.94.166 3.226 1.866 3.226 1.765 0 1.866-.224 1.866-4.124v-4.124h8.957v4.179c0 3.576.19 4.144 1.308 3.931.837-.159 1.38-1.056 1.51-2.491.508-5.572.552-5.617 5.409-5.617 2.478 0 4.465.333 4.465.75 0 .413-1.848.75-4.105.75h-4.106v7.498H68.02v-7.498h-7.464v7.498h-5.971v-7.498h-8.211v7.587l-3.173-.231c-3.165-.231-3.174-.24-3.547-3.605-.365-3.285-.442-3.374-2.986-3.374h-2.612v18.746l2.431.235c1.963.191 2.566-.1 3.125-1.5l.693-1.734.047 1.688c.042 1.493.435 1.688 3.407 1.688 2.862 0 3.36-.222 3.36-1.5 0-.825.335-1.499.745-1.499.411 0 .747.674.747 1.499 0 1.278.497 1.5 3.359 1.5 2.972 0 3.365-.195 3.407-1.688l.047-1.688.675 1.688c.546 1.362 1.261 1.688 3.71 1.688 2.45 0 3.165-.326 3.71-1.688l.676-1.688.047 1.688c.042 1.493.435 1.688 3.407 1.688 2.862 0 3.36-.222 3.36-1.5 0-.825.335-1.499.746-1.499.41 0 .746.674.746 1.499 0 1.278.497 1.5 3.359 1.5 2.973 0 3.366-.195 3.407-1.688l.047-1.688.691 1.73c.594 1.489 1.137 1.699 3.871 1.5 2.834-.207 3.18-.435 3.18-2.106 0-1.388-.368-1.843-1.424-1.75-3.176.277-4.706-.987-4.587-3.789.166-3.813 1.16-4.314 1.16-.585 0 3.07.044 3.123 2.612 3.123 2.6 0 2.613-.018 2.613-3.374v-3.374h-2.986c-1.643 0-2.986-.3-2.986-.666 0-.366.588-.619 1.308-.563.987.078 1.362-.564 1.532-2.629.285-3.443 1.944-4.964 5.744-5.273 4.415-.359 4.43-2.591.038-5.362-1.849-1.164-4.21-3.132-5.245-4.37-1.875-2.236-1.884-2.336-1.884-16.815 0-13.347.108-14.57 1.307-14.623 4.329-.195 11.13.271 12.18.836 1.024.551 3.509-2.934 14.774-20.725l13.543-21.39v-17.154l6.906.027 6.906.026-2.211 1.815c-1.215.998-2.056 1.934-1.866 2.083.19.148 1.314 1.007 2.498 1.908l2.153 1.639h-11.4v4.468c0 4.456.033 4.523 12.689 25.526 6.981 11.582 12.69 21.372 12.69 21.751 0 .379-.672 1.054-1.493 1.495-1.212.652-1.493 1.571-1.493 4.9 0 2.254-.336 4.098-.746 4.098-.422 0-.747-2.126-.747-4.874v-4.874h-11.944v4.874c0 4.463-.132 4.874-1.579 4.874-1.477 0-1.559-.315-1.274-4.823.168-2.653.04-4.656-.287-4.455-.325.202-.592 2.372-.592 4.823 0 3.461-.249 4.455-1.119 4.455-.882 0-1.12-1.041-1.12-4.874v-4.874h-11.943v4.874c0 3.833-.238 4.874-1.12 4.874-.852 0-1.121-.943-1.13-3.938-.007-2.165-.338-4.443-.736-5.062-.505-.788-.726.392-.735 3.937-.007 2.866-.336 5.063-.758 5.063-.421 0-.746-2.126-.746-4.874v-4.874h-11.943v9.748h-6.718v-9.748h-9.703v24.743h4.176c3.549 0 4.233-.226 4.567-1.499.214-.825.687-1.5 1.049-1.5.362 0 .66.675.66 1.5 0 1.318.497 1.499 4.105 1.499 3.609 0 4.106-.181 4.106-1.499 0-1.943 1.203-1.943 1.709 0 .331 1.273 1.018 1.499 4.567 1.499 3.677 0 4.176-.179 4.176-1.499 0-.825.336-1.5.746-1.5.411 0 .747.675.747 1.5 0 1.333.497 1.499 4.478 1.499 3.982 0 4.479-.166 4.479-1.499 0-.825.336-1.5.746-1.5.411 0 .747.675.747 1.5 0 1.32.497 1.499 4.129 1.499 3.56 0 4.214-.226 4.731-1.632l.6-1.633.424 1.633c.374 1.431.941 1.632 4.6 1.632 3.677 0 4.176-.179 4.176-1.499 0-.825.336-1.5.747-1.5s.746.675.746 1.5c0 1.3.497 1.499 3.732 1.499 3.651 0 3.733-.051 3.733-2.249 0-2.227-.042-2.249-4.106-2.249-2.259 0-4.105-.337-4.105-.75s1.848-.75 4.105-.75h4.106v-18.745h12.777l-.232 14.719-.232 14.718-4.138 3.84c-5.221 4.845-5.285 6.012-.347 6.325 4.488.284 6.195 1.657 6.497 5.222.126 1.471.647 2.813 1.16 2.981.671.222.934-.865.934-3.88v-4.186h4.33c2.381 0 4.733.406 5.225.901.493.495.897 2.352.897 4.124 0 2.724.232 3.225 1.493 3.225 1.312 0 1.493-.499 1.493-4.123v-4.124h4.478c2.489 0 4.479.332 4.479.749 0 .413-1.849.75-4.105.75h-4.106v7.498h-5.225v-7.498h-8.211v7.498h-5.971v-7.498h-6.718v8.623c0 4.743-.084 8.875-.188 9.186-.103.311.974.674 2.394.81 1.813.173 2.867-.149 3.547-1.081.883-1.213.965-1.22.965-.06 0 1.003.702 1.269 3.359 1.269 2.489 0 3.359-.29 3.359-1.124 0-.619.336-1.125.746-1.125.411 0 .747.506.747 1.125 0 1.748 6.492 1.572 6.949-.189.325-1.249.345-1.249.429 0 .071 1.06.793 1.313 3.765 1.313 2.875 0 3.752-.286 4.019-1.313.325-1.249.345-1.249.429 0 .117 1.773 6.804 1.957 6.804.189 0-.619.335-1.125.746-1.125s.747.506.747 1.125c0 1.748 6.492 1.572 6.949-.189.325-1.249.345-1.249.429 0 .132 2.006 6.057 1.901 6.057-.106 0-1.675-1.159-2.243-3.944-1.935-1.115.122-2.027-.084-2.027-.461s1.343-.683 2.986-.683h2.985v-3.374c0-3.25-.084-3.375-2.239-3.375-1.232 0-2.239-.326-2.239-.725 0-.399.503-.532 1.119-.295.875.337 1.125-.204 1.144-2.46.038-4.588 1.211-5.517 6.963-5.517h4.956v23.922l-2.727 2.66c-1.5 1.464-3.017 2.66-3.368 2.66-.354 0-.552 12.882-.446 28.625l.196 28.626 6.204 3.58c8.352 4.823 15.27 10.093 20.67 15.75 2.829 2.966 3.518 3.951 1.866 2.676-17.59-13.579-38.298-23.093-62.331-28.64-18.416-4.25-44.362-6.253-64.392-4.975C75.34-44.663 41.594-33.882 13.212-14.428L4.944-8.76l3.725-3.888zm37.222-24.544c3.989-2.039 16.424-6.291 25.825-8.829 6.842-1.848 8.61-2.542 6.563-2.582-4.467-.084-3.233-1.553 1.308-1.553h4.105v-13.42l-3.743-.227c-5.94-.36-4.777-1.702 1.69-1.946l5.785-.22v-5.822c0-3.477-.375-6.34-.934-7.106-.766-1.053-.885-.144-.669 5.107l.263 6.389H75.316l.28-5.557c.331-6.584 1.687-8.69 5.598-8.69h2.498v-10.497H66.895c-10.7 0-16.797-.272-16.797-.75 0-.476 6.098-.75 16.797-.75 14.432 0 16.797-.157 16.797-1.124 0-.974-2.904-1.125-21.648-1.125h-21.65v60.84l1.681-.52c.923-.291 2.642-1.017 3.816-1.618zm5.327-12.966c.254-.413 2.794-.75 5.642-.75 2.957 0 5.181.322 5.181.75 0 .435-2.378.75-5.642.75-3.571 0-5.473-.276-5.181-.75zm13.438-6.748c-.287-.468 1.237-.75 4.061-.75 2.518 0 4.523.333 4.523.75 0 .412-1.829.75-4.061.75-2.233 0-4.27-.338-4.523-.75zm-13.44-7.503c-.714-1.16 1.236-1.597 6-1.346 2.632.137 4.456.596 4.644 1.164.382 1.167-9.929 1.342-10.644.182zm.375-8.618c0-6.418 1.323-8.623 5.172-8.623 3.584 0 5.28 2.922 5.28 9.1v5.149h-10.45l-.002-5.626zm13.096 2.675c-.65-1.053.347-1.337 4.383-1.253 2.213.047 3.795.45 3.982 1.014.376 1.127-7.676 1.357-8.365.24zM50.41-86.088c-1.24-1.245 1.186-1.562 11.963-1.562 7.376 0 12.457.3 12.733.75.254.412.19.774-.144.805-2.623.246-24.31.25-24.552.007zm145.703 37.733c-.24-.63-1.464-1.053-3.038-1.053-1.451 0-2.637-.338-2.637-.75 0-.413 1.343-.75 2.986-.75h2.985v-12.746h-2.985c-2.158 0-2.986-.313-2.986-1.125 0-.62.252-1.125.561-1.123.307 0 .468-2.276.353-5.062-.227-5.621.762-8.388 3.423-9.563 1.312-.58 1.65-1.26 1.48-3-.245-2.526.165-2.444-12.723-2.564-3.816-.035-6.532-.372-6.532-.81 0-.46 3.732-.75 9.704-.75h9.703v-4.498h-19.036c-12.192 0-19.036-.27-19.036-.75 0-.479 6.844-.75 19.036-.75 18.537 0 19.036-.04 19.036-1.5 0-1.459-.497-1.499-18.948-1.499-18.32 0-18.961.049-19.338 1.5-.309 1.191-1.018 1.5-3.448 1.5-4.039 0-3.944 1.348.117 1.643 2.933.213 3.167.386 3.088 2.294-.082 1.974.066 2.063 3.502 2.063 3.328 0 6.17 1.413 3.158 1.57-.742.04-2.526.125-3.964.19-2.524.112-2.614.217-2.645 3.116-.034 2.981-.053 3.001-3.174 3.23-3.997.293-4.123 1.644-.154 1.644 1.855 0 3.012.355 3.054.938.037.515.121 1.925.187 3.134.109 2 .356 2.192 2.732 2.15 5.426-.095 5.225.047 5.225-3.736 0-4.23 2.111-6.985 5.356-6.985 3.842 0 5.094 2.214 5.094 8.997v5.999h-5.225c-4.147 0-5.225-.233-5.225-1.125 0-.865-.958-1.125-4.152-1.125-3.506 0-4.131.204-4.019 1.314.287 2.83-.053 3.187-3.025 3.187-1.643 0-2.986.338-2.986.75 0 .413 1.323.75 2.942.75 2.859 0 2.948.078 3.173 2.813l.232 2.813 3.92.226c2.155.124 3.92.528 3.92.898s-1.765.774-3.92.899c-3.792.22-3.92.297-3.92 2.442 0 2.822 1.367 3.234 11.011 3.334 5.501.056 7.279.318 7.279 1.067 0 .64 2.988 1.744 8.398 3.104 4.62 1.16 9.07 2.358 9.891 2.662 1.257.463 1.531.197 1.732-1.675.134-1.231.062-2.706-.162-3.288zm-16.871-8.551c0-.413 1.848-.75 4.105-.75 2.257 0 4.105.337 4.105.75 0 .412-1.848.75-4.105.75-2.257 0-4.105-.338-4.105-.75zm-13.436-7.873c0-.999.874-1.156 5.413-.97 2.976.122 5.412.557 5.412.97 0 .412-2.436.85-5.412.97-4.539.185-5.413.028-5.413-.97zm13.436-5.544c0-.368.532-.874 1.181-1.125 2.531-.976 7.031-.255 7.031 1.125 0 .368-1.848.67-4.105.67-2.257 0-4.107-.302-4.107-.67zm-76.328 18.93c3.529-.427 3.92-.655 3.92-2.303 0-1.644.229-1.78 2.239-1.336l2.239.495v-9.832l-2.239.45c-2.237.45-2.239.446-2.239-3.112 0-3.558.002-3.56 2.239-3.112l2.239.45v-9.712h-2.239c-2.116 0-2.239-.166-2.239-2.999 0-2.797.139-2.992 2.053-2.897 1.76.087 1.813.149.374.428-1.286.249-1.681.84-1.681 2.522 0 1.833.305 2.199 1.833 2.199 1.535 0 1.908-.455 2.305-2.813.767-4.568 1.08-5.309 3.653-8.698 2.05-2.698 2.303-3.439 1.542-4.484-1.18-1.619-1.542-1.581-3.474.36-1.548 1.555-1.557 1.65-.23 2.624.758.557 1.018 1.012.579 1.012-.44 0-1.226-.52-1.749-1.152-.798-.962-.608-1.513 1.155-3.36 1.738-1.824 2.303-2.048 3.239-1.285.946.772 1.054.708.645-.384-.358-.956.122-1.623 1.793-2.491 2.631-1.366 4.424-.965 4.3.963-.082 1.251-.108 1.253-.428.024-.4-1.539-.994-1.615-3.525-.457-1.57.72-1.745 1.094-1.08 2.34.57 1.07.561 1.343-.031.975-.45-.28-.821-.173-.821.24 0 1.457 1.208 1.452 5.571-.03 6.683-2.267 12.902-.461 17.431 5.06 3.293 4.013 3.865 7.567 3.929 24.446.033 8.375.227 14.806.435 14.291.207-.515.991-.938 1.744-.938.754 0 1.538.421 1.745.938.208.517.404.142.435-.832.051-1.522-.203-1.701-1.806-1.298-1.076.271-1.866.147-1.866-.293 0-.419.839-.763 1.866-.763 1.713 0 1.866-.275 1.866-3.374 0-3.154-.135-3.38-2.054-3.487l-2.054-.113 2.054-.313c1.884-.286 2.054-.585 2.054-3.638 0-3.099-.139-3.332-2.054-3.436l-2.054-.113 2.054-.313c1.884-.286 2.054-.586 2.054-3.636 0-3.046-.157-3.325-1.866-3.325-1.027 0-1.866-.375-1.866-.832 0-.512.715-.65 1.866-.362 1.782.449 1.866.32 1.866-2.87 0-3.206-.097-3.354-2.427-3.65-2.204-.279-2.273-.36-.747-.884 1.893-.65 2.078-1.702.8-4.521-.749-1.65-1.221-1.875-3.174-1.5-2.184.42-2.223.386-.826-.732 1.436-1.147 1.414-1.225-.973-3.598-2.359-2.345-2.476-2.376-3.512-.98-.589.794-1.305 1.21-1.59.924-.285-.286-.123-.916.356-1.397.669-.672.393-1.198-1.171-2.232-1.124-.745-1.641-1.355-1.148-1.36.662-.004.879-3.227.835-12.389l-.062-12.385-19.869.2-19.868.199v32.246l2.426.235c1.334.129 2.428.53 2.428.89s-1.091.76-2.428.89l-2.427.234v11.997l2.427.235c1.334.129 2.428.53 2.428.89s-1.091.76-2.428.89c-2.409.232-2.427.263-2.654 4.702-.333 6.511.17 7.904 2.856 7.904 3.005 0 2.842 1.345-.202 1.64l-2.427.235-.222 5.175c-.334 7.784-.411 7.718 7.877 6.717zm3.92-8.138c0-2.737.247-3.363 1.307-3.314.779.036.93.21.373.437-1.486.601-1.177 5.329.373 5.735.983.257.89.363-.373.43-1.508.078-1.68-.262-1.68-3.288zm38.381 1.606c-.707-1.852-.022-3.817 1.429-4.099 1.115-.215 1.307.164 1.111 2.183-.257 2.62-1.822 3.8-2.54 1.916zm.623-7.018c-1.341-.484-1.153-3.716.247-4.255 1.76-.679 1.804-.635 1.804 1.75 0 2.36-.558 3.044-2.051 2.505zm-39.004-9.584c0-3.205.101-3.37 2.053-3.272 1.866.094 1.893.134.301.437-1.546.295-1.721.681-1.473 3.272.152 1.615.017 2.938-.301 2.938-.32 0-.58-1.52-.58-3.375zm38.582 2.139c-.283-.284-.512-1.47-.512-2.64 0-1.646.346-2.125 1.539-2.125 1.281 0 1.502.4 1.307 2.38-.227 2.323-1.303 3.42-2.334 2.385zm-.512-10.014c0-1.75.331-2.25 1.492-2.25 1.162 0 1.493.5 1.493 2.25s-.331 2.25-1.493 2.25c-1.161 0-1.492-.5-1.492-2.25zM108.326-86.9c-1.364-.886-.185-.886 1.867 0 .984.425 1.11.658.373.685-.616.022-1.626-.286-2.24-.685zm35.142-2.048c-1.186-2.615.272-4.28 1.86-2.12 1.347 1.834 1.362 3.145.042 3.653-.614.237-1.381-.382-1.902-1.533zm-34.713-.952c.735-2.843 1.515-3.292 3.405-1.96.948.665 1.378 1.21.959 1.21-.42 0-1.138-.374-1.593-.831-.607-.61-1.152-.26-2.042 1.313-1.127 1.992-1.18 2.012-.729.268zm29.879-4.873c-1.186-.901-1.259-1.27-.448-2.252.868-1.051 1.148-1.005 2.701.462 2.692 2.54.757 4.077-2.253 1.79zm-14.531-5.812c-.097-1.959.066-2.063 3.257-2.063 3.518 0 3.699.186 2.544 2.624-.66 1.397-.686 1.384-.39-.189.278-1.477.008-1.688-2.174-1.688-1.989 0-2.555.34-2.813 1.688-.276 1.449-.336 1.396-.424-.372zm7.427.938c-.022-.619.285-1.63.682-2.249.881-1.371.881-.187 0 1.874-.422.987-.654 1.116-.682.375zm-35.149-1.5c0-.459 3.609-.749 9.331-.749 5.724 0 9.33.29 9.33.749 0 .46-3.608.75-9.33.75-5.722 0-9.33-.29-9.33-.75zm8.958-15.257c0-5.031.256-6.478 1.307-7.385 2.045-1.764 3.783-2.136 5.757-1.231 2.35 1.076 3.388 4.175 3.388 10.111v4.763h-10.45l-.002-6.258zm11.945 5.508c0-.413.839-.75 1.866-.75 1.027 0 1.866.337 1.866.75 0 .412-.839.75-1.866.75-1.027 0-1.866-.338-1.866-.75zm5.225-5.167c0-7.085 1.258-9.33 5.225-9.33 3.966 0 5.225 2.247 5.225 9.33v5.917h-10.45v-5.917zm-25.754-3.831c-.283-.459.879-.75 2.985-.75 2.109 0 3.269.291 2.986.75-.254.413-1.597.75-2.986.75-1.389 0-2.731-.337-2.985-.75zm20.529 0c0-.412.839-.75 1.866-.75 1.027 0 1.866.338 1.866.75 0 .413-.839.75-1.866.75-1.027 0-1.866-.337-1.866-.75zm-7.153 67.782c1.623-.626 1.479-1.542-.312-2.013-1.61-.423-2.614.502-1.866 1.717.541.881.63.892 2.178.296zm0-12.747c2.5-.963 1.007-4.794-1.866-4.794-.378 0-.685 1.18-.685 2.624 0 2.651.404 2.997 2.551 2.17zm92.972-5.732c-.016-2.99-.435-6.176-.934-7.077-.762-1.38-.908-.517-.908 5.435 0 5.16.252 7.077.934 7.077.665 0 .928-1.57.908-5.435zm-46.63-30.556c-.267-.434-4.361-.749-9.747-.749-5.694 0-9.287.29-9.287.749 0 .462 3.748.75 9.748.75 6.309 0 9.587-.266 9.286-.75zm-5.598-15.282c0-4.947-.265-6.499-1.241-7.311-1.126-.934-1.159-.872-.34.672.525.991.81 3.806.682 6.748l-.221 5.047-4.851.432-4.852.433 5.413.129 5.412.128v-6.278h-.002zm6.718-13.212c0-1.475-.497-1.5-30.935-1.5-19.818 0-31.1.269-31.396.75-.254.413-.254 1.087 0 1.5.296.481 11.578.749 31.396.749 30.438 0 30.935-.024 30.935-1.499zm-32.099-34.979l11.57-.477-5.598-1.362c-3.079-.75-7.699-1.593-10.265-1.874-2.566-.282-4.666-.772-4.666-1.094 0-.909 10.861-1.706 16.627-1.22 2.86.242 5.044.284 4.858.095-1.097-1.102-11.603-4.101-15.924-4.545-4.322-.446-4.821-.634-3.278-1.251 1.003-.399 5.013-.745 8.913-.77l7.091-.044-3.122-1.369c-1.718-.752-5.221-1.588-7.787-1.859-3.929-.413-4.379-.599-2.851-1.178.998-.379 4.404-.574 7.57-.437l5.758.251-2.396-1.285c-1.319-.705-4-1.513-5.961-1.79-1.961-.277-3.719-.761-3.911-1.073-.499-.812 5.799-1.64 8.328-1.094 2.04.441 2.069.41.673-.723-1.468-1.192-5.481-2.549-8.246-2.791-.821-.071.524-.339 2.986-.597 2.515-.261 3.988-.69 3.359-.976-.616-.279-2.127-.92-3.359-1.419l-2.239-.91 2.986-.495 2.985-.494-2.427-.586c-2.749-.666-3.264-1.899-.79-1.899 1.598 0 1.603-.024.187-1.1-1.415-1.076-1.411-1.103.192-1.125 1.509-.022 1.575-.213.837-2.338-.655-1.888-.971-2.13-1.718-1.313-1.457 1.597-22.781 38.741-22.781 39.686 0 .601 1.594.716 5.413.39 2.981-.248 10.624-.67 16.986-.934zm-84.715 59.11c-.212-.213-.338-1.932-.278-3.822l.106-3.436.455 2.999c.44 2.899.567 3.014 3.814 3.449 1.848.249 3.023.533 2.612.632-1.694.413-6.351.537-6.709.178zm9.63-.073c-.662-.666-.269-6.811.436-6.811.41 0 .746 1.349.746 3v2.999h2.986c1.643 0 2.986.259 2.986.577.002.585-6.586.803-7.153.235zm10.404-.455c-.2-.524-.23-2.252-.066-3.842l.298-2.891.126 3.188.126 3.188h3.483c4.218 0 3.933.67-.444 1.042-2.074.176-3.284-.059-3.523-.685zm10.375.581c-1.117-.377-1.294-6.939-.187-6.939.41 0 .746 1.349.746 2.999v3h3.11c1.71 0 2.917.195 2.68.432-.55.555-5.13.921-6.349.508zm92.635-.377c-.19-.308 1.166-.563 3.014-.563h3.361l.309-3.188c.281-2.891.303-2.842.23.539l-.079 3.727-3.244.024c-1.785.013-3.399-.231-3.591-.539zm10.52.111c-.227-.37 1.098-.674 2.946-.674h3.362l.284-3.188.285-3.188.131 3.563c.07 1.959-.122 3.587-.429 3.616-4.697.463-6.232.434-6.579-.129zm10.124-.08c0-.326 1.342-.594 2.985-.594h2.986v-3c0-1.65.336-2.999.746-2.999.855 0 1.038 6.708.186 6.826-2.763.384-6.903.244-6.903-.233zm10.012.049c-.216-.353 1.118-.643 2.966-.643h3.361l.309-3.188c.288-2.951.305-2.915.23.492l-.079 3.681-3.196.148c-1.758.084-3.374-.137-3.591-.49zm-2.546-7.937c0-.351.923-.624 2.054-.608 1.744.024 2.082-.306 2.257-2.221.508-5.579.552-5.623 5.408-5.623 2.478 0 4.465.333 4.465.75 0 .412-1.828.749-4.065.749h-4.066l-.227 3.563c-.226 3.527-.254 3.565-3.028 3.796-1.539.126-2.798-.056-2.798-.406zM93.396-142.39c0-.412 1.848-.75 4.105-.75h4.105v-3.704c0-2.039.336-3.913.747-4.169.468-.29.746 1.367.746 4.455v4.918h-4.852c-2.736 0-4.851-.326-4.851-.75zm13.438 0c0-.412 1.848-.75 4.105-.75h4.105v-3.704c0-2.039.336-3.913.747-4.169.468-.29.746 1.367.746 4.455v4.918h-4.852c-2.738 0-4.851-.326-4.851-.75zm13.435.04c0-.39 1.765-.812 3.92-.938l3.92-.227.389-4.123c.382-4.042.397-4.064.746-1.125.197 1.65.25 3.926.122 5.062-.228 1.992-.389 2.063-4.667 2.063-2.436-.002-4.43-.322-4.43-.712zm12.69-.04c0-.412 1.848-.75 4.105-.75h4.105v-4.124c0-2.269.336-4.123.747-4.123.422 0 .746 2.125.746 4.873v4.874h-4.852c-2.736 0-4.851-.326-4.851-.75z" fill="#fff"/></mask><g mask="url(#a)"><path transform="matrix(0 1 1 0 -17 -38)" fill="url(#paint0_linear)" d="M0 0h114v366H0z"/></g></g><path d="M184.25 71v-2.25H191V71h-6.75zm6.75-2.25V66.5h2.25v2.25H191zm-9 0V57.5h2.25v11.25H182zm9-9V57.5h2.25v2.25H191zm-6.75-2.25v-2.25H191v2.25h-6.75zM204.5 71v-9h2.25v9h-2.25zm0-11.25V57.5h2.25v2.25h-2.25zm-9 11.25V55.25h9v2.25h-6.75v2.25h6.75V62h-6.75v9h-2.25zm13.5 0V57.5h2.25v2.25H218V57.5h2.25V71H218v-9h-6.75v9H209zm2.25-13.5v-2.25H218v2.25h-6.75zM222.5 71V55.25h11.25v2.25h-9v2.25h4.5V62h-4.5v9h-2.25zm18 0V57.5H236v-2.25h11.25v2.25h-4.5V71h-2.25z" fill="#B6B6B6"/><defs><linearGradient id="paint0_linear" x1="22" y1="-5" x2="114" y2="322" gradientUnits="userSpaceOnUse"><stop stop-color="#5F72BE"/><stop offset="1" stop-color="#9921E8"/></linearGradient><clipPath id="clip0"><path fill="#fff" transform="translate(4)" d="M0 0h250v51.786H0z"/></clipPath><filter id="filter0_d" x="0" y="0" width="258" height="59.786" filterUnits="userSpaceOnUse" color-interpolation-filters="sRGB"><feFlood flood-opacity="0" result="BackgroundImageFix"/><feColorMatrix in="SourceAlpha" values="0 0 0 0 0 0 0 0 0 0 0 0 0 0 0 0 0 0 127 0"/><feOffset dy="4"/><feGaussianBlur stdDeviation="2"/><feColorMatrix values="0 0 0 0 0 0 0 0 0 0 0 0 0 0 0 0 0 0 0.25 0"/><feBlend in2="BackgroundImageFix" result="effect1_dropShadow"/><feBlend in="SourceGraphic" in2="effect1_dropShadow" result="shape"/></filter></defs></svg>