<svg width="34" height="42" fill="none" xmlns="http://www.w3.org/2000/svg"><path d="M22.633.325a1.016 1.016 0 00-.73-.325H5.519C2.496 0 0 2.486 0 5.509V36.49C0 39.514 2.496 42 5.519 42h22.237c3.024 0 5.52-2.486 5.52-5.509V11.89c0-.264-.123-.518-.295-.71L22.633.325zm.294 3.256l6.93 7.274h-4.505a2.416 2.416 0 01-2.425-2.414V3.58zm4.83 36.39H5.518c-1.897 0-3.49-1.572-3.49-3.48V5.51c0-1.897 1.583-3.48 3.49-3.48h15.38v6.412a4.438 4.438 0 004.453 4.443h5.894v23.607c0 1.908-1.582 3.48-3.49 3.48z" fill="#fff"/><path d="M24.987 32.971H8.288c-.558 0-1.014.457-1.014 1.015 0 .558.456 1.014 1.014 1.014h16.709c.558 0 1.014-.456 1.014-1.014a1.02 1.02 0 00-1.024-1.015zm-9.09-3.641c.193.202.457.324.74.324.285 0 .548-.122.74-.325l5.946-6.381a1.01 1.01 0 10-1.481-1.38l-4.19 4.494V14.984c0-.558-.457-1.014-1.015-1.014-.558 0-1.014.456-1.014 1.014v11.078l-4.18-4.494a1.011 1.011 0 00-1.43-.05 1.011 1.011 0 00-.05 1.43l5.934 6.381z" fill="#fff"/></svg>