<svg xmlns="http://www.w3.org/2000/svg" xmlns:xlink="http://www.w3.org/1999/xlink" viewBox="0 0 61.12 38.05"><defs><style>.cls-1{isolation:isolate;}.cls-2,.cls-6{fill:#ce8a00;}.cls-3,.cls-60{fill:#dfc2a4;}.cls-14,.cls-23,.cls-27,.cls-4,.cls-42,.cls-45,.cls-48,.cls-62{opacity:0.3;}.cls-12,.cls-14,.cls-16,.cls-17,.cls-18,.cls-20,.cls-21,.cls-22,.cls-23,.cls-24,.cls-25,.cls-26,.cls-27,.cls-28,.cls-31,.cls-33,.cls-35,.cls-37,.cls-39,.cls-4,.cls-41,.cls-42,.cls-44,.cls-45,.cls-47,.cls-48,.cls-5,.cls-51,.cls-55,.cls-56,.cls-6,.cls-60,.cls-61,.cls-62{mix-blend-mode:multiply;}.cls-4{fill:url(#linear-gradient);}.cls-16,.cls-17,.cls-20,.cls-24,.cls-25,.cls-26,.cls-5,.cls-6{opacity:0.2;}.cls-5{fill:url(#linear-gradient-2);}.cls-7{fill:#84a6af;}.cls-8{fill:url(#radial-gradient);}.cls-9{fill:url(#radial-gradient-2);}.cls-10{fill:url(#linear-gradient-3);}.cls-11{fill:url(#linear-gradient-4);}.cls-12{opacity:0.15;fill:url(#radial-gradient-3);}.cls-13,.cls-45{fill:#d88e00;}.cls-14{fill:url(#linear-gradient-5);}.cls-15{fill:url(#linear-gradient-6);}.cls-16{fill:url(#linear-gradient-7);}.cls-17{fill:url(#linear-gradient-8);}.cls-18,.cls-31,.cls-33,.cls-35,.cls-39,.cls-41,.cls-47,.cls-51,.cls-55,.cls-56,.cls-60{opacity:0.4;}.cls-18{fill:url(#linear-gradient-9);}.cls-19,.cls-27{fill:#f7b747;}.cls-20{fill:#b47c00;}.cls-21,.cls-22,.cls-37,.cls-44{opacity:0.5;}.cls-21{fill:url(#linear-gradient-10);}.cls-22{fill:url(#linear-gradient-11);}.cls-23{fill:url(#linear-gradient-12);}.cls-24{fill:url(#linear-gradient-13);}.cls-25{fill:url(#linear-gradient-14);}.cls-26{fill:url(#linear-gradient-15);}.cls-28{fill:#ffc485;opacity:0.6;}.cls-29{fill:#d06f02;}.cls-30{fill:#f2c690;}.cls-31,.cls-36{fill:#ebd1ae;}.cls-32,.cls-33{fill:#efd097;}.cls-34,.cls-35,.cls-37{fill:#f3d5a2;}.cls-38,.cls-39{fill:#e9cb9b;}.cls-40{fill:#ffd9aa;}.cls-41,.cls-42{fill:#e2dbc2;}.cls-43{fill:#ffd995;}.cls-46,.cls-48{fill:#f99700;}.cls-47{fill:url(#linear-gradient-16);}.cls-49{fill:#ed8b00;}.cls-50{fill:#e88600;}.cls-51{fill:url(#linear-gradient-17);}.cls-52{fill:#e68400;}.cls-53{fill:#f3a500;}.cls-54{fill:#ed8a00;}.cls-55{fill:url(#linear-gradient-18);}.cls-56{fill:url(#linear-gradient-19);}.cls-57{fill:#ff9400;}.cls-58{fill:#e88900;}.cls-59{fill:#f8a800;}.cls-61{opacity:0.1;fill:url(#linear-gradient-20);}.cls-62{fill:url(#linear-gradient-21);}</style><linearGradient id="linear-gradient" x1="25.2" y1="17.17" x2="26.65" y2="8.64" gradientUnits="userSpaceOnUse"><stop offset="0" stop-color="#83756d"/><stop offset="0.99" stop-color="#76716a"/></linearGradient><linearGradient id="linear-gradient-2" x1="28.15" y1="25.04" x2="40.9" y2="25.04" xlink:href="#linear-gradient"/><radialGradient id="radial-gradient" cx="25.58" cy="7.06" r="10.19" gradientUnits="userSpaceOnUse"><stop offset="0" stop-color="#ce8b19"/><stop offset="0.99" stop-color="#af800a"/></radialGradient><radialGradient id="radial-gradient-2" cx="9.66" cy="24.89" r="10.01" gradientUnits="userSpaceOnUse"><stop offset="0" stop-color="#bdad74"/><stop offset="1" stop-color="#a9906a"/></radialGradient><linearGradient id="linear-gradient-3" x1="31.37" y1="32.24" x2="61.12" y2="32.24" gradientUnits="userSpaceOnUse"><stop offset="0" stop-color="#7c6961"/><stop offset="0.33" stop-color="#7c6961"/></linearGradient><linearGradient id="linear-gradient-4" x1="32.68" y1="24.62" x2="60.45" y2="24.62" gradientUnits="userSpaceOnUse"><stop offset="0" stop-color="#83756d"/><stop offset="0.98" stop-color="#896c5c"/></linearGradient><radialGradient id="radial-gradient-3" cx="16.92" cy="7.8" r="5.08" xlink:href="#radial-gradient"/><linearGradient id="linear-gradient-5" x1="2.32" y1="15.29" x2="17.31" y2="15.29" gradientUnits="userSpaceOnUse"><stop offset="0" stop-color="#6b6661"/><stop offset="1" stop-color="#626662"/></linearGradient><linearGradient id="linear-gradient-6" x1="0.94" y1="8.08" x2="9.75" y2="12.69" xlink:href="#radial-gradient-2"/><linearGradient id="linear-gradient-7" x1="10.14" y1="12.83" x2="18.02" y2="12.83" xlink:href="#linear-gradient-5"/><linearGradient id="linear-gradient-8" x1="13.47" y1="35.46" x2="17.58" y2="11.37" gradientUnits="userSpaceOnUse"><stop offset="0" stop-color="#6b6661"/><stop offset="1" stop-color="#8b847f"/></linearGradient><linearGradient id="linear-gradient-9" x1="29.82" y1="6.38" x2="30.74" y2="0.98" gradientUnits="userSpaceOnUse"><stop offset="0" stop-color="#83756d"/><stop offset="0.99" stop-color="#8b847f"/></linearGradient><linearGradient id="linear-gradient-10" x1="35.77" y1="21.8" x2="54.78" y2="21.8" xlink:href="#linear-gradient-4"/><linearGradient id="linear-gradient-11" x1="35.77" y1="22.93" x2="54.81" y2="22.93" xlink:href="#linear-gradient-4"/><linearGradient id="linear-gradient-12" x1="31.7" y1="31.24" x2="59.01" y2="31.24" xlink:href="#linear-gradient-4"/><linearGradient id="linear-gradient-13" x1="32.68" y1="29.69" x2="44.08" y2="29.69" xlink:href="#linear-gradient-4"/><linearGradient id="linear-gradient-14" x1="53.71" y1="34.4" x2="61.12" y2="34.4" xlink:href="#linear-gradient-4"/><linearGradient id="linear-gradient-15" x1="44.63" y1="27.93" x2="60.45" y2="27.93" xlink:href="#linear-gradient-4"/><linearGradient id="linear-gradient-16" x1="24.28" y1="5.71" x2="25.25" y2="5.71" gradientUnits="userSpaceOnUse"><stop offset="0.01" stop-color="#f4af00"/><stop offset="0.32" stop-color="#f5b103"/><stop offset="0.59" stop-color="#f7b70e"/><stop offset="0.83" stop-color="#fac01f"/><stop offset="1" stop-color="#fdca30"/></linearGradient><linearGradient id="linear-gradient-17" x1="26.69" y1="5.79" x2="28.02" y2="5.79" xlink:href="#linear-gradient-16"/><linearGradient id="linear-gradient-18" x1="108.15" y1="-63.36" x2="109.34" y2="-63.36" gradientTransform="matrix(0.94, -0.34, 0.34, 0.94, -60.03, 99.68)" xlink:href="#linear-gradient-16"/><linearGradient id="linear-gradient-19" x1="686.56" y1="81.45" x2="687.74" y2="81.45" gradientTransform="matrix(-0.75, -0.18, -0.23, 0.97, 560.69, 45.06)" xlink:href="#linear-gradient-16"/><linearGradient id="linear-gradient-20" x1="1.52" y1="33.42" x2="3.65" y2="20.97" xlink:href="#linear-gradient-8"/><linearGradient id="linear-gradient-21" x1="13.43" y1="12.05" x2="13.8" y2="9.85" xlink:href="#linear-gradient-8"/></defs><title>зерно</title><g class="cls-1"><g id="Слой_2" data-name="Слой 2"><g id="_1" data-name="1"><path class="cls-2" d="M41.22,30a7,7,0,0,1-1.4,1c-1.59.91-4.68,2.21-9.92,2.68q-.81.07-1.68.12c-.53,0-1.08,0-1.64.06-11.07.2-11.2-2.09-11.2-2.09l-.33-16.28L15,12.28a16.89,16.89,0,0,0,5.93,1.57,39.07,39.07,0,0,0,5.59.26c5.24-.11,8.8-1.52,10.32-2.66l.23.9c.24.93.62,2.34,1,4,1,3.74,2.21,8.68,2.8,11.72C41.06,28.82,41.17,29.48,41.22,30Z"/><path class="cls-3" d="M32.3,24.12c-.32-.09-.65-.17-1-.23a17.25,17.25,0,0,0-4.8-.13,25.91,25.91,0,0,0-4.75.92c0-.56-1-1.77-1-1.77-1.06-1.62-.71-4.41-.61-5,0,0,.21-.09.64-.23a26.17,26.17,0,0,1,4.57-.94,15,15,0,0,1,4.45.11,9.81,9.81,0,0,1,1.78.45A9,9,0,0,1,32.3,24.12Z"/><path class="cls-4" d="M37.06,12.35c-1.7,1.37-6.89,3-11.06,2.67-4.55-.41-10.32.61-10.72.61,0,0-.12-.07-.23-.19L15,12.28c2,1.13,6.25,1.94,11.52,1.83s8.8-1.52,10.32-2.66Z"/><path class="cls-5" d="M40.9,28,39.82,31c-1.59.91-4.68,2.21-9.92,2.68q-.81.07-1.68.12a5.8,5.8,0,0,1,3.65-6.18A7.79,7.79,0,0,1,31,22.1c.65-2.66,5.35-4.73,7.14-5.78C39.07,20.06,40.31,25,40.9,28Z"/><path class="cls-6" d="M29.9,33.63c-1,.1-2.13.16-3.32.18-11.07.2-11.2-2.09-11.2-2.09l-.33-16.28L15,12.28a16.89,16.89,0,0,0,5.93,1.57c-1.18,4.65-1.84,9.66-.48,8.76.3-.2,3.64-1.11,5.06-.41,0,0-4.56,1-4.45,2.33s4.55,1.32,6.57,4.25A21.19,21.19,0,0,1,29.9,33.63Z"/><polygon class="cls-7" points="22.53 16.38 23.14 17.75 23.64 17.64 23.34 16.18 22.53 16.38"/><polygon class="cls-7" points="27.29 16.13 27.39 17.24 27.84 17.24 27.94 16.07 27.29 16.13"/><polygon class="cls-7" points="20.4 20.43 20.35 20.93 19.39 21.39 19.19 20.63 20.4 20.43"/><polygon class="cls-7" points="25.06 23.56 25.16 24.58 25.77 24.52 25.62 23.51 25.06 23.56"/><polygon class="cls-7" points="29.41 23.21 29.66 24.17 30.32 24.12 29.97 23.01 29.41 23.21"/><polygon class="cls-7" points="31.79 18.66 31.89 19.31 33.05 18.91 32.8 18.3 31.79 18.66"/><path class="cls-8" d="M37.58,10.67a3.09,3.09,0,0,1-.75.78c-1.52,1.14-5.08,2.55-10.32,2.66a40.28,40.28,0,0,1-5.69-.27A16.67,16.67,0,0,1,15,12.28a3.09,3.09,0,0,1-1-.87c-1-1.55-1.15-6.28-.67-8a3.22,3.22,0,0,1,1.84-1.69A22.52,22.52,0,0,1,20.37.21a8,8,0,0,1,3.17.61C24.08,1,26.37.14,28.26,0s4.93,2.09,6,2.63,2.9.27,3.51,1.41S38.18,9.52,37.58,10.67Z"/><path class="cls-9" d="M18.35,33.54c-.27.52-3,1.75-7.18,1.94l-.38,0c-3.67.11-5.59-.77-6.63-1.42a5.93,5.93,0,0,1-.52-.34c-.88-.61-2-.14-2.5-.47S.06,27.4.4,24.16c.07-.64.18-1.37.32-2.13h0c.47-2.54,1.23-5.41,1.6-6.65.07-.24.13-.41.17-.52a10.49,10.49,0,0,0,3.24,0c1.68-.3,4.21,0,6.64,0,.31,0,.61,0,.92,0a9.52,9.52,0,0,0,3.56-.58c.09.3.31,1,.46,1.65a7,7,0,0,1,.16,1,29.11,29.11,0,0,0,1.15,6.55C19.56,26.66,18.62,33,18.35,33.54Z"/><path class="cls-10" d="M61.12,33.61c0,.27-1.62,1.41-4.92,2.76a16.53,16.53,0,0,1-2.49.77,31.68,31.68,0,0,1-13.91.24c-5.53-1.41-8.43-3.64-8.43-4.31a2.37,2.37,0,0,1,.33-.86A26.75,26.75,0,0,1,34,28.88c2.08,3.15,6.54,7.06,13,5.6,5.38-1.21,9.3-5,11.46-8.06a5.88,5.88,0,0,1,.53.66,13.36,13.36,0,0,1,1.8,4.57A14.42,14.42,0,0,1,61.12,33.61Z"/><path class="cls-11" d="M58.48,26.42c-2.16,3-6.08,6.85-11.46,8.06a11.77,11.77,0,0,1-2.36.31h-.58A12.6,12.6,0,0,1,34,28.88a9,9,0,0,1-1.3-2.76,3.86,3.86,0,0,1,.09-1.54,14.59,14.59,0,0,1,4.63-7.1c3.78-3.37,4.12-4.12,11.74-1.35,5.1,1.85,8.35,3.64,10,4.94.82.65,1.23,1.18,1.28,1.54S59.82,24.56,58.48,26.42Z"/><path class="cls-12" d="M20.82,13.84A16.67,16.67,0,0,1,15,12.28a3.09,3.09,0,0,1-1-.87c-1-1.55-1.15-6.28-.67-8a3.22,3.22,0,0,1,1.84-1.69c.17,1.58.6,4.49.75,5.16.21.91,3,2.33,3,2.33C19.22,10,20.28,12.55,20.82,13.84Z"/><path class="cls-13" d="M16.29,21.9l-.61,5.47-7.46.08-1.44,0S5.55,22.17,6,22.2s1,.05,1.63.05C10.86,22.25,16.29,21.9,16.29,21.9Z"/><path class="cls-14" d="M17.31,15.92a17.23,17.23,0,0,1-7.74-.13,6.26,6.26,0,0,0-3.84,0,4.44,4.44,0,0,1-3.41-.41c.07-.24.13-.41.17-.52a10.49,10.49,0,0,0,3.24,0c1.89-.34,4.86.13,7.56,0a9.52,9.52,0,0,0,3.56-.58C16.94,14.57,17.16,15.26,17.31,15.92Z"/><path class="cls-15" d="M18,11.08a11.87,11.87,0,0,1-1,3,1.41,1.41,0,0,1-.21.16,7.85,7.85,0,0,1-3.6.85,26.86,26.86,0,0,1-3.11-.07,20.77,20.77,0,0,0-4.38,0,9.77,9.77,0,0,1-3.27-.16l-.29,0c-.07-.08-.18-.18-.32-.31C.8,13.5-.4,11,.13,10.87c.34-.07,8.77.47,9,.47h0a21.38,21.38,0,0,1,3.56-.67,14.31,14.31,0,0,1,1.65-.14,9.35,9.35,0,0,1,3.68.41S18,11,18,11.08Z"/><path class="cls-16" d="M17.06,14.11a1.41,1.41,0,0,1-.21.16,7.85,7.85,0,0,1-3.6.85,26.86,26.86,0,0,1-3.11-.07,18.17,18.17,0,0,0,3.15-1.48,19.47,19.47,0,0,0,1-3,9.35,9.35,0,0,1,3.68.41A10.39,10.39,0,0,1,17.06,14.11Z"/><path class="cls-17" d="M18.35,33.54c-.27.52-3,1.75-7.18,1.94.6-.85,1.23-1.77,1.78-2.62,1.62-2.49,2.09-6.95,1.82-9.17a36.42,36.42,0,0,0-2.4-8.82c.31,0,.61,0,.92,0a9.52,9.52,0,0,0,3.56-.58c.09.3.31,1,.46,1.65a7,7,0,0,1,.16,1,29.11,29.11,0,0,0,1.15,6.55C19.56,26.66,18.62,33,18.35,33.54Z"/><path class="cls-18" d="M25.09,1.76c.61-.07,2.84.47,3.78.4s2.43,1,4.05,1.15a3.16,3.16,0,0,1,2.63,3.11v.07a2.71,2.71,0,0,0,.57-2.2c-.2-.71-2.93-1.52-3.54-1.92a11.67,11.67,0,0,0-8.09-.61A5.85,5.85,0,0,0,25.09,1.76Z"/><path class="cls-19" d="M35.55,6.42V6.5c-.1,1.26-2.4,2.76-4.38,3.49a9.75,9.75,0,0,1-1.62.41,27.51,27.51,0,0,1-8.77-.07c-4-.68-6.05-2.89-5.87-4.18A5,5,0,0,1,15.6,4.1C16.71,2.33,18.79,2,20.24,1.76a23,23,0,0,1,4.25,0,5.79,5.79,0,0,0,.6,0c.61-.07,2.84.47,3.78.4s2.43,1,4.05,1.15A3.16,3.16,0,0,1,35.55,6.42Z"/><path class="cls-20" d="M8.22,27.45l-1.44,0S5.55,22.17,6,22.2s1,.05,1.63.05A46,46,0,0,0,8.22,27.45Z"/><path class="cls-21" d="M53,21.29a11.84,11.84,0,0,1-5-3.13c-1.32-1.52-3.24-.81-3.65-.91s-2-1-2.53-.61-1.21,1.41-2.32,1.52-1.32,1.62-1.32,1.62l-.91.7c-.74.58-.61,1.9-.54,2.37a.56.56,0,0,1,0,.16l0-.16c-.06-.25-.25-.6-.78.37-.71,1.31.21,2.53,1.22,3.84h0a7.37,7.37,0,0,1-.82-1.28c-.27-.68.88-1.82.88-1.82-.27-1.08,1-2.3,1.68-2.09,0,0-.34-1.22.2-1.83s1.76.68,1.76.68a4.61,4.61,0,0,1,1.42-2.43c1-.67,1.55.88,1.55.88a3.25,3.25,0,0,1,2.16-.81c1.08.13,2.29,2.09,2.63,2.22A11.89,11.89,0,0,1,52.42,23c.88,1.15.88,2.16,1.42,2.43.16.08.19.21.11.4a2,2,0,0,0,.39-.3C55.45,24.43,54.24,21.6,53,21.29Z"/><path class="cls-22" d="M36.8,22.85l0,.16A.56.56,0,0,0,36.8,22.85Z"/><path class="cls-19" d="M54,25.84a13,13,0,0,1-2.27,2.44C49.85,30,46.82,32,43.45,31.72c-2.48-.2-5-2.94-6.2-4.65a8.16,8.16,0,0,1-.82-1.29c-.2-.5.36-1.24.68-1.61L37.3,24c-.26-1.08,1-2.3,1.69-2.09,0,0-.34-1.22.21-1.83s1.75.68,1.75.68a4.64,4.64,0,0,1,1.41-2.43c1-.67,1.56.88,1.56.88a3.25,3.25,0,0,1,2.16-.81c1.08.13,2.29,2.09,2.63,2.22A12,12,0,0,1,52.42,23a8.54,8.54,0,0,1,1,1.94.94.94,0,0,0,.42.49C54,25.52,54,25.65,54,25.84Z"/><path class="cls-23" d="M59,27.08c-.86,2.18-4,8.06-15.19,8.89C36.1,36.54,33,34.1,31.7,32.21A26.75,26.75,0,0,1,34,28.88c2.08,3.15,6.54,7.06,13,5.6,5.38-1.21,9.3-5,11.46-8.06A5.88,5.88,0,0,1,59,27.08Z"/><path class="cls-24" d="M44.08,34.8A12.6,12.6,0,0,1,34,28.88a9,9,0,0,1-1.3-2.76,3.86,3.86,0,0,1,.09-1.54C35.2,27,37.15,28,38.76,29.49,40,30.64,42.65,33.34,44.08,34.8Z"/><path class="cls-25" d="M61.12,33.61c0,.27-1.62,1.41-4.92,2.76a16.53,16.53,0,0,1-2.49.77,54.55,54.55,0,0,1,7.1-5.49A14.42,14.42,0,0,1,61.12,33.61Z"/><path class="cls-26" d="M58.48,26.42c-2.16,3-6.08,6.85-11.46,8.06a11.77,11.77,0,0,1-2.36.31l0,0c4.25-1.21,8.19-5.36,10.12-8.6,1.59-2.69,2.7-4.4,4.42-5.08.82.65,1.23,1.18,1.28,1.54S59.82,24.56,58.48,26.42Z"/><path class="cls-27" d="M26.71,9.15a15.85,15.85,0,0,0,2.84,1.25,27.51,27.51,0,0,1-8.77-.07c-4-.68-6.05-2.89-5.87-4.18A5,5,0,0,1,15.6,4.1a2.2,2.2,0,0,0,1.09,2,1.75,1.75,0,0,0,.91,2.23,3.22,3.22,0,0,0,2.94,0s0,1.42,2.43,1.52A7,7,0,0,0,26.71,9.15Z"/><path class="cls-28" d="M54,25.84a13,13,0,0,1-2.27,2.44C49.85,30,46.82,32,43.45,31.72c-2.48-.2-5-2.94-6.2-4.65a8.16,8.16,0,0,1-.82-1.29c-.2-.5.36-1.24.68-1.61-.09,1,.06,1.69.53,1.95a4,4,0,0,0,1.49,2.56,2.32,2.32,0,0,0,2.22.2,2.79,2.79,0,0,0,1.62,2,4.79,4.79,0,0,0,4.73-1.15s2.15-.13,2.83-1.14c0,0,2.45-1.88,2.89-3.6a.94.94,0,0,0,.42.49C54,25.52,54,25.65,54,25.84Z"/><path class="cls-28" d="M43.71,28.21c.19.1-2-1.08-.67-1.76C43,26.45,43,27.8,43.71,28.21Z"/><polygon class="cls-29" points="8.75 21.8 9 22.71 9.3 22.66 9.05 21.75 8.75 21.8"/><polygon class="cls-29" points="12.9 26.96 12.8 27.87 13.15 27.87 13.15 26.96 12.9 26.96"/><polygon class="cls-29" points="13.1 21.65 13 22.56 13.4 22.46 13.51 21.55 13.1 21.65"/><polygon class="cls-29" points="6.72 26.1 6.78 26.56 5.86 26.66 5.92 26.3 6.72 26.1"/><polygon class="cls-29" points="15.63 24.73 16.39 24.99 16.49 24.53 15.63 24.33 15.63 24.73"/><polygon class="cls-29" points="8.95 27.01 8.75 27.92 9.15 27.92 9.3 27.11 8.95 27.01"/><path class="cls-30" d="M47.94,22.16a.92.92,0,0,1-.09.38c-.19.44-.67.83-.88.71s-.08-.24,0-.48c.15-.47.53-1.1.81-1C47.88,21.81,47.94,22,47.94,22.16Z"/><path class="cls-31" d="M47.94,22.16a.92.92,0,0,1-.09.38c-.19.44-.67.83-.88.71s-.08-.24,0-.48A3.47,3.47,0,0,0,47.94,22.16Z"/><path class="cls-32" d="M43.73,23.17c0,.34-.2.65-.35.69l-.26-.49a1.28,1.28,0,0,1-.22-1.09.34.34,0,0,1,.11-.16c.16-.14.38.05.62.4A1,1,0,0,1,43.73,23.17Z"/><path class="cls-33" d="M43.73,23.17c0,.34-.2.65-.35.69l-.26-.49a1.28,1.28,0,0,1-.22-1.09.34.34,0,0,1,.11-.16C43.17,22.38,43.35,22.93,43.73,23.17Z"/><path class="cls-34" d="M41.35,25.68a1.49,1.49,0,0,1-.48.38,2.39,2.39,0,0,1,0-1.6c.14-.28.29-.41.41-.42s.35.23.39.66A1.24,1.24,0,0,1,41.35,25.68Z"/><path class="cls-35" d="M41.35,25.68a1.49,1.49,0,0,1-.48.38,2.39,2.39,0,0,1,0-1.6c.14-.28.29-.41.41-.42A2.58,2.58,0,0,0,41.35,25.68Z"/><path class="cls-36" d="M46.27,26.26c-.13.44-.42.92-.63.9s-.22-.24-.19-.5c.07-.51.42-1.21.73-1.13S46.38,25.91,46.27,26.26Z"/><path class="cls-31" d="M46.27,26.26c-.13.44-.42.92-.63.9s-.22-.24-.19-.5Z"/><path class="cls-32" d="M46.6,24.47a1.38,1.38,0,0,1-1.92.21.16.16,0,0,1,0-.1c.1-.34,1.68-.52,1.93-.27A.11.11,0,0,1,46.6,24.47Z"/><path class="cls-33" d="M46.6,24.47a1.38,1.38,0,0,1-1.92.21,1.72,1.72,0,0,0,.65.07,1.74,1.74,0,0,0,1.27-.44A.11.11,0,0,1,46.6,24.47Z"/><path class="cls-32" d="M47.8,25.35l0-.05c.15-.24.89-1.32,1.24-1.15a.15.15,0,0,1,.08.08C49.47,24.74,48.13,25.52,47.8,25.35Z"/><path class="cls-33" d="M47.8,25.35l0-.05a2.25,2.25,0,0,0,1.24-1.15.15.15,0,0,1,.08.08C49.47,24.74,48.13,25.52,47.8,25.35Z"/><path class="cls-34" d="M50,23.33c-.39.15-.74-.75-.62-1.2a.33.33,0,0,1,.11-.18c.26-.19.64.47.69.95C50.14,23.11,50.1,23.28,50,23.33Z"/><path class="cls-37" d="M50,23.33c-.39.15-.74-.75-.62-1.2a1.92,1.92,0,0,0,.8.77C50.14,23.11,50.1,23.28,50,23.33Z"/><path class="cls-38" d="M45.57,28.4c-.43.2-1.17,0-1.28-.26s.12-.32.39-.41c.48-.16,1.22-.13,1.2.24A.5.5,0,0,1,45.57,28.4Z"/><path class="cls-39" d="M45.57,28.4c-.43.2-1.17,0-1.28-.26s.12-.32.39-.41A2.08,2.08,0,0,0,45.57,28.4Z"/><path class="cls-40" d="M51.06,24.48h0a.8.8,0,0,1-.5.52.88.88,0,0,1-.77,0,.06.06,0,0,0,0,0c0-.2,0-.51.47-.62A1,1,0,0,1,51.06,24.48Z"/><path class="cls-41" d="M51.06,24.48h0a2.32,2.32,0,0,0-1.28.52c0-.2,0-.51.47-.62A1,1,0,0,1,51.06,24.48Z"/><path class="cls-34" d="M38.81,25.34c-.11.38-.46.81-.86.75-.17,0-.13-.32,0-.62s.48-.79.72-.67S38.87,25.1,38.81,25.34Z"/><path class="cls-35" d="M38.81,25.34c-.11.38-.46.81-.86.75-.17,0-.13-.32,0-.62A1.62,1.62,0,0,0,38.81,25.34Z"/><path class="cls-34" d="M41.09,28.38c-.24.11-1.17-.46-1.11-.9a.35.35,0,0,1,.09-.17c.3-.32,1,.3,1.12.73C41.23,28.2,41.21,28.32,41.09,28.38Z"/><path class="cls-35" d="M41.09,28.38c-.24.11-1.17-.46-1.11-.9a2.62,2.62,0,0,0,1.21.56C41.23,28.2,41.21,28.32,41.09,28.38Z"/><path class="cls-40" d="M47.33,29.59c-.06-.08,0-.25.16-.43.29-.37.85-.78,1-.56s0,.34-.17.55C48.06,29.51,47.51,29.84,47.33,29.59Z"/><path class="cls-42" d="M47.33,29.59c-.06-.08,0-.25.16-.43a6.21,6.21,0,0,0,.88,0C48.06,29.51,47.51,29.84,47.33,29.59Z"/><path class="cls-43" d="M41.16,21.35c-.09.51-1,1.36-1.25,1.16a.37.37,0,0,1-.09-.37c.1-.55.89-1.33,1.25-1.06A.25.25,0,0,1,41.16,21.35Z"/><path class="cls-41" d="M41.16,21.35c-.09.51-1,1.36-1.25,1.16a.37.37,0,0,1-.09-.37A5.1,5.1,0,0,0,41.16,21.35Z"/><path class="cls-34" d="M45.2,20.78c0,.39-.14.76-.31.78s-.38-.42-.37-.87.18-1,.41-.84S45.22,20.39,45.2,20.78Z"/><path class="cls-35" d="M45.2,20.78a1,1,0,0,0-.68-.09c0-.49.18-1,.41-.84S45.22,20.39,45.2,20.78Z"/><g class="cls-44"><path class="cls-13" d="M30.53,9.42l-.17.06a.17.17,0,0,1,0-.09,1.34,1.34,0,0,1,.3-.78,1.58,1.58,0,0,1,.47-.42,3.19,3.19,0,0,1,1.15-.43,1.72,1.72,0,0,1-.24.79,1.12,1.12,0,0,1-.21.23A5.11,5.11,0,0,1,30.53,9.42Z"/><path class="cls-45" d="M30.53,9.42l-.19,0a1.34,1.34,0,0,1,.3-.78,1.58,1.58,0,0,1,.47-.42A.81.81,0,0,0,31,8.6a5.27,5.27,0,0,1,1,0,1.12,1.12,0,0,1-.21.23A5.11,5.11,0,0,1,30.53,9.42Z"/><path class="cls-46" d="M25.45,5.82a1.61,1.61,0,0,1-.75.72,2.38,2.38,0,0,1-.28.12s-.09,0-.13-.67.69-1.09.95-1.23h0A1,1,0,0,1,25.45,5.82Z"/><path class="cls-47" d="M24.7,6.54a2.38,2.38,0,0,1-.28.12s-.09,0-.13-.67.69-1.09.95-1.23h0A2.59,2.59,0,0,0,24.7,6.54Z"/><path class="cls-46" d="M25.54,4a.38.38,0,0,1-.42.07,1.17,1.17,0,0,1-.63-.49,2.67,2.67,0,0,1-.25-1.36.27.27,0,0,1,.1,0,1.3,1.3,0,0,1,.83.32C25.51,2.85,25.75,3.71,25.54,4Z"/><path class="cls-48" d="M25.54,4a.38.38,0,0,1-.42.07,2.61,2.61,0,0,0,.05-.58,2.27,2.27,0,0,0-.83-1.27,1.3,1.3,0,0,1,.83.32C25.51,2.85,25.75,3.71,25.54,4Z"/><path class="cls-49" d="M28.76,3.18c.11.4.61,1.22,1.38,1.17s.84-.7.08-1A2.56,2.56,0,0,0,28.76,3.18Z"/><path class="cls-50" d="M28.09,6.22c-.32.43-.83.74-1.14.56a.67.67,0,0,1-.25-.53C26.61,5.33,27.9,4.84,28,4.8h0A1.38,1.38,0,0,1,28.09,6.22Z"/><path class="cls-51" d="M27,6.78a.67.67,0,0,1-.25-.53C26.61,5.33,27.9,4.84,28,4.8A2.29,2.29,0,0,0,27,6.78Z"/><path class="cls-52" d="M31.27,7.28A.77.77,0,0,1,31,7.17a1.86,1.86,0,0,1-.8-1.67,4.79,4.79,0,0,1,1.58.81C32,6.63,31.82,7.36,31.27,7.28Z"/><path class="cls-48" d="M31.27,7.28a2.35,2.35,0,0,0-.21-.93,2.81,2.81,0,0,0-.9-.85,4.79,4.79,0,0,1,1.58.81C32,6.63,31.82,7.36,31.27,7.28Z"/><path class="cls-53" d="M17.57,7.25a.34.34,0,0,1,0-.34c.35-.79,2.07-.29,2,0v0C19.25,7.55,17.84,7.67,17.57,7.25Z"/><path class="cls-48" d="M17.61,7.21l0,0a.34.34,0,0,1,0-.34c.35-.79,2.07-.29,2,0v0A2.94,2.94,0,0,0,17.61,7.21Z"/><path class="cls-54" d="M22,4s-.07.15-.38.23a1.44,1.44,0,0,1-.33.05c-.6,0-1-.67-1.23-.89a1.57,1.57,0,0,1,.37-.26.81.81,0,0,1,.76,0A2,2,0,0,1,22,4Z"/><path class="cls-55" d="M22,4s-.07.15-.38.23a1.94,1.94,0,0,0-1.19-1.1.81.81,0,0,1,.76,0A2,2,0,0,1,22,4Z"/><path class="cls-54" d="M26.52,3.92s.06.14.31.17h.26c.47,0,.78-.82.93-1.07a1,1,0,0,0-.3-.19.55.55,0,0,0-.59.08A2.55,2.55,0,0,0,26.52,3.92Z"/><path class="cls-56" d="M26.52,3.92s.06.14.31.17a2.17,2.17,0,0,1,.89-1.27.55.55,0,0,0-.59.08A2.55,2.55,0,0,0,26.52,3.92Z"/><path class="cls-57" d="M29.11,8.79a.64.64,0,0,1-.43.15c-.27,0-.4-.31-.33-.7s.64-.73.89-.89h0a.28.28,0,0,0,.08-.06S29.67,8.42,29.11,8.79Z"/><path class="cls-48" d="M28.65,8.45a2.48,2.48,0,0,0,0,.49c-.27,0-.4-.31-.33-.7s.64-.73.89-.89A1.68,1.68,0,0,0,28.65,8.45Z"/><path class="cls-57" d="M16.26,6.37a.7.7,0,0,1-.43.14c-.27,0-.4-.31-.33-.7s.64-.73.89-.89h0l.08-.06S16.82,6,16.26,6.37Z"/><path class="cls-48" d="M15.8,6a2.48,2.48,0,0,0,0,.49c-.27,0-.4-.31-.33-.7s.64-.73.89-.89A1.68,1.68,0,0,0,15.8,6Z"/><path class="cls-46" d="M18.27,5.61c-.12,0-.28-.05-.44-.25a2.08,2.08,0,0,1-.38-1.7v0s1.12.42,1.16,1.12C18.65,5.21,18.51,5.58,18.27,5.61Z"/><path class="cls-48" d="M18.27,5.61a6.58,6.58,0,0,0-.05-.78c-.06-.61-.48-.76-.77-1.17v0s1.12.42,1.16,1.12C18.65,5.21,18.51,5.58,18.27,5.61Z"/><path class="cls-46" d="M23.5,6.14c-.07.09-.21.12-.43.09a1.79,1.79,0,0,1-1.19-.91h0s1-.35,1.38.08S23.64,6,23.5,6.14Z"/><path class="cls-48" d="M23.5,6.14A5,5,0,0,0,23,5.66c-.38-.37-.74-.23-1.15-.34h0s1-.35,1.38.08S23.64,6,23.5,6.14Z"/><path class="cls-58" d="M24.52,8.91c-.46-.05-.75-.24-.76-.46s.07-.26.27-.39a2.21,2.21,0,0,1,1.58-.2.38.38,0,0,1,.14,0l0,.08a.16.16,0,0,0,0,.07C25.51,8.35,25.08,9,24.52,8.91Z"/><path class="cls-48" d="M25.76,8.06h-.08a5.34,5.34,0,0,0-1.92.39c0-.13.07-.26.27-.39a2.21,2.21,0,0,1,1.58-.2l.11.13A.28.28,0,0,1,25.76,8.06Z"/><path class="cls-58" d="M33.05,4c.43.2.64.47.59.68s-.16.23-.38.29a2.27,2.27,0,0,1-1.57-.3l-.12-.1.06-.06.06,0C31.94,4.19,32.55,3.73,33.05,4Z"/><path class="cls-48" d="M31.61,4.39l.08,0a5.32,5.32,0,0,0,1.95.22c0,.13-.16.23-.38.29a2.27,2.27,0,0,1-1.57-.3c0-.06-.05-.12-.06-.16A.24.24,0,0,1,31.61,4.39Z"/><path class="cls-59" d="M21.42,8.51a.46.46,0,0,1-.26-.12,2.68,2.68,0,0,1-.49-2h0s.87.46,1.08.93S21.79,8.49,21.42,8.51Z"/><path class="cls-48" d="M21.42,8.51a5.67,5.67,0,0,0,0-.7,2.66,2.66,0,0,0-.74-1.42h0s.87.46,1.08.93S21.79,8.49,21.42,8.51Z"/><path class="cls-59" d="M34.67,6.34c-.14.47-.59,1-.86.93-.09,0-.16-.15-.2-.35a1.89,1.89,0,0,1,.8-1.67h0A1.19,1.19,0,0,1,34.67,6.34Z"/><path class="cls-48" d="M34.41,5.25a5.93,5.93,0,0,0-.6,2c-.09,0-.16-.15-.2-.35A1.89,1.89,0,0,1,34.41,5.25Z"/></g><path class="cls-60" d="M26.52,23.76a25.91,25.91,0,0,0-4.75.92c0-.56-1-1.77-1-1.77-1.06-1.62-.71-4.41-.61-5,0,0,.21-.09.64-.23a5.06,5.06,0,0,0,.78,3.11C22.42,21.68,25.66,21.87,26.52,23.76Z"/><path class="cls-60" d="M32.3,24.12c-.32-.09-.65-.17-1-.23a10.38,10.38,0,0,0-1.46-7,9.81,9.81,0,0,1,1.78.45A9,9,0,0,1,32.3,24.12Z"/><path class="cls-61" d="M4.16,34.08a5.93,5.93,0,0,1-.52-.34c-.88-.61-2-.14-2.5-.47S.06,27.4.4,24.16c.07-.64.18-1.37.32-2.13a17.37,17.37,0,0,0,1,6C2.62,30.56,3.71,33.07,4.16,34.08Z"/><path class="cls-62" d="M18,11.08c-1.22.09-3.41.15-5.16.19-2.15,0-2.91.3-3.74.07a21.38,21.38,0,0,1,3.56-.67,14.31,14.31,0,0,1,1.65-.14,9.35,9.35,0,0,1,3.68.41S18,11,18,11.08Z"/></g></g></g></svg>