<svg xmlns="http://www.w3.org/2000/svg" viewBox="0 0 190.41 191.33"><defs><style>.cls-1{fill:#434244;}</style></defs><title>без глютена</title><g id="Слой_2" data-name="Слой 2"><g id="Object"><path class="cls-1" d="M89.63,159.55a429.65,429.65,0,0,0,10.53-78.47c.06-1.49-3.64-.75-3.69.47A430.51,430.51,0,0,1,86,160c-.31,1.35,3.4.78,3.68-.47Z"/><path class="cls-1" d="M96,75.25C86.52,59.1,101.3,41.76,100.24,25l-3.69,1c3,8.77,6.65,17.65,8,26.83A31.58,31.58,0,0,1,104,66.15c-.83,2.92-3.48,9.91-7,10.5-1.42.23-3.32,1.68-.71,1.24,7.71-1.27,11.43-10,12.24-17,1.4-12.2-4.48-24.64-8.28-36-.24-.73-3.74.18-3.69,1,1.06,16.7-13.73,34.13-4.26,50.29.49.85,3.94-.56,3.68-1Z"/><path class="cls-1" d="M84,128.22C69.62,129.83,63.3,111.55,53.86,104l-2.08,2.36C65.49,108,85.57,112,85.92,129.52c0,1.89,3.76,1.3,3.73-.3-.37-19-21.49-23.65-36.57-25.47-1.1-.13-3.57,1.16-2.08,2.35,10.6,8.46,16.29,26.57,32.64,24.75,2-.22,2.87-2.91.35-2.63Z"/><path class="cls-1" d="M88.72,108.2C77.37,106,71.3,93.92,61.19,89.11L59.1,91.39c11.43.65,27.42,2.86,28.48,17.23.11,1.55,3.81.7,3.69-1C90.14,92.24,72.6,89.56,60.42,88.87c-.8-.05-3.89,1.42-2.1,2.28,10.8,5.14,16.81,17.18,29.08,19.57,1.71.33,3.77-2,1.32-2.52Z"/><path class="cls-1" d="M90.24,87.66C79.07,88.92,75.48,72.52,68.33,66.75l-2,2.46A31.81,31.81,0,0,1,88,87.36c.74,1.67,4.41.62,3.69-1A34.65,34.65,0,0,0,67.54,66.45c-1.23-.29-3.5,1.3-2.05,2.47C73.87,75.69,76.37,92,89.94,90.45c2.08-.23,2.81-3.07.3-2.79Z"/><path class="cls-1" d="M101.05,129.56c15.49,6.62,26.47-9.35,39.31-14.5.77-.31,1.8-1.6.38-1.85-15.22-2.64-37.9-4.21-43.84,14.35-.42,1.34,3.29.86,3.7-.44,5.19-16.24,24.67-14.13,37.9-11.83l.37-1.85c-10.91,4.38-22.06,19.77-34.9,14.29-1.15-.49-4.5,1.16-2.92,1.83Z"/><path class="cls-1" d="M103.61,109.61c12.43,1.2,21.41-8.51,33.15-10.34,1.64-.25,3.07-2.28.76-2.84-12.32-3-30.36-5-36,9.84-.78,2,2.92,2.15,3.54.51,4.9-13,20.67-10,31.2-7.52l.76-2.85c-11.11,1.73-20.73,11.48-32.19,10.37-1.9-.18-3.72,2.59-1.24,2.83Z"/><path class="cls-1" d="M106.66,88.83c12.92,5.42,20.4-9.76,30.48-13.9.54-.23,2-1.22.52-1.3a37,37,0,0,0-30.3,12.51c-.81.94,2.73.53,3.36-.2a29.7,29.7,0,0,1,24.58-10.7l.52-1.3a28.77,28.77,0,0,0-7.95,4.94c-1.54,1.32-3,2.75-4.5,4.1a25.66,25.66,0,0,1-3.29,2.68c-2.25,1.39-7.91,2.71-10.41,1.66-.86-.36-4.2,1-3,1.51Z"/><path class="cls-1" d="M89.72,1.63C55.06,4.9,20.06,25.22,8,59.25c-3.7,10.38-5.34,21.6-6.76,32.5s-2,22.46.86,33.34c5.11,19.36,21,34.36,36.28,46.29,16.68,13,35.38,20.82,56.81,19.87,11.62-.51,23.1-2.89,34.43-5.35,4.84-1.05,9.73-2.16,14-4.74,4.1-2.46,7.5-6,10.86-9.33,14.65-14.63,27.18-31.19,32.62-51.47a97.44,97.44,0,0,0-2.58-58.68,95.27,95.27,0,0,0-38.82-47.1C128.84,4,104-4.68,84.43,2.8c-2.62,1-1.49,5.27,1.17,4.25,16.69-6.39,37.67.15,52.7,8.33a92.4,92.4,0,0,1,36.53,35.77,91.31,91.31,0,0,1,10.68,53.46c-2,19.89-10.7,37.68-23.59,52.77-5.76,6.74-12.34,14.75-19.87,19.57-8.44,5.39-20.81,6.4-30.5,8-11.06,1.87-22.52,2.86-33.64.89a75.16,75.16,0,0,1-26.14-10.42c-15.18-9.36-30.89-22.88-39.95-38.41C.94,118.39,4.28,96.31,8.14,76.1,12,56,21.25,39.08,37.47,26.39,52.41,14.69,70.89,7.82,89.72,6c2.8-.27,2.82-4.68,0-4.41Z"/><path class="cls-1" d="M30.32,161.73A1652,1652,0,0,0,165.05,30.65c2.34-2.56-2.92-4.87-4.91-2.69A1642,1642,0,0,1,26.39,158.16c-2.79,2.42,1.63,5.57,3.93,3.57Z"/></g></g></svg>