<svg xmlns="http://www.w3.org/2000/svg" viewBox="0 0 190.4 191.33"><defs><style>.cls-1{fill:#434244;}</style></defs><title>без гмо</title><g id="Слой_2" data-name="Слой 2"><g id="Object"><path class="cls-1" d="M72.13,76.45c3,8.14-.75,16-4.32,23.28q-5.91,12-11.86,24-2.85,5.77-5.71,11.56c-1.17,2.38-3.22,5.23-1.57,7.83,2.64,4.17,10.48,3.28,14.47,3.39q26.72.72,53.45.73c3.67,0,10.55,1.14,13.06-2.68,1.22-1.85.58-3.94-.25-5.84-1.69-3.9-4.3-7.61-6.41-11.31L108,101.2C103.32,93,97.77,84.63,98.12,74.84l-3,1.21a25.25,25.25,0,0,0,5.73.71c.74,0,2.35-.35,2.57-1.24a19.06,19.06,0,0,0,.49-6.72c0-.28-.5-.43-.7-.47a92,92,0,0,0-38.67.87c-.49.12-1.5.51-1.61,1.11-1.51,8.1,7.64,9.81,12.77,5.62,1.6-1.31-2.06-1.25-2.94-.53-4.69,3.85-6.63-3-6.15-5.58L65,70.93A85,85,0,0,1,85.49,68.6a80.11,80.11,0,0,1,9.9.72c.87.11,3,.07,3.71.58,2,1.5,1.13,4.25.66,6.11l2.57-1.24a15.35,15.35,0,0,1-4.91-.64c-.68-.17-2.94.21-3,1.2-.3,8.39,3.41,15.52,7.44,22.63,4.81,8.48,9.68,16.93,14.52,25.39l6.77,11.85c1,1.69,2.69,3.8,3.06,5.77.82,4.42-3.18,4.3-6.19,4.3q-14.36,0-28.71-.18t-28.71-.6c-5.1-.14-12.41,0-10-7,1.45-4.26,4.15-8.41,6.14-12.46,4.39-8.89,8.85-17.76,13.18-26.69,3.49-7.2,6.82-14.93,3.89-22.89-.45-1.21-4.1-.13-3.69,1Z"/><path class="cls-1" d="M63.88,109.77a57.46,57.46,0,0,0,44.43-2c2.31-1.09.2-2.36-1.47-1.57a51.62,51.62,0,0,1-40,1.78c-1.14-.41-4.47,1.25-2.93,1.82Z"/><path class="cls-1" d="M101.07,119.41c-2.18-1.68-6.16-.78-7.57,1.54a4,4,0,0,0,2.56,5.81c2.49.69,6-.14,7.36-2.51a4.42,4.42,0,0,0-1.78-6c-.94-.53-4.35.89-3,1.67a3.46,3.46,0,0,1,1.59,3.09,3,3,0,0,1-.56,1.76,3.75,3.75,0,0,1-.35.35c-.14.07.31,0-.11,0a2.84,2.84,0,0,1-2.5-2.17,3.07,3.07,0,0,1,.14-2c.07-.15.57-.6.22-.53s.36.26.51.37a2.65,2.65,0,0,0,2.42,0c.31-.12,1.66-.85,1-1.34Z"/><path class="cls-1" d="M91.83,132.57c-1.6-1.88-4.91-1.16-6.48.37a2.83,2.83,0,0,0,.78,4.73c2.09,1,5.26.42,6.38-1.77a3.69,3.69,0,0,0-2.18-5.07c-1.33-.51-4.3,1.41-2.2,2.22a2.18,2.18,0,0,1,1,2.17c0,.18-.19.81-.33.76s.57-.22.58-.18-.37-.07-.36-.07a1.35,1.35,0,0,1-.88-1.69s.28-.43.17-.24.21-.08,0,0a.49.49,0,0,1-.24,0c.2,0,.24,0,.11,0s.32.3.27.25c.94,1.1,4.47-.27,3.41-1.52Z"/><path class="cls-1" d="M82.33,125.45a4.74,4.74,0,0,0-4.55-.34c-.75.27-1.57.6-1.6,1.49a2.29,2.29,0,0,0,.6,1.63c1.06,1.22,3,1,4.37.46s2.58-1.52,2.5-3.07c0-.87-3.75-.2-3.69,1a1.75,1.75,0,0,1-.26.92c-.14.31-.86.38.49,0,1-.26.77-.08.4-.32a1.69,1.69,0,0,1-.69-1.69l-.73.66c-1.1.52-1,0-.3.59s1.78.13,2.4-.11c.29-.11,1.64-.76,1.06-1.23Z"/><path class="cls-1" d="M110.22,60.05l4.8,59.6c.12,1.52,3.82.67,3.69-1l-4.8-59.6c-.12-1.52-3.82-.67-3.69,1Z"/><path class="cls-1" d="M123.42,59.41a680,680,0,0,1,3.66,79.19c0,.63,3.68.11,3.69-1a680,680,0,0,0-3.66-79.19c-.07-.74-3.79,0-3.69,1Z"/><path class="cls-1" d="M111.14,58.25c-2,.09-5.49.32-5.39-2.56.13-3.66,5.44-3.31,7.77-3.57,2.53-.29,5.08-.49,7.63-.62,1.27-.07,2.55-.11,3.82-.14q5.22-1.38,2.55,4.76c-1.34-.63-4.62,1.22-2.86,2,3.09,1.44,7.27,1.41,9.32-1.81,2.36-3.7-.5-6.9-4.25-7.43-7.11-1-15.48.34-22.47,1.59-1.57.29-3.61.48-4.74,1.81-1.69,2-.21,4.32-.09,6.56a1,1,0,0,0,.78,1,22.47,22.47,0,0,0,7.56.89c2-.08,2.9-2.63.37-2.53Z"/><path class="cls-1" d="M114,82.42a43.16,43.16,0,0,1,10.52-.68c1.6.09,3.85-2.25,1.36-2.38a50.54,50.54,0,0,0-12.46.88c-2.3.44-1.68,2.61.58,2.18Z"/><path class="cls-1" d="M114.35,93.27h2a2.66,2.66,0,0,0,2.42-1.08c.39-.75-.34-1.37-1.08-1.37h-2a2.68,2.68,0,0,0-2.42,1.08c-.39.76.35,1.37,1.08,1.37Z"/><path class="cls-1" d="M114.41,100.72l3.38.71a2.35,2.35,0,0,0,2.4-1.13c.41-.88-.37-1.41-1.13-1.57L115.68,98a2.35,2.35,0,0,0-2.4,1.14c-.4.88.37,1.4,1.13,1.56Z"/><path class="cls-1" d="M117.42,110.65a2.76,2.76,0,0,1,1.86,0,3.33,3.33,0,0,0,2.61-.7c.61-.51.41-1-.32-1.18a9.38,9.38,0,0,0-6.4.94c-.52.26-1.08,1-.36,1.32a3.26,3.26,0,0,0,2.61-.38Z"/><path class="cls-1" d="M89.72,1.63C55.06,4.9,20.06,25.22,8,59.25c-3.7,10.38-5.34,21.6-6.76,32.5s-2,22.46.86,33.34c5.11,19.36,21,34.36,36.28,46.29,16.68,13,35.38,20.82,56.81,19.87,11.62-.51,23.1-2.89,34.43-5.35,4.84-1.05,9.73-2.16,14-4.74,4.1-2.46,7.5-6,10.86-9.33,14.65-14.63,27.18-31.19,32.62-51.47a97.44,97.44,0,0,0-2.58-58.68,95.27,95.27,0,0,0-38.82-47.1C128.84,4,104-4.68,84.43,2.8c-2.62,1-1.49,5.27,1.17,4.25,16.69-6.39,37.67.15,52.7,8.33a92.4,92.4,0,0,1,36.53,35.77,91.31,91.31,0,0,1,10.68,53.46c-2,19.89-10.7,37.68-23.59,52.77-5.76,6.74-12.34,14.75-19.87,19.57-8.44,5.39-20.81,6.4-30.5,8-11.06,1.87-22.52,2.86-33.64.89a75.16,75.16,0,0,1-26.14-10.42c-15.18-9.36-30.89-22.88-39.95-38.41C.94,118.39,4.28,96.31,8.14,76.1,12,56,21.25,39.08,37.47,26.39,52.41,14.69,70.89,7.82,89.72,6c2.8-.27,2.82-4.68,0-4.41Z"/><path class="cls-1" d="M30.32,161.73A1652,1652,0,0,0,165.05,30.65c2.34-2.56-2.92-4.87-4.91-2.69A1642,1642,0,0,1,26.39,158.16c-2.79,2.42,1.63,5.57,3.93,3.57Z"/></g></g></svg>