<svg xmlns="http://www.w3.org/2000/svg" viewBox="0 0 190.4 191.33"><defs><style>.cls-1{fill:#434244;}</style></defs><title>цельное зерно</title><g id="Слой_2" data-name="Слой 2"><g id="Object"><path class="cls-1" d="M95.66,151.66c-1.34,5.26.76,9.75,6.54,7.57.3-.11,1.29-.46,1.19-.95-1.56-8.31,5.25-13.56,10.06-19.24a45.38,45.38,0,0,0,8.69-16.87c4.17-14.32,3.53-29.53,8.28-43.72.3-.88-2.2-.23-2.46-.14C98.71,89.3,83,121,93.5,150.84c.32.91,4-.2,3.69-1-10-28.19,3.74-60,32.06-70.63l-2.47-.14c-4.92,14.71-4,30.57-8.76,45.3-2.48,7.68-6.62,13.42-12,19.33-4,4.41-7.5,9.31-6.32,15.56l1.19-.94c-3,1.12-1.74-6.73-1.6-7.3.22-.83-3.4-.33-3.64.63Z"/><path class="cls-1" d="M97.35,102.21A74.29,74.29,0,0,0,61.19,76.92c-.65-.21-4.25.37-3.19,1.59a42.7,42.7,0,0,1,10.64,21.83,156.72,156.72,0,0,0,5.41,23.24c3.87,11.66,9.21,25.84,21.65,30.59,1.08.4,4.43-1.19,3-1.75C85.07,147.25,79.71,130,76.11,117.28c-2.16-7.6-2.82-15.47-4.8-23.07-1.71-6.57-5.47-12.08-9.88-17.13l-3.18,1.59a73.12,73.12,0,0,1,35.67,25c.75,1,4.3-.3,3.43-1.42Z"/><path class="cls-1" d="M83.17,87a204.17,204.17,0,0,1,4.38-29.1c1.64-7.25,3.81-26.9,14.9-24.24,8.38,2,9.75,13.23,11,20.23q2.73,14.76,4.45,29.65c.11.93,3.82.17,3.69-1-1.39-12.2-2.91-24.67-5.83-36.61-2-7.94-6.78-15.53-16-14.22S88.43,41,86.33,48.81a216.66,216.66,0,0,0-6.82,38.74c-.1,1.19,3.57.44,3.66-.57Z"/><path class="cls-1" d="M92.83,63.32a18.83,18.83,0,0,0,12.84.28c2.22-.74,1.56-3.42-.71-2.66a14.4,14.4,0,0,1-10-.2c-1.65-.63-4.31,1.74-2.11,2.58Z"/><path class="cls-1" d="M91.87,80.16l8.57,2.13a2.87,2.87,0,0,0,2.61-.7c.52-.58.42-1.28-.4-1.49L94.08,78a2.84,2.84,0,0,0-2.61.7c-.52.58-.42,1.28.4,1.49Z"/><path class="cls-1" d="M97.09,48.54l6.82-.11c.72,0,2-.56,2.06-1.39s-1-1-1.65-1l-6.82.11c-.72,0-2,.56-2.06,1.39s1,1,1.65,1Z"/><path class="cls-1" d="M89.72,1.63C55.06,4.9,20.06,25.22,8,59.25c-3.7,10.38-5.34,21.6-6.76,32.5s-2,22.46.86,33.34c5.11,19.36,21,34.36,36.28,46.29,16.68,13,35.38,20.82,56.81,19.87,11.62-.51,23.1-2.89,34.43-5.35,4.84-1.05,9.73-2.16,14-4.74,4.1-2.46,7.5-6,10.86-9.33,14.65-14.63,27.18-31.19,32.62-51.47a97.44,97.44,0,0,0-2.58-58.68,95.27,95.27,0,0,0-38.82-47.1C128.84,4,104-4.68,84.43,2.8c-2.62,1-1.49,5.27,1.17,4.25,16.69-6.39,37.67.15,52.7,8.33a92.4,92.4,0,0,1,36.53,35.77,91.31,91.31,0,0,1,10.68,53.46c-2,19.89-10.7,37.68-23.59,52.77-5.76,6.74-12.34,14.75-19.87,19.57-8.44,5.39-20.81,6.4-30.5,8-11.06,1.87-22.52,2.86-33.64.89a75.16,75.16,0,0,1-26.14-10.42c-15.18-9.36-30.89-22.88-39.95-38.41C.94,118.39,4.28,96.31,8.14,76.1,12,56,21.25,39.08,37.47,26.39,52.41,14.69,70.89,7.82,89.72,6c2.8-.27,2.82-4.68,0-4.41Z"/></g></g></svg>