<svg xmlns="http://www.w3.org/2000/svg" viewBox="0 0 190.4 191.33"><defs><style>.cls-1{fill:#434244;}</style></defs><title>без дрожжей</title><g id="Слой_2" data-name="Слой 2"><g id="Object"><path class="cls-1" d="M94.09,90.72C84,87.86,71.63,87,63.83,95.4,54.37,105.6,63.57,117.09,73,123c9.61,6,22.1,8.6,33.14,5.5,9.87-2.78,16.79-11,14.27-21.55-3.08-13-16.91-17.7-28.88-16.79-1.14.08-4,1.94-1.53,1.76,10.55-.8,22.35,3.21,26.14,14,1.74,4.94,1.59,10.91-1.6,15.26-4.48,6.1-12.58,7.27-19.63,6.65-10.77-.94-22.73-6.48-28.86-15.71-3.3-5-3.58-10.87.21-15.71,6.07-7.74,16.47-6.45,24.84-4.07,1,.27,4.25-1.23,3-1.59Z"/><path class="cls-1" d="M81.83,98.44a17,17,0,0,0,14.88,1.21c.57-.2,1.43-.84,1-1.5s-1.89-.24-2.44-.05a12.05,12.05,0,0,1-10.49-1.45c-1-.64-4.43.87-2.93,1.79Z"/><path class="cls-1" d="M114.72,95.29c9.13-14.11,35.79-18,43.55-.55a15.8,15.8,0,0,1,1.31,9.31c-1.13,6.09-6.61,7.85-12.09,9a55.62,55.62,0,0,1-28.28-1.42c-1-.32-4.33,1.24-3,1.66a61.32,61.32,0,0,0,34.87.57c4.17-1.19,8.55-2.5,10.79-6.52s1.95-9.42.06-13.64c-8.85-19.77-40.55-14-50.64,1.59-.84,1.29,2.81.86,3.4,0Z"/><path class="cls-1" d="M126.84,94.66a16.3,16.3,0,0,0,15.47-.55c.68-.38.9-1,.3-1.54s-2,0-2.62.32a10.75,10.75,0,0,1-10.24-.08c-1.14-.58-4.5,1-2.91,1.85Z"/><path class="cls-1" d="M75.69,89.3c-6.56-8.2-16.6-13.4-27.23-13.1C39,76.47,29.71,81.57,27.9,91.48s3.85,19,12.51,23.5c7.15,3.7,18.87,6.28,25.59.54,1.66-1.42-2-1.67-3-.79-6.2,5.3-19.74-.58-24.87-5.17a20.16,20.16,0,0,1-6.65-17.83c1.43-9.57,10.12-13.91,19.19-13.11,8.61.76,16.29,5.54,21.61,12.19.88,1.1,4.43-.24,3.41-1.51Z"/><path class="cls-1" d="M46.17,86.79c3.27,3.75,8.48,4.45,13,2.69.62-.25,1.39-.92.94-1.62s-1.88-.33-2.46-.11c-2.91,1.15-6.1-.22-8.05-2.46-.92-1.05-4.45.31-3.41,1.5Z"/><path class="cls-1" d="M92.43,57.28c-4.91-.4-10.33-.51-14.63,2.31-3.65,2.4-6,6.69-4,10.9C78.33,80,93.08,83.28,102.44,82.06c8-1,20.65-7.34,15.15-17.34-4.66-8.47-20-10.16-28.23-7.18-2.42.88-.2,2,1.44,1.43,6.16-2.23,17.76.17,22,5.23,6.91,8.27-2.64,15.16-10.56,16a28.8,28.8,0,0,1-20-5.73c-2.79-2.13-6.15-5.16-5.44-9.06C78,59,85.76,58.87,91,59.3c1.37.12,3.93-1.81,1.45-2Z"/><path class="cls-1" d="M90.18,65a13.54,13.54,0,0,0,9.35.92c2.3-.56,1.58-3.25-.72-2.68a9.37,9.37,0,0,1-6.53-.84c-1.62-.8-4.22,1.55-2.1,2.6Z"/><path class="cls-1" d="M89.72,1.63C55.06,4.9,20.06,25.22,8,59.25c-3.7,10.38-5.34,21.6-6.76,32.5s-2,22.46.86,33.34c5.11,19.36,21,34.36,36.28,46.29,16.68,13,35.38,20.82,56.81,19.87,11.62-.51,23.1-2.89,34.43-5.35,4.84-1.05,9.73-2.16,14-4.74,4.1-2.46,7.5-6,10.86-9.33,14.65-14.63,27.18-31.19,32.62-51.47a97.44,97.44,0,0,0-2.58-58.68,95.27,95.27,0,0,0-38.82-47.1C128.84,4,104-4.68,84.43,2.8c-2.62,1-1.49,5.27,1.17,4.25,16.69-6.39,37.67.15,52.7,8.33a92.4,92.4,0,0,1,36.53,35.77,91.31,91.31,0,0,1,10.68,53.46c-2,19.89-10.7,37.68-23.59,52.77-5.76,6.74-12.34,14.75-19.87,19.57-8.44,5.39-20.81,6.4-30.5,8-11.06,1.87-22.52,2.86-33.64.89a75.16,75.16,0,0,1-26.14-10.42c-15.18-9.36-30.89-22.88-39.95-38.41C.94,118.39,4.28,96.31,8.14,76.1,12,56,21.25,39.08,37.47,26.39,52.41,14.69,70.89,7.82,89.72,6c2.8-.27,2.82-4.68,0-4.41Z"/><path class="cls-1" d="M30.32,161.73A1652,1652,0,0,0,165.05,30.65c2.34-2.56-2.92-4.87-4.91-2.69A1642,1642,0,0,1,26.39,158.16c-2.79,2.42,1.63,5.57,3.93,3.57Z"/></g></g></svg>