<svg xmlns="http://www.w3.org/2000/svg" viewBox="0 0 190.41 191.33"><defs><style>.cls-1{fill:#434244;}</style></defs><title>без сахара и соли</title><g id="Слой_2" data-name="Слой 2"><g id="Object"><path class="cls-1" d="M29.07,70.55q.69,23.9.24,47.8c0,.94,3.66.33,3.68-1q.46-23.89-.23-47.8c0-1-3.73-.31-3.69,1Z"/><path class="cls-1" d="M29.53,70.91c7.74,2.52,16.61,3.8,24.68,2.07,3.65-.78,9.24-3.52,7-8.21-2.37-4.94-10.59-5-15.09-4.61A32.63,32.63,0,0,0,28,67.84c-1.69,1.39,1.95,1.72,3,.83a26.29,26.29,0,0,1,13.19-6c3.65-.51,9.25-.8,12.1,1.92,6.52,6.2-7.93,6.76-11.21,6.62a50.3,50.3,0,0,1-13.36-2.55c-1.36-.45-4.33,1.54-2.19,2.23Z"/><path class="cls-1" d="M56.49,68.63Q57.58,91.34,58.67,114c.1,2,3.83,1.53,3.75-.23Q61.33,91.1,60.24,68.4c-.1-2-3.84-1.53-3.75.23Z"/><path class="cls-1" d="M28.83,120.44c6.86,3.19,14.49,6.48,22.19,4.49,5.79-1.51,11.11-5.78,11.52-12.06.1-1.41-3.6-.68-3.68.49-.4,6.17-5.57,10.21-11.69,10.17-5.42,0-10.58-2.59-15.39-4.82-1-.47-4.42,1.05-3,1.73Z"/><path class="cls-1" d="M31.31,92.94c8.61.72,17.21,1,25.85,1,1.43,0,3.89-2.19,1.41-2.17q-12.94.12-25.84-1c-1.47-.13-3.9,2-1.42,2.17Z"/><path class="cls-1" d="M94.7,100.15l-1.11,38c-.06,1.93,3.69,1.41,3.74-.27l1.11-38.06c.06-1.93-3.69-1.41-3.74.28Z"/><path class="cls-1" d="M124.16,80.58Q125.9,97.8,127.65,115c.08.88,3.8.14,3.68-1l-3.48-34.45c-.09-.87-3.81-.14-3.69,1Z"/><path class="cls-1" d="M98.09,139.89l31.48-25.65c.78-.64-2.64-.32-3.35.26L94.74,140.15c-.78.64,2.64.32,3.35-.26Z"/><path class="cls-1" d="M93.27,98.74Q80.16,91,66.38,84.55c-1.62-.76-4.25,1.58-2.1,2.58q13.41,6.3,26.17,13.8c1.46.87,4.65-1.12,2.82-2.19Z"/><path class="cls-1" d="M62.8,86.91A328.7,328.7,0,0,0,63.71,125c.07.87,3.78.16,3.69-1a328.7,328.7,0,0,1-.91-38c0-.76-3.65-.23-3.69,1Z"/><path class="cls-1" d="M63.24,126.06q16.11,8.13,32.6,15.42c1.17.52,4.52-1.16,2.92-1.87q-16.5-7.29-32.6-15.41c-1.15-.58-4.51,1.06-2.92,1.86Z"/><path class="cls-1" d="M65.66,84.37A84.13,84.13,0,0,0,94.73,69c1.51-1.23-2.14-.88-2.87-.28A77.3,77.3,0,0,1,65.29,83c-2.13.64-1.81,2,.37,1.39Z"/><path class="cls-1" d="M91.52,70a115.18,115.18,0,0,1,31.19,10.33c.92.46,4.32-.95,3-1.61A117.26,117.26,0,0,0,93.84,68.22c-1-.17-4.29,1.42-2.32,1.77Z"/><path class="cls-1" d="M96.35,100.28C99.34,99,125,85.36,123.1,83.05c.84,1,4.39-.28,3.42-1.48-2.42-3-7.35,2.45-8.91,3.67A106.2,106.2,0,0,1,94.87,98.66c-2.35,1-.22,2.37,1.48,1.62Z"/><path class="cls-1" d="M109.81,72.09c9.59-4.08,18.63-9.76,27.78-14.73,2.21-1.2.22-3.17-1.63-2.17-9.15,5-18.19,10.65-27.78,14.73-2.33,1-.27,3,1.63,2.17Z"/><path class="cls-1" d="M135.45,58.45c3.86,1.21,7.26,3.74,10.68,5.84l11,6.74c1.29.79,4.57-1,2.86-2l-12.42-7.63c-3.2-2-6.31-4.13-9.92-5.27-1.48-.47-4.34,1.68-2.16,2.37Z"/><path class="cls-1" d="M125.44,83.21l5.87,2.32c1.5.59,4.31-1.57,2.15-2.42l-5.87-2.31c-1.5-.59-4.3,1.56-2.15,2.41Z"/><path class="cls-1" d="M134.92,85.72Q146,77.58,157.19,69.6l-3.26.44c-.07.43-.15.86-.22,1.29-.26.44,3.1.28,3.63-.65s.47-.61.28-1.63c-.15-.82-2.89.19-3.25.45q-11.19,8-22.27,16.13c-1.47,1.08,2.17.57,2.82.09Z"/><path class="cls-1" d="M131.57,85.65q.62,10.68,2.25,21.26c.1.68,3.82-.1,3.69-1q-1.63-10.59-2.26-21.26c0-.59-3.74,0-3.68,1Z"/><path class="cls-1" d="M155.57,70a137.34,137.34,0,0,0,.69,22.94c.15,1.33,3.86.49,3.69-1a133.82,133.82,0,0,1-.68-22.38c.09-1.59-3.62-.9-3.7.43Z"/><path class="cls-1" d="M136.91,109q11.79-7.87,22.76-16.87c1.58-1.3-2.08-1.16-2.92-.47q-10.63,8.75-22.08,16.42c-2.06,1.38,1.16,1.65,2.24.92Z"/><path class="cls-1" d="M135.92,107.72l-6.28-3.28a3.35,3.35,0,0,0-2.38.22c-.16.06-1.66.73-1.1,1l6.28,3.28a3.35,3.35,0,0,0,2.38-.22c.16-.06,1.66-.73,1.1-1Z"/><path class="cls-1" d="M119.23,93.4c2.09,0,2.84-2.66.34-2.66-2.1,0-2.85,2.66-.34,2.66Z"/><path class="cls-1" d="M113.68,96.67c1.29,0,3.94-2,1.47-2-1.29,0-4,2-1.47,2Z"/><path class="cls-1" d="M122.52,98.81c1,0,1.34-1.21.17-1.21-1,0-1.34,1.21-.17,1.21Z"/><path class="cls-1" d="M145.94,82.47c2,0,2.88-2.53.37-2.53-2,0-2.89,2.53-.37,2.53Z"/><path class="cls-1" d="M148.8,77.32v.46c0,.84.93,1,1.63.93a3.21,3.21,0,0,0,1.4-.48c.25-.19.68-.5.68-.85v-.46c0-.83-.94-1-1.64-.93a3,3,0,0,0-1.39.49c-.26.18-.68.49-.68.84Z"/><path class="cls-1" d="M150.39,85.41c1.37,0,3.92-2.07,1.44-2.07-1.37,0-3.92,2.07-1.44,2.07Z"/><path class="cls-1" d="M89.72,1.63C55.06,4.9,20.06,25.22,8,59.25c-3.7,10.38-5.34,21.6-6.76,32.5s-2,22.46.86,33.34c5.11,19.36,21,34.36,36.28,46.29,16.68,13,35.38,20.82,56.81,19.87,11.62-.51,23.1-2.89,34.43-5.35,4.84-1.05,9.73-2.16,14-4.74,4.1-2.46,7.5-6,10.86-9.33,14.65-14.63,27.18-31.19,32.62-51.47a97.44,97.44,0,0,0-2.58-58.68,95.27,95.27,0,0,0-38.82-47.1C128.84,4,104-4.68,84.43,2.8c-2.62,1-1.49,5.27,1.17,4.25,16.69-6.39,37.67.15,52.7,8.33a92.4,92.4,0,0,1,36.53,35.77,91.31,91.31,0,0,1,10.68,53.46c-2,19.89-10.7,37.68-23.59,52.77-5.76,6.74-12.34,14.75-19.87,19.57-8.43,5.39-20.81,6.4-30.5,8-11.06,1.87-22.52,2.86-33.64.89a75.16,75.16,0,0,1-26.14-10.42c-15.18-9.36-30.89-22.88-39.95-38.41C.94,118.39,4.28,96.31,8.14,76.1,12,56,21.25,39.08,37.47,26.39,52.41,14.69,70.89,7.82,89.72,6c2.8-.27,2.82-4.68,0-4.41Z"/><path class="cls-1" d="M30.32,161.73A1652,1652,0,0,0,165.05,30.65c2.34-2.56-2.92-4.87-4.91-2.69A1642,1642,0,0,1,26.39,158.16c-2.79,2.42,1.63,5.57,3.93,3.57Z"/><path class="cls-1" d="M42.54,98.89c2.09,0,2.85-2.66.34-2.66-2.09,0-2.84,2.66-.34,2.66Z"/><path class="cls-1" d="M38.75,106.43c1.29,0,3.94-2,1.47-2-1.3,0-3.95,2-1.47,2Z"/><path class="cls-1" d="M51.18,100.87c1,0,1.33-1.22.16-1.22-1,0-1.33,1.22-.16,1.22Z"/><path class="cls-1" d="M52,114.13c-1.92.83-1.55,3.57.75,2.57,1.92-.83,1.55-3.57-.75-2.57Z"/><path class="cls-1" d="M50.13,107.37c-1.19.52-2.85,3.36-.58,2.38,1.19-.52,2.85-3.36.58-2.38Z"/><path class="cls-1" d="M44.77,113.56c-.88.38-.74,1.65.33,1.18.89-.38.75-1.65-.33-1.18Z"/></g></g></svg>