<svg xmlns="http://www.w3.org/2000/svg" viewBox="0 0 190.4 191.33"><defs><style>.cls-1{fill:#434244;}</style></defs><title>100 natural</title><g id="Слой_2" data-name="Слой 2"><g id="Object"><path class="cls-1" d="M89.72,1.63C55.06,4.9,20.06,25.22,8,59.25c-3.7,10.38-5.34,21.6-6.76,32.5s-2,22.46.86,33.34c5.11,19.36,21,34.36,36.28,46.29,16.68,13,35.38,20.82,56.81,19.87,11.62-.51,23.1-2.89,34.43-5.35,4.84-1.05,9.73-2.16,14-4.74,4.1-2.46,7.5-6,10.86-9.33,14.65-14.63,27.18-31.19,32.62-51.47a97.44,97.44,0,0,0-2.58-58.68,95.27,95.27,0,0,0-38.82-47.1C128.84,4,104-4.68,84.43,2.8c-2.62,1-1.49,5.27,1.17,4.25,16.69-6.39,37.67.15,52.7,8.33a92.4,92.4,0,0,1,36.53,35.77,91.31,91.31,0,0,1,10.68,53.46c-2,19.89-10.7,37.68-23.59,52.77-5.76,6.74-12.34,14.75-19.87,19.57-8.44,5.39-20.81,6.4-30.5,8-11.06,1.87-22.52,2.86-33.64.89a75.16,75.16,0,0,1-26.14-10.42c-15.18-9.36-30.89-22.88-39.95-38.41C.94,118.39,4.28,96.31,8.14,76.1,12,56,21.25,39.08,37.47,26.39,52.41,14.69,70.89,7.82,89.72,6c2.8-.27,2.82-4.68,0-4.41Z"/><path class="cls-1" d="M131.1,51.58a1.78,1.78,0,0,0-.9-1.11h0a1.77,1.77,0,0,0-2.4.74h0c0,.05-9,17.5-36.62,20.54a35.4,35.4,0,0,0-10.44,2.79A29,29,0,0,0,66.82,87.31a29.94,29.94,0,0,0-3.43,17.46,29.29,29.29,0,0,0,4.3,12.38c-4.91,3.53-20.47,15.7-21.87,28.77a1.78,1.78,0,1,0,3.53.38c1.29-11.67,15.89-23,20.44-26.26,5.46,6.71,13.65,10.5,22.43,11.12a37.91,37.91,0,0,0,17.28-2.95,39.6,39.6,0,0,0,15.23-11.31C135.26,104.14,140.27,82.7,131.1,51.58ZM70.81,115.4h0a25.63,25.63,0,0,1-3.85-11,26.42,26.42,0,0,1,3-15.41A25.5,25.5,0,0,1,82.17,77.77a31.61,31.61,0,0,1,9.4-2.46c18.23-2,29-10.08,34.49-16a75.27,75.27,0,0,1-16.38,28.82L108.6,77.29a1.78,1.78,0,1,0-3.55.2s0,.09,0,.14l1.39,14C98.2,100,86.73,108.38,70.81,115.4Zm51.17-.78h0A36.19,36.19,0,0,1,108.13,125a34.35,34.35,0,0,1-15.7,2.62A28,28,0,0,1,73,118.31a132.52,132.52,0,0,0,16.93-9l15.6,3a1.77,1.77,0,0,0,.63-3.49l-12-2.27a103.83,103.83,0,0,0,15.38-12.92,1.79,1.79,0,0,0,.23-.25c12.39-12.89,17.66-25.65,19.85-33.5C135.66,85.7,131,103.69,122,114.62Z"/></g></g></svg>