<svg xmlns="http://www.w3.org/2000/svg" xmlns:xlink="http://www.w3.org/1999/xlink" viewBox="0 0 78.32 61.67"><defs><style>.cls-1{isolation:isolate;}.cls-2,.cls-3{fill:#4f5b73;}.cls-23,.cls-3{opacity:0.5;}.cls-13,.cls-15,.cls-17,.cls-18,.cls-20,.cls-23,.cls-25,.cls-28,.cls-3,.cls-30,.cls-33,.cls-5,.cls-7{mix-blend-mode:multiply;}.cls-4{fill:url(#linear-gradient);}.cls-14,.cls-15,.cls-17,.cls-18,.cls-19,.cls-21,.cls-22,.cls-25,.cls-28,.cls-31,.cls-5{opacity:0.4;}.cls-5{fill:url(#linear-gradient-2);}.cls-6,.cls-7{fill:#596067;}.cls-13,.cls-20,.cls-30,.cls-7{opacity:0.3;}.cls-13,.cls-15,.cls-8{fill:#91a5b3;}.cls-18,.cls-9{fill:#7e95a8;}.cls-10{fill:url(#linear-gradient-3);}.cls-11,.cls-20{fill:#738f8d;}.cls-12{fill:#a3a9ab;}.cls-14,.cls-19,.cls-21,.cls-22{mix-blend-mode:screen;}.cls-14{fill:url(#linear-gradient-4);}.cls-16,.cls-17,.cls-19{fill:#89bcce;}.cls-21{fill:url(#linear-gradient-5);}.cls-22{fill:url(#linear-gradient-6);}.cls-23,.cls-26{fill:#bdc0c1;}.cls-24,.cls-25{fill:#596165;}.cls-27,.cls-28{fill:#445a67;}.cls-29,.cls-30{fill:#7e8889;}.cls-31{mix-blend-mode:color-dodge;fill:url(#linear-gradient-7);}.cls-32,.cls-33{fill:#b9d6d8;}</style><linearGradient id="linear-gradient" x1="49.6" y1="1.17" x2="59.75" y2="48.02" gradientUnits="userSpaceOnUse"><stop offset="0" stop-color="#91a5b3"/><stop offset="0.98" stop-color="#7695b3"/></linearGradient><linearGradient id="linear-gradient-2" x1="55.28" y1="28.12" x2="60.5" y2="52.22" xlink:href="#linear-gradient"/><linearGradient id="linear-gradient-3" y1="16.17" x2="42.67" y2="16.17" gradientUnits="userSpaceOnUse"><stop offset="0" stop-color="#91a5b3"/><stop offset="0.98" stop-color="#97a9b3"/></linearGradient><linearGradient id="linear-gradient-4" x1="0.04" y1="12.41" x2="42.39" y2="12.41" xlink:href="#linear-gradient-3"/><linearGradient id="linear-gradient-5" x1="61.75" y1="34.08" x2="67.34" y2="34.08" xlink:href="#linear-gradient-3"/><linearGradient id="linear-gradient-6" x1="66.65" y1="35.28" x2="69.28" y2="35.28" xlink:href="#linear-gradient-3"/><linearGradient id="linear-gradient-7" x1="3.85" y1="8.55" x2="32.34" y2="8.55" xlink:href="#linear-gradient-3"/></defs><title>техн</title><g class="cls-1"><g id="Слой_2" data-name="Слой 2"><g id="_1" data-name="1"><polygon class="cls-2" points="5.14 61.67 2.36 61.65 2.55 61.25 2.56 61.21 3.58 60.91 3.49 60.47 3.33 59.7 4.28 59.7 4.1 60.41 3.99 60.9 4.83 61.24 4.98 61.44 5.14 61.67"/><path class="cls-3" d="M4.28,59.7l-.18.71-.61.06-.16-.77Z"/><polygon class="cls-3" points="5.14 61.67 2.36 61.65 2.55 61.25 4.98 61.44 5.14 61.67"/><polygon class="cls-2" points="42.02 61.64 39.24 61.63 39.42 61.22 39.44 61.18 40.45 60.88 40.36 60.44 40.21 59.67 41.15 59.67 40.98 60.38 40.86 60.87 41.7 61.21 41.86 61.41 42.02 61.64"/><path class="cls-3" d="M41.15,59.67l-.17.71-.62.06-.15-.77Z"/><polygon class="cls-3" points="42.02 61.64 39.24 61.63 39.42 61.22 41.86 61.41 42.02 61.64"/><polygon class="cls-2" points="51.1 61.64 48.57 61.62 48.73 61.19 48.75 61.15 49.67 60.83 49.59 60.35 49.45 59.53 50.31 59.53 50.15 60.29 50.05 60.81 50.82 61.18 50.95 61.4 51.1 61.64"/><path class="cls-3" d="M50.31,59.53l-.16.76-.56.06-.14-.82Z"/><polygon class="cls-3" points="51.1 61.64 48.57 61.62 48.73 61.19 50.95 61.4 51.1 61.64"/><polygon class="cls-2" points="72.05 61.64 69.51 61.62 69.68 61.19 69.69 61.15 70.62 60.83 70.53 60.35 70.4 59.53 71.25 59.53 71.1 60.29 70.99 60.81 71.76 61.18 71.9 61.4 72.05 61.64"/><path class="cls-3" d="M71.26,59.53l-.16.76-.57.06-.13-.82Z"/><polygon class="cls-3" points="72.05 61.64 69.51 61.62 69.68 61.19 71.9 61.4 72.05 61.64"/><path class="cls-4" d="M77.18,40.5a16.69,16.69,0,0,0-3-1.52l.13,6.47.17,8.35a89.1,89.1,0,0,1-14.21,1.67,98.66,98.66,0,0,1-14.59-.76s-1.45-12.92-1.82-21.2c-.06-1.29-.13-2.87-.2-4.63-.4-9.57-1-24.43-1.48-25.84L31.66,2.28V4.94l-1.6,0L30.18.8S42.3.61,43.82,1.52c0,0,.85,17.48,1.27,26.45.15,3,.25,5.1.25,5.16,0,.23,1.44,20.06,1.44,20.06a81.09,81.09,0,0,0,14.29,1.07A104.22,104.22,0,0,0,73,52.89s-.14-5.32-.17-9.54A31,31,0,0,1,73,38.3a1.44,1.44,0,0,1,1.14-.61s3.42,1.07,4.18,2.13Z"/><path class="cls-5" d="M74.52,53.8a89.1,89.1,0,0,1-14.21,1.67,98.66,98.66,0,0,1-14.59-.76s-1.45-12.92-1.82-21.2c-.06-1.29-.13-2.87-.2-4.63L45.09,28c.15,3,.25,5.1.25,5.16,0,.23,1.44,20.06,1.44,20.06a81.09,81.09,0,0,0,14.29,1.07A104.22,104.22,0,0,0,73,52.89s-.14-5.32-.17-9.54l1.52,2.1Z"/><polygon class="cls-6" points="42.15 32.37 21.65 32.24 1.45 32.1 2.02 30.21 18.97 30.26 40.55 30.32 42.15 32.37"/><polygon class="cls-7" points="21.65 32.24 1.45 32.1 2.02 30.21 18.97 30.26 21.65 32.24"/><path class="cls-8" d="M70.53,46.05c-.83.47-1.64.87-2.45,1.23a24.08,24.08,0,0,1-7.51,2,22.55,22.55,0,0,1-8.8-1,18.06,18.06,0,0,1-4.15-1.88s-.16-15.43-.14-24.6c0-3.83.05-6.57.14-6.63.73-.43,1.43-.82,2.12-1.18,13.82-7.16,20.33-.64,20.33-.64l.13,8.86Z"/><path class="cls-9" d="M70.2,22.2l-19.13-.35-3.59-.06c0-3.83.05-6.57.14-6.63.73-.43,1.43-.82,2.12-1.18,13.82-7.16,20.33-.64,20.33-.64Z"/><path class="cls-10" d="M40.55,30.32C29.84,31.35,2,30.21,2,30.21a52.16,52.16,0,0,1-1.86-10A44,44,0,0,1,0,14.67,37.52,37.52,0,0,1,.52,10c.2-1.14.43-2.12.65-2.91a8.88,8.88,0,0,1,1-2.54l13.64.08,0-1.47V1.94l11.05-.35L27,2.72l.16,1.12.13.87L40,4.79c.35,1,.65,1.93.92,2.86.38,1.31.69,2.57.93,3.77s.42,2.31.56,3.39c0,.38.08.74.11,1.1C43.37,25.18,40.55,30.32,40.55,30.32Z"/><polygon class="cls-11" points="49.1 47.19 49.1 49.47 50.13 49.59 50.2 47.61 49.1 47.19"/><polygon class="cls-11" points="69.05 46.62 69.05 49.59 70.19 49.36 70.11 46.16 69.05 46.62"/><polygon class="cls-12" points="67.22 10.03 66.66 19.38 56.85 19.38 55.94 19.04 55.83 10.26 56.62 9.69 62.28 9.49 66.66 9.35 67.22 10.03"/><path class="cls-13" d="M42.5,15.91c.87,9.27-2,14.41-2,14.41C29.84,31.35,2,30.21,2,30.21a52.16,52.16,0,0,1-1.86-10c7.74,3.67,21.17,4.23,33.55.23A24.29,24.29,0,0,0,42.5,15.91Z"/><path class="cls-14" d="M41.83,11.42.52,10A37.52,37.52,0,0,0,0,14.67l42.35.14Z"/><polygon class="cls-15" points="27.19 3.84 15.8 3.17 15.81 2.23 15.82 1.94 26.87 1.59 27.03 2.72 27.19 3.84"/><polygon class="cls-16" points="28.01 2.17 14.68 2.17 14.64 0.3 27.67 0 28.01 2.17"/><polygon class="cls-17" points="20.77 2.17 14.68 2.17 14.64 0.3 19.4 0.19 20.77 2.17"/><polygon class="cls-9" points="15.85 3.31 15.82 4.67 6.86 4.6 2.14 4.56 2.14 3.31 15.85 3.31"/><polygon class="cls-18" points="15.85 3.31 15.82 4.67 6.86 4.6 8.73 3.31 15.85 3.31"/><polygon class="cls-19" points="26.73 2.17 25.46 2.17 24.82 0.07 26.27 0.03 26.73 2.17"/><polygon class="cls-11" points="7.8 1.67 7.8 3.42 2.63 3.42 2.59 1.71 6.19 1.68 7.8 1.67"/><polygon class="cls-20" points="7.8 1.67 7.8 3.42 5.53 3.42 6.19 1.68 7.8 1.67"/><path class="cls-13" d="M60.57,49.25a22.55,22.55,0,0,1-8.8-1,18.06,18.06,0,0,1-4.15-1.88s-.16-15.43-.14-24.6c0-3.83.05-6.57.14-6.63.73-.43,1.43-.82,2.12-1.18.26,1.83.68,4.6,1.33,7.87C52.67,30,55.61,41.36,60.57,49.25Z"/><path class="cls-21" d="M67.34,20.4c-.12,2.28-1.94,26.68-1.94,26.68l-3.65.68L62.44,21Z"/><polygon class="cls-22" points="67.8 25.99 66.66 45.71 68.59 45.02 69.28 24.85 67.8 25.99"/><polygon class="cls-23" points="62.28 9.49 59.01 19.38 56.85 19.38 55.94 19.04 55.83 10.26 56.62 9.69 62.28 9.49"/><polygon class="cls-24" points="66.14 12.88 65.91 15.84 57.19 15.84 56.97 12.94 61.75 12.91 66.14 12.88"/><polygon class="cls-25" points="61.75 12.91 59.51 15.84 57.19 15.84 56.97 12.94 61.75 12.91"/><polygon class="cls-26" points="56.85 13.22 56.62 12.2 66.31 11.74 66.14 12.88 56.85 13.22"/><polygon class="cls-26" points="57.19 15.84 65.91 15.84 65.86 16.98 56.74 16.87 57.19 15.84"/><path class="cls-27" d="M68.59,47.08l-1.25,2.51a59.21,59.21,0,0,1-7.43.76A41.17,41.17,0,0,1,52.29,50l-.52-1.77a22.4,22.4,0,0,0,7.87,1,23.87,23.87,0,0,0,8.44-2A3.71,3.71,0,0,0,68.59,47.08Z"/><path class="cls-28" d="M59.91,50.35A41.17,41.17,0,0,1,52.29,50l-.52-1.77a22.4,22.4,0,0,0,7.87,1Z"/><polygon class="cls-9" points="63.12 52.09 56.62 52.09 56.74 50.27 59.65 50.22 63.01 50.16 63.12 52.09"/><polygon class="cls-18" points="60.27 52.09 56.62 52.09 56.74 50.27 59.65 50.22 60.27 52.09"/><polygon class="cls-29" points="51.27 59.84 49.76 59.7 48.3 59.56 48.42 49.24 49.58 49.47 50.89 49.72 51.27 59.84"/><polygon class="cls-30" points="49.76 59.7 48.3 59.56 48.42 49.24 49.58 49.47 49.76 59.7"/><polygon class="cls-29" points="72.35 49.24 72.38 59.5 68.99 59.56 68.4 49.43 69.58 49.37 72.35 49.24"/><polygon class="cls-30" points="71.81 59.47 69.05 59.44 68.4 49.43 69.58 49.37 71.81 59.47"/><polygon class="cls-31" points="4.07 7.75 3.85 9.23 32.34 9.46 30.98 7.64 4.07 7.75"/><path class="cls-32" d="M42.15,32.37S42,59.53,42,59.62a19.41,19.41,0,0,1-2.85.11L38.5,34.82l-8.53,0-25.21.08.57,24.8H2.25L1.48,32.06,32,32.29Z"/><path class="cls-33" d="M30,34.85l-25.21.08.57,24.8H2.25L1.48,32.06,32,32.29C31.39,33.06,30.61,34,30,34.85Z"/><polygon class="cls-8" points="1.11 26.56 1.48 32.06 3.16 30.27 1.11 26.56"/><path class="cls-8" d="M41.92,26.1l.23,6.27-2-2.1A17.61,17.61,0,0,0,41.92,26.1Z"/></g></g></g></svg>