<svg xmlns="http://www.w3.org/2000/svg" viewBox="0 0 655.67 206.58"><defs><style>.cls-1{fill:#f5d13a;}.cls-2{fill:#49423d;}</style></defs><title>z logo</title><g id="Слой_2" data-name="Слой 2"><g id="Layer_1" data-name="Layer 1"><path class="cls-1" d="M83.66,199.06q-.76,4.83-2.54,5.83a7.81,7.81,0,0,1-5.09.49L5.66,194.26c-3.08-.49-4.91-1.64-5.51-3.47q-.39-1.14.21-4.95L2.2,174.23a18.45,18.45,0,0,1,3.18-8.16L64.65,82.13q1.75-2.76-1.2-3.22L30.39,73.68c-2.21-.35-3.65-.86-4.3-1.54q-1.75-2-1-6.87l1.83-11.62c.4-2.53.92-4.18,1.54-4.95,1.23-1.39,3.26-1.87,6.1-1.42l63.16,10q4.24.68,5.07,2.65a11.11,11.11,0,0,1,.23,5.78L101,78.6a17.08,17.08,0,0,1-1,3.64,23,23,0,0,1-2.78,4.44l-57,81.64a2.33,2.33,0,0,0-.63,2.19,1.48,1.48,0,0,0,1.24,1.16l39.52,6.25c2.83.45,4.53,1.32,5.08,2.63a11,11,0,0,1,.23,5.73Z"/><path class="cls-2" d="M186.13,169.07q0,3.84-.75,5.13-1.5,2.36-5.79,2.35H123.11c-2.24,0-3.73-.28-4.48-.85-1.38-1.14-2.06-3.35-2.06-6.63V34.35q0-3.86.75-5.13c1-1.57,2.93-2.35,5.79-2.35H137.7c2.87,0,4.67.6,5.42,1.81a11.1,11.1,0,0,1,1.12,5.67V146.19c0,1.71.69,2.56,2.06,2.56h34.78c2.12,0,3.49.47,4.12,1.39a7.11,7.11,0,0,1,.93,4Z"/><path class="cls-2" d="M283.08,152.85q0,19-6.36,30.8Q266.82,202,242.32,202t-34.41-18.18q-6.36-11.76-6.35-31V58.12c0-2.56.24-4.27.74-5.13,1-1.56,2.93-2.35,5.8-2.35h14.58q4.31,0,5.43,1.82a11.06,11.06,0,0,1,1.12,5.66v94.52q0,8.13,1.5,12.19,3,8.13,11.59,8.12,6.92,0,10-4.7t3.09-15.61V58.12q0-3.84.75-5.13c1-1.56,2.92-2.35,5.79-2.35h14.59q4.29,0,5.42,1.82a11.06,11.06,0,0,1,1.12,5.66Z"/><path class="cls-2" d="M366.57,168.85A7.48,7.48,0,0,1,362,176q-4.59,2.23-21,2.24-25.81,0-35.72-15.82-6.74-10.91-6.73-33.15V68.56q0-19,7.85-29.29Q317,25.15,342.45,25.16q14,0,19.07,2.13a4.56,4.56,0,0,1,3.18,4.49V51.46a7.59,7.59,0,0,1-.37,2.67c-.25.64-.88,1-1.87,1q-4.31-1.06-8.88-2a41,41,0,0,0-8.32-1q-12.72,0-16.65,9.19-2.43,5.77-2.43,20.75v36.13q0,18.4,4.21,24.49t16.17,6.09q6.74,0,9.17-1.39c1.62-.92,4.3-1.39,8-1.39,1.87,0,2.8,1.29,2.8,3.85Z"/><path class="cls-2" d="M483.8,201.88c0,3.14-1.49,4.7-4.48,4.7H460.06a5.31,5.31,0,0,1-4.3-2,19.07,19.07,0,0,1-3-5.45l-25.43-59.45-8.22,12.83V199.1c0,3.28-.54,5.34-1.59,6.2a7.9,7.9,0,0,1-5,1.28H398q-4.31,0-5.43-1.81a11.1,11.1,0,0,1-1.12-5.67V64.38q0-3.84.75-5.13c1-1.57,2.93-2.35,5.8-2.35h14.58c2.87,0,4.67.61,5.42,1.81a11.11,11.11,0,0,1,1.13,5.67V105l26.36-43.19q3-4.92,7.67-4.92h20.75q3.56,0,3.56,3.85a6,6,0,0,1-.38,2.35,12,12,0,0,1-1.31,2.14l-29.54,46L481.93,195A17.13,17.13,0,0,1,483.8,201.88Z"/><path class="cls-2" d="M578.8,21.3,546.63,92.72q-.75,1.71-1.68,4a13.57,13.57,0,0,0-.93,5.23v54.75c0,3.28-.54,5.34-1.59,6.2a7.9,7.9,0,0,1-5,1.28H522.88c-2.24,0-3.73-.28-4.48-.85-1.38-1.14-2.06-3.35-2.06-6.63V101.91a27.56,27.56,0,0,0-.19-4.06,34.19,34.19,0,0,0-1.87-5.13L484.74,21.3a12.47,12.47,0,0,1-.94-3.85A2.4,2.4,0,0,1,485,15a7.29,7.29,0,0,1,2.9-.53h21.69A4.74,4.74,0,0,1,513.35,16a9.71,9.71,0,0,1,1.5,2.78l14.77,43.2a4.26,4.26,0,0,0,.93,1.71,4.34,4.34,0,0,0,.94-1.5l16.83-43a10.27,10.27,0,0,1,2.33-3.63,4,4,0,0,1,2.72-1.07h21.87q4.31,0,4.3,3.63a5.33,5.33,0,0,1-.37,2.14A4,4,0,0,0,578.8,21.3Z"/><path class="cls-2" d="M652.23,9.36c-15.76-7-35.53-3.11-47.71,8.9C599.38,7,588.57-.41,575.48,0a.24.24,0,0,0-.06.47,32.32,32.32,0,0,1,23.86,26.6c.33,2.37,3.87,3.72,5.74,2.34,13.29-9.79,26.25-11.88,42-7.67C654.16,23.68,659.45,12.58,652.23,9.36Z"/></g></g></svg>