<svg xmlns="http://www.w3.org/2000/svg" width="20.07" height="18.625"><path data-name="Forma 1" d="M18.4 1.749a5.467 5.467 0 00-8.02 0l-.36.373-.35-.373a5.485 5.485 0 00-7.75-.284c-.1.091-.19.186-.29.284a6.157 6.157 0 000 8.357L9.5 18.4a.714.714 0 001.01.028l.03-.028 7.86-8.294a6.136 6.136 0 000-8.357zm-1.03 7.37l-7.35 7.746-7.35-7.746a4.717 4.717 0 010-6.386 4.059 4.059 0 015.73-.23c.08.074.15.15.23.23l.87.922a.738.738 0 001.04 0l.88-.921a4.046 4.046 0 015.72-.23c.08.073.15.149.23.23a4.664 4.664 0 010 6.385z" fill="#f34300" fill-rule="evenodd"/></svg>