<svg xmlns="http://www.w3.org/2000/svg" width="22.43" height="22.438"><path data-name="Forma 1" d="M22.39 17.385a2.782 2.782 0 00-1.22-.845c-.2-.117-.48-.276-.86-.478s-.71-.388-1.01-.558-.59-.334-.85-.494c-.04-.032-.18-.125-.4-.279a3.961 3.961 0 00-.57-.343 1.006 1.006 0 00-.45-.111 1.336 1.336 0 00-.8.454 7.2 7.2 0 00-.87.988 9.836 9.836 0 01-.85.988 1.194 1.194 0 01-.73.454 1.073 1.073 0 01-.36-.079q-.21-.08-.33-.136c-.07-.037-.2-.111-.38-.223s-.28-.173-.3-.184a16.643 16.643 0 01-3.75-2.773 16.86 16.86 0 01-2.77-3.746q-.015-.032-.18-.3a4.329 4.329 0 01-.23-.383c-.03-.074-.08-.183-.13-.326a.931.931 0 01-.08-.358 1.214 1.214 0 01.45-.734 8.832 8.832 0 01.99-.844 8.046 8.046 0 00.99-.877 1.327 1.327 0 00.45-.8 1.1 1.1 0 00-.11-.453 4.367 4.367 0 00-.34-.567 21.43 21.43 0 01-.28-.4c-.16-.267-.32-.55-.49-.853s-.36-.641-.56-1.012-.37-.659-.48-.86A2.646 2.646 0 005.04.041a.854.854 0 00-.33-.048 5.134 5.134 0 00-1.12.16 6.274 6.274 0 00-1.1.334A4.312 4.312 0 00.8 2.431a6.2 6.2 0 00-.81 2.965 5.726 5.726 0 00.06.837 5.456 5.456 0 00.2.917c.09.34.17.593.23.757s.17.459.32.884.26.685.29.781a14.322 14.322 0 001.32 2.789 23.736 23.736 0 003.44 4.216 23.3 23.3 0 004.22 3.435 14.209 14.209 0 002.78 1.323c.1.032.36.128.79.287s.71.269.88.327.42.135.76.232a7.1 7.1 0 00.91.2 6.281 6.281 0 00.84.056 6.207 6.207 0 002.97-.813 4.26 4.26 0 001.94-1.69 5.636 5.636 0 00.33-1.092 5.039 5.039 0 00.16-1.124.967.967 0 00-.04-.333z" fill="#f7f3ef" fill-rule="evenodd"/></svg>