<svg xmlns="http://www.w3.org/2000/svg" width="31.94" height="31.969"><path data-name="Forma 1 копия 3" d="M31.88 24.762a3.913 3.913 0 00-1.72-1.2q-.435-.249-1.23-.68t-1.44-.8c-.43-.241-.84-.476-1.21-.7-.07-.046-.25-.179-.57-.4a6.519 6.519 0 00-.81-.488 1.466 1.466 0 00-.65-.158 1.871 1.871 0 00-1.13.646 11.578 11.578 0 00-1.25 1.407 14.2 14.2 0 01-1.2 1.408 1.721 1.721 0 01-1.04.647 1.485 1.485 0 01-.51-.114c-.21-.075-.36-.14-.47-.192s-.29-.159-.55-.318-.4-.247-.43-.262a22.525 22.525 0 01-9.28-9.282c-.02-.03-.1-.174-.26-.432s-.27-.438-.32-.545-.11-.261-.19-.464a1.426 1.426 0 01-.11-.511 1.715 1.715 0 01.64-1.044 13.189 13.189 0 011.41-1.2 10.771 10.771 0 001.41-1.248 1.874 1.874 0 00.64-1.135 1.546 1.546 0 00-.15-.646 6.806 6.806 0 00-.49-.807c-.22-.318-.36-.506-.4-.567-.23-.378-.46-.782-.7-1.214s-.51-.912-.8-1.441-.51-.937-.68-1.225A3.918 3.918 0 007.19.072a1.318 1.318 0 00-.48-.069 7.514 7.514 0 00-1.6.227 8.951 8.951 0 00-1.55.477 6.086 6.086 0 00-2.41 2.769A8.82 8.82 0 00-.01 7.697a9.284 9.284 0 00.08 1.192 10.529 10.529 0 00.29 1.3c.13.483.24.843.32 1.078s.24.654.47 1.259.36.976.41 1.112a20.947 20.947 0 001.88 3.972 34.083 34.083 0 004.89 6 33.709 33.709 0 006.01 4.892 20.456 20.456 0 003.97 1.883q.21.069 1.11.409t1.26.466q.345.124 1.08.329a9.848 9.848 0 001.3.284 9.032 9.032 0 001.19.079 8.837 8.837 0 004.23-1.157 6.15 6.15 0 002.77-2.406 9.551 9.551 0 00.47-1.555 7.608 7.608 0 00.23-1.6 1.187 1.187 0 00-.07-.472z" fill="#f34300" fill-rule="evenodd"/></svg>