<svg width="21" height="21" fill="none" xmlns="http://www.w3.org/2000/svg"><path fill-rule="evenodd" clip-rule="evenodd" d="M1.692.591h3.854c.605 0 1.1.496 1.1 1.101 0 1.377.22 2.698.628 3.93.121.386.033.816-.275 1.124L4.577 9.168a16.678 16.678 0 007.255 7.255l2.422-2.422c.22-.209.496-.32.782-.32.11 0 .231.012.341.056 1.233.407 2.566.627 3.93.627.607 0 1.102.496 1.102 1.101v3.843c0 .605-.495 1.1-1.101 1.1C8.97 20.409.59 12.03.59 1.693c0-.605.496-1.1 1.101-1.1zM4.49 2.793c.066.98.23 1.938.495 2.852L3.663 6.966a16.322 16.322 0 01-.837-4.173H4.49zm10.855 13.234c.936.264 1.894.43 2.863.495v1.64a16.984 16.984 0 01-4.184-.825l1.321-1.31z" fill="#AFAFAF"/></svg>