<svg width="24" height="25" fill="none" xmlns="http://www.w3.org/2000/svg"><path d="M12.292 24.18c2.32 0 4.783-.587 5.911-1.173l-.767-2.292c-.857.324-2.933.92-4.99.92-5.974 0-9.205-3.23-9.205-9.078 0-5.45 3.087-9.25 8.98-9.25 4.81 0 8.392 2.725 8.383 7.851.009 3.727-.569 5.406-2.013 5.406-.767 0-1.218-.614-1.227-1.508v-8.59h-2.518v1.01h-.126c-.289-.794-2.022-1.525-3.98-1.254-2.517.334-4.936 2.4-4.936 6.263 0 3.98 2.166 6.317 5.108 6.452 2.048.1 3.636-.812 4.06-1.886h.109c.216 1.353 1.408 2.093 3.23 1.994 3.88-.144 4.99-3.61 4.982-7.734.009-5.928-3.98-10.513-11.01-10.513C4.793.798.435 5.41.426 12.593.435 19.948 4.72 24.18 12.292 24.18zm-.631-7.833c-2.356 0-3.15-1.913-3.159-3.97.01-2.058 1.155-3.565 3.177-3.565 2.247 0 3.077 1.1 3.086 3.555.027 2.635-.821 3.98-3.104 3.98z" fill="#AFAFAF"/></svg>