<svg width="20" height="20" fill="none" xmlns="http://www.w3.org/2000/svg"><path fill-rule="evenodd" clip-rule="evenodd" d="M1.111 0H5c.611 0 1.111.5 1.111 1.111 0 1.389.222 2.722.633 3.967.123.389.034.822-.277 1.133L4.022 8.656a16.832 16.832 0 007.322 7.322l2.445-2.445c.222-.21.5-.322.789-.322.11 0 .233.011.344.056 1.245.41 2.59.633 3.967.633.611 0 1.111.5 1.111 1.111v3.878C20 19.5 19.5 20 18.889 20 8.456 20 0 11.544 0 1.111 0 .5.5 0 1.111 0zm2.822 2.222c.067.99.234 1.956.5 2.878L3.1 6.433a16.473 16.473 0 01-.845-4.21h1.678zM14.89 15.578c.944.267 1.911.433 2.889.5v1.655a17.143 17.143 0 01-4.222-.833l1.333-1.322z" fill="#E63232"/></svg>