<svg width="120" height="120" viewBox="0 0 120 120" fill="none" xmlns="http://www.w3.org/2000/svg">
<circle cx="60" cy="60" r="60" fill="#0038FF" fill-opacity="0.4"/>
<circle cx="60" cy="60" r="38" fill="#0038FF" fill-opacity="0.4"/>
<path d="M77.6584 76.0415L68.3638 66.8954C70.7978 64.2509 72.2933 60.7536 72.2933 56.9052C72.2921 48.6728 65.5113 42 57.1461 42C48.7808 42 42 48.6728 42 56.9052C42 65.1377 48.7808 71.8105 57.1461 71.8105C60.7604 71.8105 64.0754 70.5603 66.6793 68.4819L76.01 77.6641C76.4646 78.112 77.2027 78.112 77.6574 77.6641C78.1131 77.2163 78.1131 76.4893 77.6584 76.0415ZM57.1461 69.5172C50.0682 69.5172 44.3304 63.8707 44.3304 56.9052C44.3304 49.9398 50.0682 44.2933 57.1461 44.2933C64.224 44.2933 69.9617 49.9398 69.9617 56.9052C69.9617 63.8707 64.224 69.5172 57.1461 69.5172Z" fill="white"/>
</svg>
