<svg height="512pt" viewBox="0 0 512 512" width="512pt" xmlns="http://www.w3.org/2000/svg"><path d="M256 60c8.29 0 15-6.71 15-15V15c0-8.29-6.71-15-15-15s-15 6.71-15 15v30c0 8.29 6.71 15 15 15zm70.605 25.605l30-30c5.86-5.859 5.86-15.351 0-21.21s-15.351-5.86-21.21 0l-30 30c-5.86 5.859-5.86 15.351 0 21.21s15.351 5.86 21.21 0zm-141.21 0c5.859 5.86 15.351 5.86 21.21 0s5.86-15.351 0-21.21l-30-30c-5.859-5.86-15.351-5.86-21.21 0s-5.86 15.351 0 21.21zM135 212c0-33.09-26.91-60-60-60s-60 26.91-60 60 26.91 60 60 60 60-26.91 60-60zm0 0"/><path d="M256 121c-24.813 0-45 20.188-45 45 0 57.89-48.11 106-106 106H75c-41.352 0-75 33.648-75 75v150c0 8.29 6.71 15 15 15h120c8.277 0 14.8-6.71 14.8-14.984l.087-140.274C237.484 336.102 301 257.23 301 166c0-24.813-20.188-45-45-45zm241 91c0-33.09-26.91-60-60-60s-60 26.91-60 60 26.91 60 60 60 60-26.91 60-60zm0 0"/><path d="M437 272h-30c-34.492 0-65.89-17.941-85.043-43.707-8.777 30.969-24.066 59.074-44.484 83.14 23.918 21.114 53.472 37.872 84.636 45.294l.09 140.289C362.2 505.289 368.723 512 377 512h120c8.29 0 15-6.71 15-15V347c0-41.352-33.648-75-75-75zm0 0"/></svg>