<svg width="63" height="63" fill="none" xmlns="http://www.w3.org/2000/svg"><path d="M63 32.516v-8.153a5.05 5.05 0 00-3.62-4.866l-6.54-1.963v-1.543a7.105 7.105 0 003.048-5.829v-3.05A7.12 7.12 0 0048.775 0a7.12 7.12 0 00-7.113 7.113v3.048a7.102 7.102 0 003.048 5.829v1.543l-5.764 1.73a11.704 11.704 0 00-7.846-3.005 11.73 11.73 0 00-7.641 2.827l-5.168-1.55V15.99a7.105 7.105 0 003.048-5.829v-3.05A7.12 7.12 0 0014.226 0a7.12 7.12 0 00-7.113 7.113v3.048a7.102 7.102 0 003.049 5.829v1.543L3.62 19.495A5.051 5.051 0 000 24.364v8.153h2.032v-8.153c0-1.357.872-2.53 2.172-2.92l6.543-1.963c.592.768 1.736 1.859 3.478 1.859 1.743 0 2.887-1.09 3.478-1.859l4.168 1.25a11.728 11.728 0 00-2.472 5.904 7.088 7.088 0 00-5.174-2.247A7.12 7.12 0 007.113 31.5v3.048a7.102 7.102 0 003.049 5.829v1.543L3.62 43.883A5.051 5.051 0 000 48.75v9.17h12.193c.56 0 1.016.456 1.016 1.015V63h36.58v-4.065c0-.56.457-1.016 1.017-1.016H63v-9.17a5.05 5.05 0 00-3.621-4.865l-6.54-1.963v-1.543a7.105 7.105 0 003.048-5.829v-3.048a7.12 7.12 0 00-7.113-7.113 7.09 7.09 0 00-5.081 2.144v-.963a5.464 5.464 0 00-2.792-4.769l4.395-1.319c.591.767 1.735 1.858 3.478 1.858 1.742 0 2.886-1.09 3.478-1.859l6.544 1.963a3.028 3.028 0 012.171 2.92v8.153H63zM14.227 2.032c2.802 0 5.08 2.28 5.08 5.08h-4.659a2.47 2.47 0 01-1.735-.718l-.718-.718-.718.718a2.47 2.47 0 01-1.735.719h-.595a5.086 5.086 0 015.08-5.08zm-5.08 8.13V9.144h.595a4.45 4.45 0 002.453-.728 4.45 4.45 0 002.453.728h4.66v1.016c0 2.802-2.28 5.08-5.08 5.08a5.087 5.087 0 01-5.081-5.08zm5.08 9.144c-1.08 0-1.78-.907-2.032-1.295v-1.035a7.071 7.071 0 004.065-.001v1.035c-.253.39-.953 1.296-2.033 1.296zm27.931 17.835a7.144 7.144 0 002.553 3.237v1.543l-6.54 1.963a4.987 4.987 0 00-.629.24l-.96-.222V41.9a8.17 8.17 0 002.467-3.333 5.06 5.06 0 003.11-1.426zm-10.656 6.553a8.074 8.074 0 003.048-.599v1.107l-3.05 2.286-3.048-2.286v-1.107c.942.383 1.97.599 3.048.599zm-4.297 2.112l2.478 1.859-2.549 1.529-.644-3.222.715-.166zm3.174 8.049h2.245l.79 7.113h-3.826l.79-7.113zm2.422-2.032h-2.6l-.583-1.75 1.883-1.13 1.883 1.13-.583 1.75zm.52-4.158l2.477-1.859.715.165-.644 3.222-2.549-1.528zm7.55-12.082a3.047 3.047 0 01-1.284.821c.028-.276.044-.556.044-.84v-4.862c1.093.415 1.907 1.377 2.016 2.527a3.031 3.031 0 01-.777 2.354zm-3.273-.018A6.103 6.103 0 0131.5 41.66a6.103 6.103 0 01-6.096-6.096v-5.081h3.45c2.214 0 4.369-.553 6.295-1.609l.804 1.609h1.644v5.08zm-14.182.839a3.047 3.047 0 01-1.283-.821 3.029 3.029 0 01-.777-2.353c.11-1.15.923-2.113 2.017-2.527v4.862c0 .283.015.563.043.839zm.538 2.163A8.154 8.154 0 0026.42 41.9v2.002l-.96.221a5.253 5.253 0 00-.628-.24l-6.541-1.962v-1.543a7.15 7.15 0 002.552-3.237 5.06 5.06 0 003.11 1.426zM14.226 26.42c2.802 0 5.08 2.28 5.08 5.081h-.594a2.47 2.47 0 01-1.735-.718l-.718-.719-.719.719a2.47 2.47 0 01-1.734.718h-4.66a5.086 5.086 0 015.08-5.08zm-5.08 8.13v-1.017h4.66a4.45 4.45 0 002.453-.728 4.45 4.45 0 002.453.728h.595v1.016a5.087 5.087 0 01-5.08 5.081 5.087 5.087 0 01-5.081-5.08zm5.08 7.112c.706 0 1.388-.106 2.033-.3v1.036c-.253.39-.953 1.297-2.033 1.297s-1.78-.908-2.032-1.296v-1.035a7.105 7.105 0 002.032.298zm-2.032 14.226H8.13v-7.113H6.097v7.113H2.033V48.75c0-1.357.872-2.53 2.172-2.92l6.543-1.963c.592.768 1.736 1.859 3.478 1.859 1.743 0 2.887-1.09 3.478-1.859l3.854 1.157-2.834.653a7.081 7.081 0 00-5.514 6.931v1.247h2.032v-1.247c0-2.38 1.62-4.415 3.939-4.95l5.327-1.23 1.197 5.991 2.126-1.275.602 1.804-.89 8.02h-5.188v-8.13h-2.032v8.13h-5.08v-2.033a3.052 3.052 0 00-3.049-3.048zm46.602-10.056a3.028 3.028 0 012.172 2.919v7.137h-4.064v-7.113H54.87v7.113h-4.064a3.052 3.052 0 00-3.048 3.048v2.033h-5.081v-8.13h-2.032v8.13h-5.188l-.89-8.02.6-1.804 2.127 1.275 1.197-5.991 5.328 1.23a5.059 5.059 0 013.939 4.95v1.247h2.032v-1.247a7.081 7.081 0 00-5.513-6.93l-2.834-.654 3.853-1.157c.591.768 1.735 1.859 3.478 1.859 1.742 0 2.886-1.09 3.478-1.859l6.543 1.964zm-7.99-3.433c-.251.39-.951 1.295-2.031 1.295-1.082 0-1.783-.91-2.033-1.295v-1.036a7.07 7.07 0 002.033.3 7.07 7.07 0 002.032-.3v1.036zm-2.031-2.769a5.087 5.087 0 01-5.081-5.08v-1.017h.595a4.45 4.45 0 002.453-.728 4.45 4.45 0 002.453.728h4.66v1.016a5.086 5.086 0 01-5.08 5.081zm0-13.21c2.801 0 5.08 2.28 5.08 5.081h-4.66a2.47 2.47 0 01-1.734-.718l-.719-.719-.718.719a2.47 2.47 0 01-1.735.718h-.595c0-2.801 2.28-5.08 5.08-5.08zm-7.113 3.135a5.338 5.338 0 00-3.223-1.102h-1.23l-1.25-2.5-.957.638a11.047 11.047 0 01-6.149 1.862h-4.29a5.338 5.338 0 00-3.224 1.102v-1.503c0-5.381 4.38-9.76 9.761-9.76a9.699 9.699 0 016.903 2.858l1.078 1.078.227.076a3.438 3.438 0 012.354 3.265v3.986zm7.113-27.522c2.801 0 5.08 2.28 5.08 5.08h-.595a2.47 2.47 0 01-1.735-.718l-.718-.718-.718.718a2.47 2.47 0 01-1.735.719h-4.66c0-2.801 2.28-5.08 5.08-5.08zm-5.081 8.13V9.144h4.66a4.45 4.45 0 002.453-.728 4.45 4.45 0 002.453.728h.595v1.016a5.085 5.085 0 01-5.08 5.08 5.087 5.087 0 01-5.081-5.08zm5.08 9.144c-1.081 0-1.782-.91-2.032-1.295v-1.037a7.07 7.07 0 002.033.3 7.07 7.07 0 002.032-.3v1.036c-.252.39-.952 1.296-2.032 1.296z" fill="url(#paint0_linear)"/><defs><linearGradient id="paint0_linear" x1="-13.184" y1="11.707" x2="78.893" y2="-15.304" gradientUnits="userSpaceOnUse"><stop stop-color="#2C4FCA"/><stop offset="1" stop-color="#047FD8"/></linearGradient></defs></svg>