<svg width="61" height="61" fill="none" xmlns="http://www.w3.org/2000/svg"><path fill-rule="evenodd" clip-rule="evenodd" d="M60.907 59.924c0 .543-.44.982-.983.982H16.701a.982.982 0 01-.983-.982v-6.877H.983A.982.982 0 010 52.065V.982C0 .44.44 0 .983 0h39.294c.542 0 .983.44.983.982v24.56h12.77c.542 0 .983.44.983.982v14.735h4.911c.543 0 .983.44.983.982v17.683zm-9.824-16.7h-3.93v3.93h3.93v-3.93zM35.365 27.506v13.753h17.683V27.506h-5.894v4.912c0 .543-.44.982-.983.982h-3.93a.982.982 0 01-.981-.982v-4.912h-5.895zm9.824 0h-1.965v3.93h1.965v-3.93zm-29.47 23.577V42.24c0-.543.44-.982.982-.982h16.7v-5.894H15.718V33.4h17.683v-1.964H15.718V29.47h17.683v-2.947c0-.543.44-.983.982-.983h4.912V1.965H1.965v49.118h13.753zm13.752-7.86h-3.93v3.93h3.93v-3.93zm-5.894 0h-5.894v15.718H37.33V43.224h-5.894v4.912c0 .543-.44.982-.982.982h-5.895a.982.982 0 01-.982-.982v-4.912zm15.718 15.718h19.647V43.224h-5.894v4.912c0 .543-.44.982-.983.982h-5.894a.982.982 0 01-.982-.982v-4.912h-5.894v15.718zm-34.383-45.4h7.86c.541 0 .982-.44.982-.982V4.7a.983.983 0 00-.983-.982H4.912a.983.983 0 00-.982.982v7.859c0 .542.44.982.982.982zm.983-7.859h5.894v5.895H5.895V5.682zm-.983 19.86h7.86c.541 0 .982-.44.982-.983V16.7a.983.983 0 00-.983-.982H4.912a.983.983 0 00-.982.982v7.859c0 .542.44.982.982.982zm.983-7.86h5.894v5.895H5.895v-5.895zm-.983 21.612h7.86c.541 0 .982.44.982.983v7.859c0 .543-.44.982-.983.982H4.912a.982.982 0 01-.982-.982v-7.86c0-.543.44-.982.982-.982zm.983 7.86h5.894v-5.895H5.895v5.894zm9.823-41.26H37.33V7.86H15.718V5.894zm21.612 3.93H15.718v1.964H37.33V9.824zm-21.612 7.859H37.33v1.964H15.718v-1.964zm21.612 3.929H15.718v1.965H37.33v-1.965zm-23.289 4.217l-1.677 1.677H4.912a.983.983 0 00-.982.982v7.86c0 .543.44.982.982.982h7.86c.541 0 .982-.44.982-.983v-7.452l1.676-1.677-1.389-1.389zM10.4 29.471l-4.505 4.505V29.47H10.4zm1.389 5.894H7.284l4.505-4.505v4.505z" fill="url(#paint0_linear)"/><defs><linearGradient id="paint0_linear" x1="-12.746" y1="11.318" x2="76.271" y2="-14.795" gradientUnits="userSpaceOnUse"><stop stop-color="#2C4FCA"/><stop offset="1" stop-color="#047FD8"/></linearGradient></defs></svg>