<svg width="67" height="67" fill="none" xmlns="http://www.w3.org/2000/svg"><path d="M64.894 57.979l.481-3.845a70.93 70.93 0 00.545-8.747c0-3.015-1.244-5.742-3.242-7.704V24.855H61.14a1.174 1.174 0 01-1.147-.959 1.169 1.169 0 01.698-1.303l1.42-.589-3.31-7.987-1.421.589a1.172 1.172 0 01-1.425-.443 1.17 1.17 0 01.146-1.474l1.086-1.09-6.11-6.11-1.09 1.088a1.176 1.176 0 01-1.913-1.287l.588-1.416L40.671.565l-.583 1.414c-.213.516-.77.81-1.325.701a1.165 1.165 0 01-.94-1.142V0h-8.645v1.538c0 .555-.396 1.036-.959 1.147a1.171 1.171 0 01-1.302-.697L26.33.566l-7.99 3.31.587 1.414a1.181 1.181 0 01-.432 1.428 1.18 1.18 0 01-1.488-.146l-1.083-1.08-6.11 6.11 1.08 1.085c.396.396.458 1.021.142 1.493-.308.46-.902.643-1.415.43l-1.423-.59-3.309 7.987 1.409.585c.518.215.815.77.706 1.322-.107.543-.59.94-1.148.94H4.323V35.52a5.076 5.076 0 00-2.161 4.148c0 .937.256 1.827.712 2.595a4.88 4.88 0 002.583 7.158 6.477 6.477 0 002.65 4.465l-.354 1.416-1.91.478a7.703 7.703 0 00-3.584 2.028 7.668 7.668 0 00-2.258 5.455V67h67v-3.737a7.65 7.65 0 00-2.107-5.284zm-49.563-.62l1.546.386 2.107.81-3.653-1.197zm3.653 1.197l-4.888 6.283H9.68l-4.89-6.284 5.303-2.775 2.618.79 2.619.788 3.653 1.198zm0 0c.36.224.7.48 1.003.782a5.51 5.51 0 011.627 3.925v1.576h-7.518l4.888-6.283zm4.79 4.707c0-1.484.578-2.878 1.627-3.926a5.56 5.56 0 011.003-.782l4.888 6.284h-7.517v-1.576zm3.243-16.662v.148a7.234 7.234 0 01-.71-1.506 7.191 7.191 0 01-.37-2.285v-.813a5.41 5.41 0 015.402-5.403h4.323a5.41 5.41 0 015.403 5.403v.813c0 .779-.124 1.548-.37 2.285a7.208 7.208 0 01-.71 1.506v-.281a3.246 3.246 0 00-3.242-3.242H33.5a1.082 1.082 0 010-2.161h1.08v-2.162H33.5a3.247 3.247 0 00-3.2 2.727 5.4 5.4 0 00-3.283 4.97zm3.242-11.934c-.763.11-1.49.333-2.162.654v-2.902h2.162v2.248zm8.645.654a7.493 7.493 0 00-2.162-.654V32.42h2.162v2.902zM29.178 46.6c0-1.154.608-2.193 1.554-2.77a3.245 3.245 0 002.769 1.556h3.242c.596 0 1.08.485 1.08 1.08v2.162a4.327 4.327 0 01-4.322 4.323 4.327 4.327 0 01-4.323-4.323V46.6zm4.323 13.105l2.208 5.133h-4.417l-4.888-6.284 7.097 1.15zm2.208 5.133l-2.208-5.133 3.444-2.349 3.652 1.199-4.888 6.283zm-2.208-9.726a6.43 6.43 0 001.794-.258l.215.862-2.01 1.339-2.008-1.339.215-.862a6.43 6.43 0 001.794.258zm-3.443 2.245l3.443 2.348-7.097-1.151 2.107-.81 1.547-.386zm10.54 1.198c.36.224.7.48 1.002.782a5.51 5.51 0 011.626 3.925v1.576H35.71l4.888-6.283zm4.79 4.707c0-1.484.577-2.878 1.626-3.926a5.56 5.56 0 011.003-.782l4.888 6.284h-7.517v-1.576zm2.629-4.708l9.305 6.284h-4.417l-4.888-6.284zm9.305 6.284l-9.305-6.284 2.107-.81.123-.032a4.307 4.307 0 003.055-2.864 6.42 6.42 0 001.812.264 6.48 6.48 0 001.813-.263 4.306 4.306 0 003.053 2.864l2.23.842-4.888 6.283zm-2.209-11.887a4.327 4.327 0 01-4.322-4.323V46.6c0-1.49 1.01-2.784 2.456-3.145l.089-.023a4.79 4.79 0 002.672 1.32l2.5.358c.53.075.928.536.928 1.07v2.448a4.327 4.327 0 01-4.322 4.323zm8.646-7.565c0 2.82-.178 5.673-.528 8.478l-.325 2.599a7.724 7.724 0 00-1.747-.684l-.654-.163a2.156 2.156 0 01-1.571-1.573l-.04-.158a6.474 6.474 0 002.703-5.257V46.18a3.256 3.256 0 00-2.782-3.208l-2.5-.358a2.67 2.67 0 01-2.282-2.63v-1.08h-2.161v1.08c0 .541.091 1.066.261 1.558a5.395 5.395 0 00-3.503 5.059v2.028c0 2.165 1.07 4.08 2.704 5.259l-.038.157a2.159 2.159 0 01-1.574 1.573l-.653.163a7.717 7.717 0 00-1.748.684l-.325-2.6a68.723 68.723 0 01-.528-8.478c0-4.767 3.879-8.645 8.645-8.645 4.767 0 8.646 3.878 8.646 8.645zM9.126 24.33a3.356 3.356 0 00-1.437-3.436l1.701-4.105a3.346 3.346 0 003.446-1.415 3.346 3.346 0 00-.011-3.727l3.142-3.142a3.348 3.348 0 003.727.01 3.347 3.347 0 001.415-3.446l4.103-1.7a3.353 3.353 0 003.443 1.434 3.337 3.337 0 002.625-2.64h4.44a3.34 3.34 0 006.066 1.205l4.105 1.7a3.353 3.353 0 001.42 3.45 3.337 3.337 0 003.723-.012l3.14 3.139a3.338 3.338 0 003.436 5.143l1.7 4.103a3.347 3.347 0 00-1.434 3.442 3.336 3.336 0 002.64 2.625v1.649l-4.503-1.97C54.737 15.286 44.988 6.484 33.5 6.484c-11.488 0-21.237 8.803-22.513 20.152l-4.504 1.97v-1.65a3.342 3.342 0 002.642-2.627zm12.487-2.342L13.3 25.624C15 15.967 23.534 8.645 33.502 8.645c3.39 0 6.61.855 9.456 2.352l-21.344 3.202v7.788zm2.162-5.927l19.451-2.918v4.322l-19.451 2.918V16.06zm21.613-3.55c4.275 3.069 7.364 7.72 8.314 13.114l-8.314-3.637V12.51zM6.484 30.966l15.13-6.62L23.773 23v-2.618l19.452-2.918V23.5l2.162.846 15.129 6.619v5.078c-.679-.395-1.4-.724-2.162-.964l-2.16-.443a10.804 10.804 0 00-2.162 0l-2.161.443c-.762.24-1.483.57-2.162.964l-2.161 1.64a10.769 10.769 0 00-3.242 7.704c0 2.91.184 5.853.545 8.746l.48 3.845a7.759 7.759 0 00-1.025 1.36 7.723 7.723 0 00-1.179-1.529 7.7 7.7 0 00-3.583-2.028l-1.91-.478-.355-1.415a6.491 6.491 0 002.483-3.607l.549-.523a9.42 9.42 0 002.433-3.83 9.37 9.37 0 00.481-2.97v-.813c0-2.055-.826-3.92-2.16-5.283v-6.604H34.58v4.323h-2.16v-4.323h-6.484v6.604a7.537 7.537 0 00-2.161 5.283v.813c0 1.012.162 2.012.482 2.968a9.413 9.413 0 002.431 3.83l.55.524a6.5 6.5 0 002.484 3.606l-.355 1.416-1.91.478a7.704 7.704 0 00-3.584 2.028 7.8 7.8 0 00-1.179 1.528 7.72 7.72 0 00-1.179-1.528 7.699 7.699 0 00-3.583-2.028l-1.91-.478-.355-1.416a6.492 6.492 0 002.483-3.606l.549-.523a9.419 9.419 0 002.432-3.83 9.35 9.35 0 00.482-2.97c0-2.152-.822-4.11-2.16-5.596l-2.162-1.729a8.308 8.308 0 00-2.161-.828l-2.162-.223H7.25a4.97 4.97 0 00-.766.077v-3.693zm.766 5.777h5.986a6.223 6.223 0 016.216 6.216 7.2 7.2 0 01-.37 2.285 7.208 7.208 0 01-.71 1.506v-.281a3.246 3.246 0 00-3.242-3.242h-3.242a1.082 1.082 0 010-2.161h1.08v-2.162h-1.08a3.247 3.247 0 00-3.201 2.727 5.355 5.355 0 00-1.709 1.174l-1.037-.518a2.907 2.907 0 01-1.618-2.618 2.93 2.93 0 012.927-2.926zm-2.927 8.062c0-.303.056-.598.153-.879.16.105.324.206.498.294l.817.408a5.389 5.389 0 00-.387 1.974v.375a2.719 2.719 0 01-1.08-2.172zM7.565 46.6c0-1.154.609-2.193 1.554-2.77a3.245 3.245 0 002.769 1.556h3.242c.596 0 1.08.485 1.08 1.08v2.162a4.327 4.327 0 01-4.322 4.323 4.327 4.327 0 01-4.323-4.323V46.6zm4.323 8.512a6.43 6.43 0 001.794-.258l1.649 2.504-2.619-.79-2.618-.79-.215-.062.215-.862a6.43 6.43 0 001.794.258zm-3.443 2.245l1.649-1.578-5.303 2.775 2.106-.81 1.548-.386zm-6.283 5.905c0-1.484.577-2.878 1.626-3.926a5.557 5.557 0 011.003-.782l4.888 6.284H2.162v-1.576zm62.677 1.576h-7.517l4.888-6.283c.36.224.7.48 1.003.782a5.51 5.51 0 011.626 3.925v1.576z" fill="url(#paint0_linear)"/><defs><linearGradient id="paint0_linear" x1="-14.021" y1="12.451" x2="83.902" y2="-16.275" gradientUnits="userSpaceOnUse"><stop stop-color="#2C4FCA"/><stop offset="1" stop-color="#047FD8"/></linearGradient></defs></svg>