<svg width="48" height="63" fill="none" xmlns="http://www.w3.org/2000/svg"><path fill-rule="evenodd" clip-rule="evenodd" d="M46.117 4.145H33.584v-.937A3.21 3.21 0 0030.374 0H16.66a3.211 3.211 0 00-3.208 3.208v.937H.917A.915.915 0 000 5.061v56.252a.916.916 0 00.917.916h45.2a.916.916 0 00.916-.916V5.061a.915.915 0 00-.916-.916zm-6.353 6.995v43.85H7.269V11.14h32.495zM15.282 3.208a1.377 1.377 0 011.378-1.376h13.714a1.378 1.378 0 011.376 1.376v6.1H15.282v-6.1zm29.92 57.19H1.831V5.977H13.45v3.33H6.353a.916.916 0 00-.916.916v45.681a.916.916 0 00.916.916H40.68a.913.913 0 00.916-.916v-45.68a.917.917 0 00-.916-.916h-7.096v-3.33h11.617v54.42zM11.82 38.096h8.232a.915.915 0 00.916-.916v-6.847l1.844-1.844a.916.916 0 00-1.296-1.295l-.979.979a.91.91 0 00-.485-.142H11.82a.917.917 0 00-.916.916v8.233a.916.916 0 00.916.916zm.914-8.233h6.112l-2.904 2.905-.73-.73a.916.916 0 00-1.296 1.294l1.378 1.379a.915.915 0 001.296 0l2.546-2.546v4.099h-6.402v-6.4zm7.318 21.711H11.82a.916.916 0 01-.916-.916v-8.232a.916.916 0 01.916-.916h8.232c.172 0 .34.05.485.142l.98-.98a.915.915 0 111.295 1.295l-1.844 1.844v6.847a.915.915 0 01-.916.916zm-1.206-8.232h-6.112v6.4h6.402v-4.099L16.59 48.19a.914.914 0 01-1.296 0l-1.378-1.378a.916.916 0 011.296-1.295l.73.73 2.904-2.904zM11.82 24.618h8.232a.915.915 0 00.916-.916v-6.847l1.844-1.844a.916.916 0 00-1.296-1.295l-.979.98a.908.908 0 00-.485-.142H11.82a.916.916 0 00-.916.916v8.232a.916.916 0 00.916.916zm.914-8.232h6.112l-2.904 2.904-.73-.73a.916.916 0 10-1.296 1.295l1.378 1.378a.915.915 0 001.296 0l2.546-2.546v4.1h-6.402v-6.401zm22.48 4.116H24.382a.916.916 0 010-1.832h10.832a.916.916 0 010 1.832zM24.382 33.981h10.832a.916.916 0 000-1.833H24.382a.916.916 0 000 1.832zm10.832 13.478H24.382a.916.916 0 010-1.832h10.832a.916.916 0 010 1.832z" fill="url(#paint0_linear)"/><defs><linearGradient id="paint0_linear" x1="-9.842" y1="11.564" x2="61.316" y2="-4.213" gradientUnits="userSpaceOnUse"><stop stop-color="#2C4FCA"/><stop offset="1" stop-color="#047FD8"/></linearGradient></defs></svg>