<svg width="62" height="62" viewBox="0 0 62 62" fill="none" xmlns="http://www.w3.org/2000/svg">
<path fill-rule="evenodd" clip-rule="evenodd" d="M50.9234 5.99093H45.3458L39.6475 11.6893L38.2356 10.2774L44.2265 4.28651C44.4133 4.09879 44.6669 3.99395 44.9325 3.99395H50.51L52.507 1.99698H49.9249V0H54.9174C55.4695 0 55.9158 0.446324 55.9158 0.998488V5.99093H53.9189V3.40884L51.6293 5.69837C51.4426 5.88609 51.189 5.99093 50.9234 5.99093ZM43.228 27.2517L31.5387 38.941H26.9597V36.9441H26.9337C28.8588 35.5032 30.2547 33.3924 30.7519 30.9531H30.9536C33.1563 30.9531 34.9476 29.1618 34.9476 26.9592C34.9476 25.9547 34.5631 25.0471 33.9491 24.3451V20.9682C33.9491 13.8111 28.1259 7.9879 20.9687 7.9879C13.8116 7.9879 7.98839 13.8111 7.98839 20.9682V24.3451C7.37432 25.0471 6.9899 25.9547 6.9899 26.9592C6.9899 29.1618 8.78119 30.9531 10.9839 30.9531H11.1855C11.6828 33.3924 13.0787 35.5032 15.0038 36.9441H14.9778V38.941H9.98537C4.4797 38.941 0.000488281 43.4202 0.000488281 48.9259V60.9078C0.000488281 61.4599 0.446812 61.9062 0.998976 61.9062H40.9385C41.4907 61.9062 41.937 61.4599 41.937 60.9078V48.9259C41.937 44.1651 38.5851 40.1782 34.1188 39.1847L44.3473 28.9561H61.9067V26.9592H43.934C43.6684 26.9592 43.4147 27.064 43.228 27.2517ZM15.508 40.938L19.3941 45.6009L15.5609 47.517L13.3672 40.938H15.508ZM20.789 51.9214H21.1495L22.747 59.9093H19.1914L20.789 51.9214ZM21.3502 49.9244H20.5873L19.5129 47.7747L20.9687 47.0468L22.4245 47.7747L21.3502 49.9244ZM22.5433 45.6009L26.4295 40.938H28.5702L26.3765 47.518L22.5433 45.6009ZM30.9536 28.9561V24.9622C32.0549 24.9622 32.9506 25.8578 32.9506 26.9592C32.9506 28.0605 32.0549 28.9561 30.9536 28.9561ZM8.98688 26.9592C8.98688 25.8578 9.88252 24.9622 10.9839 24.9622V28.9561C9.88252 28.9561 8.98688 28.0605 8.98688 26.9592ZM10.9839 22.9652C10.6374 22.9652 10.3069 23.0231 9.98537 23.107V20.9682C9.98537 14.9124 14.9129 9.98488 20.9687 9.98488C27.0246 9.98488 31.9521 14.9124 31.9521 20.9682V23.107C31.6306 23.0231 31.3001 22.9652 30.9536 22.9652C30.9536 22.4131 30.5073 21.9667 29.9551 21.9667C28.3925 21.9667 26.8988 21.2199 25.9612 19.9688L24.763 18.3712C24.3866 17.8699 23.5418 17.8699 23.1654 18.3712L21.9672 19.9698C21.0296 21.2199 19.5359 21.9667 17.9733 21.9667H11.9823C11.4302 21.9667 10.9839 22.4131 10.9839 22.9652ZM12.9808 28.9561V23.9637H17.9733C20.161 23.9637 22.2518 22.9183 23.5648 21.1679L23.9642 20.6348L24.3636 21.1669C25.4749 22.6487 27.1424 23.6262 28.9566 23.8908V28.9561C28.9566 33.3605 25.3731 36.9441 20.9687 36.9441C16.5644 36.9441 12.9808 33.3605 12.9808 28.9561ZM20.9687 38.941C22.3886 38.941 23.7385 38.6385 24.9627 38.1013V39.5781L20.9687 44.3708L16.9748 39.5781V38.1013C18.1989 38.6385 19.5489 38.941 20.9687 38.941ZM1.99746 48.9259C1.99746 44.5216 5.58104 40.938 9.98537 40.938H11.2634L14.0312 49.2414C14.1221 49.515 14.3288 49.7367 14.5954 49.8475C14.7182 49.8994 14.848 49.9244 14.9778 49.9244C15.1306 49.9244 15.2843 49.8894 15.4241 49.8196L17.7256 48.6683L18.9228 51.0637L17.1545 59.9093H7.98839V53.9183H5.99142V59.9093H1.99746V48.9259ZM39.94 48.9259V59.9093H35.9461V53.9183H33.9491V59.9093H24.783L23.0136 51.0637L24.2108 48.6683L26.5123 49.8196C26.6531 49.8894 26.8069 49.9244 26.9597 49.9244C27.0895 49.9244 27.2193 49.8994 27.3421 49.8485C27.6097 49.7377 27.8164 49.516 27.9062 49.2424L30.674 40.938H31.9521C36.3564 40.938 39.94 44.5216 39.94 48.9259ZM59.9098 22.9652V8.98639C59.9098 8.43423 59.4634 7.9879 58.9113 7.9879H54.9173C54.3652 7.9879 53.9188 8.43423 53.9188 8.98639V22.9652H51.9219V14.9773C51.9219 14.4252 51.4755 13.9788 50.9234 13.9788H46.9294C46.3773 13.9788 45.9309 14.4252 45.9309 14.9773V22.9652H43.934V17.9728C43.934 17.4206 43.4876 16.9743 42.9355 16.9743H38.9415C38.3894 16.9743 37.943 17.4206 37.943 17.9728V22.9652H35.9461V24.9622H61.9067V22.9652H59.9098ZM55.9158 9.98488H57.9128V22.9652H55.9158V9.98488ZM47.9279 15.9758H49.9249V22.9652H47.9279V15.9758ZM39.94 18.9713H41.937V22.9652H39.94V18.9713Z" fill="url(#paint0_linear)"/>
<defs>
<linearGradient id="paint0_linear" x1="-12.9548" y1="11.5041" x2="77.5233" y2="-15.038" gradientUnits="userSpaceOnUse">
<stop stop-color="#2C4FCA"/>
<stop offset="1" stop-color="#047FD8"/>
</linearGradient>
</defs>
</svg>
