<svg width="63" height="63" viewBox="0 0 63 63" fill="none" xmlns="http://www.w3.org/2000/svg">
<path d="M63.0005 32.5161V24.3628C63.0005 22.1018 61.5453 20.1459 59.38 19.4965L52.8392 17.5342V15.9906C54.6794 14.7036 55.8876 12.5726 55.8876 10.1623V7.1129C55.8876 3.19078 52.6968 0 48.7747 0C44.8526 0 41.6618 3.19078 41.6618 7.1129V10.1613C41.6618 12.5726 42.8699 14.7036 44.7102 15.9896V17.5332L38.9458 19.2628C36.7826 17.3283 34.0264 16.2581 31.1001 16.2581C28.1857 16.2581 25.5193 17.3258 23.4588 19.0852L18.2908 17.5342V15.9906C20.1311 14.7036 21.3392 12.5726 21.3392 10.1623V7.1129C21.3392 3.19078 18.1484 0 14.2263 0C10.3042 0 7.11339 3.19078 7.11339 7.1129V10.1613C7.11339 12.5726 8.32153 14.7036 10.1618 15.9896V17.5332L3.62094 19.4955C1.45572 20.1459 0.000488281 22.1018 0.000488281 24.3628V32.5161H2.03275V24.3628C2.03275 23.0063 2.90549 21.8324 4.20542 21.4434L10.7482 19.4801C11.3397 20.2482 12.4838 21.3387 14.2263 21.3387C15.9688 21.3387 17.1129 20.2482 17.7044 19.4801L21.8716 20.7299C20.5488 22.3935 19.6676 24.4184 19.4002 26.6337C18.1028 25.2549 16.2655 24.3871 14.2263 24.3871C10.3042 24.3871 7.11339 27.5779 7.11339 31.5V34.5484C7.11339 36.9597 8.32153 39.0907 10.1618 40.3767V41.9203L3.62094 43.8826C1.45572 44.533 0.000488281 46.4889 0.000488281 48.7499V57.9194H12.194C12.7537 57.9194 13.2102 58.3758 13.2102 58.9355V63H49.7908V58.9355C49.7908 58.3758 50.2473 57.9194 50.8069 57.9194H63.0005V48.7499C63.0005 46.4889 61.5453 44.533 59.38 43.8836L52.8392 41.9213V40.3777C54.6794 39.0907 55.8876 36.9597 55.8876 34.5494V31.501C55.8876 27.5789 52.6968 24.3881 48.7747 24.3881C46.7851 24.3881 44.9865 25.2112 43.694 26.532V25.5689C43.694 23.562 42.6035 21.7555 40.9017 20.8004L45.2966 19.4811C45.888 20.2482 47.0322 21.3387 48.7747 21.3387C50.5172 21.3387 51.6613 20.2482 52.2527 19.4801L58.7966 21.4434C60.0955 21.8324 60.9682 23.0063 60.9682 24.3628V32.5161H63.0005ZM14.2263 2.03226C17.0276 2.03226 19.3069 4.3116 19.3069 7.1129H14.647C14.0015 7.1129 13.3684 6.85093 12.9125 6.39447L12.194 5.67603L11.4756 6.39447C11.0196 6.85093 10.3865 7.1129 9.74104 7.1129H9.14565C9.14565 4.3116 11.425 2.03226 14.2263 2.03226ZM9.14565 10.1613V9.14516H9.74104C10.6262 9.14516 11.4716 8.89113 12.194 8.4168C12.9164 8.89113 13.7619 9.14516 14.647 9.14516H19.3069V10.1613C19.3069 12.9626 17.0276 15.2419 14.2263 15.2419C11.425 15.2419 9.14565 12.9626 9.14565 10.1613ZM14.2263 19.3065C13.1462 19.3065 12.4461 18.399 12.194 18.011V16.9755C12.838 17.1675 13.5203 17.2742 14.2263 17.2742C14.9323 17.2742 15.6145 17.1675 16.2586 16.9745V18.01C16.0065 18.4 15.3064 19.3065 14.2263 19.3065ZM42.1574 37.1413C42.6749 38.4556 43.568 39.5794 44.7102 40.3777V41.9213L38.1703 43.8836C37.955 43.9476 37.7456 44.0309 37.5412 44.1232L36.5811 43.9019V41.8999C37.6672 41.0272 38.5231 39.8811 39.0485 38.5673C40.219 38.4646 41.3165 37.9664 42.1574 37.1413ZM31.5005 43.6935C32.5786 43.6935 33.6072 43.4782 34.5489 43.0952V44.2016L31.5005 46.4879L28.4521 44.2016V43.0952C29.3938 43.4782 30.4223 43.6935 31.5005 43.6935ZM27.2043 45.8062L29.6816 47.6648L27.1333 49.1939L26.4888 45.9719L27.2043 45.8062ZM30.3777 53.8548H32.6233L33.4137 60.9677H29.5873L30.3777 53.8548ZM32.7999 51.8226H30.2001L29.6166 50.0726L31.5005 48.9429L33.3834 50.0726L32.7999 51.8226ZM33.3194 47.6648L35.7967 45.8062L36.5122 45.9709L35.8677 49.1929L33.3194 47.6648ZM40.8694 35.5829C40.5176 35.9689 40.0706 36.2393 39.5859 36.404C39.6141 36.1277 39.6295 35.8478 39.6295 35.5645V30.7022C40.723 31.117 41.5367 32.079 41.6464 33.2286C41.7298 34.1033 41.4544 34.9384 40.8694 35.5829ZM37.5973 35.5645C37.5973 38.927 34.8629 41.6613 31.5005 41.6613C28.138 41.6613 25.4037 38.927 25.4037 35.5645V30.4839H28.8535C31.0678 30.4839 33.2226 29.9312 35.1492 28.8753L35.953 30.4839H37.5973V35.5645ZM23.4151 36.404C22.9304 36.2393 22.4833 35.9689 22.1316 35.5829C21.5466 34.9394 21.2712 34.1033 21.3546 33.2296C21.4642 32.08 22.2779 31.117 23.3715 30.7032V35.5645C23.3715 35.8478 23.3868 36.1277 23.4151 36.404ZM23.9525 38.5673C24.4769 39.8811 25.3328 41.0272 26.4198 41.8999V43.9019L25.4598 44.1232C25.2544 44.0309 25.046 43.9486 24.8316 43.8836L18.2908 41.9213V40.3777C19.432 39.5794 20.326 38.4556 20.8435 37.1413C21.6845 37.9664 22.782 38.4646 23.9525 38.5673ZM14.2263 26.4194C17.0276 26.4194 19.3069 28.6987 19.3069 31.5H18.7116C18.0661 31.5 17.433 31.238 16.977 30.7816L16.2586 30.0631L15.5401 30.7816C15.0841 31.238 14.4511 31.5 13.8056 31.5H9.14565C9.14565 28.6987 11.425 26.4194 14.2263 26.4194ZM9.14565 34.5484V33.5323H13.8056C14.6907 33.5323 15.5361 33.2782 16.2586 32.8039C16.981 33.2782 17.8264 33.5323 18.7116 33.5323H19.3069V34.5484C19.3069 37.3497 17.0276 39.629 14.2263 39.629C11.425 39.629 9.14565 37.3497 9.14565 34.5484ZM14.2263 41.6613C14.9323 41.6613 15.6145 41.5546 16.2586 41.3616V42.3971C16.0065 42.7871 15.3064 43.6935 14.2263 43.6935C13.1462 43.6935 12.4461 42.7861 12.194 42.3981V41.3626C12.838 41.5546 13.5203 41.6613 14.2263 41.6613ZM12.194 55.8871H8.12952V48.7742H6.09726V55.8871H2.03275V48.7499C2.03275 47.3934 2.90549 46.2195 4.20542 45.8305L10.7482 43.8672C11.3397 44.6353 12.4838 45.7258 14.2263 45.7258C15.9688 45.7258 17.1129 44.6353 17.7044 43.8672L21.5575 45.0237L18.7235 45.6772C15.4771 46.4269 13.2102 49.2773 13.2102 52.608V53.8548H15.2424V52.608C15.2424 50.2284 16.8624 48.1932 19.1809 47.6573L24.5077 46.4279L25.7054 52.419L27.8314 51.1438L28.4328 52.9484L27.5426 60.9677H22.3553V52.8387H20.3231V60.9677H15.2424V58.9355C15.2424 57.255 13.8745 55.8871 12.194 55.8871ZM58.7956 45.8305C60.0955 46.2195 60.9682 47.3934 60.9682 48.7499V55.8871H56.9037V48.7742H54.8715V55.8871H50.8069C49.1265 55.8871 47.7586 57.255 47.7586 58.9355V60.9677H42.6779V52.8387H40.6456V60.9677H35.4583L34.5672 52.9484L35.1686 51.1438L37.2946 52.419L38.4923 46.4279L43.8201 47.6573C46.1386 48.1932 47.7586 50.2284 47.7586 52.608V53.8548H49.7908V52.608C49.7908 49.2773 47.5239 46.4269 44.2775 45.6772L41.4435 45.0237L45.2966 43.8672C45.888 44.6353 47.0322 45.7258 48.7747 45.7258C50.5172 45.7258 51.6613 44.6353 52.2527 43.8672L58.7956 45.8305ZM50.8069 42.3981C50.5549 42.7871 49.8548 43.6935 48.7747 43.6935C47.6926 43.6935 46.9915 42.7831 46.7424 42.3981V41.3616C47.3864 41.5546 48.0686 41.6613 48.7747 41.6613C49.4807 41.6613 50.1629 41.5546 50.8069 41.3616V42.3981ZM48.7747 39.629C45.9734 39.629 43.694 37.3497 43.694 34.5484V33.5323H44.2894C45.1746 33.5323 46.02 33.2782 46.7424 32.8039C47.4648 33.2782 48.3103 33.5323 49.1954 33.5323H53.8553V34.5484C53.8553 37.3497 51.576 39.629 48.7747 39.629ZM48.7747 26.4194C51.576 26.4194 53.8553 28.6987 53.8553 31.5H49.1954C48.5499 31.5 47.9168 31.238 47.4609 30.7816L46.7424 30.0631L46.024 30.7816C45.568 31.238 44.9349 31.5 44.2894 31.5H43.694C43.694 28.6987 45.9734 26.4194 48.7747 26.4194ZM41.6618 29.5541C40.7627 28.8733 39.6459 28.4516 38.4387 28.4516H37.2093L35.9594 25.952L35.0019 26.59C33.174 27.8086 31.0485 28.4516 28.8535 28.4516H24.5622C23.3551 28.4516 22.2382 28.8733 21.3392 29.5541V28.0512C21.3392 22.6699 25.7188 18.2903 31.1001 18.2903C33.7074 18.2903 36.1594 19.3055 38.0026 21.1487L39.0808 22.2268L39.3085 22.3032C40.7156 22.7726 41.6618 24.0844 41.6618 25.5679V29.5541ZM48.7747 2.03226C51.576 2.03226 53.8553 4.3116 53.8553 7.1129H53.2599C52.6144 7.1129 51.9813 6.85093 51.5254 6.39447L50.8069 5.67603L50.0885 6.39447C49.6325 6.85093 48.9994 7.1129 48.3539 7.1129H43.694C43.694 4.3116 45.9734 2.03226 48.7747 2.03226ZM43.694 10.1613V9.14516H48.3539C49.2391 9.14516 50.0845 8.89113 50.8069 8.4168C51.5293 8.89113 52.3748 9.14516 53.2599 9.14516H53.8553V10.1613C53.8553 12.9626 51.576 15.2419 48.7747 15.2419C45.9734 15.2419 43.694 12.9626 43.694 10.1613ZM48.7747 19.3065C47.6926 19.3065 46.9915 18.396 46.7424 18.011V16.9745C47.3864 17.1675 48.0686 17.2742 48.7747 17.2742C49.4807 17.2742 50.1629 17.1675 50.8069 16.9745V18.01C50.5549 18.4 49.8548 19.3065 48.7747 19.3065Z" fill="url(#paint0_linear)"/>
<defs>
<linearGradient id="paint0_linear" x1="-13.1837" y1="11.7073" x2="78.893" y2="-15.3037" gradientUnits="userSpaceOnUse">
<stop stop-color="#2C4FCA"/>
<stop offset="1" stop-color="#047FD8"/>
</linearGradient>
</defs>
</svg>
