<svg width="61" height="61" viewBox="0 0 61 61" fill="none" xmlns="http://www.w3.org/2000/svg">
<path fill-rule="evenodd" clip-rule="evenodd" d="M60.9067 59.9239C60.9067 60.4671 60.4666 60.9062 59.9244 60.9062H16.7006C16.1583 60.9062 15.7182 60.4671 15.7182 59.9239V53.0474H0.982847C0.440585 53.0474 0.000488281 52.6083 0.000488281 52.065V0.982359C0.000488281 0.440097 0.440585 0 0.982847 0H40.2772C40.8195 0 41.2596 0.440097 41.2596 0.982359V25.5413H54.0302C54.5725 25.5413 55.0126 25.9814 55.0126 26.5237V41.2591H59.9244C60.4666 41.2591 60.9067 41.6982 60.9067 42.2414V59.9239ZM51.0831 43.2238H47.1537V47.1532H51.0831V43.2238ZM35.3654 27.506V41.2591H53.0479V27.506H47.1537V32.4178C47.1537 32.9611 46.7136 33.4002 46.1714 33.4002H42.2419C41.6997 33.4002 41.2596 32.9611 41.2596 32.4178V27.506H35.3654ZM45.189 27.506H43.2243V31.4355H45.189V27.506ZM15.7182 51.0827V42.2414C15.7182 41.6982 16.1583 41.2591 16.7006 41.2591H33.4007V35.3649H15.7182V33.4002H33.4007V31.4355H15.7182V29.4708H33.4007V26.5237C33.4007 25.9814 33.8408 25.5413 34.383 25.5413H39.2948V1.96472H1.96521V51.0827H15.7182ZM29.4713 43.2238H25.5418V47.1532H29.4713V43.2238ZM23.5771 43.2238H17.6829V58.9415H37.3301V43.2238H31.436V48.1356C31.436 48.6788 30.9959 49.1179 30.4536 49.1179H24.5595C24.0172 49.1179 23.5771 48.6788 23.5771 48.1356V43.2238ZM39.2948 58.9415H58.942V43.2238H53.0479V48.1356C53.0479 48.6788 52.6078 49.1179 52.0655 49.1179H46.1714C45.6291 49.1179 45.189 48.6788 45.189 48.1356V43.2238H39.2948V58.9415ZM4.91229 13.5414H12.7712C13.3134 13.5414 13.7535 13.1013 13.7535 12.559V4.70013C13.7535 4.15787 13.3134 3.71777 12.7712 3.71777H4.91229C4.37003 3.71777 3.92993 4.15787 3.92993 4.70013V12.559C3.92993 13.1013 4.37003 13.5414 4.91229 13.5414ZM5.89465 5.68249H11.7888V11.5766H5.89465V5.68249ZM4.91228 25.5413H12.7712C13.3134 25.5413 13.7535 25.1012 13.7535 24.559V16.7001C13.7535 16.1578 13.3134 15.7177 12.7712 15.7177H4.91228C4.37002 15.7177 3.92992 16.1578 3.92992 16.7001V24.559C3.92992 25.1012 4.37002 25.5413 4.91228 25.5413ZM5.89464 17.6825H11.7888V23.5766H5.89464V17.6825ZM4.91228 39.2944H12.7712C13.3134 39.2944 13.7535 39.7335 13.7535 40.2767V48.1356C13.7535 48.6788 13.3134 49.1179 12.7712 49.1179H4.91228C4.37002 49.1179 3.92992 48.6788 3.92992 48.1356V40.2767C3.92992 39.7335 4.37002 39.2944 4.91228 39.2944ZM5.89464 47.1532H11.7888V41.2591H5.89464V47.1532ZM15.7182 5.89415H37.3301V7.85887H15.7182V5.89415ZM37.3301 9.82359H15.7182V11.7883H37.3301V9.82359ZM15.7182 17.6825H37.3301V19.6472H15.7182V17.6825ZM37.3301 21.6119H15.7182V23.5766H37.3301V21.6119ZM14.0413 25.8292L12.3645 27.5061H4.91228C4.37002 27.5061 3.92992 27.9462 3.92992 28.4884V36.3473C3.92992 36.8906 4.37002 37.3297 4.91228 37.3297H12.7712C13.3134 37.3297 13.7535 36.8906 13.7535 36.3473V28.8951L15.4304 27.2182L14.0413 25.8292ZM10.3997 29.4708L5.89464 33.9759V29.4708H10.3997ZM11.7888 35.3649H7.2837L11.7888 30.8599V35.3649Z" fill="url(#paint0_linear)"/>
<defs>
<linearGradient id="paint0_linear" x1="-12.7456" y1="11.3182" x2="76.2711" y2="-14.7951" gradientUnits="userSpaceOnUse">
<stop stop-color="#2C4FCA"/>
<stop offset="1" stop-color="#047FD8"/>
</linearGradient>
</defs>
</svg>
