<svg width="68" height="64" viewBox="0 0 68 64" fill="none" xmlns="http://www.w3.org/2000/svg">
<path fill-rule="evenodd" clip-rule="evenodd" d="M7.11613 27.1682H1.08734C0.487091 27.1682 0.000610352 26.6817 0.000610352 26.0815V19.5611C0.000610352 18.9613 0.487091 18.4744 1.08734 18.4744H7.11613C7.47271 17.189 7.98636 15.952 8.64689 14.7927L4.37894 10.5273C4.17517 10.3235 4.06056 10.0471 4.06056 9.75848C4.06056 9.46982 4.17517 9.19346 4.37894 8.9897L8.98989 4.37833C9.42076 3.9708 10.0953 3.9708 10.5266 4.37833L14.7941 8.64628C15.9534 7.9866 17.1896 7.47253 18.475 7.11595V1.08673C18.475 0.486905 18.9615 0 19.5617 0H26.0821C26.6823 0 27.1688 0.486905 27.1688 1.08673V7.11595C28.4542 7.47253 29.6904 7.9866 30.8497 8.64628L35.1172 4.37833C35.5417 3.95425 36.2294 3.95425 36.6539 4.37833L41.264 8.9897C41.4678 9.19346 41.5824 9.46982 41.5824 9.75848C41.5824 10.0471 41.4678 10.3235 41.264 10.5273L36.9969 14.7927C37.6574 15.952 38.1711 17.189 38.5277 18.4744H44.5565C45.1567 18.4744 45.6432 18.9613 45.6432 19.5611V26.0815C45.6432 26.6817 45.1567 27.1682 44.5565 27.1682H38.5277C38.1711 28.454 37.6574 29.691 36.9969 30.8503L41.2649 35.1157C41.4686 35.3195 41.5832 35.5959 41.5832 35.8845C41.5832 36.1732 41.4686 36.4495 41.2649 36.6533L36.6539 41.2647C36.223 41.6722 35.5485 41.6722 35.1172 41.2647L30.8497 36.9967C29.6904 37.6568 28.4546 38.1709 27.1688 38.5271V44.5559C27.1688 45.1561 26.6823 45.6426 26.0821 45.6426H19.5617C18.9615 45.6426 18.475 45.1561 18.475 44.5559V38.5271C17.1892 38.1709 15.9534 37.6568 14.7941 36.9967L10.5266 41.2647C10.1021 41.6883 9.41439 41.6883 8.98989 41.2647L4.37978 36.6533C4.17602 36.4495 4.06141 36.1732 4.06141 35.8845C4.06141 35.5959 4.17602 35.3195 4.37978 35.1157L8.64689 30.8503C7.98636 29.691 7.47271 28.454 7.11613 27.1682ZM7.96641 20.6478H2.17407V24.9947H7.96641C8.47709 24.9947 8.91857 25.3492 9.02809 25.848C9.38468 27.476 10.0295 29.0271 10.932 30.4284C11.2079 30.8588 11.1472 31.4234 10.7851 31.7847L6.68484 35.8849L9.75824 38.9596L13.8585 34.8581C14.2198 34.4964 14.7844 34.4353 15.2148 34.7112C16.6152 35.6137 18.1655 36.2585 19.7931 36.6151C20.2923 36.7238 20.6484 37.1661 20.6484 37.6768V43.4691H24.9954V37.6768C24.9954 37.1661 25.3515 36.7238 25.8507 36.6151C27.4783 36.2585 29.0286 35.6137 30.429 34.7112C30.8594 34.4353 31.424 34.4964 31.7853 34.8581L35.8856 38.9596L38.9598 35.8841L34.8587 31.7838C34.4974 31.4226 34.4363 30.8584 34.7118 30.4284C35.6139 29.0284 36.2583 27.4777 36.6144 25.8501C36.724 25.3513 37.1659 24.996 37.6761 24.996H43.4697V20.6491H37.6761C37.1659 20.6491 36.724 20.2934 36.6144 19.7946C36.2583 18.1666 35.6143 16.6159 34.7118 15.2142C34.4359 14.7842 34.4966 14.2196 34.8587 13.8579L38.959 9.75805L35.8856 6.68338L31.7853 10.7845C31.424 11.1466 30.8594 11.2077 30.429 10.9318C29.0277 10.0297 27.477 9.38492 25.8495 9.02791C25.3511 8.91839 24.9954 8.47648 24.9954 7.9658V2.17346H20.6484V7.9658C20.6484 8.47648 20.2927 8.91839 19.7943 9.02791C18.1668 9.38492 16.6161 10.0297 15.2148 10.9318C14.7844 11.2077 14.2198 11.1466 13.8585 10.7845L9.75824 6.68338L6.68399 9.75805L10.7851 13.8592C11.1464 14.2204 11.2075 14.7846 10.932 15.2142C10.0295 16.6151 9.38468 18.1662 9.02809 19.7937C8.919 20.2925 8.47709 20.6478 7.96641 20.6478ZM34.7758 22.8214C34.7758 29.4237 29.4237 34.7754 22.8218 34.7754C16.2229 34.7678 10.8759 29.4203 10.8678 22.8214C10.8678 16.2195 16.2199 10.8674 22.8218 10.8674C29.4237 10.8674 34.7758 16.2195 34.7758 22.8214ZM32.6024 22.8214C32.6024 17.4196 28.2236 13.0408 22.8218 13.0408C17.4226 13.0468 13.0472 17.4226 13.0413 22.8214C13.0413 28.2232 17.42 32.6019 22.8218 32.6019C28.2236 32.6019 32.6024 28.2232 32.6024 22.8214ZM61.9441 49.9895V41.2957C61.9441 40.6959 61.4576 40.209 60.8574 40.209H58.6839V31.5152C58.6839 30.9153 58.1974 30.4284 57.5972 30.4284H47.8166C47.2164 30.4284 46.7299 30.9153 46.7299 31.5152V40.209H41.2963C40.696 40.209 40.2095 40.6959 40.2095 41.2957V49.9895H5.43425C2.43471 49.9934 0.00443087 52.4236 0.000610352 55.4232V57.5966C0.00443087 60.5966 2.43471 63.0269 5.43425 63.0303H61.9441C64.9436 63.0269 67.3739 60.5966 67.3777 57.5966V55.4232C67.3739 52.4236 64.9436 49.9934 61.9441 49.9895ZM59.7706 49.9895H52.1636V42.3824H59.7706V49.9895ZM48.9034 32.6019H56.5105V40.209H48.9034V32.6019ZM42.383 42.3824H49.9901V49.9895H42.383V42.3824ZM65.2043 57.5966C65.2043 59.3974 63.7444 60.8568 61.9441 60.8568H5.43425C3.63393 60.8568 2.17407 59.3974 2.17407 57.5966V55.4232C2.17407 53.6229 3.63393 52.163 5.43425 52.163H61.9441C63.7444 52.163 65.2043 53.6229 65.2043 55.4232V57.5966ZM30.4289 56.5098C30.4289 54.7095 31.8887 53.2496 33.689 53.2496C35.4894 53.2496 36.9492 54.7095 36.9492 56.5098C36.9492 58.3105 35.4894 59.77 33.689 59.77C31.8887 59.77 30.4289 58.3105 30.4289 56.5098ZM32.6023 56.5098C32.6023 57.11 33.0888 57.5965 33.689 57.5965C34.2893 57.5965 34.7758 57.11 34.7758 56.5098C34.7758 55.91 34.2893 55.423 33.689 55.423C33.0888 55.423 32.6023 55.91 32.6023 56.5098ZM11.9546 53.2496C10.1543 53.2496 8.69446 54.7095 8.69446 56.5098C8.69446 58.3105 10.1543 59.77 11.9546 59.77C13.755 59.77 15.2148 58.3105 15.2148 56.5098C15.2148 54.7095 13.755 53.2496 11.9546 53.2496ZM11.9546 57.5965C11.3544 57.5965 10.8679 57.11 10.8679 56.5098C10.8679 55.91 11.3544 55.423 11.9546 55.423C12.5549 55.423 13.0414 55.91 13.0414 56.5098C13.0414 57.11 12.5549 57.5965 11.9546 57.5965ZM52.1635 56.5098C52.1635 54.7095 53.6234 53.2496 55.4237 53.2496C57.224 53.2496 58.6839 54.7095 58.6839 56.5098C58.6839 58.3105 57.224 59.77 55.4237 59.77C53.6234 59.77 52.1635 58.3105 52.1635 56.5098ZM54.337 56.5098C54.337 57.11 54.8235 57.5965 55.4237 57.5965C56.024 57.5965 56.5104 57.11 56.5104 56.5098C56.5104 55.91 56.024 55.423 55.4237 55.423C54.8235 55.423 54.337 55.91 54.337 56.5098Z" fill="url(#paint0_linear)"/>
<defs>
<linearGradient id="paint0_linear" x1="-14.0996" y1="11.7129" x2="83.2735" y2="-18.8218" gradientUnits="userSpaceOnUse">
<stop stop-color="#2C4FCA"/>
<stop offset="1" stop-color="#047FD8"/>
</linearGradient>
</defs>
</svg>
