<svg width="55" height="67" viewBox="0 0 55 67" fill="none" xmlns="http://www.w3.org/2000/svg">
<path fill-rule="evenodd" clip-rule="evenodd" d="M26.2202 0.981565C26.2202 0.439547 26.6595 0.00012207 27.2017 0.00012207C27.7438 0.00012207 28.1831 0.439547 28.1831 0.981565V4.2376C28.1831 4.77962 27.7438 5.21905 27.2017 5.21905C26.6595 5.21905 26.2202 4.77962 26.2202 4.2376V0.981565ZM46.153 7.85021C45.7696 7.46692 45.1483 7.46692 44.7648 7.85021L42.4625 10.1525C42.0792 10.5358 42.0792 11.1573 42.4625 11.5406C42.8459 11.9239 43.4673 11.9237 43.8507 11.5406L46.153 9.23823C46.5363 8.85481 46.5363 8.23336 46.153 7.85021ZM40.1141 23.6613H37.1418C36.9603 23.0852 36.7295 22.5275 36.4509 21.9924L38.5525 19.8907C38.8151 19.6281 38.9597 19.2788 38.9597 18.9073C38.9597 18.5356 38.8151 18.1864 38.5525 17.9237L36.0791 15.4502C35.5368 14.9084 34.6546 14.9081 34.1121 15.4504L32.0104 17.5521C31.4753 17.2735 30.9175 17.0425 30.3416 16.8612V13.8887C30.3414 13.1219 29.7175 12.4978 28.9505 12.4978H25.4525C24.6857 12.4978 24.0618 13.1217 24.0618 13.8887V16.8612C23.4857 17.0427 22.928 17.2735 22.3928 17.5521L20.2909 15.4502C19.7487 14.9082 18.8664 14.9084 18.3241 15.4504L15.8509 17.9236C15.5881 18.1862 15.4434 18.5355 15.4434 18.9072C15.4434 19.2787 15.5881 19.6279 15.8508 19.8906L17.9525 21.9923C17.6739 22.5274 17.4429 23.0852 17.2615 23.6611H14.2891C13.5223 23.6611 12.8983 24.2851 12.8983 25.052V28.55C12.8983 29.3169 13.5223 29.9408 14.2891 29.9408H17.2615C17.4431 30.5167 17.6739 31.0747 17.9525 31.6096L15.8508 33.7114C15.3085 34.2536 15.3085 35.136 15.8508 35.6783L18.3241 38.1517C18.8664 38.6941 19.7489 38.694 20.2911 38.1517L22.3928 36.0499C22.9279 36.3285 23.4859 36.5595 24.0618 36.7409V39.7134C24.0618 40.4802 24.6857 41.1041 25.4525 41.1041H28.9505C29.7174 41.1041 30.3414 40.4802 30.3414 39.7134V36.7409C30.9172 36.5595 31.4752 36.3285 32.0103 36.0499L34.112 38.1517C34.6544 38.6941 35.5368 38.694 36.0791 38.1517L38.5523 35.6783C38.815 35.4157 38.9596 35.0664 38.9596 34.6949C38.9596 34.3234 38.815 33.9741 38.5523 33.7114L36.4506 31.6096C36.7292 31.0746 36.9602 30.5167 37.1415 29.9408H40.114C40.8808 29.9408 41.5049 29.3169 41.5049 28.55V25.052C41.505 24.2852 40.881 23.6613 40.1141 23.6613ZM39.5423 27.9779H36.3939C35.938 27.9779 35.5422 28.2918 35.4383 28.7358C35.229 29.6303 34.8778 30.4786 34.3943 31.2571C34.1536 31.6445 34.2116 32.1464 34.5339 32.469L36.7599 34.695L35.0957 36.3593L32.8696 34.1333C32.5472 33.8108 32.0452 33.7527 31.6576 33.9935C30.879 34.477 30.0306 34.8283 29.1365 35.0376C28.6925 35.1414 28.3786 35.5372 28.3786 35.9933V39.1418H26.0251V35.9933C26.0251 35.5374 25.7111 35.1415 25.2671 35.0376C24.373 34.8285 23.5246 34.4773 22.7459 33.9935C22.3586 33.7532 21.8565 33.8108 21.534 34.1333L19.3079 36.3593L17.6437 34.695L19.8697 32.469C20.1921 32.1466 20.25 31.6446 20.0095 31.2571C19.5259 30.4785 19.1747 29.6301 18.9655 28.7358C18.8617 28.2918 18.4657 27.9779 18.0098 27.9779H14.8615V25.6244H18.0098C18.4657 25.6244 18.8616 25.3105 18.9655 24.8665C19.1747 23.9722 19.5259 23.1238 20.0095 22.3452C20.25 21.9579 20.1921 21.4559 19.8697 21.1333L17.6437 18.9073L19.3079 17.243L21.534 19.4691C21.8561 19.7915 22.3584 19.8495 22.7459 19.6088C23.5243 19.1253 24.3727 18.7741 25.2671 18.5648C25.7111 18.4611 26.0251 18.0652 26.0251 17.6092V14.4607H28.3786V17.6092C28.3786 18.0651 28.6925 18.4609 29.1365 18.5648C30.0308 18.7741 30.879 19.1253 31.6578 19.6088C32.0448 19.8492 32.5471 19.7912 32.8696 19.4691L35.0957 17.243L36.7599 18.9073L34.5339 21.1333C34.2115 21.4558 34.1536 21.9577 34.3943 22.3452C34.8777 23.1236 35.2289 23.9719 35.4383 24.8665C35.5422 25.3105 35.9379 25.6244 36.3939 25.6244H39.5423V27.9779ZM27.2016 21.5432C24.3023 21.5432 21.9437 23.9019 21.9437 26.8011C21.9437 29.7003 24.3025 32.059 27.2016 32.059C30.1008 32.059 32.4596 29.7003 32.4596 26.8011C32.4596 23.9019 30.101 21.5432 27.2016 21.5432ZM27.2016 30.0962C25.3848 30.0962 23.9066 28.618 23.9066 26.8011C23.9066 24.9843 25.3848 23.5061 27.2016 23.5061C29.0185 23.5061 30.4967 24.9843 30.4967 26.8011C30.4967 28.618 29.0185 30.0962 27.2016 30.0962ZM1.38208 25.8196H4.63811C5.18013 25.8196 5.61956 26.259 5.61956 26.801C5.61956 27.343 5.18013 27.7825 4.63811 27.7825H1.38208C0.84006 27.7825 0.400635 27.343 0.400635 26.801C0.400635 26.259 0.84006 25.8196 1.38208 25.8196ZM53.0213 25.8196H49.7653C49.2231 25.8196 48.7838 26.259 48.7838 26.801C48.7838 27.343 49.2231 27.7825 49.7653 27.7825H53.0213C53.5634 27.7825 54.0027 27.343 54.0027 26.801C54.0027 26.259 53.5633 25.8196 53.0213 25.8196ZM10.5526 42.062C10.936 41.6787 11.5575 41.6787 11.9407 42.062C12.3239 42.4453 12.3239 43.0667 11.9407 43.45L9.63832 45.7524C9.25503 46.1356 8.63358 46.1356 8.25029 45.7524C7.86701 45.3691 7.86701 44.7476 8.25029 44.3643L10.5526 42.062ZM46.153 44.3643L43.8507 42.062C43.4673 41.6787 42.8459 41.6787 42.4625 42.062C42.0792 42.4453 42.0792 43.0669 42.4625 43.45L44.7648 45.7524C45.1483 46.1356 45.7696 46.1356 46.153 45.7524C46.5363 45.3691 46.5363 44.7476 46.153 44.3643ZM9.63832 7.85021L11.9407 10.1525C12.3239 10.5357 12.3239 11.1571 11.9407 11.5406C11.5574 11.9239 10.9359 11.9239 10.5526 11.5406L8.25029 9.23823C7.86701 8.85495 7.86701 8.23349 8.25029 7.85021C8.63358 7.46692 9.25503 7.46692 9.63832 7.85021ZM41.3669 13.0077C43.0975 14.7954 44.4938 16.9097 45.4529 19.2497C47.7121 24.2871 47.4977 30.2871 44.8907 35.4442C43.2967 38.6785 40.8209 41.4471 37.6715 43.4245C36.2931 44.2899 35.4704 45.7678 35.4704 47.3781V51.5603C36.4685 51.9071 37.1879 52.8546 37.1879 53.9693V55.3685C37.1879 55.961 36.9833 56.5053 36.6433 56.9389C36.9833 57.3724 37.1879 57.9169 37.1879 58.5093V59.9083C37.1879 61.3153 36.0432 62.4602 34.636 62.4602H31.5504V64.6789C31.5504 65.9589 30.5093 67.0001 29.2293 67.0001H25.1731C23.8933 67.0001 22.852 65.9589 22.852 64.6789V62.4602H19.7664C18.3594 62.4602 17.2145 61.3155 17.2145 59.9083V58.5093C17.2145 57.9168 17.419 57.3724 17.759 56.9389C17.4192 56.5053 17.2145 55.9608 17.2145 55.3685V53.9693C17.2145 52.8548 17.9341 51.9071 18.932 51.5603V47.2887C18.932 45.7459 18.1297 44.2907 16.838 43.4912C14.0335 41.755 11.6886 39.3234 10.0572 36.4589C8.37419 33.5041 7.48474 30.1348 7.48474 26.715C7.48465 19.6793 11.2596 13.3838 16.962 9.88848C16.9852 9.87146 17.0094 9.85532 17.0345 9.84013C18.9414 8.68301 20.9889 7.88442 23.0877 7.43455C23.6467 7.3146 24.2147 7.21836 24.7907 7.147C24.7943 7.14655 24.798 7.14611 24.8016 7.1457C30.6969 6.41771 36.802 8.36579 41.1971 12.779C41.2663 12.8485 41.3229 12.9256 41.3669 13.0077ZM25.2227 9.05211C26.5272 8.9009 27.8403 8.89627 29.1375 9.03523C29.2116 9.06387 29.2904 9.0839 29.3729 9.09397C37.5198 10.0869 43.877 16.4738 44.8321 24.6254C44.8385 24.6801 44.8493 24.7333 44.8641 24.7846C45.3844 29.9509 43.6783 35.1734 39.8954 38.9987C39.7915 39.1039 39.7166 39.2274 39.6707 39.3594C38.7571 40.2578 37.7392 41.0646 36.6282 41.7621C34.6744 42.9889 33.508 45.0884 33.508 47.3782V51.4174H20.8954V47.2888C20.8954 45.0715 19.7367 42.9767 17.8716 41.8222C12.5971 38.5572 9.44815 32.9098 9.44802 26.715C9.44802 20.3768 12.8122 14.7263 17.934 11.5799C17.9744 11.5624 18.014 11.5419 18.0527 11.5184C18.8557 11.0312 19.684 10.6139 20.5299 10.2658C21.9448 9.69035 23.454 9.29059 25.0322 9.0951C25.0982 9.08692 25.1619 9.07236 25.2227 9.05211ZM29.2297 65.037C29.4238 65.037 29.5878 64.8729 29.5878 64.6788V62.4601H24.8155V64.6788C24.8155 64.873 24.9794 65.037 25.1735 65.037H29.2297ZM34.6366 60.4971C34.9557 60.4971 35.2254 60.2274 35.2254 59.9082V58.5092C35.2254 58.19 34.9557 57.9203 34.6366 57.9203H19.7668C19.4476 57.9203 19.1779 58.19 19.1779 58.5092V59.9082C19.1779 60.2274 19.4476 60.4971 19.7668 60.4971H34.6366ZM34.6366 55.9572C34.9557 55.9572 35.2254 55.6875 35.2254 55.3683V53.9692C35.2254 53.65 34.9557 53.3803 34.6366 53.3803H19.7668C19.4476 53.3803 19.1779 53.65 19.1779 53.9692V55.3683C19.1779 55.6875 19.4476 55.9572 19.7668 55.9572H34.6366Z" fill="url(#paint0_linear)"/>
<defs>
<linearGradient id="paint0_linear" x1="-10.8169" y1="12.4507" x2="69.8246" y2="-6.47519" gradientUnits="userSpaceOnUse">
<stop stop-color="#2C4FCA"/>
<stop offset="1" stop-color="#047FD8"/>
</linearGradient>
</defs>
</svg>
