<svg width="61" height="67" viewBox="0 0 61 67" fill="none" xmlns="http://www.w3.org/2000/svg">
<mask id="path-1-inside-1" fill="white">
<path fill-rule="evenodd" clip-rule="evenodd" d="M59.8234 11.036L59.7343 11.0204C49.5619 9.23678 39.9406 5.59391 31.1377 0.193214C30.717 -0.0648402 30.1867 -0.0644476 29.7665 0.194654C21.025 5.58397 11.464 9.21571 1.34912 10.9894L1.08309 11.036C0.457057 11.1458 0.000488281 11.6893 0.000488281 12.3249V29.4539C0.000488281 38.1783 3.01169 46.7271 8.47952 53.5256C13.9472 60.324 21.6513 65.0985 30.1726 66.9696C30.2653 66.9897 30.3592 66.9999 30.4534 66.9999C30.5478 66.9999 30.6421 66.9897 30.7348 66.9694C39.2569 65.0941 46.9612 60.3158 52.4282 53.5147C57.8954 46.7137 60.9064 38.1626 60.9064 29.4365V12.3249C60.9064 11.6891 60.4495 11.1455 59.8234 11.036ZM58.2893 29.4365C58.2893 46.0225 46.6007 60.6591 30.4532 64.3503C14.306 60.667 2.61768 46.038 2.61768 29.4539V13.4198C12.4953 11.5878 21.8535 8.0313 30.4553 2.84024C39.0648 8.01206 48.4198 11.567 58.2893 13.4179V29.4365ZM24.6621 9.71265C19.0154 12.4059 13.0522 14.4869 6.93849 15.8976C6.34465 16.0346 5.92407 16.5633 5.92407 17.1727V29.4363C5.92407 30.8539 6.01973 32.2852 6.20804 33.6904C6.29597 34.3477 6.85775 34.8252 7.50328 34.8252C7.56112 34.8252 7.61975 34.8214 7.67877 34.8134C8.39509 34.7174 8.89785 34.0589 8.8018 33.3426C8.6288 32.0523 8.54113 30.738 8.54113 29.4363V18.2074C14.4854 16.7619 20.2831 14.7009 25.7887 12.0749C26.4411 11.7639 26.7176 10.9828 26.4066 10.3304C26.0953 9.6781 25.314 9.40172 24.6621 9.71265ZM52.3652 17.1726C52.3652 16.4499 52.9512 15.864 53.6738 15.864C54.3964 15.864 54.9824 16.45 54.9824 17.1726V29.4362C54.9824 35.6825 53.1611 41.7845 49.7153 47.0825C46.3161 52.3087 41.5547 56.4329 35.9453 59.0091C35.7685 59.0904 35.5828 59.1289 35.4 59.1289C34.9045 59.1289 34.4304 58.846 34.2099 58.3661C33.9083 57.7093 34.1963 56.9324 34.853 56.6308C45.4913 51.7449 52.3652 41.0704 52.3652 29.4362V17.1726ZM48.0026 33.7433C48.8543 32.359 48.6406 30.5958 47.4827 29.4554L46.1231 28.116C45.9454 27.9411 45.8538 27.6982 45.8714 27.4497L46.0077 25.5364C46.1236 23.9079 45.1129 22.4413 43.5497 21.97L41.7491 21.4272C41.509 21.3548 41.314 21.1813 41.2142 20.9511L40.4605 19.2124C39.817 17.7283 38.1975 16.8777 36.611 17.1888L34.784 17.5473C34.5371 17.5957 34.2823 17.5329 34.086 17.3745L32.6319 16.2004C31.3695 15.1814 29.5373 15.1811 28.275 16.2004L26.8207 17.3746C26.6245 17.5331 26.3697 17.5957 26.1227 17.5473L24.2956 17.1889C22.7085 16.8773 21.0894 17.7283 20.4463 19.2121L19.6921 20.9514C19.5923 21.1813 19.3974 21.3548 19.1573 21.4272L17.3571 21.97C15.7939 22.4412 14.7832 23.9077 14.8991 25.5364L15.0353 27.4496C15.053 27.6982 14.9613 27.9411 14.7838 28.1159L13.4241 29.4554C12.2662 30.596 12.0524 32.3592 12.9042 33.7433L13.9096 35.377C14.04 35.5889 14.071 35.8464 13.995 36.0832L13.4065 37.9127C12.9084 39.4623 13.5381 41.125 14.9376 41.956L16.5672 42.9236C16.7822 43.0513 16.9295 43.2658 16.9715 43.512L17.2921 45.3933C17.5675 47.0081 18.9024 48.1927 20.5385 48.274L22.4051 48.3668C22.6563 48.3794 22.8878 48.5013 23.0401 48.7017L24.1781 50.1988C24.8481 51.0804 25.8896 51.5646 26.9507 51.5646C27.4434 51.5646 27.9404 51.4602 28.4062 51.2423L30.0935 50.4544C30.3222 50.3476 30.5845 50.3477 30.8132 50.4544L32.5004 51.2423C33.9697 51.9283 35.7479 51.4894 36.7287 50.1984L37.8663 48.7015C38.0186 48.5012 38.2501 48.3791 38.5013 48.3667L40.3683 48.2739C42.0044 48.1926 43.3393 47.0079 43.6146 45.3931L43.9352 43.512C43.9773 43.2656 44.1246 43.0512 44.3396 42.9236L45.9692 41.956C47.3687 41.125 47.9984 39.4623 47.5001 37.9126L46.9119 36.0834C46.8357 35.8464 46.8668 35.589 46.9971 35.3772L48.0026 33.7433ZM45.7737 32.3719L44.768 34.0059C44.2368 34.8697 44.1099 35.9189 44.4203 36.8847L45.0086 38.714C45.1309 39.0941 44.9764 39.502 44.633 39.7059L43.0034 40.6734C42.1272 41.1936 41.5267 42.068 41.3554 43.0725L41.0347 44.9536C40.9671 45.3496 40.6397 45.6402 40.2385 45.6601L38.3715 45.7529C37.3469 45.8039 36.4031 46.3016 35.7826 47.1183L34.645 48.6153C34.4044 48.9318 33.9683 49.0397 33.608 48.8714L31.9208 48.0835C30.9882 47.648 29.9188 47.648 28.9861 48.0835L27.2988 48.8714C26.9382 49.0395 26.5023 48.9317 26.2618 48.6153L25.1237 47.1179C24.503 46.3013 23.5595 45.8038 22.535 45.7529L20.6685 45.6601C20.2672 45.6402 19.9398 45.3496 19.8722 44.9536L19.5516 43.0724C19.3803 42.0679 18.7796 41.1936 17.9035 40.6733L16.2739 39.7057C15.9306 39.5019 15.776 39.094 15.8982 38.714L16.4867 36.8843C16.797 35.9188 16.6703 34.8696 16.1388 34.0056L15.1332 32.3717C14.9244 32.0323 14.9769 31.5998 15.2608 31.32L16.6207 29.9805C17.3444 29.2675 17.7182 28.2774 17.646 27.2639L17.5098 25.3507C17.4814 24.9512 17.7292 24.5915 18.1126 24.4759L19.9129 23.9331C20.892 23.6379 21.6868 22.9305 22.0934 21.9925L22.8475 20.2534C22.9835 19.9398 23.297 19.7414 23.6302 19.7414C23.6837 19.7414 23.7378 19.7465 23.7917 19.7571L25.6186 20.1156C26.6279 20.3138 27.665 20.0569 28.4648 19.4109L29.9192 18.2368C30.2286 17.9869 30.6781 17.9869 30.9879 18.2368L32.442 19.4109C33.2418 20.0568 34.2791 20.3134 35.2882 20.1157L37.1151 19.7571C37.5039 19.6806 37.9016 19.8896 38.0594 20.2535L38.813 21.9922C39.2197 22.9305 40.0147 23.638 40.9937 23.9331L42.7943 24.4759C43.1776 24.5915 43.4256 24.9513 43.3972 25.3507L43.2609 27.264C43.1887 28.2774 43.5626 29.2675 44.2863 29.9807L45.6461 31.3201C45.9301 31.6 45.9827 32.0324 45.7737 32.3719ZM32.0773 27.3048C32.4327 26.6752 33.231 26.4531 33.8601 26.8085C34.4896 27.1638 34.7116 27.9619 34.3564 28.5914L27.3202 41.0551C27.0797 41.4811 26.6362 41.7206 26.1795 41.7206C25.9615 41.7206 25.7406 41.666 25.5373 41.5513C24.9079 41.196 24.6858 40.3979 25.0411 39.7685L32.0773 27.3048ZM35.0259 34.6169C32.8612 34.6169 31.1001 36.378 31.1001 38.5427C31.1001 40.7074 32.8612 42.4685 35.0259 42.4685C37.1906 42.4685 38.9517 40.7074 38.9517 38.5427C38.9517 36.378 37.1906 34.6169 35.0259 34.6169ZM35.0259 39.8513C34.3043 39.8513 33.7173 39.2643 33.7173 38.5427C33.7173 37.8212 34.3043 37.2341 35.0259 37.2341C35.7474 37.2341 36.3345 37.8212 36.3345 38.5427C36.3345 39.2643 35.7474 39.8513 35.0259 39.8513ZM21.9551 28.4569C21.9551 26.2922 23.7162 24.5311 25.8809 24.5311C28.0455 24.5311 29.8066 26.2921 29.8066 28.4569C29.8066 30.6216 28.0455 32.3827 25.8809 32.3827C23.7162 32.3827 21.9551 30.6216 21.9551 28.4569ZM24.5723 28.4569C24.5723 29.1785 25.1593 29.7655 25.8809 29.7655C26.6024 29.7655 27.1895 29.1785 27.1895 28.4569C27.1895 27.7353 26.6024 27.1483 25.8809 27.1483C25.1593 27.1483 24.5723 27.7353 24.5723 28.4569Z"/>
</mask>
<path fill-rule="evenodd" clip-rule="evenodd" d="M59.8234 11.036L59.7343 11.0204C49.5619 9.23678 39.9406 5.59391 31.1377 0.193214C30.717 -0.0648402 30.1867 -0.0644476 29.7665 0.194654C21.025 5.58397 11.464 9.21571 1.34912 10.9894L1.08309 11.036C0.457057 11.1458 0.000488281 11.6893 0.000488281 12.3249V29.4539C0.000488281 38.1783 3.01169 46.7271 8.47952 53.5256C13.9472 60.324 21.6513 65.0985 30.1726 66.9696C30.2653 66.9897 30.3592 66.9999 30.4534 66.9999C30.5478 66.9999 30.6421 66.9897 30.7348 66.9694C39.2569 65.0941 46.9612 60.3158 52.4282 53.5147C57.8954 46.7137 60.9064 38.1626 60.9064 29.4365V12.3249C60.9064 11.6891 60.4495 11.1455 59.8234 11.036ZM58.2893 29.4365C58.2893 46.0225 46.6007 60.6591 30.4532 64.3503C14.306 60.667 2.61768 46.038 2.61768 29.4539V13.4198C12.4953 11.5878 21.8535 8.0313 30.4553 2.84024C39.0648 8.01206 48.4198 11.567 58.2893 13.4179V29.4365ZM24.6621 9.71265C19.0154 12.4059 13.0522 14.4869 6.93849 15.8976C6.34465 16.0346 5.92407 16.5633 5.92407 17.1727V29.4363C5.92407 30.8539 6.01973 32.2852 6.20804 33.6904C6.29597 34.3477 6.85775 34.8252 7.50328 34.8252C7.56112 34.8252 7.61975 34.8214 7.67877 34.8134C8.39509 34.7174 8.89785 34.0589 8.8018 33.3426C8.6288 32.0523 8.54113 30.738 8.54113 29.4363V18.2074C14.4854 16.7619 20.2831 14.7009 25.7887 12.0749C26.4411 11.7639 26.7176 10.9828 26.4066 10.3304C26.0953 9.6781 25.314 9.40172 24.6621 9.71265ZM52.3652 17.1726C52.3652 16.4499 52.9512 15.864 53.6738 15.864C54.3964 15.864 54.9824 16.45 54.9824 17.1726V29.4362C54.9824 35.6825 53.1611 41.7845 49.7153 47.0825C46.3161 52.3087 41.5547 56.4329 35.9453 59.0091C35.7685 59.0904 35.5828 59.1289 35.4 59.1289C34.9045 59.1289 34.4304 58.846 34.2099 58.3661C33.9083 57.7093 34.1963 56.9324 34.853 56.6308C45.4913 51.7449 52.3652 41.0704 52.3652 29.4362V17.1726ZM48.0026 33.7433C48.8543 32.359 48.6406 30.5958 47.4827 29.4554L46.1231 28.116C45.9454 27.9411 45.8538 27.6982 45.8714 27.4497L46.0077 25.5364C46.1236 23.9079 45.1129 22.4413 43.5497 21.97L41.7491 21.4272C41.509 21.3548 41.314 21.1813 41.2142 20.9511L40.4605 19.2124C39.817 17.7283 38.1975 16.8777 36.611 17.1888L34.784 17.5473C34.5371 17.5957 34.2823 17.5329 34.086 17.3745L32.6319 16.2004C31.3695 15.1814 29.5373 15.1811 28.275 16.2004L26.8207 17.3746C26.6245 17.5331 26.3697 17.5957 26.1227 17.5473L24.2956 17.1889C22.7085 16.8773 21.0894 17.7283 20.4463 19.2121L19.6921 20.9514C19.5923 21.1813 19.3974 21.3548 19.1573 21.4272L17.3571 21.97C15.7939 22.4412 14.7832 23.9077 14.8991 25.5364L15.0353 27.4496C15.053 27.6982 14.9613 27.9411 14.7838 28.1159L13.4241 29.4554C12.2662 30.596 12.0524 32.3592 12.9042 33.7433L13.9096 35.377C14.04 35.5889 14.071 35.8464 13.995 36.0832L13.4065 37.9127C12.9084 39.4623 13.5381 41.125 14.9376 41.956L16.5672 42.9236C16.7822 43.0513 16.9295 43.2658 16.9715 43.512L17.2921 45.3933C17.5675 47.0081 18.9024 48.1927 20.5385 48.274L22.4051 48.3668C22.6563 48.3794 22.8878 48.5013 23.0401 48.7017L24.1781 50.1988C24.8481 51.0804 25.8896 51.5646 26.9507 51.5646C27.4434 51.5646 27.9404 51.4602 28.4062 51.2423L30.0935 50.4544C30.3222 50.3476 30.5845 50.3477 30.8132 50.4544L32.5004 51.2423C33.9697 51.9283 35.7479 51.4894 36.7287 50.1984L37.8663 48.7015C38.0186 48.5012 38.2501 48.3791 38.5013 48.3667L40.3683 48.2739C42.0044 48.1926 43.3393 47.0079 43.6146 45.3931L43.9352 43.512C43.9773 43.2656 44.1246 43.0512 44.3396 42.9236L45.9692 41.956C47.3687 41.125 47.9984 39.4623 47.5001 37.9126L46.9119 36.0834C46.8357 35.8464 46.8668 35.589 46.9971 35.3772L48.0026 33.7433ZM45.7737 32.3719L44.768 34.0059C44.2368 34.8697 44.1099 35.9189 44.4203 36.8847L45.0086 38.714C45.1309 39.0941 44.9764 39.502 44.633 39.7059L43.0034 40.6734C42.1272 41.1936 41.5267 42.068 41.3554 43.0725L41.0347 44.9536C40.9671 45.3496 40.6397 45.6402 40.2385 45.6601L38.3715 45.7529C37.3469 45.8039 36.4031 46.3016 35.7826 47.1183L34.645 48.6153C34.4044 48.9318 33.9683 49.0397 33.608 48.8714L31.9208 48.0835C30.9882 47.648 29.9188 47.648 28.9861 48.0835L27.2988 48.8714C26.9382 49.0395 26.5023 48.9317 26.2618 48.6153L25.1237 47.1179C24.503 46.3013 23.5595 45.8038 22.535 45.7529L20.6685 45.6601C20.2672 45.6402 19.9398 45.3496 19.8722 44.9536L19.5516 43.0724C19.3803 42.0679 18.7796 41.1936 17.9035 40.6733L16.2739 39.7057C15.9306 39.5019 15.776 39.094 15.8982 38.714L16.4867 36.8843C16.797 35.9188 16.6703 34.8696 16.1388 34.0056L15.1332 32.3717C14.9244 32.0323 14.9769 31.5998 15.2608 31.32L16.6207 29.9805C17.3444 29.2675 17.7182 28.2774 17.646 27.2639L17.5098 25.3507C17.4814 24.9512 17.7292 24.5915 18.1126 24.4759L19.9129 23.9331C20.892 23.6379 21.6868 22.9305 22.0934 21.9925L22.8475 20.2534C22.9835 19.9398 23.297 19.7414 23.6302 19.7414C23.6837 19.7414 23.7378 19.7465 23.7917 19.7571L25.6186 20.1156C26.6279 20.3138 27.665 20.0569 28.4648 19.4109L29.9192 18.2368C30.2286 17.9869 30.6781 17.9869 30.9879 18.2368L32.442 19.4109C33.2418 20.0568 34.2791 20.3134 35.2882 20.1157L37.1151 19.7571C37.5039 19.6806 37.9016 19.8896 38.0594 20.2535L38.813 21.9922C39.2197 22.9305 40.0147 23.638 40.9937 23.9331L42.7943 24.4759C43.1776 24.5915 43.4256 24.9513 43.3972 25.3507L43.2609 27.264C43.1887 28.2774 43.5626 29.2675 44.2863 29.9807L45.6461 31.3201C45.9301 31.6 45.9827 32.0324 45.7737 32.3719ZM32.0773 27.3048C32.4327 26.6752 33.231 26.4531 33.8601 26.8085C34.4896 27.1638 34.7116 27.9619 34.3564 28.5914L27.3202 41.0551C27.0797 41.4811 26.6362 41.7206 26.1795 41.7206C25.9615 41.7206 25.7406 41.666 25.5373 41.5513C24.9079 41.196 24.6858 40.3979 25.0411 39.7685L32.0773 27.3048ZM35.0259 34.6169C32.8612 34.6169 31.1001 36.378 31.1001 38.5427C31.1001 40.7074 32.8612 42.4685 35.0259 42.4685C37.1906 42.4685 38.9517 40.7074 38.9517 38.5427C38.9517 36.378 37.1906 34.6169 35.0259 34.6169ZM35.0259 39.8513C34.3043 39.8513 33.7173 39.2643 33.7173 38.5427C33.7173 37.8212 34.3043 37.2341 35.0259 37.2341C35.7474 37.2341 36.3345 37.8212 36.3345 38.5427C36.3345 39.2643 35.7474 39.8513 35.0259 39.8513ZM21.9551 28.4569C21.9551 26.2922 23.7162 24.5311 25.8809 24.5311C28.0455 24.5311 29.8066 26.2921 29.8066 28.4569C29.8066 30.6216 28.0455 32.3827 25.8809 32.3827C23.7162 32.3827 21.9551 30.6216 21.9551 28.4569ZM24.5723 28.4569C24.5723 29.1785 25.1593 29.7655 25.8809 29.7655C26.6024 29.7655 27.1895 29.1785 27.1895 28.4569C27.1895 27.7353 26.6024 27.1483 25.8809 27.1483C25.1593 27.1483 24.5723 27.7353 24.5723 28.4569Z" fill="url(#paint0_linear)"/>
<path d="M59.7343 11.0204L59.6997 11.2174L59.6998 11.2174L59.7343 11.0204ZM59.8234 11.036L59.8578 10.839L59.8578 10.8389L59.8234 11.036ZM31.1377 0.193214L31.2423 0.0227405L31.2423 0.02273L31.1377 0.193214ZM29.7665 0.194654L29.8715 0.364899L29.8715 0.364891L29.7665 0.194654ZM1.34912 10.9894L1.38362 11.1864L1.38367 11.1864L1.34912 10.9894ZM1.08309 11.036L1.04859 10.839L1.04854 10.839L1.08309 11.036ZM8.47952 53.5256L8.63537 53.4003H8.63537L8.47952 53.5256ZM30.1726 66.9696L30.1297 67.1649L30.1301 67.165L30.1726 66.9696ZM30.7348 66.9694L30.7776 67.1648L30.7778 67.1648L30.7348 66.9694ZM52.4282 53.5147L52.2724 53.3894L52.4282 53.5147ZM30.4532 64.3503L30.4087 64.5453L30.4532 64.5554L30.4977 64.5453L30.4532 64.3503ZM2.61768 13.4198L2.5812 13.2232L2.41768 13.2535V13.4198H2.61768ZM30.4553 2.84024L30.5583 2.66879L30.455 2.60678L30.3519 2.669L30.4553 2.84024ZM58.2893 13.4179H58.4893V13.2519L58.3262 13.2213L58.2893 13.4179ZM6.93849 15.8976L6.98346 16.0925H6.98346L6.93849 15.8976ZM24.6621 9.71265L24.576 9.53212L24.576 9.53213L24.6621 9.71265ZM6.20804 33.6904L6.40627 33.6639L6.40626 33.6638L6.20804 33.6904ZM7.67877 34.8134L7.65219 34.6152L7.65197 34.6153L7.67877 34.8134ZM8.8018 33.3426L8.60357 33.3692V33.3692L8.8018 33.3426ZM8.54113 18.2074L8.49387 18.0131L8.34113 18.0502V18.2074H8.54113ZM25.7887 12.0749L25.7026 11.8944L25.7026 11.8944L25.7887 12.0749ZM26.4066 10.3304L26.5871 10.2444L26.5871 10.2443L26.4066 10.3304ZM49.7153 47.0825L49.883 47.1915L49.883 47.1915L49.7153 47.0825ZM35.9453 59.0091L35.8618 58.8274L35.8617 58.8274L35.9453 59.0091ZM34.2099 58.3661L34.0282 58.4496L34.0282 58.4496L34.2099 58.3661ZM34.853 56.6308L34.7695 56.449L34.7695 56.449L34.853 56.6308ZM47.4827 29.4554L47.3424 29.5979L47.3424 29.5979L47.4827 29.4554ZM48.0026 33.7433L48.1729 33.8481L48.173 33.8481L48.0026 33.7433ZM46.1231 28.116L46.2634 27.9736L46.2634 27.9735L46.1231 28.116ZM45.8714 27.4497L45.672 27.4355L45.6719 27.4355L45.8714 27.4497ZM46.0077 25.5364L46.2072 25.5506V25.5506L46.0077 25.5364ZM43.5497 21.97L43.6075 21.7785L43.6075 21.7785L43.5497 21.97ZM41.7491 21.4272L41.8068 21.2357L41.8068 21.2357L41.7491 21.4272ZM41.2142 20.9511L41.0307 21.0306L41.0307 21.0307L41.2142 20.9511ZM40.4605 19.2124L40.644 19.1328L40.644 19.1328L40.4605 19.2124ZM36.611 17.1888L36.5726 16.9925L36.5725 16.9925L36.611 17.1888ZM34.784 17.5473L34.8225 17.7436L34.8225 17.7436L34.784 17.5473ZM34.086 17.3745L33.9603 17.5301L33.9604 17.5301L34.086 17.3745ZM32.6319 16.2004L32.7575 16.0448L32.7575 16.0448L32.6319 16.2004ZM28.275 16.2004L28.4007 16.356L28.4007 16.356L28.275 16.2004ZM26.8207 17.3746L26.695 17.219L26.695 17.219L26.8207 17.3746ZM26.1227 17.5473L26.0842 17.7436L26.0842 17.7436L26.1227 17.5473ZM24.2956 17.1889L24.2571 17.3851L24.2571 17.3852L24.2956 17.1889ZM20.4463 19.2121L20.6297 19.2917L20.6298 19.2917L20.4463 19.2121ZM19.6921 20.9514L19.8756 21.031L19.8756 21.0309L19.6921 20.9514ZM19.1573 21.4272L19.0996 21.2357L19.0995 21.2357L19.1573 21.4272ZM17.3571 21.97L17.4148 22.1615L17.4148 22.1615L17.3571 21.97ZM14.8991 25.5364L14.6996 25.5506V25.5506L14.8991 25.5364ZM15.0353 27.4496L15.2348 27.4354L15.2348 27.4354L15.0353 27.4496ZM14.7838 28.1159L14.9242 28.2584L14.9242 28.2584L14.7838 28.1159ZM13.4241 29.4554L13.5644 29.5979H13.5644L13.4241 29.4554ZM12.9042 33.7433L13.0745 33.6384H13.0745L12.9042 33.7433ZM13.9096 35.377L13.7392 35.4819L13.7393 35.4819L13.9096 35.377ZM13.995 36.0832L14.1854 36.1444L14.1854 36.1443L13.995 36.0832ZM13.4065 37.9127L13.2161 37.8515L13.2161 37.8515L13.4065 37.9127ZM14.9376 41.956L15.0397 41.784H15.0397L14.9376 41.956ZM16.5672 42.9236L16.6693 42.7516L16.6693 42.7516L16.5672 42.9236ZM16.9715 43.512L17.1687 43.4784L17.1687 43.4784L16.9715 43.512ZM17.2921 45.3933L17.095 45.4269L17.095 45.4269L17.2921 45.3933ZM20.5385 48.274L20.5484 48.0743H20.5484L20.5385 48.274ZM22.4051 48.3668L22.4151 48.167L22.415 48.167L22.4051 48.3668ZM23.0401 48.7017L23.1994 48.5806L23.1994 48.5806L23.0401 48.7017ZM24.1781 50.1988L24.3373 50.0778L24.3373 50.0778L24.1781 50.1988ZM28.4062 51.2423L28.3215 51.0611L28.3214 51.0611L28.4062 51.2423ZM30.0935 50.4544L30.0089 50.2732L30.0088 50.2732L30.0935 50.4544ZM30.8132 50.4544L30.8978 50.2732L30.8977 50.2731L30.8132 50.4544ZM32.5004 51.2423L32.4157 51.4235L32.4158 51.4235L32.5004 51.2423ZM36.7287 50.1984L36.5695 50.0774L36.5694 50.0774L36.7287 50.1984ZM37.8663 48.7015L37.707 48.5805L37.707 48.5805L37.8663 48.7015ZM38.5013 48.3667L38.5112 48.5664L38.5112 48.5664L38.5013 48.3667ZM40.3683 48.2739L40.3584 48.0741H40.3584L40.3683 48.2739ZM43.6146 45.3931L43.8118 45.4268L43.8118 45.4267L43.6146 45.3931ZM43.9352 43.512L43.7381 43.4784L43.7381 43.4784L43.9352 43.512ZM44.3396 42.9236L44.4417 43.0956L44.4417 43.0955L44.3396 42.9236ZM45.9692 41.956L45.8671 41.784H45.8671L45.9692 41.956ZM47.5001 37.9126L47.6905 37.8513V37.8513L47.5001 37.9126ZM46.9119 36.0834L46.7215 36.1446L46.7215 36.1446L46.9119 36.0834ZM46.9971 35.3772L46.8268 35.2724L46.8268 35.2724L46.9971 35.3772ZM44.768 34.0059L44.5977 33.9011L44.5977 33.9011L44.768 34.0059ZM45.7737 32.3719L45.6034 32.267L45.6034 32.267L45.7737 32.3719ZM44.4203 36.8847L44.2299 36.9459L44.2299 36.9459L44.4203 36.8847ZM45.0086 38.714L44.8182 38.7752L44.8182 38.7752L45.0086 38.714ZM44.633 39.7059L44.5309 39.5339L44.633 39.7059ZM43.0034 40.6734L43.1055 40.8454L43.1055 40.8454L43.0034 40.6734ZM41.3554 43.0725L41.1582 43.0389L41.1582 43.0389L41.3554 43.0725ZM41.0347 44.9536L41.2319 44.9873L41.2319 44.9872L41.0347 44.9536ZM40.2385 45.6601L40.2286 45.4603H40.2285L40.2385 45.6601ZM38.3715 45.7529L38.3616 45.5531H38.3616L38.3715 45.7529ZM35.7826 47.1183L35.9418 47.2393L35.9418 47.2393L35.7826 47.1183ZM34.645 48.6153L34.8042 48.7363L34.8043 48.7363L34.645 48.6153ZM33.608 48.8714L33.5233 49.0526L33.5233 49.0526L33.608 48.8714ZM31.9208 48.0835L32.0054 47.9023L32.0054 47.9023L31.9208 48.0835ZM28.9861 48.0835L28.9015 47.9023H28.9015L28.9861 48.0835ZM27.2988 48.8714L27.3833 49.0527L27.3835 49.0526L27.2988 48.8714ZM26.2618 48.6153L26.1025 48.7363L26.1026 48.7363L26.2618 48.6153ZM25.1237 47.1179L25.2829 46.9968L25.2829 46.9968L25.1237 47.1179ZM22.535 45.7529L22.5251 45.9526H22.5251L22.535 45.7529ZM20.6685 45.6601L20.6784 45.4603H20.6784L20.6685 45.6601ZM19.8722 44.9536L19.675 44.9872L19.675 44.9873L19.8722 44.9536ZM19.5516 43.0724L19.7487 43.0388L19.7487 43.0387L19.5516 43.0724ZM17.9035 40.6733L18.0056 40.5013L18.0056 40.5013L17.9035 40.6733ZM16.2739 39.7057L16.376 39.5338H16.376L16.2739 39.7057ZM15.8982 38.714L15.7078 38.6527L15.8982 38.714ZM16.4867 36.8843L16.6771 36.9455L16.6771 36.9455L16.4867 36.8843ZM16.1388 34.0056L16.3091 33.9008L16.3091 33.9008L16.1388 34.0056ZM15.1332 32.3717L14.9629 32.4765L14.9629 32.4765L15.1332 32.3717ZM15.2608 31.32L15.1205 31.1775L15.1205 31.1775L15.2608 31.32ZM16.6207 29.9805L16.7611 30.123L16.7611 30.123L16.6207 29.9805ZM17.646 27.2639L17.4465 27.2781L17.4465 27.2781L17.646 27.2639ZM17.5098 25.3507L17.3103 25.3649L17.3103 25.3649L17.5098 25.3507ZM18.1126 24.4759L18.1703 24.6674L18.1704 24.6674L18.1126 24.4759ZM19.9129 23.9331L19.9706 24.1246L19.9129 23.9331ZM22.0934 21.9925L21.9099 21.9129L21.9099 21.9129L22.0934 21.9925ZM22.8475 20.2534L22.664 20.1738L22.8475 20.2534ZM23.7917 19.7571L23.7531 19.9534L23.7532 19.9534L23.7917 19.7571ZM25.6186 20.1156L25.6571 19.9193L25.6571 19.9193L25.6186 20.1156ZM28.4648 19.4109L28.3392 19.2553L28.3391 19.2553L28.4648 19.4109ZM29.9192 18.2368L30.0448 18.3924L30.0448 18.3924L29.9192 18.2368ZM30.9879 18.2368L31.1135 18.0812L31.1135 18.0812L30.9879 18.2368ZM32.442 19.4109L32.5677 19.2553L32.5676 19.2553L32.442 19.4109ZM35.2882 20.1157L35.3267 20.312L35.3267 20.312L35.2882 20.1157ZM37.1151 19.7571L37.1536 19.9534L37.1538 19.9534L37.1151 19.7571ZM38.0594 20.2535L38.2429 20.174L38.2429 20.1739L38.0594 20.2535ZM38.813 21.9922L38.6295 22.0718L38.6295 22.0718L38.813 21.9922ZM40.9937 23.9331L41.0514 23.7416L41.0514 23.7416L40.9937 23.9331ZM42.7943 24.4759L42.852 24.2844H42.852L42.7943 24.4759ZM43.3972 25.3507L43.5966 25.3649L43.5967 25.3649L43.3972 25.3507ZM43.2609 27.264L43.4604 27.2782V27.2782L43.2609 27.264ZM44.2863 29.9807L44.146 30.1231L44.146 30.1231L44.2863 29.9807ZM45.6461 31.3201L45.7865 31.1777L45.7865 31.1777L45.6461 31.3201ZM33.8601 26.8085L33.7618 26.9827L33.7618 26.9827L33.8601 26.8085ZM32.0773 27.3048L31.9031 27.2064L32.0773 27.3048ZM34.3564 28.5914L34.5305 28.6897L34.5305 28.6897L34.3564 28.5914ZM27.3202 41.0551L27.146 40.9567L27.146 40.9567L27.3202 41.0551ZM25.5373 41.5513L25.6357 41.3771L25.6357 41.3771L25.5373 41.5513ZM25.0411 39.7685L24.867 39.6701L24.867 39.6701L25.0411 39.7685ZM59.6998 11.2174L59.789 11.233L59.8578 10.8389L59.7687 10.8234L59.6998 11.2174ZM31.0331 0.363688C39.8575 5.77756 49.5026 9.42942 59.6997 11.2174L59.7688 10.8234C49.6213 9.04413 40.0237 5.41027 31.2423 0.0227405L31.0331 0.363688ZM29.8715 0.364891C30.2274 0.14542 30.6767 0.145052 31.0331 0.363699L31.2423 0.02273C30.7573 -0.274732 30.146 -0.274315 29.6616 0.0244171L29.8715 0.364891ZM1.38367 11.1864C11.5235 9.40833 21.1084 5.76751 29.8715 0.364899L29.6616 0.0244084C20.9416 5.40042 11.4045 9.02309 1.31458 10.7924L1.38367 11.1864ZM1.11759 11.233L1.38362 11.1864L1.31463 10.7924L1.04859 10.839L1.11759 11.233ZM0.200488 12.3249C0.200488 11.7865 0.58727 11.326 1.11764 11.233L1.04854 10.839C0.326844 10.9655 -0.199512 11.5922 -0.199512 12.3249H0.200488ZM0.200488 29.4539V12.3249H-0.199512V29.4539H0.200488ZM8.63537 53.4003C3.19612 46.6373 0.200488 38.1327 0.200488 29.4539H-0.199512C-0.199512 38.2239 2.82727 46.8169 8.32367 53.651L8.63537 53.4003ZM30.2155 66.7742C21.7387 64.913 14.0745 60.1631 8.63537 53.4003L8.32367 53.651C13.8199 60.4849 21.5639 65.2841 30.1297 67.1649L30.2155 66.7742ZM30.4534 66.7999C30.3737 66.7999 30.294 66.7913 30.2151 66.7741L30.1301 67.165C30.2365 67.1882 30.3447 67.1999 30.4534 67.1999V66.7999ZM30.692 66.7741C30.6134 66.7913 30.5334 66.7999 30.4534 66.7999V67.1999C30.5622 67.1999 30.6709 67.1882 30.7776 67.1648L30.692 66.7741ZM52.2724 53.3894C46.8339 60.1549 39.1694 64.9086 30.6918 66.7741L30.7778 67.1648C39.3444 65.2796 47.0885 60.4766 52.5841 53.6401L52.2724 53.3894ZM60.7064 29.4365C60.7064 38.117 57.711 46.6239 52.2724 53.3894L52.5841 53.6401C58.0799 46.8035 61.1064 38.2082 61.1064 29.4365H60.7064ZM60.7064 12.3249V29.4365H61.1064V12.3249H60.7064ZM59.7889 11.233C60.3194 11.3258 60.7064 11.7862 60.7064 12.3249H61.1064C61.1064 11.5919 60.5797 10.9652 59.8578 10.839L59.7889 11.233ZM30.4977 64.5453C46.7361 60.8334 58.4893 46.1159 58.4893 29.4365H58.0893C58.0893 45.9291 46.4653 60.4849 30.4086 64.1553L30.4977 64.5453ZM2.41768 29.4539C2.41768 46.1314 14.1707 60.8413 30.4087 64.5453L30.4976 64.1553C14.4414 60.4927 2.81768 45.9445 2.81768 29.4539H2.41768ZM2.41768 13.4198V29.4539H2.81768V13.4198H2.41768ZM30.3519 2.669C21.7707 7.84764 12.4352 11.3955 2.5812 13.2232L2.65415 13.6165C12.5554 11.7801 21.9362 8.21495 30.5586 3.01147L30.3519 2.669ZM58.3262 13.2213C48.48 11.3748 39.1474 7.82838 30.5583 2.66879L30.3523 3.01168C38.9821 8.19575 48.3595 11.7592 58.2524 13.6144L58.3262 13.2213ZM58.4893 29.4365V13.4179H58.0893V29.4365H58.4893ZM6.98346 16.0925C13.1114 14.6785 19.0883 12.5927 24.7482 9.89316L24.576 9.53213C18.9425 12.2191 12.9931 14.2953 6.89353 15.7027L6.98346 16.0925ZM6.12407 17.1727C6.12407 16.6564 6.48037 16.2085 6.98346 16.0925L6.89353 15.7027C6.20894 15.8607 5.72407 16.4701 5.72407 17.1727H6.12407ZM6.12407 29.4363V17.1727H5.72407V29.4363H6.12407ZM6.40626 33.6638C6.21914 32.2675 6.12407 30.845 6.12407 29.4363H5.72407C5.72407 30.8628 5.82032 32.303 6.00981 33.717L6.40626 33.6638ZM7.50328 34.6252C6.95657 34.6252 6.48074 34.2205 6.40627 33.6639L6.0098 33.7169C6.11121 34.4749 6.75894 35.0252 7.50328 35.0252V34.6252ZM7.65197 34.6153C7.60203 34.622 7.55236 34.6252 7.50328 34.6252V35.0252C7.56988 35.0252 7.63747 35.0209 7.70557 35.0116L7.65197 34.6153ZM8.60357 33.3692C8.68495 33.976 8.25903 34.5339 7.65219 34.6152L7.70535 35.0117C8.53115 34.9009 9.11076 34.1418 9.00003 33.316L8.60357 33.3692ZM8.34113 29.4363C8.34113 30.7468 8.4294 32.0701 8.60357 33.3692L9.00003 33.316C8.82821 32.0345 8.74113 30.7291 8.74113 29.4363H8.34113ZM8.34113 18.2074V29.4363H8.74113V18.2074H8.34113ZM25.7026 11.8944C20.2095 14.5144 14.4248 16.5708 8.49387 18.0131L8.58839 18.4017C14.546 16.953 20.3568 14.8873 25.8748 12.2554L25.7026 11.8944ZM26.226 10.4165C26.4896 10.9692 26.2553 11.6309 25.7026 11.8944L25.8747 12.2555C26.6269 11.8968 26.9457 10.9963 26.5871 10.2444L26.226 10.4165ZM24.7482 9.89317C25.3004 9.62978 25.9623 9.86391 26.2261 10.4166L26.5871 10.2443C26.2282 9.49229 25.3276 9.17366 24.576 9.53212L24.7482 9.89317ZM53.6738 15.664C52.8408 15.664 52.1652 16.3394 52.1652 17.1726H52.5652C52.5652 16.5603 53.0617 16.064 53.6738 16.064V15.664ZM55.1824 17.1726C55.1824 16.3395 54.5069 15.664 53.6738 15.664V16.064C54.286 16.064 54.7824 16.5605 54.7824 17.1726H55.1824ZM55.1824 29.4362V17.1726H54.7824V29.4362H55.1824ZM49.883 47.1915C53.3496 41.8615 55.1824 35.7217 55.1824 29.4362H54.7824C54.7824 35.6433 52.9726 41.7075 49.5477 46.9734L49.883 47.1915ZM36.0287 59.1909C41.6729 56.5987 46.4634 52.4492 49.883 47.1915L49.5477 46.9734C46.1689 52.1683 41.4365 56.2671 35.8618 58.8274L36.0287 59.1909ZM35.4 59.3289C35.611 59.3289 35.8252 59.2844 36.0288 59.1909L35.8617 58.8274C35.7117 58.8964 35.5546 58.9289 35.4 58.9289V59.3289ZM34.0282 58.4496C34.2825 59.003 34.8293 59.3289 35.4 59.3289V58.9289C34.9798 58.9289 34.5784 58.6889 34.3917 58.2826L34.0282 58.4496ZM34.7695 56.449C34.0125 56.7967 33.6804 57.6924 34.0282 58.4496L34.3917 58.2826C34.1362 57.7262 34.3801 57.068 34.9365 56.8125L34.7695 56.449ZM52.1652 29.4362C52.1652 40.9916 45.3374 51.5955 34.7695 56.449L34.9364 56.8125C45.6452 51.8943 52.5652 41.1492 52.5652 29.4362H52.1652ZM52.1652 17.1726V29.4362H52.5652V17.1726H52.1652ZM47.3424 29.5979C48.4338 30.6729 48.6351 32.3336 47.8323 33.6385L48.173 33.8481C49.0734 32.3845 48.8473 30.5187 47.6231 29.3129L47.3424 29.5979ZM45.9827 28.2585L47.3424 29.5979L47.6231 29.3129L46.2634 27.9736L45.9827 28.2585ZM45.6719 27.4355C45.6501 27.7424 45.7633 28.0425 45.9828 28.2586L46.2634 27.9735C46.1274 27.8397 46.0574 27.6541 46.0709 27.4639L45.6719 27.4355ZM45.8082 25.5222L45.672 27.4355L46.0709 27.4639L46.2072 25.5506L45.8082 25.5222ZM43.492 22.1615C44.9656 22.6058 45.9175 23.9869 45.8082 25.5222L46.2072 25.5506C46.3297 23.8288 45.2601 22.2768 43.6075 21.7785L43.492 22.1615ZM41.6914 21.6187L43.492 22.1615L43.6075 21.7785L41.8068 21.2357L41.6914 21.6187ZM41.0307 21.0307C41.1539 21.3148 41.3949 21.5293 41.6914 21.6187L41.8068 21.2357C41.6231 21.1803 41.4741 21.0477 41.3976 20.8715L41.0307 21.0307ZM40.277 19.2919L41.0307 21.0306L41.3977 20.8716L40.644 19.1328L40.277 19.2919ZM36.6495 17.385C38.1438 17.092 39.6709 17.8941 40.277 19.2919L40.644 19.1328C39.9631 17.5625 38.2511 16.6634 36.5726 16.9925L36.6495 17.385ZM34.8225 17.7436L36.6496 17.385L36.5725 16.9925L34.7455 17.3511L34.8225 17.7436ZM33.9604 17.5301C34.2027 17.7257 34.5176 17.8034 34.8225 17.7436L34.7455 17.3511C34.5565 17.3881 34.3618 17.3401 34.2116 17.2188L33.9604 17.5301ZM32.5062 16.356L33.9603 17.5301L34.2116 17.2188L32.7575 16.0448L32.5062 16.356ZM28.4007 16.356C29.5896 15.3959 31.3171 15.3962 32.5063 16.356L32.7575 16.0448C31.4218 14.9666 29.485 14.9663 28.1494 16.0448L28.4007 16.356ZM26.9463 17.5302L28.4007 16.356L28.1494 16.0448L26.695 17.219L26.9463 17.5302ZM26.0842 17.7436C26.3891 17.8033 26.704 17.7259 26.9464 17.5302L26.695 17.219C26.545 17.3402 26.3504 17.3881 26.1611 17.3511L26.0842 17.7436ZM24.2571 17.3852L26.0842 17.7436L26.1612 17.3511L24.3341 16.9926L24.2571 17.3852ZM20.6298 19.2917C21.2355 17.8941 22.7622 17.0917 24.2571 17.3851L24.3341 16.9926C22.6549 16.663 20.9433 17.5625 20.2628 19.1326L20.6298 19.2917ZM19.8756 21.0309L20.6297 19.2917L20.2628 19.1325L19.5086 20.8718L19.8756 21.0309ZM19.215 21.6187C19.5115 21.5293 19.7523 21.3148 19.8756 21.031L19.5087 20.8717C19.4322 21.0477 19.2833 21.1803 19.0996 21.2357L19.215 21.6187ZM17.4148 22.1615L19.215 21.6187L19.0995 21.2357L17.2993 21.7785L17.4148 22.1615ZM15.0986 25.5222C14.9893 23.9868 15.9412 22.6057 17.4148 22.1615L17.2993 21.7785C15.6467 22.2767 14.577 23.8287 14.6996 25.5506L15.0986 25.5222ZM15.2348 27.4354L15.0986 25.5222L14.6996 25.5506L14.8359 27.4638L15.2348 27.4354ZM14.9242 28.2584C15.1433 28.0425 15.2567 27.7424 15.2348 27.4354L14.8359 27.4638C14.8494 27.654 14.7793 27.8397 14.6435 27.9734L14.9242 28.2584ZM13.5644 29.5979L14.9242 28.2584L14.6435 27.9734L13.2837 29.3129L13.5644 29.5979ZM13.0745 33.6384C12.2716 32.3337 12.473 30.6731 13.5644 29.5979L13.2837 29.3129C12.0595 30.5189 11.8332 32.3846 12.7338 33.8481L13.0745 33.6384ZM14.0799 35.2722L13.0745 33.6384L12.7338 33.8481L13.7392 35.4819L14.0799 35.2722ZM14.1854 36.1443C14.2793 35.8521 14.241 35.5339 14.0799 35.2722L13.7393 35.4819C13.839 35.6439 13.8628 35.8408 13.8046 36.022L14.1854 36.1443ZM13.5969 37.9739L14.1854 36.1444L13.8046 36.0219L13.2161 37.8515L13.5969 37.9739ZM15.0397 41.784C13.7204 41.0007 13.1273 39.4347 13.5969 37.9739L13.2161 37.8515C12.6894 39.4899 13.3557 41.2494 14.8355 42.128L15.0397 41.784ZM16.6693 42.7516L15.0397 41.784L14.8355 42.128L16.4651 43.0955L16.6693 42.7516ZM17.1687 43.4784C17.1168 43.1743 16.9347 42.9093 16.6693 42.7516L16.465 43.0955C16.6297 43.1933 16.7423 43.3572 16.7744 43.5457L17.1687 43.4784ZM17.4893 45.3597L17.1687 43.4784L16.7744 43.5456L17.095 45.4269L17.4893 45.3597ZM20.5484 48.0743C19.0059 47.9976 17.7489 46.8821 17.4893 45.3597L17.095 45.4269C17.3861 47.1341 18.7988 48.3879 20.5286 48.4738L20.5484 48.0743ZM22.415 48.167L20.5484 48.0743L20.5286 48.4738L22.3952 48.5665L22.415 48.167ZM23.1994 48.5806C23.0113 48.3333 22.7252 48.1825 22.4151 48.167L22.3951 48.5665C22.5875 48.5762 22.7644 48.6694 22.8809 48.8227L23.1994 48.5806ZM24.3373 50.0778L23.1994 48.5806L22.8809 48.8227L24.0189 50.3198L24.3373 50.0778ZM26.9507 51.3646C25.9494 51.3646 24.9679 50.9076 24.3373 50.0778L24.0189 50.3198C24.7283 51.2533 25.8298 51.7646 26.9507 51.7646V51.3646ZM28.3214 51.0611C27.8831 51.2662 27.4151 51.3646 26.9507 51.3646V51.7646C27.4717 51.7646 27.9978 51.6542 28.4909 51.4235L28.3214 51.0611ZM30.0088 50.2732L28.3215 51.0611L28.4908 51.4235L30.1781 50.6356L30.0088 50.2732ZM30.8977 50.2731C30.6155 50.1415 30.2913 50.1413 30.0089 50.2732L30.1781 50.6356C30.3531 50.5539 30.5534 50.554 30.7287 50.6357L30.8977 50.2731ZM32.585 51.0611L30.8978 50.2732L30.7286 50.6356L32.4157 51.4235L32.585 51.0611ZM36.5694 50.0774C35.6456 51.2934 33.969 51.7072 32.585 51.0611L32.4158 51.4235C33.9703 52.1493 35.8502 51.6854 36.8879 50.3194L36.5694 50.0774ZM37.707 48.5805L36.5695 50.0774L36.8879 50.3194L38.0255 48.8225L37.707 48.5805ZM38.4914 48.1669C38.1812 48.1823 37.8951 48.3332 37.707 48.5805L38.0255 48.8226C38.1421 48.6692 38.319 48.5759 38.5112 48.5664L38.4914 48.1669ZM40.3584 48.0741L38.4914 48.1669L38.5112 48.5664L40.3782 48.4736L40.3584 48.0741ZM43.4175 45.3595C43.1579 46.8819 41.9008 47.9975 40.3584 48.0741L40.3782 48.4736C42.108 48.3877 43.5207 47.134 43.8118 45.4268L43.4175 45.3595ZM43.7381 43.4784L43.4175 45.3595L43.8118 45.4267L44.1324 43.5456L43.7381 43.4784ZM44.2375 42.7516C43.9721 42.9091 43.79 43.1742 43.7381 43.4784L44.1324 43.5456C44.1646 43.3571 44.2771 43.1932 44.4417 43.0956L44.2375 42.7516ZM45.8671 41.784L44.2375 42.7516L44.4417 43.0955L46.0713 42.128L45.8671 41.784ZM47.3097 37.9738C47.7795 39.4347 47.1864 41.0007 45.8671 41.784L46.0713 42.128C47.5511 41.2494 48.2174 39.4899 47.6905 37.8513L47.3097 37.9738ZM46.7215 36.1446L47.3097 37.9738L47.6905 37.8513L47.1023 36.0222L46.7215 36.1446ZM46.8268 35.2724C46.6658 35.534 46.6275 35.8521 46.7215 36.1446L47.1023 36.0222C47.044 35.8408 47.0678 35.644 47.1674 35.482L46.8268 35.2724ZM47.8323 33.6384L46.8268 35.2724L47.1674 35.482L48.1729 33.8481L47.8323 33.6384ZM44.9384 34.1107L45.944 32.4767L45.6034 32.267L44.5977 33.9011L44.9384 34.1107ZM44.6108 36.8235C44.3182 35.9133 44.4377 34.9247 44.9384 34.1107L44.5977 33.9011C44.0358 34.8147 43.9017 35.9245 44.2299 36.9459L44.6108 36.8235ZM45.199 38.6527L44.6107 36.8234L44.2299 36.9459L44.8182 38.7752L45.199 38.6527ZM44.7351 39.8778C45.1586 39.6264 45.3499 39.1217 45.1989 38.6527L44.8182 38.7752C44.9119 39.0665 44.7941 39.3776 44.5309 39.5339L44.7351 39.8778ZM43.1055 40.8454L44.7351 39.8778L44.5309 39.5339L42.9013 40.5015L43.1055 40.8454ZM41.5525 43.1061C41.714 42.1594 42.2797 41.3356 43.1055 40.8454L42.9013 40.5015C41.9746 41.0516 41.3394 41.9766 41.1582 43.0389L41.5525 43.1061ZM41.2319 44.9872L41.5525 43.1061L41.1582 43.0389L40.8376 44.92L41.2319 44.9872ZM40.2484 45.8598C40.7433 45.8353 41.1485 45.4756 41.2319 44.9873L40.8376 44.9199C40.7857 45.2236 40.5361 45.4451 40.2286 45.4603L40.2484 45.8598ZM38.3814 45.9526L40.2484 45.8598L40.2285 45.4603L38.3616 45.5531L38.3814 45.9526ZM35.9418 47.2393C36.5266 46.4696 37.4157 46.0007 38.3815 45.9526L38.3616 45.5531C37.278 45.6071 36.2796 46.1336 35.6233 46.9973L35.9418 47.2393ZM34.8043 48.7363L35.9418 47.2393L35.6233 46.9973L34.4858 48.4943L34.8043 48.7363ZM33.5233 49.0526C33.9691 49.2608 34.5067 49.1278 34.8042 48.7363L34.4858 48.4943C34.3021 48.7359 33.9676 48.8186 33.6926 48.6902L33.5233 49.0526ZM31.8362 48.2647L33.5233 49.0526L33.6926 48.6902L32.0054 47.9023L31.8362 48.2647ZM29.0708 48.2647C29.9498 47.8542 30.9572 47.8542 31.8362 48.2647L32.0054 47.9023C31.0191 47.4417 29.8878 47.4417 28.9015 47.9023L29.0708 48.2647ZM27.3835 49.0526L29.0708 48.2647L28.9015 47.9023L27.2142 48.6902L27.3835 49.0526ZM26.1026 48.7363C26.4 49.1277 26.9374 49.2606 27.3833 49.0527L27.2143 48.6901C26.939 48.8185 26.6045 48.7357 26.421 48.4943L26.1026 48.7363ZM24.9645 47.2389L26.1025 48.7363L26.421 48.4943L25.2829 46.9968L24.9645 47.2389ZM22.5251 45.9526C23.4907 46.0006 24.3795 46.4693 24.9645 47.2389L25.2829 46.9968C24.6265 46.1333 23.6284 45.607 22.545 45.5531L22.5251 45.9526ZM20.6585 45.8598L22.5251 45.9526L22.545 45.5531L20.6784 45.4603L20.6585 45.8598ZM19.675 44.9873C19.7585 45.4756 20.1636 45.8353 20.6585 45.8598L20.6784 45.4603C20.3708 45.4451 20.1212 45.2236 20.0693 44.9199L19.675 44.9873ZM19.3544 43.106L19.675 44.9872L20.0693 44.92L19.7487 43.0388L19.3544 43.106ZM17.8014 40.8453C18.6271 41.3356 19.193 42.1593 19.3544 43.106L19.7487 43.0387C19.5676 41.9764 18.9322 41.0516 18.0056 40.5013L17.8014 40.8453ZM16.1718 39.8777L17.8014 40.8453L18.0056 40.5013L16.376 39.5338L16.1718 39.8777ZM15.7078 38.6527C15.557 39.1216 15.7483 39.6262 16.1718 39.8777L16.376 39.5338C16.1128 39.3775 15.995 39.0663 16.0886 38.7752L15.7078 38.6527ZM16.2963 36.823L15.7078 38.6527L16.0886 38.7752L16.6771 36.9455L16.2963 36.823ZM15.9684 34.1104C16.4693 34.9246 16.5887 35.9132 16.2963 36.8231L16.6771 36.9455C17.0053 35.9244 16.8713 34.8145 16.3091 33.9008L15.9684 34.1104ZM14.9629 32.4765L15.9684 34.1105L16.3091 33.9008L15.3036 32.2669L14.9629 32.4765ZM15.1205 31.1775C14.7701 31.5227 14.7052 32.0577 14.9629 32.4765L15.3036 32.2669C15.1436 32.0068 15.1836 31.6769 15.4012 31.4625L15.1205 31.1775ZM16.4804 29.838L15.1205 31.1775L15.4012 31.4625L16.7611 30.123L16.4804 29.838ZM17.4465 27.2781C17.5146 28.2332 17.1623 29.1661 16.4803 29.8381L16.7611 30.123C17.5264 29.3689 17.9219 28.3216 17.8455 27.2497L17.4465 27.2781ZM17.3103 25.3649L17.4465 27.2781L17.8455 27.2497L17.7093 25.3365L17.3103 25.3649ZM18.0549 24.2844C17.5819 24.427 17.2752 24.8722 17.3103 25.3649L17.7093 25.3365C17.6875 25.0302 17.8765 24.756 18.1703 24.6674L18.0549 24.2844ZM19.8551 23.7416L18.0549 24.2844L18.1704 24.6674L19.9706 24.1246L19.8551 23.7416ZM21.9099 21.9129C21.5267 22.7969 20.7779 23.4634 19.8551 23.7416L19.9706 24.1246C21.006 23.8124 21.8469 23.064 22.2769 22.072L21.9099 21.9129ZM22.664 20.1738L21.9099 21.9129L22.2769 22.0721L23.031 20.3329L22.664 20.1738ZM23.6302 19.5414C23.2192 19.5414 22.8324 19.7854 22.664 20.1738L23.031 20.3329C23.1345 20.0942 23.3748 19.9414 23.6302 19.9414V19.5414ZM23.8303 19.5609C23.7634 19.5478 23.6964 19.5414 23.6302 19.5414V19.9414C23.671 19.9414 23.7121 19.9453 23.7531 19.9534L23.8303 19.5609ZM25.6571 19.9193L23.8302 19.5609L23.7532 19.9534L25.5801 20.3118L25.6571 19.9193ZM28.3391 19.2553C27.5853 19.8642 26.6084 20.1062 25.6571 19.9193L25.5801 20.3118C26.6474 20.5215 27.7446 20.2497 28.5905 19.5665L28.3391 19.2553ZM29.7935 18.0812L28.3392 19.2553L28.5904 19.5665L30.0448 18.3924L29.7935 18.0812ZM31.1135 18.0812C30.7305 17.7721 30.1763 17.7721 29.7935 18.0812L30.0448 18.3924C30.281 18.2017 30.6258 18.2016 30.8623 18.3925L31.1135 18.0812ZM32.5676 19.2553L31.1135 18.0812L30.8622 18.3924L32.3164 19.5665L32.5676 19.2553ZM35.2497 19.9194C34.2986 20.1058 33.3214 19.864 32.5677 19.2553L32.3163 19.5665C33.1622 20.2496 34.2596 20.521 35.3267 20.312L35.2497 19.9194ZM37.0766 19.5609L35.2497 19.9194L35.3267 20.312L37.1536 19.9534L37.0766 19.5609ZM38.2429 20.1739C38.0477 19.7238 37.5576 19.4662 37.0765 19.5609L37.1538 19.9534C37.4502 19.895 37.7555 20.0553 37.8759 20.3331L38.2429 20.1739ZM38.9965 21.9127L38.2429 20.174L37.8759 20.333L38.6295 22.0718L38.9965 21.9127ZM41.0514 23.7416C40.1288 23.4635 39.3798 22.7969 38.9965 21.9127L38.6295 22.0718C39.0596 23.064 39.9006 23.8125 40.9359 24.1246L41.0514 23.7416ZM42.852 24.2844L41.0514 23.7416L40.9359 24.1246L42.7366 24.6674L42.852 24.2844ZM43.5967 25.3649C43.6317 24.8723 43.3249 24.427 42.852 24.2844L42.7366 24.6674C43.0303 24.756 43.2194 25.0304 43.1977 25.3365L43.5967 25.3649ZM43.4604 27.2782L43.5966 25.3649L43.1977 25.3365L43.0614 27.2498L43.4604 27.2782ZM44.4267 29.8382C43.7446 29.166 43.3923 28.2332 43.4604 27.2782L43.0614 27.2498C42.985 28.3216 43.3805 29.3689 44.146 30.1231L44.4267 29.8382ZM45.7865 31.1777L44.4267 29.8382L44.146 30.1231L45.5058 31.4626L45.7865 31.1777ZM45.944 32.4767C46.2019 32.0578 46.1367 31.5229 45.7865 31.1777L45.5057 31.4626C45.7234 31.6772 45.7634 32.007 45.6034 32.267L45.944 32.4767ZM33.9585 26.6344C33.2331 26.2246 32.3129 26.4807 31.9031 27.2064L32.2515 27.4031C32.5526 26.8697 33.2288 26.6816 33.7618 26.9827L33.9585 26.6344ZM34.5305 28.6897C34.9401 27.9641 34.6841 27.044 33.9585 26.6344L33.7618 26.9827C34.295 27.2837 34.4832 27.9598 34.1822 28.4931L34.5305 28.6897ZM27.4943 41.1534L34.5305 28.6897L34.1822 28.493L27.146 40.9567L27.4943 41.1534ZM26.1795 41.9206C26.7054 41.9206 27.2169 41.6448 27.4943 41.1534L27.146 40.9567C26.9424 41.3175 26.5669 41.5206 26.1795 41.5206V41.9206ZM25.439 41.7254C25.673 41.8576 25.9279 41.9206 26.1795 41.9206V41.5206C25.995 41.5206 25.8081 41.4745 25.6357 41.3771L25.439 41.7254ZM24.867 39.6701C24.4574 40.3957 24.7134 41.3159 25.439 41.7255L25.6357 41.3771C25.1024 41.0761 24.9143 40.4 25.2153 39.8668L24.867 39.6701ZM31.9031 27.2064L24.867 39.6701L25.2153 39.8668L32.2515 27.4031L31.9031 27.2064ZM31.3001 38.5427C31.3001 36.4885 32.9717 34.8169 35.0259 34.8169V34.4169C32.7507 34.4169 30.9001 36.2676 30.9001 38.5427H31.3001ZM35.0259 42.2685C32.9717 42.2685 31.3001 40.5969 31.3001 38.5427H30.9001C30.9001 40.8179 32.7507 42.6685 35.0259 42.6685V42.2685ZM38.7517 38.5427C38.7517 40.5969 37.0801 42.2685 35.0259 42.2685V42.6685C37.301 42.6685 39.1517 40.8179 39.1517 38.5427H38.7517ZM35.0259 34.8169C37.0801 34.8169 38.7517 36.4885 38.7517 38.5427H39.1517C39.1517 36.2676 37.301 34.4169 35.0259 34.4169V34.8169ZM33.5173 38.5427C33.5173 39.3747 34.1939 40.0513 35.0259 40.0513V39.6513C34.4148 39.6513 33.9173 39.1538 33.9173 38.5427H33.5173ZM35.0259 37.0341C34.1939 37.0341 33.5173 37.7107 33.5173 38.5427H33.9173C33.9173 37.9316 34.4148 37.4341 35.0259 37.4341V37.0341ZM36.5345 38.5427C36.5345 37.7107 35.8579 37.0341 35.0259 37.0341V37.4341C35.637 37.4341 36.1345 37.9316 36.1345 38.5427H36.5345ZM35.0259 40.0513C35.8579 40.0513 36.5345 39.3747 36.5345 38.5427H36.1345C36.1345 39.1538 35.637 39.6513 35.0259 39.6513V40.0513ZM25.8809 24.3311C23.6057 24.3311 21.7551 26.1818 21.7551 28.4569H22.1551C22.1551 26.4027 23.8266 24.7311 25.8809 24.7311V24.3311ZM30.0066 28.4569C30.0066 26.1816 28.156 24.3311 25.8809 24.3311V24.7311C27.9351 24.7311 29.6066 26.4026 29.6066 28.4569H30.0066ZM25.8809 32.5827C28.156 32.5827 30.0066 30.732 30.0066 28.4569H29.6066C29.6066 30.5111 27.9351 32.1827 25.8809 32.1827V32.5827ZM21.7551 28.4569C21.7551 30.732 23.6057 32.5827 25.8809 32.5827V32.1827C23.8266 32.1827 22.1551 30.5111 22.1551 28.4569H21.7551ZM25.8809 29.5655C25.2698 29.5655 24.7723 29.068 24.7723 28.4569H24.3723C24.3723 29.2889 25.0488 29.9655 25.8809 29.9655V29.5655ZM26.9895 28.4569C26.9895 29.068 26.492 29.5655 25.8809 29.5655V29.9655C26.7129 29.9655 27.3895 29.2889 27.3895 28.4569H26.9895ZM25.8809 27.3483C26.492 27.3483 26.9895 27.8458 26.9895 28.4569H27.3895C27.3895 27.6249 26.7129 26.9483 25.8809 26.9483V27.3483ZM24.7723 28.4569C24.7723 27.8458 25.2698 27.3483 25.8809 27.3483V26.9483C25.0488 26.9483 24.3723 27.6249 24.3723 28.4569H24.7723Z" fill="white" mask="url(#path-1-inside-1)"/>
<defs>
<linearGradient id="paint0_linear" x1="-12.7455" y1="12.4506" x2="77.5124" y2="-11.6186" gradientUnits="userSpaceOnUse">
<stop stop-color="#2C4FCA"/>
<stop offset="1" stop-color="#047FD8"/>
</linearGradient>
</defs>
</svg>
