<svg width="67" height="67" viewBox="0 0 67 67" fill="none" xmlns="http://www.w3.org/2000/svg">
<path d="M64.8944 57.9788L65.3753 54.1338C65.7363 51.2399 65.92 48.2973 65.92 45.3871C65.92 42.3721 64.6761 39.6446 62.678 37.6832V24.8548H61.1403C60.5848 24.8548 60.1039 24.4593 59.9926 23.8963C59.8846 23.3538 60.1785 22.8049 60.6907 22.593L62.1107 22.0041L58.8018 14.017L57.3796 14.606C56.8631 14.8189 56.273 14.6363 55.9553 14.1629C55.6474 13.7015 55.7079 13.0823 56.1012 12.6889L57.1873 11.5996L51.0773 5.4886L49.9869 6.57681C49.5947 6.97124 48.9733 7.0296 48.5065 6.71621C48.0418 6.40498 47.8591 5.80523 48.0742 5.28976L48.6621 3.87411L40.6707 0.565177L40.0882 1.97866C39.8753 2.49521 39.3177 2.78806 38.7634 2.68C38.2187 2.5741 37.8232 2.09321 37.8232 1.53776V0H29.178V1.53776C29.178 2.09321 28.7825 2.5741 28.2195 2.6854C27.6824 2.79239 27.128 2.49953 26.9173 1.98839L26.3305 0.566258L18.3392 3.87519L18.927 5.28976C19.141 5.80739 18.9584 6.40715 18.4948 6.71837C18.0279 7.0296 17.4055 6.96908 17.0067 6.57248L15.9239 5.49184L9.81395 11.6029L10.8946 12.6868C11.2901 13.0834 11.3517 13.708 11.0362 14.1802C10.7282 14.6406 10.1338 14.8232 9.62051 14.6092L8.19839 14.0203L4.88945 22.0073L6.29753 22.592C6.81624 22.807 7.11342 23.3625 7.00427 23.9136C6.89729 24.4572 6.41424 24.8548 5.85555 24.8548H4.32319V35.5197C3.01993 36.4415 2.1619 37.9533 2.1619 39.6683C2.1619 40.6052 2.41801 41.4946 2.87405 42.263C2.41153 43.0237 2.1619 43.9012 2.1619 44.8036C2.1619 46.8935 3.48461 48.7403 5.45679 49.4212C5.68156 51.2572 6.67576 52.8544 8.10761 53.8864L7.75316 55.302L5.84258 55.7797C4.48529 56.1179 3.24687 56.8203 2.25916 57.808C0.802449 59.2658 0.000610352 61.2034 0.000610352 63.2631V67H67.0006V63.2631C67.0006 61.2801 66.2506 59.415 64.8944 57.9788ZM15.3306 57.3585L16.877 57.7454L18.9843 58.5558L15.3306 57.3585ZM18.9843 58.5558L14.0965 64.8387H9.67887L4.79111 58.5548L10.0938 55.7797L12.7122 56.5691L15.3306 57.3585L18.9843 58.5558ZM18.9843 58.5558C19.3442 58.7795 19.6846 59.0356 19.9871 59.3382C21.0365 60.3865 21.6135 61.7805 21.6135 63.2631V64.8387H14.0965L18.9843 58.5558ZM23.7748 63.2631C23.7748 61.7794 24.3519 60.3854 25.4012 59.3371C25.7038 59.0346 26.0442 58.7785 26.404 58.5548L31.2918 64.8387H23.7748V63.2631ZM27.0167 46.6007V46.7487C26.725 46.2754 26.4829 45.7718 26.3068 45.2434C26.0604 44.5064 25.9361 43.738 25.9361 42.9578V42.1452C25.9361 39.1658 28.36 36.7419 31.3393 36.7419H35.6619C38.6412 36.7419 41.0651 39.1658 41.0651 42.1452V42.9578C41.0651 43.7369 40.9409 44.5064 40.6945 45.2434C40.5183 45.7718 40.2763 46.2765 39.9845 46.7487V46.4677C39.9845 44.6804 38.5299 43.2258 36.7425 43.2258H33.5006C32.9041 43.2258 32.42 42.7406 32.42 42.1452C32.42 41.5497 32.9041 41.0645 33.5006 41.0645H34.5813V38.9032H33.5006C31.8883 38.9032 30.5472 40.0865 30.2997 41.6297C28.3319 42.4683 27.0167 44.408 27.0167 46.6007ZM30.2587 34.6671C29.4957 34.7773 28.7695 34.9999 28.0974 35.3209V32.4194H30.2587V34.6671ZM38.9038 35.3209C38.2317 34.9999 37.5055 34.7773 36.7425 34.6671V32.4194H38.9038V35.3209ZM29.178 46.6007C29.178 45.4465 29.7864 44.408 30.732 43.831C31.3026 44.7636 32.3303 45.3871 33.5006 45.3871H36.7425C37.3391 45.3871 37.8232 45.8723 37.8232 46.4677V48.629C37.8232 51.0129 35.8845 52.9516 33.5006 52.9516C31.1167 52.9516 29.178 51.0129 29.178 48.629V46.6007ZM33.5006 59.7056L35.7094 64.8387H31.2918L26.404 58.5548L33.5006 59.7056ZM35.7094 64.8387L33.5006 59.7056L36.9446 57.3574L40.5972 58.5558L35.7094 64.8387ZM33.5006 55.1129C34.1231 55.1129 34.7239 55.02 35.2945 54.8546L35.5095 55.717L33.5006 57.0559L31.4917 55.717L31.7067 54.8546C32.2773 55.02 32.8782 55.1129 33.5006 55.1129ZM30.0577 57.3585L33.5006 59.7056L26.404 58.5548L28.5113 57.7443L30.0577 57.3585ZM40.5972 58.5558C40.9571 58.7795 41.2975 59.0356 41.6 59.3382C42.6494 60.3865 43.2264 61.7805 43.2264 63.2631V64.8387H35.7094L40.5972 58.5558ZM45.3877 63.2631C45.3877 61.7794 45.9648 60.3854 47.0141 59.3371C47.3167 59.0346 47.6571 58.7785 48.0169 58.5548L52.9047 64.8387H45.3877V63.2631ZM48.0169 58.5548L57.3224 64.8387H52.9047L48.0169 58.5548ZM57.3224 64.8387L48.0169 58.5548L50.1242 57.7443L50.2474 57.7129C51.703 57.3498 52.8442 56.2627 53.3024 54.8492C53.8773 55.0178 54.4835 55.1129 55.1135 55.1129C55.7435 55.1129 56.3509 55.0178 56.9268 54.8503C57.384 56.2638 58.5251 57.3498 59.9797 57.714L62.2101 58.5558L57.3224 64.8387ZM55.1135 52.9516C52.7296 52.9516 50.7909 51.0129 50.7909 48.629V46.6007C50.7909 45.1105 51.8013 43.8169 53.2472 43.456L53.3359 43.4333C54.0458 44.1271 54.972 44.6058 56.0083 44.7538L58.5078 45.1115C59.0373 45.1861 59.4361 45.6465 59.4361 46.1803V48.629C59.4361 51.0129 57.4974 52.9516 55.1135 52.9516ZM63.7587 45.3871C63.7587 48.2076 63.5815 51.0605 63.2313 53.8648L62.906 56.4637C62.3538 56.1698 61.7703 55.9331 61.1586 55.7797L60.5049 55.6165C59.729 55.422 59.127 54.82 58.9336 54.0441L58.8936 53.8864C60.5275 52.7085 61.5974 50.7936 61.5974 48.629V46.1803C61.5974 44.5777 60.4011 43.1977 58.8147 42.9719L56.3152 42.6142C55.013 42.4283 54.0329 41.2979 54.0329 39.9839V38.9032H51.8716V39.9839C51.8716 40.5253 51.9634 41.0505 52.1331 41.5422C50.0431 42.3246 48.6296 44.3248 48.6296 46.6007V48.629C48.6296 50.7936 49.6995 52.7085 51.3345 53.8875L51.2956 54.0452C51.1011 54.8211 50.4992 55.423 49.7222 55.6176L49.0695 55.7807C48.4567 55.9342 47.8732 56.1709 47.321 56.4648L46.9957 53.8658C46.6456 51.0605 46.4684 48.2076 46.4684 45.3871C46.4684 40.6204 50.3468 36.7419 55.1135 36.7419C59.8802 36.7419 63.7587 40.6204 63.7587 45.3871ZM9.12558 24.3286C9.39034 22.9832 8.79922 21.6291 7.6894 20.8932L9.39034 16.7878C10.6914 17.0569 12.0693 16.5177 12.8365 15.3733C13.6005 14.231 13.5724 12.7505 12.8246 11.6461L15.9671 8.5036C17.0726 9.2514 18.5542 9.27734 19.6943 8.5144C20.8355 7.75255 21.3758 6.37581 21.1089 5.06823L25.2121 3.36837C25.9447 4.47927 27.2999 5.06823 28.655 4.80239C30.0026 4.53655 31.0292 3.47103 31.2799 2.16129H35.7203C35.971 3.47103 36.9997 4.53655 38.3549 4.80347C39.7003 5.06823 41.0511 4.47711 41.7859 3.36729L45.8913 5.06715C45.6244 6.37365 46.1658 7.75147 47.3113 8.51765C48.4524 9.28166 49.9318 9.25356 51.0341 8.50468L54.1734 11.644C53.4245 12.7473 53.3964 14.2278 54.1679 15.3808C54.9298 16.5177 56.3065 17.058 57.6098 16.7867L59.3097 20.89C58.1998 21.6215 57.6076 22.9745 57.8756 24.3318C58.1404 25.6783 59.2048 26.7049 60.5157 26.9567V28.6058L56.0126 26.6357C54.7375 15.2868 44.9879 6.48387 33.5006 6.48387C22.0134 6.48387 12.2638 15.2868 10.9875 26.6357L6.48448 28.6058V26.9556C7.7953 26.7027 8.85974 25.675 9.12558 24.3286ZM21.6135 21.9868L13.299 25.6243C14.9989 15.9665 23.5327 8.64516 33.5006 8.64516C36.8906 8.64516 40.1109 9.49995 42.9573 10.9966L21.6135 14.1986V21.9868ZM23.7748 16.0595L43.2264 13.1417V15.2792V17.4643L23.7748 20.382V16.0595ZM45.3877 12.5106C49.6627 15.5786 52.7523 20.2297 53.7022 25.6243L45.3877 21.9868V12.5106ZM6.48448 30.9648L21.6135 24.3459L23.7748 23V20.382L43.2264 17.4643V23.5L45.3877 24.3459L60.5167 30.9648V36.0428C59.8381 35.6483 59.1173 35.3187 58.3554 35.0788L56.1942 34.6358C55.8386 34.6001 55.4788 34.5806 55.1135 34.5806C54.7483 34.5806 54.3884 34.6001 54.0329 34.6358L51.8716 35.0788C51.1097 35.3187 50.3889 35.6483 49.7103 36.0428L47.549 37.6832C45.5509 39.6456 44.3071 42.3721 44.3071 45.3871C44.3071 48.2973 44.4908 51.2399 44.8517 54.1328L45.3326 57.9777C44.9371 58.397 44.5956 58.8519 44.3071 59.3371C43.9807 58.7882 43.5917 58.2716 43.1281 57.8091C42.1404 56.8203 40.9009 56.119 39.5447 55.7807L37.6341 55.3031L37.2796 53.8875C38.4824 53.0208 39.3739 51.7543 39.7629 50.2813L40.3119 49.7583C41.4196 48.7036 42.2614 47.3787 42.7445 45.9285C43.0643 44.97 43.2264 43.9704 43.2264 42.9578V42.1452C43.2264 40.0898 42.3997 38.2257 41.0651 36.8619V30.2581H34.5813V34.5806H32.42V30.2581H25.9361V36.8619C24.6015 38.2267 23.7748 40.0909 23.7748 42.1452V42.9578C23.7748 43.9704 23.9369 44.97 24.2568 45.9263C24.7398 47.3776 25.5816 48.7025 26.6882 49.7561L27.2383 50.2803C27.6273 51.7521 28.5188 53.0186 29.7216 53.8864L29.3671 55.302L27.4566 55.7797C26.0993 56.1179 24.8609 56.8203 23.8731 57.808C23.4095 58.2716 23.0205 58.7871 22.6942 59.3361C22.3678 58.7871 21.9788 58.2705 21.5152 57.808C20.5275 56.8192 19.288 56.1179 17.9318 55.7797L16.0212 55.302L15.6667 53.8864C16.8695 53.0197 17.761 51.7532 18.15 50.2803L18.699 49.7572C19.8067 48.7025 20.6485 47.3776 21.1315 45.9274C21.4514 44.97 21.6135 43.9704 21.6135 42.9578C21.6135 40.8052 20.7911 38.847 19.4522 37.3611L17.2909 35.6321C16.622 35.2604 15.8947 34.9816 15.1296 34.8043L12.9684 34.5806H10.8071H8.64577H7.24958C6.98806 34.5806 6.73627 34.6195 6.48448 34.6585V30.9648ZM7.24958 36.7419H13.2364C16.6642 36.7419 19.4522 39.5311 19.4522 42.9578C19.4522 43.7369 19.3279 44.5064 19.0816 45.2434C18.9054 45.7718 18.6634 46.2765 18.3716 46.7487V46.4677C18.3716 44.6804 16.917 43.2258 15.1296 43.2258H11.8877C11.2912 43.2258 10.8071 42.7406 10.8071 42.1452C10.8071 41.5497 11.2912 41.0645 11.8877 41.0645H12.9684V38.9032H11.8877C10.2754 38.9032 8.9343 40.0865 8.68684 41.6297C8.03413 41.9074 7.46247 42.3148 6.97834 42.8044L5.94092 42.2856C4.9424 41.7875 4.32319 40.7846 4.32319 39.6683C4.32319 38.0549 5.63618 36.7419 7.24958 36.7419ZM4.32319 44.8036C4.32319 44.501 4.37938 44.206 4.47556 43.925C4.63658 44.0298 4.79976 44.1314 4.97374 44.2189L5.79071 44.6274C5.54864 45.2445 5.40384 45.9069 5.40384 46.6007V46.9756C4.736 46.471 4.32319 45.6756 4.32319 44.8036ZM7.56513 46.6007C7.56513 45.4465 8.17353 44.408 9.11909 43.831C9.68967 44.7636 10.7174 45.3871 11.8877 45.3871H15.1296C15.7262 45.3871 16.2103 45.8723 16.2103 46.4677V48.629C16.2103 51.0129 14.2716 52.9516 11.8877 52.9516C9.5038 52.9516 7.56513 51.0129 7.56513 48.629V46.6007ZM11.8877 55.1129C12.5102 55.1129 13.111 55.02 13.6816 54.8546L15.3306 57.3585L12.7122 56.5691L10.0938 55.7797L9.87879 55.717L10.0938 54.8546C10.6644 55.02 11.2653 55.1129 11.8877 55.1129ZM8.44477 57.3585L10.0938 55.7797L4.79111 58.5548L6.89729 57.7443L8.44477 57.3585ZM2.1619 63.2631C2.1619 61.7794 2.73897 60.3854 3.78827 59.3371C4.09085 59.0346 4.43126 58.7785 4.79111 58.5548L9.67887 64.8387H2.1619V63.2631ZM64.8393 64.8387H57.3224L62.2101 58.5558C62.57 58.7795 62.9104 59.0356 63.213 59.3382C64.2623 60.3865 64.8393 61.7805 64.8393 63.2631V64.8387Z" fill="url(#paint0_linear)"/>
<defs>
<linearGradient id="paint0_linear" x1="-14.0207" y1="12.4506" x2="83.9022" y2="-16.2754" gradientUnits="userSpaceOnUse">
<stop stop-color="#2C4FCA"/>
<stop offset="1" stop-color="#047FD8"/>
</linearGradient>
</defs>
</svg>
