<svg width="48" height="63" viewBox="0 0 48 63" fill="none" xmlns="http://www.w3.org/2000/svg">
<path fill-rule="evenodd" clip-rule="evenodd" d="M46.1174 4.1451H33.5842V3.20815C33.5834 2.35719 33.2449 1.54135 32.6429 0.939824C32.041 0.3383 31.225 0.000277005 30.374 0H16.6599C15.8093 0.000831475 14.9938 0.339099 14.3924 0.940563C13.7909 1.54203 13.4526 2.35755 13.4518 3.20815V4.1451H0.916504C0.796192 4.14503 0.677046 4.16868 0.565879 4.21469C0.454712 4.2607 0.353704 4.32817 0.26863 4.41324C0.183556 4.49832 0.116085 4.59932 0.0700755 4.71049C0.0240658 4.82166 0.000419771 4.9408 0.00048843 5.06112V61.3134C0.000419771 61.4337 0.0240658 61.5528 0.0700755 61.664C0.116085 61.7752 0.183556 61.8762 0.26863 61.9613C0.353704 62.0463 0.454712 62.1138 0.565879 62.1598C0.677046 62.2058 0.796192 62.2295 0.916504 62.2294H46.1174C46.2377 62.2295 46.3569 62.2058 46.4681 62.1598C46.5792 62.1138 46.6802 62.0463 46.7653 61.9613C46.8504 61.8762 46.9179 61.7752 46.9639 61.664C47.0099 61.5528 47.0335 61.4337 47.0334 61.3134V5.06112C47.0335 4.9408 47.0099 4.82166 46.9639 4.71049C46.9179 4.59932 46.8504 4.49832 46.7653 4.41324C46.6802 4.32817 46.5792 4.2607 46.4681 4.21469C46.3569 4.16868 46.2377 4.14503 46.1174 4.1451ZM39.7639 11.1398V54.9892H7.26947V11.1398H39.7639ZM15.2817 3.20815C15.2821 2.84294 15.4275 2.49285 15.686 2.23481C15.9444 1.97676 16.2947 1.83189 16.6599 1.83203H30.374C30.7388 1.83245 31.0886 1.97756 31.3466 2.23555C31.6046 2.49353 31.7497 2.84331 31.7501 3.20815V9.30777H15.2817V3.20815ZM45.2014 60.3974H1.83252V5.97713H13.4497V9.30777H6.35345C6.11051 9.30777 5.87752 9.40427 5.70573 9.57606C5.53394 9.74785 5.43743 9.98084 5.43743 10.2238V55.9052C5.43743 56.1482 5.53394 56.3812 5.70573 56.5529C5.87752 56.7247 6.11051 56.8212 6.35345 56.8212H40.68C40.8003 56.8213 40.9194 56.7977 41.0306 56.7516C41.1418 56.7056 41.2428 56.6382 41.3278 56.5531C41.4129 56.468 41.4804 56.367 41.5264 56.2558C41.5724 56.1447 41.596 56.0255 41.596 55.9052V10.2238C41.596 10.1035 41.5724 9.98432 41.5264 9.87316C41.4804 9.76199 41.4129 9.66098 41.3278 9.57591C41.2428 9.49083 41.1418 9.42336 41.0306 9.37735C40.9194 9.33134 40.8003 9.3077 40.68 9.30777H33.5842V5.97713H45.2014V60.3974ZM11.8197 38.0968H20.0518C20.1721 38.0969 20.2913 38.0732 20.4024 38.0272C20.5136 37.9812 20.6146 37.9137 20.6997 37.8287C20.7847 37.7436 20.8522 37.6426 20.8982 37.5314C20.9442 37.4202 20.9679 37.3011 20.9678 37.1808V30.3337L22.8119 28.4896C22.9787 28.3168 23.071 28.0854 23.0689 27.8453C23.0667 27.6051 22.9703 27.3753 22.8005 27.2055C22.6306 27.0357 22.4008 26.9394 22.1607 26.9374C21.9205 26.9354 21.6891 27.0278 21.5164 27.1946L20.537 28.174C20.392 28.0818 20.2237 28.0326 20.0518 28.0321H11.8197C11.5768 28.0323 11.3439 28.1288 11.1721 28.3006C11.0004 28.4723 10.9038 28.7053 10.9037 28.9482V37.1808C10.9037 37.4237 11.0002 37.6567 11.172 37.8285C11.3438 38.0003 11.5768 38.0968 11.8197 38.0968ZM12.7341 29.8642H18.8463L15.9418 32.7687L15.2116 32.0385C15.0388 31.8716 14.8075 31.7793 14.5673 31.7813C14.3271 31.7833 14.0974 31.8796 13.9275 32.0494C13.7576 32.2192 13.6612 32.449 13.6591 32.6891C13.657 32.9293 13.7492 33.1607 13.9161 33.3335L15.2943 34.7117C15.3793 34.7969 15.4803 34.8644 15.5914 34.9105C15.7026 34.9566 15.8217 34.9803 15.942 34.9803C16.0624 34.9803 16.1815 34.9566 16.2926 34.9105C16.4038 34.8644 16.5048 34.7969 16.5898 34.7117L19.1358 32.1657V36.2648H12.7341V29.8642ZM20.0518 51.5754H11.8197C11.5768 51.5754 11.3438 51.4789 11.172 51.3071C11.0002 51.1353 10.9037 50.9023 10.9037 50.6594V42.4267C10.9038 42.1838 11.0004 41.9509 11.1721 41.7792C11.3439 41.6074 11.5768 41.5109 11.8197 41.5107H20.0518C20.2237 41.5111 20.392 41.5603 20.537 41.6526L21.5164 40.6732C21.6009 40.5857 21.7019 40.5159 21.8137 40.4679C21.9254 40.4198 22.0456 40.3946 22.1673 40.3935C22.2889 40.3924 22.4095 40.4155 22.5221 40.4616C22.6347 40.5076 22.737 40.5756 22.823 40.6616C22.909 40.7476 22.977 40.8498 23.0231 40.9624C23.0692 41.075 23.0924 41.1956 23.0914 41.3172C23.0903 41.4389 23.0651 41.5591 23.0171 41.6708C22.9691 41.7826 22.8994 41.8837 22.8119 41.9682L20.9678 43.8123V50.6594C20.9679 50.7797 20.9442 50.8988 20.8982 51.01C20.8522 51.1211 20.7848 51.2222 20.6997 51.3072C20.6146 51.3923 20.5136 51.4598 20.4024 51.5058C20.2913 51.5518 20.1721 51.5754 20.0518 51.5754ZM18.8463 43.3427H12.7341V49.7433H19.1358V45.6443L16.5898 48.1903C16.5048 48.2754 16.4038 48.343 16.2926 48.389C16.1815 48.4351 16.0624 48.4588 15.942 48.4588C15.8217 48.4588 15.7026 48.4351 15.5914 48.389C15.4803 48.343 15.3793 48.2754 15.2943 48.1903L13.9161 46.8121C13.7492 46.6393 13.657 46.4079 13.6591 46.1677C13.6612 45.9275 13.7576 45.6978 13.9275 45.528C14.0974 45.3582 14.3271 45.2619 14.5673 45.2599C14.8075 45.2578 15.0389 45.3502 15.2116 45.5171L15.9418 46.2473L18.8463 43.3427ZM11.8197 24.6184H20.0518C20.1721 24.6185 20.2913 24.5948 20.4024 24.5488C20.5136 24.5028 20.6146 24.4353 20.6997 24.3503C20.7847 24.2652 20.8522 24.1642 20.8982 24.053C20.9442 23.9418 20.9679 23.8227 20.9678 23.7024V16.8553L22.8119 15.0112C22.9787 14.8384 23.071 14.607 23.0689 14.3669C23.0667 14.1267 22.9703 13.897 22.8005 13.7271C22.6306 13.5573 22.4008 13.4611 22.1607 13.459C21.9205 13.457 21.6891 13.5494 21.5164 13.7163L20.537 14.6956C20.392 14.6034 20.2237 14.5542 20.0518 14.5538H11.8197C11.5768 14.5539 11.3439 14.6504 11.1721 14.8222C11.0004 14.994 10.9038 15.2269 10.9037 15.4698V23.7024C10.9037 23.9453 11.0002 24.1783 11.172 24.3501C11.3438 24.5219 11.5768 24.6184 11.8197 24.6184ZM12.7341 16.3858H18.8463L15.9418 19.2903L15.2116 18.5601C15.1271 18.4726 15.026 18.4028 14.9143 18.3548C14.8025 18.3068 14.6823 18.2815 14.5607 18.2804C14.4391 18.2793 14.3185 18.3025 14.2059 18.3485C14.0933 18.3945 13.991 18.4625 13.905 18.5485C13.819 18.6345 13.7509 18.7368 13.7048 18.8493C13.6588 18.9619 13.6356 19.0825 13.6366 19.2041C13.6376 19.3258 13.6629 19.446 13.7108 19.5577C13.7588 19.6695 13.8286 19.7706 13.9161 19.8551L15.2943 21.2333C15.3793 21.3185 15.4803 21.386 15.5914 21.4321C15.7026 21.4782 15.8217 21.5019 15.942 21.5019C16.0624 21.5019 16.1815 21.4782 16.2926 21.4321C16.4038 21.386 16.5048 21.3185 16.5898 21.2333L19.1358 18.6873V22.7864H12.7341V16.3858ZM35.2143 20.502H24.3817C24.1388 20.502 23.9058 20.4054 23.734 20.2337C23.5622 20.0619 23.4657 19.8289 23.4657 19.5859C23.4657 19.343 23.5622 19.11 23.734 18.9382C23.9058 18.7664 24.1388 18.6699 24.3817 18.6699H35.2143C35.4572 18.6699 35.6902 18.7664 35.862 18.9382C36.0338 19.11 36.1303 19.343 36.1303 19.5859C36.1303 19.8289 36.0338 20.0619 35.862 20.2337C35.6902 20.4054 35.4572 20.502 35.2143 20.502ZM24.3817 33.9805H35.2143C35.4572 33.9805 35.6902 33.884 35.862 33.7122C36.0338 33.5404 36.1303 33.3074 36.1303 33.0645C36.1303 32.8215 36.0338 32.5885 35.862 32.4167C35.6902 32.2449 35.4572 32.1484 35.2143 32.1484H24.3817C24.1388 32.1484 23.9058 32.2449 23.734 32.4167C23.5622 32.5885 23.4657 32.8215 23.4657 33.0645C23.4657 33.3074 23.5622 33.5404 23.734 33.7122C23.9058 33.884 24.1388 33.9805 24.3817 33.9805ZM35.2143 47.459H24.3817C24.1388 47.459 23.9058 47.3625 23.734 47.1907C23.5622 47.0189 23.4657 46.7859 23.4657 46.543C23.4657 46.3 23.5622 46.067 23.734 45.8952C23.9058 45.7235 24.1388 45.627 24.3817 45.627H35.2143C35.4572 45.627 35.6902 45.7235 35.862 45.8952C36.0338 46.067 36.1303 46.3 36.1303 46.543C36.1303 46.7859 36.0338 47.0189 35.862 47.1907C35.6902 47.3625 35.4572 47.459 35.2143 47.459Z" fill="url(#paint0_linear)"/>
<defs>
<linearGradient id="paint0_linear" x1="-9.84224" y1="11.5641" x2="61.3156" y2="-4.21275" gradientUnits="userSpaceOnUse">
<stop stop-color="#2C4FCA"/>
<stop offset="1" stop-color="#047FD8"/>
</linearGradient>
</defs>
</svg>
