<svg width="59" height="69" viewBox="0 0 59 69" fill="none" xmlns="http://www.w3.org/2000/svg">
<mask id="path-1-outside-1" maskUnits="userSpaceOnUse" x="-0.4021" y="0.00012207" width="60" height="69" fill="black">
<rect fill="white" x="-0.4021" y="0.00012207" width="60" height="69"/>
<path fill-rule="evenodd" clip-rule="evenodd" d="M8.94918 52.5738L7.8815 53.6415C6.21409 55.3091 3.51525 55.3087 1.84836 53.6414C0.180819 51.974 0.181342 49.2753 1.84836 47.6082L7.15497 42.3012C4.28588 38.2386 2.59818 33.285 2.59818 27.9443C2.59818 22.0214 4.70986 16.2816 8.54457 11.7791C8.54642 11.7768 8.54819 11.7745 8.54996 11.7721C8.55208 11.7693 8.5542 11.7665 8.55647 11.7638C10.3519 9.65886 12.4621 7.88197 14.8367 6.47477C16.5468 5.39842 18.6036 4.6466 18.9768 4.51018L18.9824 4.50813C21.7252 3.50575 24.6062 2.99749 27.5453 2.99749C32.7522 2.99749 37.7479 4.61282 41.9091 7.54761L47.2092 2.24754C48.8725 0.584316 51.5791 0.584316 53.2423 2.24754C54.9056 3.91076 54.9056 6.61733 53.2423 8.28068L52.1732 9.3498C56.2514 14.7234 58.4034 21.1328 58.4034 27.9445C58.4034 36.19 55.1927 43.9406 49.3626 49.7689C46.3572 52.7735 42.8399 55.0798 39.0088 56.6111C41.3038 57.9145 42.8185 60.3761 42.8185 63.1853V63.5418C42.8185 66.0001 40.8184 68.0001 38.3601 68.0001H16.7293C14.271 68.0001 12.2709 66.0001 12.2709 63.5418V63.1853C12.2709 60.3801 13.7809 57.9219 16.07 56.6171C13.5497 55.6072 11.1616 54.2534 8.94918 52.5738ZM17.7764 7.1323C14.5006 8.5 12.1097 10.7211 10.3953 12.6417C10.4587 12.7966 10.5084 12.9905 10.5641 13.2079C10.7546 13.951 11.0157 14.9692 12.135 15.6491L15.7125 17.8205C16.2681 18.158 16.7237 18.2278 17.4093 18.3329C17.7029 18.3779 18.0386 18.4294 18.4425 18.5111C21.2908 18.9987 22.4725 22.6301 20.1271 23.8323C19.2199 24.3161 18.6304 24.607 18.2441 24.7977C17.618 25.1066 17.5255 25.1523 17.4798 25.3288C16.3039 29.8697 16.246 29.9761 16.2572 30.0745C16.2581 30.0817 16.2593 30.0889 16.2604 30.0978C16.304 30.4339 16.7458 30.5303 16.9247 30.2408L17.4834 29.3352C18.238 28.1119 19.8383 27.9074 20.8783 28.7121C21.262 29.0088 21.2803 29.0405 22.4936 31.1432C22.8285 31.7236 23.2546 32.4619 23.8045 33.4071C23.8075 33.4123 23.8103 33.4172 23.813 33.4219C23.819 33.4324 23.8247 33.4419 23.831 33.4509C23.9195 33.5766 24.1435 33.6069 27.4107 34.6873C29.2642 35.2962 30.1256 37.3685 29.35 39.0807C29.2237 39.3595 29.0976 39.541 28.946 39.7591C28.8871 39.8439 28.8243 39.9342 28.7562 40.0379C28.4262 40.5216 28.4741 41.1863 28.8787 41.6178L30.0523 42.8694C30.6174 43.472 30.926 44.2569 30.926 45.0781C30.917 45.1273 30.92 45.218 30.924 45.3408C30.9449 45.9752 30.9938 47.4636 29.5674 48.4753C29.0968 48.8112 28.9055 49.4378 29.1327 49.989C29.1272 49.9756 29.4801 50.8322 29.4856 50.8457C33.173 50.5507 37.5922 49.4521 41.3099 46.283C41.3466 46.2588 41.3769 46.2431 41.4017 46.2348C41.5912 46.0868 41.7725 45.9465 41.9399 45.8171C42.3387 45.5086 42.6585 45.2612 42.8219 45.1158C44.8946 43.2704 46.6096 41.0793 47.8936 38.636C44.0393 35.6805 43.8817 35.5307 43.6978 35.4282C43.6829 35.4199 43.6679 35.412 43.6507 35.4029C43.2109 35.1803 42.8981 35.0091 42.6574 34.8772C42.1761 34.6136 41.9825 34.5076 41.6359 34.4649C41.4153 34.4377 41.1493 34.4446 40.8521 34.4523C39.8659 34.4778 38.5364 34.5122 37.3852 33.3427C36.9281 32.8779 36.2777 32.7239 35.6988 32.8752L33.2321 33.5168C32.5147 33.7025 31.7836 33.5437 31.2237 33.1386L29.4609 31.8605C28.3811 31.077 28.1446 29.5612 28.9497 28.4851C29.5499 27.6518 30.0091 27.0555 30.3642 26.5946C31.1343 25.5946 31.4144 25.2309 31.5796 24.4641C31.6317 24.2238 31.6784 23.9937 31.7233 23.7723C32.0005 22.4051 32.2115 21.3644 33.2311 20.2513C35.0301 18.2912 37.2992 18.5091 37.9692 18.5734C38.062 18.5823 38.1241 18.5883 38.1501 18.5851C38.6832 18.6229 39.19 18.3436 39.4423 17.8735C39.6389 17.5251 39.8004 17.2139 39.946 16.9334C40.4379 15.9857 40.7479 15.3883 41.6159 14.8947C42.174 14.5775 42.55 14.53 42.8714 14.4894C43.1329 14.4564 43.3584 14.4279 43.6167 14.2625C43.927 14.0649 44.0501 13.8351 44.2801 13.4061C44.3874 13.2059 44.518 12.9623 44.7017 12.6583C43.6972 11.5311 42.6286 10.5381 41.417 9.61898C37.4611 6.61981 32.6116 4.96038 27.5453 4.96038C24.8368 4.96038 22.1825 5.42847 19.6562 6.35181C19.5911 6.37561 19.4072 6.45306 19.1393 6.56586C18.7975 6.70981 18.3191 6.91131 17.7764 7.1323ZM39.1546 50.0261C35.6904 51.8494 31.727 52.8912 27.5453 52.8912C22.3555 52.8912 17.4013 51.3235 13.1809 48.3418L10.35 51.1727C15.4477 54.9695 21.4128 56.8405 27.5453 56.8405C35.24 56.8405 42.5124 53.8413 47.975 48.3803C53.434 42.923 56.4405 35.6654 56.4405 27.9443C56.4405 21.6567 54.4848 15.736 50.7725 10.7504L47.9417 13.5811C50.8128 17.6431 52.4913 22.571 52.4913 27.9443C52.4913 35.3643 49.2514 42.0192 44.1272 46.5818C43.9108 46.7744 42.5797 47.8382 41.3252 48.7343C41.3021 48.7528 41.2779 48.7703 41.2527 48.7869C41.2467 48.7908 41.2407 48.7948 41.2348 48.7987C40.3448 49.4304 39.5082 49.9645 39.1546 50.0261ZM48.5971 3.63556L43.4805 8.75217C43.4832 8.75432 43.4858 8.7566 43.4885 8.75897C43.4897 8.76004 43.4909 8.76114 43.4923 8.76224C44.6404 9.71804 45.7235 10.8013 46.6491 11.9027C46.6653 11.922 46.6812 11.9415 46.6971 11.961C46.7104 11.9773 46.7237 11.9937 46.7372 12.0099L51.8543 6.89279C52.7523 5.9947 52.7523 4.53365 51.8543 3.63556C50.9562 2.73761 49.4952 2.73761 48.5971 3.63556ZM44.8167 33.8161C45.3301 34.143 45.7761 34.5759 48.7515 36.8197C49.9245 34.0339 50.5283 31.0229 50.5283 27.9445C50.5283 22.9341 48.8862 18.1505 46.0336 14.2943L45.7789 14.747C45.2415 15.7075 44.2511 16.3408 43.1506 16.4292C42.6888 16.4661 42.2826 16.7316 42.0639 17.1392L41.172 18.8015C40.5546 19.9523 39.3135 20.6359 38.0098 20.5431C37.9742 20.5466 37.9058 20.5397 37.8108 20.5302C37.2618 20.475 35.823 20.3303 34.6778 21.5781C33.9875 22.3317 33.8346 23.1594 33.6701 24.0497C33.5027 24.9559 33.3233 25.927 32.5529 26.9505C31.7381 28.0578 31.2363 28.7145 30.9274 29.1187C30.4395 29.7572 30.433 29.7657 30.4347 29.9252C30.4369 30.1577 30.5153 30.2131 31.1406 30.655C31.4246 30.8557 31.8214 31.1361 32.375 31.549C32.4795 31.6247 32.6124 31.6497 32.739 31.617C33.7228 31.3619 34.3194 31.2062 34.6916 31.109C35.3045 30.9489 35.3089 30.9478 35.4319 30.9241C36.685 30.6817 37.9421 31.1107 38.7841 31.966C39.338 32.5285 39.996 32.5109 40.7513 32.4907C41.4698 32.4715 42.2763 32.4499 43.1647 32.9235C44.1541 33.4513 44.4983 33.6133 44.8167 33.8161ZM38.3602 66.0372C39.7362 66.0372 40.8556 64.9177 40.8556 63.5418V63.1853C40.8556 60.3546 38.7794 58.0006 35.9964 57.6368C33.2753 58.4069 30.4164 58.8038 27.5453 58.8038C24.5679 58.8038 21.7126 58.3878 19.0723 57.6401C16.2999 58.0129 14.2341 60.3615 14.2341 63.1853V63.5418C14.2341 64.9178 15.3534 66.0372 16.7294 66.0372H38.3602ZM12.5646 18.2072C10.482 16.9817 9.5 16.4039 8.89645 14.5089C6.08925 18.404 4.56134 23.1078 4.56134 27.9443C4.56134 40.4293 14.6437 50.8392 27.3959 50.9268C27.3875 50.9037 27.3747 50.8734 27.3589 50.8362C27.2912 50.6765 27.1689 50.3881 27.1087 49.9794C26.929 48.7602 27.4604 47.5674 28.4294 46.8761C28.7695 46.6348 28.9629 46.2465 28.9629 45.8433C28.9513 45.7099 28.9558 45.5718 28.9604 45.4313C28.9736 45.0273 28.9874 44.6036 28.6204 44.2122C28.3563 43.9262 28.1352 43.6933 27.9475 43.4956C27.3262 42.8411 27.0709 42.5722 26.8371 42.039C26.4012 41.0447 26.4901 39.8765 27.1347 38.9317C27.1629 38.8749 27.213 38.8072 27.2717 38.7279C27.4875 38.4361 27.8194 37.9876 27.6021 37.3485C27.4728 36.9679 27.1799 36.6778 26.7983 36.5525L23.391 35.434C22.8488 35.2558 22.3929 34.8861 22.107 34.3931L19.7706 30.3743C19.6336 30.1372 19.297 30.1343 19.154 30.3662L18.5947 31.2727C17.2127 33.5081 13.6958 32.0623 14.3698 29.4679C14.8615 27.6107 15.1513 26.4854 15.3323 25.7826C15.6261 24.6413 15.6331 24.6143 15.752 24.3777C15.9707 23.9431 16.3236 23.5827 16.7641 23.3558C19.1682 22.1134 19.2449 22.0896 19.2992 22.0409C19.3032 22.0373 19.307 22.0336 19.3117 22.0293C19.409 21.9389 19.4431 21.8062 19.4174 21.6921C19.2757 21.0537 18.7702 20.5588 18.1117 20.4463C17.8629 20.4035 17.6313 20.3669 17.4129 20.3323C16.3447 20.1635 15.5925 20.0445 14.6938 19.4986C13.8777 18.9798 13.174 18.5658 12.5646 18.2072ZM8.35233 43.8802L3.23625 48.9963C2.33607 49.8965 2.3362 51.3534 3.23625 52.2534C4.13644 53.1535 5.59342 53.1534 6.49347 52.2534L11.6096 47.1373C10.4262 46.1539 9.33574 45.0634 8.35233 43.8802Z"/>
</mask>
<path fill-rule="evenodd" clip-rule="evenodd" d="M8.94918 52.5738L7.8815 53.6415C6.21409 55.3091 3.51525 55.3087 1.84836 53.6414C0.180819 51.974 0.181342 49.2753 1.84836 47.6082L7.15497 42.3012C4.28588 38.2386 2.59818 33.285 2.59818 27.9443C2.59818 22.0214 4.70986 16.2816 8.54457 11.7791C8.54642 11.7768 8.54819 11.7745 8.54996 11.7721C8.55208 11.7693 8.5542 11.7665 8.55647 11.7638C10.3519 9.65886 12.4621 7.88197 14.8367 6.47477C16.5468 5.39842 18.6036 4.6466 18.9768 4.51018L18.9824 4.50813C21.7252 3.50575 24.6062 2.99749 27.5453 2.99749C32.7522 2.99749 37.7479 4.61282 41.9091 7.54761L47.2092 2.24754C48.8725 0.584316 51.5791 0.584316 53.2423 2.24754C54.9056 3.91076 54.9056 6.61733 53.2423 8.28068L52.1732 9.3498C56.2514 14.7234 58.4034 21.1328 58.4034 27.9445C58.4034 36.19 55.1927 43.9406 49.3626 49.7689C46.3572 52.7735 42.8399 55.0798 39.0088 56.6111C41.3038 57.9145 42.8185 60.3761 42.8185 63.1853V63.5418C42.8185 66.0001 40.8184 68.0001 38.3601 68.0001H16.7293C14.271 68.0001 12.2709 66.0001 12.2709 63.5418V63.1853C12.2709 60.3801 13.7809 57.9219 16.07 56.6171C13.5497 55.6072 11.1616 54.2534 8.94918 52.5738ZM17.7764 7.1323C14.5006 8.5 12.1097 10.7211 10.3953 12.6417C10.4587 12.7966 10.5084 12.9905 10.5641 13.2079C10.7546 13.951 11.0157 14.9692 12.135 15.6491L15.7125 17.8205C16.2681 18.158 16.7237 18.2278 17.4093 18.3329C17.7029 18.3779 18.0386 18.4294 18.4425 18.5111C21.2908 18.9987 22.4725 22.6301 20.1271 23.8323C19.2199 24.3161 18.6304 24.607 18.2441 24.7977C17.618 25.1066 17.5255 25.1523 17.4798 25.3288C16.3039 29.8697 16.246 29.9761 16.2572 30.0745C16.2581 30.0817 16.2593 30.0889 16.2604 30.0978C16.304 30.4339 16.7458 30.5303 16.9247 30.2408L17.4834 29.3352C18.238 28.1119 19.8383 27.9074 20.8783 28.7121C21.262 29.0088 21.2803 29.0405 22.4936 31.1432C22.8285 31.7236 23.2546 32.4619 23.8045 33.4071C23.8075 33.4123 23.8103 33.4172 23.813 33.4219C23.819 33.4324 23.8247 33.4419 23.831 33.4509C23.9195 33.5766 24.1435 33.6069 27.4107 34.6873C29.2642 35.2962 30.1256 37.3685 29.35 39.0807C29.2237 39.3595 29.0976 39.541 28.946 39.7591C28.8871 39.8439 28.8243 39.9342 28.7562 40.0379C28.4262 40.5216 28.4741 41.1863 28.8787 41.6178L30.0523 42.8694C30.6174 43.472 30.926 44.2569 30.926 45.0781C30.917 45.1273 30.92 45.218 30.924 45.3408C30.9449 45.9752 30.9938 47.4636 29.5674 48.4753C29.0968 48.8112 28.9055 49.4378 29.1327 49.989C29.1272 49.9756 29.4801 50.8322 29.4856 50.8457C33.173 50.5507 37.5922 49.4521 41.3099 46.283C41.3466 46.2588 41.3769 46.2431 41.4017 46.2348C41.5912 46.0868 41.7725 45.9465 41.9399 45.8171C42.3387 45.5086 42.6585 45.2612 42.8219 45.1158C44.8946 43.2704 46.6096 41.0793 47.8936 38.636C44.0393 35.6805 43.8817 35.5307 43.6978 35.4282C43.6829 35.4199 43.6679 35.412 43.6507 35.4029C43.2109 35.1803 42.8981 35.0091 42.6574 34.8772C42.1761 34.6136 41.9825 34.5076 41.6359 34.4649C41.4153 34.4377 41.1493 34.4446 40.8521 34.4523C39.8659 34.4778 38.5364 34.5122 37.3852 33.3427C36.9281 32.8779 36.2777 32.7239 35.6988 32.8752L33.2321 33.5168C32.5147 33.7025 31.7836 33.5437 31.2237 33.1386L29.4609 31.8605C28.3811 31.077 28.1446 29.5612 28.9497 28.4851C29.5499 27.6518 30.0091 27.0555 30.3642 26.5946C31.1343 25.5946 31.4144 25.2309 31.5796 24.4641C31.6317 24.2238 31.6784 23.9937 31.7233 23.7723C32.0005 22.4051 32.2115 21.3644 33.2311 20.2513C35.0301 18.2912 37.2992 18.5091 37.9692 18.5734C38.062 18.5823 38.1241 18.5883 38.1501 18.5851C38.6832 18.6229 39.19 18.3436 39.4423 17.8735C39.6389 17.5251 39.8004 17.2139 39.946 16.9334C40.4379 15.9857 40.7479 15.3883 41.6159 14.8947C42.174 14.5775 42.55 14.53 42.8714 14.4894C43.1329 14.4564 43.3584 14.4279 43.6167 14.2625C43.927 14.0649 44.0501 13.8351 44.2801 13.4061C44.3874 13.2059 44.518 12.9623 44.7017 12.6583C43.6972 11.5311 42.6286 10.5381 41.417 9.61898C37.4611 6.61981 32.6116 4.96038 27.5453 4.96038C24.8368 4.96038 22.1825 5.42847 19.6562 6.35181C19.5911 6.37561 19.4072 6.45306 19.1393 6.56586C18.7975 6.70981 18.3191 6.91131 17.7764 7.1323ZM39.1546 50.0261C35.6904 51.8494 31.727 52.8912 27.5453 52.8912C22.3555 52.8912 17.4013 51.3235 13.1809 48.3418L10.35 51.1727C15.4477 54.9695 21.4128 56.8405 27.5453 56.8405C35.24 56.8405 42.5124 53.8413 47.975 48.3803C53.434 42.923 56.4405 35.6654 56.4405 27.9443C56.4405 21.6567 54.4848 15.736 50.7725 10.7504L47.9417 13.5811C50.8128 17.6431 52.4913 22.571 52.4913 27.9443C52.4913 35.3643 49.2514 42.0192 44.1272 46.5818C43.9108 46.7744 42.5797 47.8382 41.3252 48.7343C41.3021 48.7528 41.2779 48.7703 41.2527 48.7869C41.2467 48.7908 41.2407 48.7948 41.2348 48.7987C40.3448 49.4304 39.5082 49.9645 39.1546 50.0261ZM48.5971 3.63556L43.4805 8.75217C43.4832 8.75432 43.4858 8.7566 43.4885 8.75897C43.4897 8.76004 43.4909 8.76114 43.4923 8.76224C44.6404 9.71804 45.7235 10.8013 46.6491 11.9027C46.6653 11.922 46.6812 11.9415 46.6971 11.961C46.7104 11.9773 46.7237 11.9937 46.7372 12.0099L51.8543 6.89279C52.7523 5.9947 52.7523 4.53365 51.8543 3.63556C50.9562 2.73761 49.4952 2.73761 48.5971 3.63556ZM44.8167 33.8161C45.3301 34.143 45.7761 34.5759 48.7515 36.8197C49.9245 34.0339 50.5283 31.0229 50.5283 27.9445C50.5283 22.9341 48.8862 18.1505 46.0336 14.2943L45.7789 14.747C45.2415 15.7075 44.2511 16.3408 43.1506 16.4292C42.6888 16.4661 42.2826 16.7316 42.0639 17.1392L41.172 18.8015C40.5546 19.9523 39.3135 20.6359 38.0098 20.5431C37.9742 20.5466 37.9058 20.5397 37.8108 20.5302C37.2618 20.475 35.823 20.3303 34.6778 21.5781C33.9875 22.3317 33.8346 23.1594 33.6701 24.0497C33.5027 24.9559 33.3233 25.927 32.5529 26.9505C31.7381 28.0578 31.2363 28.7145 30.9274 29.1187C30.4395 29.7572 30.433 29.7657 30.4347 29.9252C30.4369 30.1577 30.5153 30.2131 31.1406 30.655C31.4246 30.8557 31.8214 31.1361 32.375 31.549C32.4795 31.6247 32.6124 31.6497 32.739 31.617C33.7228 31.3619 34.3194 31.2062 34.6916 31.109C35.3045 30.9489 35.3089 30.9478 35.4319 30.9241C36.685 30.6817 37.9421 31.1107 38.7841 31.966C39.338 32.5285 39.996 32.5109 40.7513 32.4907C41.4698 32.4715 42.2763 32.4499 43.1647 32.9235C44.1541 33.4513 44.4983 33.6133 44.8167 33.8161ZM38.3602 66.0372C39.7362 66.0372 40.8556 64.9177 40.8556 63.5418V63.1853C40.8556 60.3546 38.7794 58.0006 35.9964 57.6368C33.2753 58.4069 30.4164 58.8038 27.5453 58.8038C24.5679 58.8038 21.7126 58.3878 19.0723 57.6401C16.2999 58.0129 14.2341 60.3615 14.2341 63.1853V63.5418C14.2341 64.9178 15.3534 66.0372 16.7294 66.0372H38.3602ZM12.5646 18.2072C10.482 16.9817 9.5 16.4039 8.89645 14.5089C6.08925 18.404 4.56134 23.1078 4.56134 27.9443C4.56134 40.4293 14.6437 50.8392 27.3959 50.9268C27.3875 50.9037 27.3747 50.8734 27.3589 50.8362C27.2912 50.6765 27.1689 50.3881 27.1087 49.9794C26.929 48.7602 27.4604 47.5674 28.4294 46.8761C28.7695 46.6348 28.9629 46.2465 28.9629 45.8433C28.9513 45.7099 28.9558 45.5718 28.9604 45.4313C28.9736 45.0273 28.9874 44.6036 28.6204 44.2122C28.3563 43.9262 28.1352 43.6933 27.9475 43.4956C27.3262 42.8411 27.0709 42.5722 26.8371 42.039C26.4012 41.0447 26.4901 39.8765 27.1347 38.9317C27.1629 38.8749 27.213 38.8072 27.2717 38.7279C27.4875 38.4361 27.8194 37.9876 27.6021 37.3485C27.4728 36.9679 27.1799 36.6778 26.7983 36.5525L23.391 35.434C22.8488 35.2558 22.3929 34.8861 22.107 34.3931L19.7706 30.3743C19.6336 30.1372 19.297 30.1343 19.154 30.3662L18.5947 31.2727C17.2127 33.5081 13.6958 32.0623 14.3698 29.4679C14.8615 27.6107 15.1513 26.4854 15.3323 25.7826C15.6261 24.6413 15.6331 24.6143 15.752 24.3777C15.9707 23.9431 16.3236 23.5827 16.7641 23.3558C19.1682 22.1134 19.2449 22.0896 19.2992 22.0409C19.3032 22.0373 19.307 22.0336 19.3117 22.0293C19.409 21.9389 19.4431 21.8062 19.4174 21.6921C19.2757 21.0537 18.7702 20.5588 18.1117 20.4463C17.8629 20.4035 17.6313 20.3669 17.4129 20.3323C16.3447 20.1635 15.5925 20.0445 14.6938 19.4986C13.8777 18.9798 13.174 18.5658 12.5646 18.2072ZM8.35233 43.8802L3.23625 48.9963C2.33607 49.8965 2.3362 51.3534 3.23625 52.2534C4.13644 53.1535 5.59342 53.1534 6.49347 52.2534L11.6096 47.1373C10.4262 46.1539 9.33574 45.0634 8.35233 43.8802Z" fill="url(#paint0_linear)"/>
<path d="M7.8815 53.6415L7.66937 53.4294L7.66936 53.4294L7.8815 53.6415ZM8.94918 52.5738L9.13058 52.3349L8.92212 52.1766L8.73705 52.3617L8.94918 52.5738ZM1.84836 53.6414L2.06052 53.4293L2.06048 53.4292L1.84836 53.6414ZM1.84836 47.6082L2.06049 47.8204L2.0605 47.8204L1.84836 47.6082ZM7.15497 42.3012L7.36711 42.5134L7.54582 42.3346L7.40002 42.1282L7.15497 42.3012ZM8.54457 11.7791L8.77301 11.9736L8.777 11.9687L8.54457 11.7791ZM8.54996 11.7721L8.78966 11.9525L8.78968 11.9525L8.54996 11.7721ZM8.55647 11.7638L8.32822 11.5691L8.327 11.5705L8.55647 11.7638ZM14.8367 6.47477L14.9897 6.73294L14.9965 6.72866L14.8367 6.47477ZM18.9768 4.51018L19.0798 4.79194L19.0798 4.79194L18.9768 4.51018ZM18.9824 4.50813L18.8795 4.22636L18.8794 4.22637L18.9824 4.50813ZM41.9091 7.54761L41.7362 7.79277L41.9426 7.93835L42.1213 7.75974L41.9091 7.54761ZM47.2092 2.24754L46.9971 2.0354L46.9971 2.03541L47.2092 2.24754ZM53.2423 2.24754L53.4545 2.03541L53.2423 2.24754ZM53.2423 8.28068L53.4545 8.49281L53.4545 8.4928L53.2423 8.28068ZM52.1732 9.3498L51.9611 9.13767L51.776 9.32271L51.9342 9.53117L52.1732 9.3498ZM49.3626 49.7689L49.1505 49.5567L49.1505 49.5567L49.3626 49.7689ZM39.0088 56.6111L38.8974 56.3325L38.3183 56.564L38.8606 56.872L39.0088 56.6111ZM16.07 56.6171L16.2186 56.8778L16.7587 56.5699L16.1816 56.3387L16.07 56.6171ZM10.3953 12.6417L10.1715 12.4419L10.0467 12.5818L10.1177 12.7553L10.3953 12.6417ZM17.7764 7.1323L17.6632 6.85444L17.6608 6.85546L17.7764 7.1323ZM10.5641 13.2079L10.8547 13.1334L10.5641 13.2079ZM12.135 15.6491L11.9792 15.9055L11.9793 15.9056L12.135 15.6491ZM15.7125 17.8205L15.8683 17.5641L15.8682 17.564L15.7125 17.8205ZM17.4093 18.3329L17.3638 18.6295L17.4093 18.3329ZM18.4425 18.5111L18.383 18.8053L18.3919 18.8068L18.4425 18.5111ZM20.1271 23.8323L19.9902 23.5653L19.9859 23.5676L20.1271 23.8323ZM18.2441 24.7977L18.1113 24.5286L18.2441 24.7977ZM17.4798 25.3288L17.1894 25.2535L17.1894 25.2536L17.4798 25.3288ZM16.2572 30.0745L16.5553 30.0405L16.5553 30.0405L16.2572 30.0745ZM16.2604 30.0978L16.5579 30.0592L16.5579 30.0592L16.2604 30.0978ZM16.9247 30.2408L17.1799 30.3986L17.18 30.3984L16.9247 30.2408ZM17.4834 29.3352L17.7388 29.4927L17.7388 29.4927L17.4834 29.3352ZM20.8783 28.7121L20.6947 28.9494L20.6948 28.9495L20.8783 28.7121ZM22.4936 31.1432L22.2337 31.2931L22.4936 31.1432ZM23.8045 33.4071L24.0639 33.2564L24.0638 33.2563L23.8045 33.4071ZM23.813 33.4219L23.5533 33.5721L23.5533 33.5721L23.813 33.4219ZM23.831 33.4509L23.5857 33.6235L23.5857 33.6236L23.831 33.4509ZM27.4107 34.6873L27.3165 34.9721L27.3171 34.9723L27.4107 34.6873ZM29.35 39.0807L29.6233 39.2045L29.6233 39.2044L29.35 39.0807ZM28.946 39.7591L28.6996 39.5879L28.946 39.7591ZM28.7562 40.0379L29.004 40.207L29.0069 40.2026L28.7562 40.0379ZM28.8787 41.6178L29.0975 41.4126L29.0975 41.4125L28.8787 41.6178ZM30.0523 42.8694L30.2712 42.6642H30.2712L30.0523 42.8694ZM30.926 45.0781L31.2211 45.1318L31.226 45.1051V45.0781H30.926ZM30.924 45.3408L31.2239 45.3309H31.2239L30.924 45.3408ZM29.5674 48.4753L29.3938 48.2306L29.3931 48.2311L29.5674 48.4753ZM29.1327 49.989L28.8553 50.1033L29.4101 49.8747L29.1327 49.989ZM29.4856 50.8457L29.2078 50.959L29.2907 51.1623L29.5095 51.1447L29.4856 50.8457ZM41.3099 46.283L41.1448 46.0325L41.1294 46.0427L41.1153 46.0547L41.3099 46.283ZM41.4017 46.2348L41.4968 46.5193L41.5457 46.503L41.5863 46.4712L41.4017 46.2348ZM41.9399 45.8171L42.1235 46.0544L41.9399 45.8171ZM42.8219 45.1158L42.6224 44.8917L42.8219 45.1158ZM47.8936 38.636L48.1591 38.7756L48.2768 38.5518L48.0761 38.3979L47.8936 38.636ZM43.6978 35.4282L43.8438 35.1662L43.8438 35.1661L43.6978 35.4282ZM43.6507 35.4029L43.7915 35.1379L43.7861 35.1352L43.6507 35.4029ZM42.6574 34.8772L42.8015 34.6141L42.6574 34.8772ZM41.6359 34.4649L41.6726 34.1671L41.6725 34.1671L41.6359 34.4649ZM40.8521 34.4523L40.8599 34.7522L40.8521 34.4523ZM37.3852 33.3427L37.1713 33.5531L37.1714 33.5532L37.3852 33.3427ZM35.6988 32.8752L35.7743 33.1655L35.7746 33.1654L35.6988 32.8752ZM33.2321 33.5168L33.3073 33.8072L33.3076 33.8071L33.2321 33.5168ZM31.2237 33.1386L31.0476 33.3815L31.0478 33.3816L31.2237 33.1386ZM29.4609 31.8605L29.2847 32.1033L29.2848 32.1034L29.4609 31.8605ZM28.9497 28.4851L29.19 28.6649L29.1932 28.6604L28.9497 28.4851ZM30.3642 26.5946L30.6018 26.7776L30.3642 26.5946ZM31.5796 24.4641L31.2864 24.4005L31.2863 24.4009L31.5796 24.4641ZM31.7233 23.7723L31.4292 23.7127L31.7233 23.7723ZM33.2311 20.2513L33.01 20.0484L33.0098 20.0487L33.2311 20.2513ZM37.9692 18.5734L37.9978 18.2748L37.9978 18.2747L37.9692 18.5734ZM38.1501 18.5851L38.1713 18.2858L38.1423 18.2838L38.1135 18.2873L38.1501 18.5851ZM39.4423 17.8735L39.181 17.7259L39.1779 17.7316L39.4423 17.8735ZM39.946 16.9334L40.2123 17.0716L39.946 16.9334ZM41.6159 14.8947L41.4676 14.6339L41.4676 14.6339L41.6159 14.8947ZM42.8714 14.4894L42.909 14.7871H42.909L42.8714 14.4894ZM43.6167 14.2625L43.4555 14.0095L43.4549 14.0099L43.6167 14.2625ZM44.2801 13.4061L44.0157 13.2643V13.2643L44.2801 13.4061ZM44.7017 12.6583L44.9584 12.8135L45.0729 12.624L44.9256 12.4587L44.7017 12.6583ZM41.417 9.61898L41.5983 9.37997L41.5982 9.37992L41.417 9.61898ZM19.6562 6.35181L19.7592 6.6336L19.7592 6.63358L19.6562 6.35181ZM19.1393 6.56586L19.2558 6.84234L19.1393 6.56586ZM39.1546 50.0261L39.1031 49.7306L39.0566 49.7387L39.0149 49.7607L39.1546 50.0261ZM13.1809 48.3418L13.354 48.0968L13.1475 47.9509L12.9688 48.1297L13.1809 48.3418ZM10.35 51.1727L10.1379 50.9606L9.89248 51.206L10.1708 51.4133L10.35 51.1727ZM47.975 48.3803L47.7629 48.1681L47.7629 48.1682L47.975 48.3803ZM50.7725 10.7504L51.0131 10.5712L50.8058 10.2928L50.5604 10.5383L50.7725 10.7504ZM47.9417 13.5811L47.7296 13.369L47.5508 13.5478L47.6968 13.7543L47.9417 13.5811ZM44.1272 46.5818L44.3267 46.8059L44.3267 46.8058L44.1272 46.5818ZM41.3252 48.7343L41.1508 48.4902L41.1444 48.4948L41.1382 48.4997L41.3252 48.7343ZM41.2527 48.7869L41.0877 48.5364L41.0876 48.5364L41.2527 48.7869ZM41.2348 48.7987L41.0697 48.548L41.0611 48.5541L41.2348 48.7987ZM43.4805 8.75217L43.2684 8.54003L43.0313 8.77704L43.2931 8.98642L43.4805 8.75217ZM48.5971 3.63556L48.385 3.42342L48.385 3.42343L48.5971 3.63556ZM43.4885 8.75897L43.6858 8.53302L43.6858 8.53302L43.4885 8.75897ZM43.4923 8.76224L43.2989 8.99166L43.3003 8.99281L43.4923 8.76224ZM46.6491 11.9027L46.8791 11.7101L46.8788 11.7097L46.6491 11.9027ZM46.6971 11.961L46.9296 11.7715L46.9296 11.7714L46.6971 11.961ZM46.7372 12.0099L46.5064 12.2016L46.7167 12.4547L46.9493 12.222L46.7372 12.0099ZM51.8543 6.89279L52.0664 7.10492L52.0665 7.1049L51.8543 6.89279ZM51.8543 3.63556L52.0665 3.42345L52.0664 3.42342L51.8543 3.63556ZM48.7515 36.8197L48.5709 37.0592L48.8785 37.2912L49.028 36.9361L48.7515 36.8197ZM44.8167 33.8161L44.6555 34.0691L44.8167 33.8161ZM46.0336 14.2943L46.2747 14.1159L45.9992 13.7435L45.7721 14.1472L46.0336 14.2943ZM45.7789 14.747L45.5174 14.5999L45.5171 14.6005L45.7789 14.747ZM43.1506 16.4292L43.1745 16.7282L43.1746 16.7282L43.1506 16.4292ZM42.0639 17.1392L42.3283 17.281L42.3283 17.281L42.0639 17.1392ZM41.172 18.8015L40.9076 18.6597L40.9076 18.6597L41.172 18.8015ZM38.0098 20.5431L38.0311 20.2439L38.0057 20.2421L37.9804 20.2446L38.0098 20.5431ZM37.8108 20.5302L37.8408 20.2317L37.8108 20.5302ZM34.6778 21.5781L34.4568 21.3752L34.4566 21.3754L34.6778 21.5781ZM33.6701 24.0497L33.3751 23.9952V23.9952L33.6701 24.0497ZM32.5529 26.9505L32.3132 26.7701L32.3113 26.7727L32.5529 26.9505ZM30.9274 29.1187L31.1658 29.3009V29.3009L30.9274 29.1187ZM30.4347 29.9252L30.7347 29.9224L30.7347 29.922L30.4347 29.9252ZM31.1406 30.655L31.3138 30.41L31.1406 30.655ZM32.375 31.549L32.1956 31.7896L32.1991 31.7921L32.375 31.549ZM32.739 31.617L32.814 31.9074L32.8143 31.9074L32.739 31.617ZM34.6916 31.109L34.6158 30.8187L34.6916 31.109ZM35.4319 30.9241L35.4886 31.2186L35.4888 31.2186L35.4319 30.9241ZM38.7841 31.966L38.5703 32.1764L38.5703 32.1764L38.7841 31.966ZM40.7513 32.4907L40.7593 32.7906H40.7593L40.7513 32.4907ZM43.1647 32.9235L43.3059 32.6588L43.3058 32.6587L43.1647 32.9235ZM35.9964 57.6368L36.0353 57.3393L35.9741 57.3313L35.9147 57.3481L35.9964 57.6368ZM19.0723 57.6401L19.1541 57.3514L19.0941 57.3344L19.0323 57.3427L19.0723 57.6401ZM8.89645 14.5089L9.1823 14.4179L9.00146 13.8501L8.65307 14.3335L8.89645 14.5089ZM12.5646 18.2072L12.4124 18.4657L12.5646 18.2072ZM27.3959 50.9268L27.3938 51.2268L27.8247 51.2298L27.678 50.8247L27.3959 50.9268ZM27.3589 50.8362L27.6351 50.7191L27.6351 50.7191L27.3589 50.8362ZM27.1087 49.9794L26.8119 50.0232L26.8119 50.0232L27.1087 49.9794ZM28.4294 46.8761L28.2558 46.6314L28.2552 46.6319L28.4294 46.8761ZM28.9629 45.8433H29.2629V45.8303L29.2618 45.8173L28.9629 45.8433ZM28.9604 45.4313L28.6606 45.4215L28.9604 45.4313ZM28.6204 44.2122L28.3999 44.4157L28.4015 44.4174L28.6204 44.2122ZM27.9475 43.4956L28.1651 43.289L27.9475 43.4956ZM26.8371 42.039L27.1119 41.9186L27.1119 41.9185L26.8371 42.039ZM27.1347 38.9317L27.3825 39.1008L27.3942 39.0837L27.4035 39.0651L27.1347 38.9317ZM27.2717 38.7279L27.5128 38.9063L27.5128 38.9063L27.2717 38.7279ZM27.6021 37.3485L27.3181 37.445L27.3181 37.445L27.6021 37.3485ZM26.7983 36.5525L26.8919 36.2674L26.8918 36.2674L26.7983 36.5525ZM23.391 35.434L23.2973 35.719L23.2974 35.719L23.391 35.434ZM22.107 34.3931L22.3665 34.2426L22.3663 34.2424L22.107 34.3931ZM19.7706 30.3743L19.5108 30.5244L19.5112 30.5251L19.7706 30.3743ZM19.154 30.3662L19.4093 30.5237L19.4093 30.5237L19.154 30.3662ZM18.5947 31.2727L18.8499 31.4304L18.85 31.4302L18.5947 31.2727ZM14.3698 29.4679L14.0798 29.3911L14.0794 29.3924L14.3698 29.4679ZM15.3323 25.7826L15.6228 25.8574L15.3323 25.7826ZM15.752 24.3777L15.484 24.2428L15.484 24.2429L15.752 24.3777ZM16.7641 23.3558L16.9015 23.6225L16.9018 23.6223L16.7641 23.3558ZM19.2992 22.0409L19.099 21.8175L19.099 21.8175L19.2992 22.0409ZM19.3117 22.0293L19.1075 21.8095L19.1073 21.8097L19.3117 22.0293ZM19.4174 21.6921L19.1245 21.7571L19.1247 21.7579L19.4174 21.6921ZM18.1117 20.4463L18.0608 20.7419L18.0612 20.742L18.1117 20.4463ZM17.4129 20.3323L17.366 20.6287L17.4129 20.3323ZM14.6938 19.4986L14.5328 19.7518L14.538 19.755L14.6938 19.4986ZM3.23625 48.9963L3.44839 49.2084L3.23625 48.9963ZM8.35233 43.8802L8.58305 43.6884L8.3728 43.4355L8.1402 43.6681L8.35233 43.8802ZM3.23625 52.2534L3.44839 52.0412L3.44837 52.0412L3.23625 52.2534ZM6.49347 52.2534L6.28134 52.0412L6.49347 52.2534ZM11.6096 47.1373L11.8217 47.3494L12.0543 47.1168L11.8013 46.9066L11.6096 47.1373ZM8.09363 53.8536L9.16131 52.786L8.73705 52.3617L7.66937 53.4294L8.09363 53.8536ZM1.6362 53.8535C3.42024 55.6379 6.30906 55.6384 8.09364 53.8536L7.66936 53.4294C6.11912 54.9797 3.61026 54.9794 2.06052 53.4293L1.6362 53.8535ZM1.63623 47.3961C-0.147918 49.1803 -0.148502 52.0689 1.63624 53.8535L2.06048 53.4292C0.510139 51.879 0.510603 49.3703 2.06049 47.8204L1.63623 47.3961ZM6.94283 42.0891L1.63622 47.3961L2.0605 47.8204L7.36711 42.5134L6.94283 42.0891ZM2.29818 27.9443C2.29818 33.3492 4.00637 38.3629 6.90992 42.4743L7.40002 42.1282C4.56538 38.1143 2.89818 33.2208 2.89818 27.9443H2.29818ZM8.31617 11.5846C4.43518 16.1414 2.29818 21.9502 2.29818 27.9443H2.89818C2.89818 22.0926 4.98454 16.4217 8.77296 11.9736L8.31617 11.5846ZM8.31027 11.5917C8.30921 11.5931 8.30921 11.5931 8.30935 11.5929C8.30959 11.5926 8.3106 11.5913 8.31213 11.5894L8.777 11.9687C8.78321 11.9611 8.78853 11.954 8.78966 11.9525L8.31027 11.5917ZM8.327 11.5705C8.31855 11.5806 8.31156 11.59 8.31025 11.5917L8.78968 11.9525C8.79093 11.9508 8.79076 11.951 8.79037 11.9516C8.78983 11.9522 8.78826 11.9543 8.78595 11.957L8.327 11.5705ZM14.6837 6.21668C12.2807 7.64075 10.145 9.43908 8.32822 11.5691L8.78472 11.9584C10.5587 9.87864 12.6435 8.12318 14.9896 6.73285L14.6837 6.21668ZM18.8739 4.22841C18.5003 4.36496 16.4165 5.12592 14.6769 6.22087L14.9965 6.72866C16.677 5.67092 18.7069 4.92824 19.0798 4.79194L18.8739 4.22841ZM18.8794 4.22637L18.8739 4.22841L19.0798 4.79194L19.0854 4.7899L18.8794 4.22637ZM27.5453 2.69749C24.5713 2.69749 21.6555 3.21184 18.8795 4.22636L19.0854 4.78991C21.795 3.79966 24.6411 3.29749 27.5453 3.29749V2.69749ZM42.082 7.30244C37.8706 4.33227 32.8147 2.69749 27.5453 2.69749V3.29749C32.6898 3.29749 37.6252 4.89338 41.7362 7.79277L42.082 7.30244ZM46.9971 2.03541L41.697 7.33547L42.1213 7.75974L47.4213 2.45967L46.9971 2.03541ZM53.4545 2.03541C51.6741 0.255023 48.7776 0.255034 46.9971 2.0354L47.4213 2.45968C48.9675 0.913598 51.4841 0.91361 53.0302 2.45967L53.4545 2.03541ZM53.4545 8.4928C55.2348 6.7123 55.2348 3.81579 53.4545 2.03541L53.0302 2.45967C54.5763 4.00573 54.5763 6.52235 53.0302 8.06856L53.4545 8.4928ZM52.3853 9.56193L53.4545 8.49281L53.0302 8.06855L51.9611 9.13767L52.3853 9.56193ZM58.7034 27.9445C58.7034 21.0678 56.5303 14.5946 52.4122 9.16844L51.9342 9.53117C55.9726 14.8522 58.1034 21.1978 58.1034 27.9445H58.7034ZM49.5747 49.981C55.4611 44.0965 58.7034 36.2695 58.7034 27.9445H58.1034C58.1034 36.1104 54.9243 43.7848 49.1505 49.5567L49.5747 49.981ZM39.1201 56.8897C42.9891 55.3432 46.5406 53.0143 49.5747 49.981L49.1505 49.5567C46.1737 52.5327 42.6907 54.8163 38.8974 56.3325L39.1201 56.8897ZM43.1185 63.1853C43.1185 60.2657 41.5436 57.7057 39.1569 56.3502L38.8606 56.872C41.0639 58.1232 42.5185 60.4865 42.5185 63.1853H43.1185ZM43.1185 63.5418V63.1853H42.5185V63.5418H43.1185ZM38.3601 68.3001C40.9841 68.3001 43.1185 66.1658 43.1185 63.5418H42.5185C42.5185 65.8344 40.6527 67.7001 38.3601 67.7001V68.3001ZM16.7293 68.3001H38.3601V67.7001H16.7293V68.3001ZM11.9709 63.5418C11.9709 66.1658 14.1053 68.3001 16.7293 68.3001V67.7001C14.4366 67.7001 12.5709 65.8344 12.5709 63.5418H11.9709ZM11.9709 63.1853V63.5418H12.5709V63.1853H11.9709ZM15.9215 56.3565C13.5409 57.7134 11.9709 60.2699 11.9709 63.1853H12.5709C12.5709 60.4903 14.0209 58.1304 16.2186 56.8778L15.9215 56.3565ZM8.76779 52.8128C11.0013 54.5084 13.4128 55.8755 15.9584 56.8956L16.1816 56.3387C13.6866 55.3388 11.3219 53.9985 9.13058 52.3349L8.76779 52.8128ZM10.6191 12.8415C12.319 10.9371 14.6746 8.75247 17.892 7.40914L17.6608 6.85546C14.3267 8.24753 11.9004 10.505 10.1715 12.4419L10.6191 12.8415ZM10.8547 13.1334C10.8007 12.9225 10.7459 12.7062 10.673 12.5281L10.1177 12.7553C10.1716 12.887 10.2161 13.0584 10.2735 13.2824L10.8547 13.1334ZM12.2907 15.3927C11.2836 14.781 11.0449 13.8751 10.8547 13.1334L10.2735 13.2824C10.4644 14.0268 10.7477 15.1574 11.9792 15.9055L12.2907 15.3927ZM15.8682 17.564L12.2906 15.3926L11.9793 15.9056L15.5569 18.0769L15.8682 17.564ZM17.4548 18.0364C16.7668 17.9309 16.3669 17.867 15.8683 17.5641L15.5568 18.0769C16.1694 18.449 16.6806 18.5247 17.3638 18.6295L17.4548 18.0364ZM18.502 18.2171C18.0905 18.1338 17.7484 18.0814 17.4548 18.0364L17.3638 18.6295C17.6573 18.6745 17.9868 18.725 18.383 18.8052L18.502 18.2171ZM20.2639 24.0992C21.5977 23.4155 21.9098 22.0357 21.5181 20.8122C21.1284 19.5948 20.0359 18.4795 18.4931 18.2154L18.3919 18.8068C19.6974 19.0303 20.6199 19.9745 20.9467 20.9952C21.2715 22.0098 21.0018 23.0468 19.9902 23.5653L20.2639 24.0992ZM18.3768 25.0667C18.7643 24.8755 19.3571 24.5829 20.2682 24.097L19.9859 23.5676C19.0828 24.0492 18.4965 24.3386 18.1113 24.5286L18.3768 25.0667ZM17.7702 25.404C17.7759 25.3821 17.7774 25.3853 17.7724 25.3922C17.7693 25.3964 17.7743 25.3871 17.8118 25.3618C17.8976 25.304 18.0528 25.2266 18.3768 25.0667L18.1113 24.5286C17.8093 24.6777 17.6052 24.7776 17.4767 24.864C17.4072 24.9108 17.3413 24.9653 17.2885 25.0374C17.2337 25.1121 17.2066 25.1872 17.1894 25.2535L17.7702 25.404ZM16.5553 30.0405C16.5591 30.0734 16.5477 30.0947 16.5703 29.9985C16.5913 29.9088 16.6329 29.7494 16.7134 29.4441C16.8735 28.8376 17.1821 27.6752 17.7702 25.404L17.1894 25.2536C16.6016 27.5233 16.2933 28.6845 16.1333 29.291C16.0538 29.5923 16.0095 29.7617 15.9861 29.8615C15.9642 29.9549 15.9498 30.0264 15.9592 30.1085L16.5553 30.0405ZM16.5579 30.0592C16.557 30.0522 16.5561 30.0457 16.5557 30.0429C16.5551 30.0392 16.5552 30.0394 16.5553 30.0405L15.9592 30.1085C15.9601 30.1168 15.9612 30.1242 15.9618 30.1281C15.9624 30.1329 15.9627 30.1345 15.9629 30.1364L16.5579 30.0592ZM16.6695 30.0831C16.659 30.1 16.6491 30.1058 16.6419 30.1086C16.6327 30.1122 16.6198 30.1138 16.6053 30.1107C16.5907 30.1075 16.5795 30.1007 16.5725 30.0935C16.567 30.0878 16.5604 30.0784 16.5579 30.0592L15.9629 30.1364C16.0427 30.7514 16.8519 30.9292 17.1799 30.3986L16.6695 30.0831ZM17.2281 29.1776L16.6694 30.0833L17.18 30.3984L17.7388 29.4927L17.2281 29.1776ZM21.0619 28.4749C19.8883 27.5668 18.0811 27.7948 17.2281 29.1777L17.7388 29.4927C18.3949 28.429 19.7882 28.2479 20.6947 28.9494L21.0619 28.4749ZM22.7534 30.9932C22.1499 29.9474 21.8357 29.4025 21.6248 29.0846C21.5173 28.9225 21.4299 28.8089 21.3381 28.7135C21.2465 28.6183 21.1574 28.5487 21.0618 28.4748L20.6948 28.9495C20.7911 29.0239 20.8481 29.0696 20.9058 29.1295C20.9632 29.1892 21.0281 29.2705 21.1248 29.4163C21.3224 29.7141 21.6239 30.2363 22.2337 31.2931L22.7534 30.9932ZM24.0638 33.2563C23.5141 32.3115 23.0884 31.5736 22.7534 30.9932L22.2337 31.2931C22.5687 31.8736 22.995 32.6123 23.5452 33.558L24.0638 33.2563ZM24.0727 33.2718C24.0713 33.2692 24.0668 33.2614 24.0639 33.2564L23.5451 33.5578C23.5482 33.5631 23.5493 33.5652 23.5533 33.5721L24.0727 33.2718ZM24.0764 33.2782C24.0776 33.28 24.078 33.2808 24.0774 33.2797C24.0766 33.2785 24.0753 33.2763 24.0727 33.2718L23.5533 33.5721C23.5597 33.5832 23.5711 33.6027 23.5857 33.6235L24.0764 33.2782ZM27.5049 34.4025C25.8629 33.8595 25.003 33.5861 24.5236 33.4264C24.2835 33.3464 24.1588 33.3015 24.0897 33.2708C24.0263 33.2428 24.0531 33.2451 24.0764 33.2782L23.5857 33.6236C23.6532 33.7195 23.7412 33.7727 23.8468 33.8195C23.9466 33.8637 24.0988 33.9173 24.3341 33.9957C24.8056 34.1527 25.6913 34.4347 27.3165 34.9721L27.5049 34.4025ZM29.6233 39.2044C30.4712 37.3326 29.5304 35.0679 27.5043 34.4023L27.3171 34.9723C28.998 35.5245 29.78 37.4044 29.0768 38.9569L29.6233 39.2044ZM29.1923 39.9303C29.3444 39.7115 29.4846 39.5105 29.6233 39.2045L29.0768 38.9568C28.9627 39.2085 28.8507 39.3705 28.6996 39.5879L29.1923 39.9303ZM29.0069 40.2026C29.0726 40.1026 29.1333 40.0153 29.1923 39.9303L28.6996 39.5879C28.6408 39.6725 28.576 39.7658 28.5054 39.8732L29.0069 40.2026ZM29.0975 41.4125C28.7896 41.0842 28.7528 40.5751 29.004 40.207L28.5084 39.8688C28.0995 40.468 28.1585 41.2884 28.6598 41.823L29.0975 41.4125ZM30.2712 42.6642L29.0975 41.4126L28.6598 41.823L29.8335 43.0746L30.2712 42.6642ZM31.226 45.0781C31.226 44.1809 30.8885 43.3226 30.2712 42.6642L29.8335 43.0746C30.3463 43.6215 30.626 44.3329 30.626 45.0781H31.226ZM31.2239 45.3309C31.2218 45.268 31.2202 45.2197 31.2201 45.181C31.22 45.1379 31.222 45.127 31.2211 45.1318L30.6308 45.0244C30.621 45.0784 30.62 45.1374 30.6201 45.1827C30.6203 45.2324 30.6222 45.2908 30.6242 45.3506L31.2239 45.3309ZM29.7409 48.72C31.3059 47.6101 31.2448 45.9683 31.2239 45.3309L30.6242 45.3506C30.6449 45.9822 30.6817 47.3171 29.3938 48.2306L29.7409 48.72ZM29.41 49.8746C29.2369 49.4546 29.3827 48.9758 29.7417 48.7195L29.3931 48.2311C28.8109 48.6467 28.5741 49.421 28.8553 50.1033L29.41 49.8746ZM29.7634 50.7324C29.7604 50.725 29.6704 50.5066 29.5824 50.293C29.5383 50.1859 29.4945 50.0797 29.4621 50.001C29.4459 49.9617 29.4325 49.9293 29.4234 49.9071C29.4188 49.896 29.4153 49.8875 29.413 49.882C29.4119 49.8792 29.4111 49.8772 29.4106 49.8759C29.4103 49.8753 29.4101 49.8749 29.41 49.8746C29.41 49.8746 29.41 49.8745 29.41 49.8745C29.41 49.8745 29.4099 49.8744 29.4099 49.8744C29.4099 49.8743 29.4091 49.8725 29.4084 49.8707C29.0166 49.7122 28.8551 50.1028 28.8552 50.1029C28.8552 50.103 28.8552 50.103 28.8552 50.1031C28.8552 50.1031 28.8552 50.1032 28.8553 50.1032L29.4101 49.8747C29.4101 49.8747 29.41 49.8747 29.41 49.8747C29.41 49.8747 29.41 49.8747 29.41 49.8747C29.41 49.8747 29.41 49.8747 29.4101 49.8747C29.4101 49.8748 29.2486 50.2655 28.8568 50.1069C28.8558 50.1044 28.8543 50.1007 28.8553 50.1033C28.8554 50.1035 28.8556 50.1039 28.8558 50.1045C28.8563 50.1057 28.8571 50.1078 28.8583 50.1105C28.8606 50.1161 28.8641 50.1246 28.8687 50.1357C28.8778 50.1578 28.8911 50.1903 28.9073 50.2296C28.9397 50.3082 28.9835 50.4145 29.0276 50.5216C29.0717 50.6286 29.1162 50.7365 29.15 50.8185C29.1669 50.8595 29.1811 50.894 29.1912 50.9187C29.1963 50.931 29.2004 50.9409 29.2032 50.9479C29.2047 50.9514 29.2058 50.9541 29.2066 50.9561C29.2075 50.9583 29.2078 50.9591 29.2078 50.959L29.7634 50.7324ZM41.1153 46.0547C37.4624 49.1686 33.1123 50.2546 29.4617 50.5467L29.5095 51.1447C33.2336 50.8469 37.722 49.7357 41.5045 46.5113L41.1153 46.0547ZM41.3066 45.9503C41.2469 45.9702 41.1919 46.0015 41.1448 46.0325L41.475 46.5335C41.4869 46.5256 41.495 46.521 41.4995 46.5187C41.5043 46.5161 41.5031 46.5172 41.4968 46.5193L41.3066 45.9503ZM41.7564 45.5798C41.589 45.7092 41.4072 45.8498 41.217 45.9984L41.5863 46.4712C41.7752 46.3237 41.956 46.1839 42.1235 46.0544L41.7564 45.5798ZM42.6224 44.8917C42.4689 45.0284 42.1603 45.2673 41.7564 45.5798L42.1235 46.0544C42.5172 45.7498 42.8481 45.4941 43.0214 45.3398L42.6224 44.8917ZM47.628 38.4964C46.3609 40.9076 44.6683 43.0702 42.6224 44.8917L43.0214 45.3398C45.1208 43.4706 46.8583 41.2509 48.1591 38.7756L47.628 38.4964ZM43.5518 35.6903C43.6187 35.7276 43.6801 35.771 44.2361 36.1998C44.7801 36.6193 45.7835 37.396 47.711 38.8741L48.0761 38.3979C46.1494 36.9205 45.1469 36.1445 44.6025 35.7247C44.0702 35.3141 43.9608 35.2314 43.8438 35.1662L43.5518 35.6903ZM43.51 35.6678C43.5279 35.6773 43.5401 35.6838 43.5518 35.6903L43.8438 35.1661C43.8258 35.1561 43.8079 35.1466 43.7914 35.1379L43.51 35.6678ZM42.5133 35.1403C42.7547 35.2725 43.0709 35.4457 43.5153 35.6706L43.7861 35.1352C43.3508 34.915 43.0416 34.7456 42.8015 34.6141L42.5133 35.1403ZM41.5992 34.7626C41.8801 34.7972 42.0249 34.8728 42.5133 35.1403L42.8015 34.6141C42.3273 34.3544 42.085 34.218 41.6726 34.1671L41.5992 34.7626ZM40.8599 34.7522C41.1644 34.7443 41.4056 34.7388 41.5993 34.7626L41.6725 34.1671C41.4251 34.1367 41.1342 34.1449 40.8443 34.1524L40.8599 34.7522ZM37.1714 33.5532C38.4213 34.8228 39.8748 34.7777 40.8599 34.7522L40.8443 34.1524C39.8571 34.1779 38.6516 34.2016 37.599 33.1323L37.1714 33.5532ZM35.7746 33.1654C36.2537 33.0402 36.7924 33.1678 37.1713 33.5531L37.5991 33.1324C37.0638 32.588 36.3017 32.4076 35.623 32.5849L35.7746 33.1654ZM33.3076 33.8071L35.7743 33.1655L35.6233 32.5848L33.1566 33.2264L33.3076 33.8071ZM31.0478 33.3816C31.6777 33.8374 32.5004 34.0161 33.3073 33.8072L33.1569 33.2263C32.5291 33.3889 31.8896 33.2501 31.3995 32.8955L31.0478 33.3816ZM29.2848 32.1034L31.0476 33.3815L31.3998 32.8957L29.637 31.6176L29.2848 32.1034ZM28.7095 28.3054C27.8036 29.5161 28.0701 31.222 29.2847 32.1033L29.6371 31.6177C28.6922 30.9321 28.4855 29.6062 29.1899 28.6648L28.7095 28.3054ZM30.1265 26.4115C29.771 26.873 29.3094 27.4724 28.7063 28.3098L29.1932 28.6604C29.7904 27.8312 30.2472 27.2381 30.6018 26.7776L30.1265 26.4115ZM31.2863 24.4009C31.1375 25.0917 30.9021 25.4045 30.1265 26.4115L30.6018 26.7776C31.3666 25.7847 31.6913 25.3701 31.8729 24.5272L31.2863 24.4009ZM31.4292 23.7127C31.3843 23.9344 31.338 24.1625 31.2864 24.4005L31.8728 24.5276C31.9254 24.2851 31.9724 24.0531 32.0173 23.8319L31.4292 23.7127ZM33.0098 20.0487C31.9288 21.229 31.7064 22.3459 31.4292 23.7127L32.0173 23.8319C32.2946 22.4643 32.4943 21.4998 33.4523 20.4539L33.0098 20.0487ZM37.9978 18.2747C37.3169 18.2094 34.9133 17.9749 33.01 20.0484L33.4521 20.4542C35.147 18.6076 37.2814 18.8087 37.9405 18.872L37.9978 18.2747ZM38.1135 18.2873C38.1286 18.2854 38.1369 18.2861 38.1308 18.2859C38.1269 18.2858 38.1193 18.2855 38.1064 18.2845C38.0803 18.2827 38.0456 18.2793 37.9978 18.2748L37.9405 18.872C37.9856 18.8763 38.0283 18.8805 38.063 18.883C38.0889 18.8849 38.1399 18.8886 38.1866 18.8828L38.1135 18.2873ZM39.1779 17.7316C38.9816 18.0975 38.5867 18.3153 38.1713 18.2858L38.1288 18.8843C38.7797 18.9305 39.3984 18.5897 39.7066 18.0153L39.1779 17.7316ZM39.6797 16.7952C39.5341 17.0759 39.3748 17.3828 39.181 17.726L39.7035 18.0209C39.9031 17.6675 40.0668 17.3519 40.2123 17.0716L39.6797 16.7952ZM41.4676 14.6339C40.5143 15.176 40.17 15.8505 39.6797 16.7952L40.2123 17.0716C40.7057 16.1209 40.9816 15.6005 41.7642 15.1555L41.4676 14.6339ZM42.8339 14.1918C42.4965 14.2344 42.0755 14.2884 41.4676 14.6339L41.7641 15.1555C42.2725 14.8666 42.6034 14.8256 42.909 14.7871L42.8339 14.1918ZM43.4549 14.0099C43.2591 14.1353 43.0952 14.1588 42.8339 14.1918L42.909 14.7871C43.1707 14.754 43.4578 14.7206 43.7785 14.5152L43.4549 14.0099ZM44.0157 13.2643C43.7809 13.7023 43.69 13.8601 43.4555 14.0095L43.7779 14.5155C44.1639 14.2697 44.3193 13.968 44.5445 13.5478L44.0157 13.2643ZM44.4449 12.5032C44.2569 12.8142 44.1233 13.0636 44.0157 13.2643L44.5445 13.5478C44.6516 13.3481 44.779 13.1103 44.9584 12.8135L44.4449 12.5032ZM41.2356 9.85799C42.4314 10.7651 43.4858 11.7448 44.4777 12.8579L44.9256 12.4587C43.9086 11.3174 42.8257 10.3111 41.5983 9.37997L41.2356 9.85799ZM27.5453 5.26039C32.5456 5.26039 37.3316 6.89812 41.2357 9.85804L41.5982 9.37992C37.5906 6.3415 32.6775 4.66038 27.5453 4.66038V5.26039ZM19.7592 6.63358C22.2522 5.72239 24.8717 5.26039 27.5453 5.26039V4.66038C24.8019 4.66038 22.1127 5.13455 19.5532 6.07004L19.7592 6.63358ZM19.2558 6.84234C19.5294 6.7271 19.703 6.65413 19.7592 6.6336L19.5533 6.07003C19.4792 6.09709 19.2849 6.17903 19.0229 6.28938L19.2558 6.84234ZM17.8895 7.41015C18.4341 7.18841 18.914 6.98629 19.2558 6.84234L19.0229 6.28938C18.6811 6.43332 18.2041 6.6342 17.6633 6.85445L17.8895 7.41015ZM27.5453 53.1912C31.7771 53.1912 35.7884 52.1368 39.2943 50.2916L39.0149 49.7607C35.5925 51.5619 31.6768 52.5912 27.5453 52.5912V53.1912ZM13.0078 48.5869C17.2791 51.6045 22.2938 53.1912 27.5453 53.1912V52.5912C22.4171 52.5912 17.5234 51.0425 13.354 48.0968L13.0078 48.5869ZM10.5622 51.3848L13.393 48.554L12.9688 48.1297L10.1379 50.9606L10.5622 51.3848ZM27.5453 56.5405C21.475 56.5405 15.5733 54.689 10.5292 50.9321L10.1708 51.4133C15.3221 55.25 21.3505 57.1405 27.5453 57.1405V56.5405ZM47.7629 48.1682C42.3567 53.5728 35.1606 56.5405 27.5453 56.5405V57.1405C35.3194 57.1405 42.6681 54.1099 48.1871 48.5925L47.7629 48.1682ZM56.1405 27.9443C56.1405 35.5858 53.1656 42.7671 47.7629 48.1681L48.1871 48.5925C53.7024 43.0788 56.7405 35.7449 56.7405 27.9443H56.1405ZM50.5319 10.9296C54.2053 15.8629 56.1405 21.7207 56.1405 27.9443H56.7405C56.7405 21.5928 54.7644 15.6091 51.0131 10.5712L50.5319 10.9296ZM48.1539 13.7933L50.9846 10.9625L50.5604 10.5383L47.7296 13.369L48.1539 13.7933ZM52.7913 27.9443C52.7913 22.5071 51.0924 17.519 48.1867 13.408L47.6968 13.7543C50.5332 17.7673 52.1913 22.635 52.1913 27.9443H52.7913ZM44.3267 46.8058C49.512 42.1889 52.7913 35.4535 52.7913 27.9443H52.1913C52.1913 35.275 48.9908 41.8496 43.9277 46.3577L44.3267 46.8058ZM41.4996 48.9784C42.7583 48.0794 44.099 47.0085 44.3267 46.8059L43.9277 46.3577C43.7227 46.5403 42.4012 47.5971 41.1508 48.4902L41.4996 48.9784ZM41.4178 49.0374C41.4505 49.0158 41.482 48.993 41.5121 48.9689L41.1382 48.4997C41.1222 48.5125 41.1053 48.5248 41.0877 48.5364L41.4178 49.0374ZM41.3997 49.0493C41.4056 49.0454 41.4117 49.0414 41.4179 49.0374L41.0876 48.5364C41.0817 48.5403 41.0759 48.5441 41.0698 48.5481L41.3997 49.0493ZM39.2062 50.3217C39.3369 50.2989 39.486 50.2389 39.6341 50.1673C39.7877 50.0932 39.9619 49.9958 40.1487 49.883C40.5224 49.6573 40.9608 49.3611 41.4084 49.0434L41.0611 48.5541C40.6188 48.8681 40.194 49.1547 39.8385 49.3694C39.6606 49.4768 39.5038 49.564 39.3732 49.627C39.2373 49.6927 39.1492 49.7226 39.1031 49.7306L39.2062 50.3217ZM43.6926 8.9643L48.8092 3.8477L48.385 3.42343L43.2684 8.54003L43.6926 8.9643ZM43.6858 8.53302C43.6858 8.53299 43.677 8.52519 43.6679 8.51791L43.2931 8.98642C43.2906 8.98442 43.2889 8.98298 43.2887 8.9828C43.2886 8.9827 43.2886 8.98274 43.2891 8.98313C43.2893 8.98332 43.2895 8.98353 43.2899 8.98384C43.2902 8.98413 43.2906 8.98451 43.2911 8.98492L43.6858 8.53302ZM43.6856 8.53283L43.6858 8.53302L43.2911 8.98491C43.2926 8.98626 43.2955 8.98877 43.2989 8.99165L43.6856 8.53283ZM46.8788 11.7097C45.9419 10.5948 44.8461 9.49895 43.6842 8.53168L43.3003 8.99281C44.4347 9.93713 45.5052 11.0078 46.4194 12.0957L46.8788 11.7097ZM46.9296 11.7714C46.9139 11.7522 46.8967 11.7312 46.8791 11.7101L46.4191 12.0954C46.4338 12.1129 46.4485 12.1309 46.4646 12.1506L46.9296 11.7714ZM46.9679 11.8182C46.9555 11.8032 46.943 11.788 46.9296 11.7715L46.4645 12.1506C46.4777 12.1667 46.4919 12.1841 46.5064 12.2016L46.9679 11.8182ZM51.6422 6.68065L46.525 11.7978L46.9493 12.222L52.0664 7.10492L51.6422 6.68065ZM51.6422 3.84768C52.423 4.62862 52.423 5.89973 51.6422 6.68067L52.0665 7.1049C53.0815 6.08966 53.0815 4.43869 52.0665 3.42345L51.6422 3.84768ZM48.8092 3.84771C49.5901 3.06689 50.8613 3.06689 51.6422 3.84771L52.0664 3.42342C51.0512 2.40832 49.4002 2.40832 48.385 3.42342L48.8092 3.84771ZM48.9321 36.5801C47.4463 35.4597 46.5926 34.7918 46.046 34.363C45.5042 33.938 45.2501 33.7365 44.9778 33.563L44.6555 34.0691C44.8966 34.2227 45.1223 34.401 45.6757 34.8351C46.2243 35.2655 47.0812 35.9358 48.5709 37.0592L48.9321 36.5801ZM50.2283 27.9445C50.2283 30.9835 49.6323 33.955 48.475 36.7032L49.028 36.9361C50.2168 34.1129 50.8283 31.0622 50.8283 27.9445H50.2283ZM45.7924 14.4727C48.6075 18.2783 50.2283 22.9995 50.2283 27.9445H50.8283C50.8283 22.8686 49.1648 18.0227 46.2747 14.1159L45.7924 14.4727ZM46.0404 14.8941L46.295 14.4414L45.7721 14.1472L45.5174 14.5999L46.0404 14.8941ZM43.1746 16.7282C44.3744 16.6319 45.4541 15.9417 46.0407 14.8935L45.5171 14.6005C45.0288 15.4732 44.1279 16.0498 43.1266 16.1301L43.1746 16.7282ZM42.3283 17.281C42.4987 16.9634 42.8142 16.757 43.1745 16.7282L43.1267 16.1301C42.5633 16.1751 42.0665 16.4998 41.7996 16.9974L42.3283 17.281ZM41.4363 18.9434L42.3283 17.281L41.7996 16.9974L40.9076 18.6597L41.4363 18.9434ZM37.9885 20.8424C39.41 20.9435 40.763 20.1984 41.4364 18.9433L40.9076 18.6597C40.3462 19.7062 39.217 20.3283 38.0311 20.2439L37.9885 20.8424ZM37.7808 20.8287C37.8269 20.8333 37.8722 20.8379 37.9104 20.8407C37.9439 20.8432 37.993 20.8462 38.0391 20.8417L37.9804 20.2446C37.9885 20.2438 37.991 20.2442 37.9841 20.244C37.9781 20.2439 37.9687 20.2434 37.9548 20.2424C37.9261 20.2402 37.8897 20.2366 37.8408 20.2317L37.7808 20.8287ZM34.8989 21.7809C35.9378 20.6489 37.2383 20.7741 37.7808 20.8287L37.8408 20.2317C37.2852 20.1758 35.7081 20.0118 34.4568 21.3752L34.8989 21.7809ZM33.9651 24.1042C34.1307 23.2078 34.274 22.4631 34.8991 21.7807L34.4566 21.3754C33.7011 22.2003 33.5384 23.1111 33.3751 23.9952L33.9651 24.1042ZM32.7926 27.1309C33.609 26.0462 33.7973 25.0124 33.9651 24.1042L33.3751 23.9952C33.208 24.8995 33.0376 25.8077 32.3132 26.7701L32.7926 27.1309ZM31.1658 29.3009C31.4752 28.8959 31.9782 28.2377 32.7946 27.1283L32.3113 26.7727C31.498 27.878 30.9974 28.5331 30.6891 28.9366L31.1658 29.3009ZM30.7347 29.922C30.7343 29.8798 30.7359 29.8843 30.7341 29.8919C30.7318 29.9011 30.7305 29.8954 30.7533 29.8583C30.8053 29.7734 30.9153 29.6286 31.1658 29.3009L30.6891 28.9366C30.4516 29.2473 30.3144 29.426 30.2416 29.5449C30.202 29.6096 30.1689 29.6758 30.1507 29.7515C30.1329 29.8255 30.1343 29.8909 30.1347 29.9284L30.7347 29.922ZM31.3138 30.41C30.9882 30.18 30.8411 30.0745 30.7663 29.9996C30.736 29.9693 30.7353 29.9606 30.7376 29.9664C30.7392 29.9706 30.7351 29.9653 30.7347 29.9224L30.1347 29.928C30.1354 30.0013 30.1419 30.0901 30.1784 30.184C30.2155 30.2793 30.274 30.3557 30.3417 30.4236C30.463 30.5449 30.6678 30.6882 30.9675 30.9L31.3138 30.41ZM32.5543 31.3086C31.9976 30.8933 31.5983 30.6112 31.3138 30.41L30.9675 30.9C31.2509 31.1003 31.6451 31.379 32.1956 31.7895L32.5543 31.3086ZM32.664 31.3265C32.623 31.3371 32.5823 31.3288 32.5508 31.306L32.1991 31.7921C32.3768 31.9206 32.6017 31.9623 32.814 31.9074L32.664 31.3265ZM34.6158 30.8187C34.2436 30.9159 33.6473 31.0716 32.6637 31.3266L32.8143 31.9074C33.7983 31.6523 34.3951 31.4965 34.7674 31.3992L34.6158 30.8187ZM35.3751 30.6295C35.24 30.6555 35.2237 30.66 34.6158 30.8187L34.7674 31.3992C35.3854 31.2379 35.3778 31.24 35.4886 31.2186L35.3751 30.6295ZM38.9979 31.7555C38.0879 30.8311 36.7301 30.3674 35.3749 30.6295L35.4888 31.2186C36.6398 30.996 37.7963 31.3902 38.5703 32.1764L38.9979 31.7555ZM40.7432 32.1908C39.9693 32.2115 39.4479 32.2125 38.9978 31.7555L38.5703 32.1764C39.228 32.8445 40.0228 32.8103 40.7593 32.7906L40.7432 32.1908ZM43.3058 32.6587C42.3411 32.1445 41.4621 32.1716 40.7432 32.1908L40.7593 32.7906C41.4776 32.7714 42.2116 32.7554 43.0236 33.1882L43.3058 32.6587ZM44.9778 33.563C44.6466 33.3521 44.2788 33.1778 43.3059 32.6588L43.0235 33.1881C44.0294 33.7248 44.3501 33.8746 44.6555 34.0691L44.9778 33.563ZM40.5556 63.5418C40.5556 64.752 39.5705 65.7372 38.3602 65.7372V66.3372C39.9019 66.3372 41.1556 65.0833 41.1556 63.5418H40.5556ZM40.5556 63.1853V63.5418H41.1556V63.1853H40.5556ZM35.9575 57.9342C38.591 58.2785 40.5556 60.5052 40.5556 63.1853H41.1556C41.1556 60.204 38.9677 57.7226 36.0353 57.3393L35.9575 57.9342ZM27.5453 59.1038C30.4438 59.1038 33.3302 58.7031 36.0781 57.9254L35.9147 57.3481C33.2204 58.1106 30.389 58.5038 27.5453 58.5038V59.1038ZM18.9906 57.9287C21.6572 58.6839 24.54 59.1038 27.5453 59.1038V58.5038C24.5958 58.5038 21.7679 58.0917 19.1541 57.3514L18.9906 57.9287ZM14.5341 63.1853C14.5341 60.5118 16.4888 58.2902 19.1123 57.9374L19.0323 57.3427C16.1111 57.7356 13.9341 60.2113 13.9341 63.1853H14.5341ZM14.5341 63.5418V63.1853H13.9341V63.5418H14.5341ZM16.7294 65.7372C15.5191 65.7372 14.5341 64.7521 14.5341 63.5418H13.9341C13.9341 65.0835 15.1878 66.3372 16.7294 66.3372V65.7372ZM38.3602 65.7372H16.7294V66.3372H38.3602V65.7372ZM8.61059 14.6C8.92622 15.591 9.34858 16.256 9.97281 16.83C10.5826 17.3907 11.3805 17.8585 12.4124 18.4657L12.7167 17.9486C11.6661 17.3304 10.9316 16.8966 10.3789 16.3883C9.84063 15.8933 9.47022 15.3219 9.1823 14.4179L8.61059 14.6ZM4.86134 27.9443C4.86134 23.1709 6.36935 18.5284 9.13982 14.6843L8.65307 14.3335C5.80915 18.2795 4.26134 23.0447 4.26134 27.9443H4.86134ZM27.398 50.6268C14.8127 50.5403 4.86134 40.2665 4.86134 27.9443H4.26134C4.26134 40.5921 14.4746 51.138 27.3938 51.2268L27.398 50.6268ZM27.0827 50.9533C27.0998 50.9937 27.1088 51.0152 27.1138 51.029L27.678 50.8247C27.6662 50.7922 27.6496 50.7532 27.6351 50.7191L27.0827 50.9533ZM26.8119 50.0232C26.8779 50.4708 27.0125 50.7877 27.0827 50.9533L27.6351 50.7191C27.5699 50.5653 27.46 50.3055 27.4055 49.9356L26.8119 50.0232ZM28.2552 46.6319C27.1963 47.3873 26.6155 48.6904 26.8119 50.0232L27.4055 49.9357C27.2425 48.83 27.7245 47.7475 28.6037 47.1203L28.2552 46.6319ZM28.6629 45.8433C28.6629 46.1511 28.5152 46.4474 28.2558 46.6314L28.603 47.1208C29.0239 46.8222 29.2629 46.3419 29.2629 45.8433H28.6629ZM28.6606 45.4215C28.6561 45.5585 28.6506 45.7149 28.6641 45.8693L29.2618 45.8173C29.252 45.7048 29.2556 45.585 29.2603 45.4411L28.6606 45.4215ZM28.4015 44.4174C28.6753 44.7093 28.6739 45.0123 28.6606 45.4215L29.2603 45.4411C29.2732 45.0424 29.2995 44.4978 28.8392 44.007L28.4015 44.4174ZM27.73 43.7021C27.9176 43.8998 28.1375 44.1314 28.3999 44.4157L28.8408 44.0087C28.5752 43.721 28.3528 43.4868 28.1651 43.289L27.73 43.7021ZM26.5624 42.1594C26.8204 42.748 27.1135 43.0528 27.73 43.7021L28.1651 43.289C27.5389 42.6294 27.3214 42.3964 27.1119 41.9186L26.5624 42.1594ZM26.8869 38.7627C26.1833 39.7939 26.0855 41.0716 26.5624 42.1595L27.1119 41.9185C26.717 41.0179 26.7969 39.9592 27.3825 39.1008L26.8869 38.7627ZM27.0305 38.5495C26.9783 38.62 26.9087 38.7122 26.866 38.7984L27.4035 39.0651C27.4171 39.0376 27.4477 38.9944 27.5128 38.9063L27.0305 38.5495ZM27.3181 37.445C27.4809 37.9241 27.2489 38.2543 27.0305 38.5495L27.5128 38.9063C27.7262 38.6179 28.1578 38.051 27.8862 37.2519L27.3181 37.445ZM26.7046 36.8375C26.9966 36.9334 27.2191 37.1536 27.3181 37.445L27.8862 37.252C27.7266 36.7822 27.3631 36.4222 26.8919 36.2674L26.7046 36.8375ZM23.2974 35.719L26.7047 36.8375L26.8918 36.2674L23.4845 35.149L23.2974 35.719ZM21.8475 34.5437C22.1703 35.1003 22.6853 35.5178 23.2973 35.719L23.4846 35.149C23.0123 34.9937 22.6154 34.6719 22.3665 34.2426L21.8475 34.5437ZM19.5112 30.5251L21.8476 34.5439L22.3663 34.2424L20.03 30.2235L19.5112 30.5251ZM19.4093 30.5237C19.4343 30.4832 19.4885 30.4858 19.5108 30.5244L20.0304 30.2242C19.7786 29.7886 19.1597 29.7855 18.8987 30.2087L19.4093 30.5237ZM18.85 31.4302L19.4093 30.5237L18.8987 30.2087L18.3394 31.1151L18.85 31.4302ZM14.0794 29.3924C13.3146 32.3365 17.2959 33.9441 18.8499 31.4304L18.3395 31.1149C17.1295 33.0722 14.077 31.788 14.6601 29.5433L14.0794 29.3924ZM15.0417 25.7078C14.8609 26.4102 14.5713 27.5349 14.0798 29.3911L14.6598 29.5446C15.1518 27.6866 15.4417 26.5605 15.6228 25.8574L15.0417 25.7078ZM15.484 24.2429C15.347 24.5156 15.3317 24.5815 15.0417 25.7078L15.6228 25.8574C15.9205 24.7012 15.9192 24.7131 16.0201 24.5124L15.484 24.2429ZM16.6267 23.0891C16.1293 23.3454 15.7309 23.7522 15.484 24.2428L16.02 24.5125C16.2105 24.134 16.518 23.8201 16.9015 23.6225L16.6267 23.0891ZM19.099 21.8175C19.1129 21.8049 19.1241 21.8019 19.0749 21.8286C19.0265 21.8549 18.9406 21.8993 18.776 21.9837C18.4496 22.151 17.8289 22.4678 16.6264 23.0893L16.9018 23.6223C18.1033 23.0014 18.723 22.6851 19.0496 22.5177C19.2115 22.4347 19.3052 22.3864 19.3616 22.3557C19.4172 22.3255 19.4583 22.3011 19.4995 22.2642L19.099 21.8175ZM19.1073 21.8097C19.1057 21.8112 19.1042 21.8125 19.1031 21.8136C19.1018 21.8149 19.1011 21.8155 19.1002 21.8163C19.0987 21.8177 19.0986 21.8178 19.099 21.8175L19.4994 22.2643C19.5061 22.2583 19.5158 22.2491 19.516 22.2489L19.1073 21.8097ZM19.1247 21.7579C19.126 21.7637 19.1263 21.7733 19.1231 21.784C19.1201 21.794 19.1149 21.8026 19.1075 21.8095L19.5158 22.2491C19.6953 22.0824 19.758 21.8393 19.7101 21.6263L19.1247 21.7579ZM18.0612 20.742C18.5973 20.8336 19.0087 21.2355 19.1245 21.7571L19.7103 21.627C19.5426 20.872 18.9431 20.284 18.1622 20.1506L18.0612 20.742ZM17.366 20.6287C17.5846 20.6632 17.8143 20.6995 18.0608 20.7419L18.1625 20.1506C17.9115 20.1074 17.6779 20.0705 17.4597 20.036L17.366 20.6287ZM14.538 19.755C15.493 20.3351 16.3 20.4601 17.366 20.6287L17.4597 20.036C16.3894 19.8668 15.692 19.754 14.8495 19.2422L14.538 19.755ZM12.4124 18.4657C13.0219 18.8243 13.7216 19.2361 14.5328 19.7518L14.8547 19.2454C14.0339 18.7236 13.3261 18.3072 12.7167 17.9486L12.4124 18.4657ZM3.44839 49.2084L8.56446 44.0923L8.1402 43.6681L3.02412 48.7841L3.44839 49.2084ZM3.44837 52.0412C2.6655 51.2584 2.66536 49.9914 3.44839 49.2084L3.02412 48.7841C2.00678 49.8015 2.00691 51.4484 3.02414 52.4655L3.44837 52.0412ZM6.28134 52.0412C5.49844 52.8241 4.2314 52.8242 3.44839 52.0412L3.02412 52.4655C4.04147 53.4828 5.68841 53.4827 6.70561 52.4655L6.28134 52.0412ZM11.3974 46.9251L6.28134 52.0412L6.70561 52.4655L11.8217 47.3494L11.3974 46.9251ZM8.12162 44.0719C9.11679 45.2693 10.2203 46.3728 11.4178 47.368L11.8013 46.9066C10.6321 45.9349 9.55469 44.8575 8.58305 43.6884L8.12162 44.0719Z" fill="url(#paint1_linear)" mask="url(#path-1-outside-1)"/>
<defs>
<linearGradient id="paint0_linear" x1="-11.4992" y1="13.4507" x2="74.7322" y2="-8.37416" gradientUnits="userSpaceOnUse">
<stop stop-color="#2C4FCA"/>
<stop offset="1" stop-color="#047FD8"/>
</linearGradient>
<linearGradient id="paint1_linear" x1="-11.4992" y1="13.4507" x2="74.7322" y2="-8.37416" gradientUnits="userSpaceOnUse">
<stop stop-color="#2C4FCA"/>
<stop offset="1" stop-color="#047FD8"/>
</linearGradient>
</defs>
</svg>
