<svg xmlns="http://www.w3.org/2000/svg" width="29.28" height="29.281"><path data-name="Forma 1 копия 3" d="M29.22 22.694a3.541 3.541 0 00-1.58-1.1c-.26-.153-.64-.361-1.12-.624s-.93-.506-1.32-.729-.77-.436-1.12-.645c-.05-.041-.23-.163-.52-.364a5.273 5.273 0 00-.74-.447 1.323 1.323 0 00-.59-.145 1.729 1.729 0 00-1.04.592 9.43 9.43 0 00-1.14 1.29 12.842 12.842 0 01-1.11 1.291 1.553 1.553 0 01-.95.593 1.417 1.417 0 01-.47-.105c-.19-.069-.33-.128-.43-.176s-.26-.145-.5-.292-.36-.225-.39-.239a20.615 20.615 0 01-8.51-8.509q-.015-.042-.24-.4c-.14-.235-.24-.4-.29-.5a4.2 4.2 0 01-.18-.426 1.376 1.376 0 01-.1-.468 1.6 1.6 0 01.59-.957 13.7 13.7 0 011.29-1.1 9.417 9.417 0 001.29-1.144 1.721 1.721 0 00.6-1.04 1.318 1.318 0 00-.15-.592 6.308 6.308 0 00-.45-.74q-.3-.436-.36-.52c-.21-.346-.42-.717-.65-1.112s-.46-.837-.73-1.321-.47-.859-.62-1.124A3.613 3.613 0 006.59.06a1.221 1.221 0 00-.44-.063 6.978 6.978 0 00-1.47.209 8.375 8.375 0 00-1.42.436 5.627 5.627 0 00-2.21 2.539A8.144 8.144 0 00-.01 7.05a7.82 7.82 0 00.08 1.093 7.249 7.249 0 00.26 1.2q.18.666.3.989c.07.214.22.6.42 1.154s.34.895.38 1.019a18.3 18.3 0 001.73 3.641 30.263 30.263 0 004.48 5.5 30.955 30.955 0 005.5 4.484 18.887 18.887 0 003.64 1.726q.195.063 1.02.375c.56.207.94.351 1.16.427s.54.176.98.3a9.447 9.447 0 001.2.261 7.7 7.7 0 004.96-.988 5.582 5.582 0 002.54-2.206 8.571 8.571 0 00.44-1.425 6.687 6.687 0 00.2-1.466 1.218 1.218 0 00-.06-.44z" fill="#f34300" fill-rule="evenodd"/></svg>