<svg xmlns="http://www.w3.org/2000/svg" width="32.13" height="32.094"><path data-name="Forma 1 копия 3" d="M16.07.001a16.047 16.047 0 00-13 25.459l-2 5.963 6.17-1.972A16.049 16.049 0 1016.07.001zm9.34 22.666a4.507 4.507 0 01-3.15 2.265c-.84.179-1.93.321-5.62-1.207-4.72-1.955-7.75-6.749-7.99-7.059a9.134 9.134 0 01-1.91-4.841 5.091 5.091 0 011.65-3.907 2.308 2.308 0 011.64-.576c.2 0 .37.011.53.018a.93.93 0 011.02.793c.39.933 1.33 3.236 1.45 3.473a.971.971 0 01.06.869 2.694 2.694 0 01-.52.736c-.23.272-.46.482-.69.774a.746.746 0 00-.19 1 14.051 14.051 0 002.6 3.236 11.794 11.794 0 003.77 2.322 1.017 1.017 0 001.13-.179 18.961 18.961 0 001.25-1.661.894.894 0 011.15-.349c.44.15 2.73 1.284 3.2 1.518a2.378 2.378 0 01.9.548 4.016 4.016 0 01-.28 2.227z" fill="#a9a9a9" fill-rule="evenodd"/></svg>