<svg width="81" height="73" viewBox="0 0 81 73" fill="none" xmlns="http://www.w3.org/2000/svg">
<path d="M0 0H76C78.7614 0 81 2.23858 81 5V68C81 70.7614 78.7614 73 76 73H0V0Z" fill="#AC1919"/>
<path d="M0 0H76C78.7614 0 81 2.23858 81 5V63C81 65.7614 78.7614 68 76 68H0V0Z" fill="url(#paint0_linear)"/>
<path d="M46.6333 13.3246C46.4407 13.1218 46.1766 13 45.903 13H29.5188C26.4955 13 24 15.4856 24 18.5086V49.4911C24 52.5144 26.4955 55 29.5188 55H51.7564C54.7797 55 57.2752 52.5144 57.2752 49.4911V24.8897C57.2752 24.626 57.1534 24.3725 56.9811 24.1796L46.6333 13.3246ZM46.9274 16.5812L53.8565 23.855H49.3521C48.013 23.855 46.9274 22.7797 46.9274 21.4406V16.5812ZM51.7564 52.971H29.5188C27.6219 52.971 26.029 51.3986 26.029 49.4911V18.5086C26.029 16.6116 27.6116 15.029 29.5188 15.029H44.8984V21.4406C44.8984 23.9057 46.887 25.884 49.3521 25.884H55.2462V49.4911C55.2462 51.3986 53.6636 52.971 51.7564 52.971Z" fill="white"/>
<path d="M48.9867 45.9712H32.2882C31.7303 45.9712 31.2737 46.4275 31.2737 46.9857C31.2737 47.5436 31.7303 48.0002 32.2882 48.0002H48.9969C49.5548 48.0002 50.0114 47.5436 50.0114 46.9857C50.0114 46.4275 49.5548 45.9712 48.9867 45.9712Z" fill="white"/>
<path d="M39.8969 42.3291C40.0898 42.532 40.3535 42.6537 40.6374 42.6537C40.9216 42.6537 41.1853 42.532 41.3779 42.3291L47.3229 35.948C47.7084 35.542 47.678 34.8928 47.2723 34.5176C46.8663 34.1321 46.2171 34.1622 45.8419 34.5682L41.6519 39.0623V27.9842C41.6519 27.426 41.1953 26.9697 40.6374 26.9697C40.0795 26.9697 39.6229 27.426 39.6229 27.9842V39.0623L35.4431 34.5682C35.0577 34.1625 34.4184 34.1321 34.0127 34.5176C33.607 34.903 33.5766 35.5423 33.9621 35.948L39.8969 42.3291Z" fill="white"/>
<defs>
<linearGradient id="paint0_linear" x1="42.016" y1="-8.66667" x2="28.0869" y2="65.6742" gradientUnits="userSpaceOnUse">
<stop stop-color="#FC3636"/>
<stop offset="1" stop-color="#C73737"/>
</linearGradient>
</defs>
</svg>
