<svg width="34" height="42" viewBox="0 0 34 42" fill="none" xmlns="http://www.w3.org/2000/svg">
<path d="M22.6333 0.3246C22.4407 0.121765 22.1766 0 21.903 0H5.51885C2.49554 0 0 2.48561 0 5.50859V36.4911C0 39.5144 2.49554 42 5.51885 42H27.7564C30.7797 42 33.2752 39.5144 33.2752 36.4911V11.8897C33.2752 11.626 33.1534 11.3725 32.9811 11.1796L22.6333 0.3246ZM22.9274 3.58118L29.8565 10.855H25.3521C24.013 10.855 22.9274 9.77966 22.9274 8.44057V3.58118ZM27.7564 39.971H5.51885C3.62187 39.971 2.02899 38.3986 2.02899 36.4911V5.50859C2.02899 3.61162 3.61162 2.02899 5.51885 2.02899H20.8984V8.44057C20.8984 10.9057 22.887 12.884 25.3521 12.884H31.2462V36.4911C31.2462 38.3986 29.6636 39.971 27.7564 39.971Z" fill="white"/>
<path d="M24.9867 32.9712H8.28818C7.7303 32.9712 7.27368 33.4275 7.27368 33.9857C7.27368 34.5436 7.7303 35.0002 8.28818 35.0002H24.9969C25.5548 35.0002 26.0114 34.5436 26.0114 33.9857C26.0114 33.4275 25.5548 32.9712 24.9867 32.9712Z" fill="white"/>
<path d="M15.8969 29.3291C16.0898 29.532 16.3535 29.6537 16.6374 29.6537C16.9216 29.6537 17.1853 29.532 17.3779 29.3291L23.3229 22.948C23.7084 22.542 23.678 21.8928 23.2723 21.5176C22.8663 21.1321 22.2171 21.1622 21.8419 21.5682L17.6519 26.0623V14.9842C17.6519 14.426 17.1953 13.9697 16.6374 13.9697C16.0795 13.9697 15.6229 14.426 15.6229 14.9842V26.0623L11.4431 21.5682C11.0577 21.1625 10.4184 21.1321 10.0127 21.5176C9.60705 21.903 9.5766 22.5423 9.96209 22.948L15.8969 29.3291Z" fill="white"/>
</svg>
