<svg xmlns="http://www.w3.org/2000/svg" width="94.84" height="86.88"><path data-name="Знак предупреждения" d="M93.98 74.65h-.01c-6.31-12.94-16.9-31.3-26.23-47.5-4.89-8.47-9.51-16.48-12.84-22.56a8.4 8.4 0 00-14.97 0c-3.34 6.09-7.96 14.1-12.85 22.58C17.75 43.36 7.17 61.71.86 74.65a8.348 8.348 0 00-.87 3.71 8.5 8.5 0 008.47 8.52h77.91a8.5 8.5 0 007.61-12.23zm-46.56 4.34a3.95 3.95 0 113.95-3.95 3.967 3.967 0 01-3.95 3.95zm3.95-13.83a1.985 1.985 0 01-1.98 1.98h-3.95a1.985 1.985 0 01-1.98-1.98V21.72a1.976 1.976 0 011.98-1.97h3.95a1.976 1.976 0 011.98 1.97v43.44z" fill="#f34300" fill-rule="evenodd"/></svg>