<svg xmlns="http://www.w3.org/2000/svg" width="40.25" height="47.812"><path data-name="Срок знак" d="M30.41 23.906l8.72-13.353A6.8 6.8 0 0033.4.008H6.85a6.837 6.837 0 00-5.73 10.545l8.73 13.353-8.73 13.352a6.874 6.874 0 00-.3 6.979 6.781 6.781 0 005.99 3.566h26.55a6.8 6.8 0 005.69-10.545zm-12.94 8.8a1.113 1.113 0 01-.95 1.138 23.727 23.727 0 00-7.74 2.352.731.731 0 01-.94-1.062l6.79-10.887a.74.74 0 01.64-.341h1.52a.7.7 0 01.68.758v8.042zM6.74 9.87a1.083 1.083 0 01-.95-.531l-.84-1.251a2.29 2.29 0 011.9-3.528H33.4a2.275 2.275 0 011.9 3.528l-.84 1.289a1.2 1.2 0 01-.94.531H6.74V9.87zm24.73 26.326a22.845 22.845 0 00-7.74-2.352 1.113 1.113 0 01-.95-1.138v-8.042a.7.7 0 01.68-.758h1.52a.8.8 0 01.65.341l6.79 10.887a.733.733 0 01-.95 1.066z" fill="#d9dfed" fill-rule="evenodd"/></svg>