<svg width="21" height="23" viewBox="0 0 21 23" fill="none" xmlns="http://www.w3.org/2000/svg">
<g filter="url(#filter0_d)">
<path fill-rule="evenodd" clip-rule="evenodd" d="M10.4337 1.2948C11.6589 1.2948 12.8485 1.70853 13.7865 2.45986V2.45983C15.0117 3.44068 15.7324 4.83532 15.8195 6.38588C15.903 7.91674 15.3309 9.4145 14.2506 10.4949L10.6693 14.0293C10.5305 14.1668 10.2899 14.1656 10.1512 14.0281L6.62051 10.4974C5.5377 9.41459 4.96437 7.91561 5.04908 6.38591C5.13501 4.83542 5.85689 3.44077 7.08088 2.45986C8.0176 1.70853 9.20846 1.2948 10.4337 1.2948ZM8.02744 6.68442C8.02744 8.01153 9.10654 9.09066 10.4337 9.09066C11.7608 9.09066 12.8411 8.01156 12.8399 6.68442C12.8399 5.35732 11.7608 4.27819 10.4337 4.27819C9.10657 4.27819 8.02744 5.35729 8.02744 6.68442Z" fill="white"/>
<path d="M13.7865 2.45986L13.4739 2.85009L14.2865 3.50101V2.45986H13.7865ZM13.7865 2.45983L14.099 2.0695L13.2865 1.41908V2.45983H13.7865ZM15.8195 6.38588L16.3188 6.35866L16.3187 6.35782L15.8195 6.38588ZM14.2506 10.4949L14.6018 10.8507L14.6041 10.8484L14.2506 10.4949ZM10.6693 14.0293L10.318 13.6734L10.3173 13.6742L10.6693 14.0293ZM10.1512 14.0281L9.79764 14.3816L9.79922 14.3832L10.1512 14.0281ZM6.62051 10.4974L6.97406 10.1438L6.97406 10.1438L6.62051 10.4974ZM5.04908 6.38591L4.54985 6.35825L4.54985 6.35827L5.04908 6.38591ZM7.08088 2.45986L7.39356 2.85002L7.39372 2.8499L7.08088 2.45986ZM12.8399 6.68442L12.3399 6.68442L12.3399 6.68489L12.8399 6.68442ZM14.0991 2.06962C13.0707 1.24584 11.7703 0.7948 10.4337 0.7948V1.7948C11.5475 1.7948 12.6264 2.17121 13.4739 2.85009L14.0991 2.06962ZM13.2865 2.45983V2.45986H14.2865V2.45983H13.2865ZM16.3187 6.35782C16.2235 4.66427 15.4341 3.13835 14.099 2.0695L13.474 2.85016C14.5893 3.74301 15.2412 5.00638 15.3203 6.41395L16.3187 6.35782ZM14.6041 10.8484C15.7853 9.66724 16.41 8.03088 16.3188 6.35866L15.3203 6.41311C15.396 7.80259 14.8765 9.16176 13.897 10.1413L14.6041 10.8484ZM11.0205 14.3852L14.6018 10.8507L13.8993 10.139L10.318 13.6734L11.0205 14.3852ZM9.79922 14.3832C10.1307 14.7117 10.6855 14.7172 11.0212 14.3844L10.3173 13.6742C10.3522 13.6396 10.3895 13.6318 10.4119 13.6318C10.4341 13.6319 10.4697 13.6398 10.5032 13.673L9.79922 14.3832ZM6.26696 10.851L9.79764 14.3816L10.5047 13.6745L6.97406 10.1438L6.26696 10.851ZM4.54985 6.35827C4.45727 8.03003 5.08363 9.66763 6.26696 10.851L6.97406 10.1438C5.99177 9.16155 5.47147 7.80118 5.54832 6.41356L4.54985 6.35827ZM6.76819 2.06969C5.43466 3.1384 4.64373 4.66423 4.54985 6.35825L5.54832 6.41358C5.62629 5.00661 6.27912 3.74315 7.39356 2.85002L6.76819 2.06969ZM10.4337 0.7948C9.09726 0.7948 7.79546 1.24574 6.76803 2.06982L7.39372 2.8499C8.23974 2.17131 9.31967 1.7948 10.4337 1.7948V0.7948ZM10.4337 8.59066C9.38269 8.59066 8.52744 7.73539 8.52744 6.68442H7.52744C7.52744 8.28766 8.83039 9.59066 10.4337 9.59066V8.59066ZM12.3399 6.68489C12.3409 7.73509 11.4851 8.59066 10.4337 8.59066V9.59066C12.0365 9.59066 13.3414 8.28802 13.3399 6.68396L12.3399 6.68489ZM10.4337 4.77819C11.4847 4.77819 12.3399 5.63346 12.3399 6.68442H13.3399C13.3399 5.08118 12.037 3.77819 10.4337 3.77819V4.77819ZM8.52744 6.68442C8.52744 5.63344 9.38271 4.77819 10.4337 4.77819V3.77819C8.83044 3.77819 7.52744 5.08114 7.52744 6.68442H8.52744Z" fill="white"/>
<path d="M10.4337 5.5116C9.78668 5.5116 9.26123 6.03705 9.26123 6.68404C9.26123 7.33103 9.78668 7.85648 10.4337 7.85648C11.0807 7.85648 11.6061 7.33103 11.6061 6.68404C11.6061 6.03705 11.0807 5.5116 10.4337 5.5116Z" fill="white" stroke="white"/>
</g>
<defs>
<filter id="filter0_d" x="0.540863" y="0.7948" width="19.7867" height="21.837" filterUnits="userSpaceOnUse" color-interpolation-filters="sRGB">
<feFlood flood-opacity="0" result="BackgroundImageFix"/>
<feColorMatrix in="SourceAlpha" type="matrix" values="0 0 0 0 0 0 0 0 0 0 0 0 0 0 0 0 0 0 127 0"/>
<feOffset dy="4"/>
<feGaussianBlur stdDeviation="2"/>
<feColorMatrix type="matrix" values="0 0 0 0 0 0 0 0 0 0 0 0 0 0 0 0 0 0 0.25 0"/>
<feBlend mode="normal" in2="BackgroundImageFix" result="effect1_dropShadow"/>
<feBlend mode="normal" in="SourceGraphic" in2="effect1_dropShadow" result="shape"/>
</filter>
</defs>
</svg>
