<svg width="20" height="14" fill="none" xmlns="http://www.w3.org/2000/svg"><path d="M17.976 5.264v-1.58c0-1.92-1.56-3.48-3.479-3.48H5.503a3.484 3.484 0 00-3.48 3.48v1.58A2.81 2.81 0 000 7.96v4.275c0 .431.35.781.781.781h1.243a.781.781 0 101.562 0h12.828a.781.781 0 001.562 0h1.243c.431 0 .781-.35.781-.781V7.959a2.81 2.81 0 00-2.024-2.695zm-14.39-1.58a1.92 1.92 0 011.917-1.918h8.994a1.92 1.92 0 011.917 1.918v1.58a2.816 2.816 0 00-1.968 2.139H5.554a2.82 2.82 0 00-1.968-2.14V3.685zm14.851 7.769H1.563V7.959c0-.686.558-1.244 1.243-1.244s1.242.558 1.242 1.244v.225c0 .432.35.781.782.781h10.343a.78.78 0 00.78-.78v-.226c0-.686.558-1.244 1.243-1.244s1.242.558 1.242 1.244v3.494z" fill="#222"/></svg>