<svg width="20" height="20" fill="none" xmlns="http://www.w3.org/2000/svg"><path d="M18.709 3.174L10.27.049a.781.781 0 00-.542 0L1.29 3.174a.781.781 0 00-.51.732c0 9.588 5.392 14.729 8.948 16.045a.781.781 0 00.542 0c2.324-.86 8.948-5.171 8.948-16.045a.781.781 0 00-.51-.732zM6.406 15.658C3.58 12.6 2.44 8.578 2.35 4.448l4.056-1.503v12.713zm5.625 1.435c-.81.634-1.546 1.055-2.028 1.277a10.85 10.85 0 01-2.034-1.273V2.367L10 1.614l2.031.753v14.726zm1.563-1.435V2.945l4.056 1.503c-.09 4.117-1.225 8.153-4.056 11.21z" fill="#222"/></svg>