<svg width="20" height="20" fill="none" xmlns="http://www.w3.org/2000/svg"><g clip-path="url(#clip0)"><path d="M12.291 5.417a4.58 4.58 0 01-2.917 4.27V7.083a1.666 1.666 0 10-3.333 0v2.604a4.58 4.58 0 01-2.916-4.27A4.58 4.58 0 017.708.833a4.58 4.58 0 014.583 4.584z" fill="#D0B576"/><path d="M15.625 10.834c-.457 0-.891.146-1.25.417a2.065 2.065 0 00-1.25-.417c-.468 0-.901.155-1.25.417-.47-.356-1.1-.49-1.667-.376v-.655a5.378 5.378 0 002.917-4.803A5.423 5.423 0 007.708 0a5.423 5.423 0 00-5.416 5.417 5.378 5.378 0 002.916 4.803v8.947a.834.834 0 001.667 0V7.084c0-.222.088-.432.24-.586a.834.834 0 011.427.586v8.749a.834.834 0 001.666 0v-2.916a.417.417 0 01.834 0v2.916a.834.834 0 001.666 0v-2.916a.417.417 0 01.834 0v2.916a.834.834 0 001.666 0v-2.916a.415.415 0 01.417-.417c.23 0 .417.187.417.417v6.25a.834.834 0 001.666 0v-6.25a2.086 2.086 0 00-2.083-2.083zm-7.917-6.25c-.662 0-1.288.258-1.772.735a2.502 2.502 0 00-.728 1.765v1.134a3.754 3.754 0 012.5-6.55 3.754 3.754 0 012.5 6.55V7.084a2.5 2.5 0 00-2.5-2.5z" fill="#17181C"/></g><defs><clipPath id="clip0"><path fill="#fff" d="M0 0h20v20H0z"/></clipPath></defs></svg>