<svg width="20" height="20" fill="none" xmlns="http://www.w3.org/2000/svg"><g clip-path="url(#clip0)"><path d="M19.764 5.623L14.377.235A.784.784 0 0013.809 0H6.19a.79.79 0 00-.567.235L.234 5.623A.786.786 0 000 6.19v7.62a.789.789 0 00.228.561l5.394 5.394c.152.155.36.237.564.235h7.627a.789.789 0 00.564-.235l5.394-5.394A.79.79 0 0020 13.81V6.19a.794.794 0 00-.236-.567zM14.092 2.16l3.747 3.747-3.037 1.258-1.968-1.967 1.258-3.038zm-.255 6.25v3.18l-2.248 2.248H8.41L6.163 11.59V8.41L8.41 6.162h3.18l2.247 2.248zM12.65 1.563L11.39 4.6H8.608L7.35 1.563h5.299zm-6.742.597l1.258 3.038-1.968 1.967L2.16 5.907 5.907 2.16zM1.562 7.35L4.6 8.61v2.782L1.562 12.65V7.351zm4.345 10.49L2.16 14.093l3.037-1.258 1.968 1.967-1.258 3.038zm1.443.598L8.608 15.4h2.783l1.258 3.037H7.35zm6.742-.598l-1.258-3.038 1.968-1.967 3.037 1.258-3.747 3.747zm4.345-5.19L15.4 11.39V8.61l3.037-1.258v5.298z" fill="#222"/></g><defs><clipPath id="clip0"><path fill="#fff" d="M0 0h20v20H0z"/></clipPath></defs></svg>