<svg width="30" height="30" fill="none" xmlns="http://www.w3.org/2000/svg"><circle cx="15" cy="15" r="15" fill="#2878B7"/><path d="M21 15.558v4.137h-2.422V15.81c0-.958-.353-1.614-1.21-1.614-.656 0-1.06.454-1.211.858-.05.151-.1.353-.1.605v4.036h-2.422s.05-6.558 0-7.214h2.421v1.009c.303-.505.908-1.21 2.17-1.21 1.563 0 2.774 1.059 2.774 3.278zM11.112 9c-.807 0-1.362.555-1.362 1.261 0 .707.505 1.261 1.312 1.261.857 0 1.362-.555 1.362-1.26C12.474 9.503 11.97 9 11.112 9zm-1.21 10.695h2.42v-7.214h-2.42v7.214z" fill="#fff"/></svg>