<svg width="20" height="20" fill="none" xmlns="http://www.w3.org/2000/svg"><path d="M19.219 2.969H17.03V.78a.781.781 0 00-.78-.78H.781A.781.781 0 000 .781V16.25A3.754 3.754 0 003.75 20h12.5A3.754 3.754 0 0020 16.25V3.75a.781.781 0 00-.781-.781zm-3.75 15.469H3.75a2.19 2.19 0 01-2.188-2.188V1.562H15.47v16.875zm2.969-2.188a2.19 2.19 0 01-1.407 2.043V4.531h1.407V16.25zM5.233 10.39h6.563c.431 0 .781-.35.781-.78V4.14a.781.781 0 00-.781-.78H5.234a.781.781 0 00-.78.78v5.47c0 .43.349.78.78.78zm.782-5.468h5v3.906h-5V4.922zm-3.047 7.812c0-.431.35-.78.781-.78h9.531a.781.781 0 110 1.562H3.75a.781.781 0 01-.781-.782zm0 3.125c0-.431.35-.78.781-.78h9.531a.781.781 0 110 1.562H3.75a.781.781 0 01-.781-.782z" fill="#222"/></svg>