<svg width="30" height="30" fill="none" xmlns="http://www.w3.org/2000/svg"><path d="M21.994 26.258h-.035a19.162 19.162 0 01-12.84-5.373A19.142 19.142 0 013.744 8.051a2.5 2.5 0 01.732-1.795l3.393-3.39a1.25 1.25 0 011.767 0l5 5a1.25 1.25 0 010 1.768l-1.995 1.991a9.373 9.373 0 001.993 3.74 9.356 9.356 0 003.735 1.994l2-1.993a1.25 1.25 0 011.767 0l5 5a1.25 1.25 0 010 1.768l-3.392 3.391a2.47 2.47 0 01-1.75.733zM8.75 5.518h-.006l-2.5 2.506a16.556 16.556 0 004.64 11.092 16.565 16.565 0 0011.091 4.64l2.509-2.506-3.24-3.231-1.616 1.615a1.234 1.234 0 01-1.137.338 12.75 12.75 0 01-5.625-2.838 12.75 12.75 0 01-2.838-5.625 1.25 1.25 0 01.34-1.143l1.616-1.616L8.75 5.519z" fill="#D0B576"/></svg>