<svg width="30" height="30" fill="none" xmlns="http://www.w3.org/2000/svg"><circle cx="15" cy="15" r="15" fill="#BE1326"/><path d="M19.504 9.686c-.957-.957-2.334-1.436-3.83-1.436-2.274 0-3.65.957-4.428 1.735-.957.958-1.496 2.215-1.496 3.531 0 1.616.658 2.812 1.795 3.291.06.06.18.06.24.06.239 0 .418-.18.478-.419.06-.12.12-.479.18-.658.06-.3 0-.419-.18-.658-.299-.36-.478-.838-.478-1.437 0-1.735 1.316-3.59 3.71-3.59 1.915 0 3.111 1.077 3.111 2.813 0 1.077-.239 2.094-.658 2.872-.3.538-.838 1.137-1.616 1.137-.359 0-.658-.12-.837-.419-.18-.24-.24-.539-.18-.838.06-.359.18-.718.3-1.077.179-.658.418-1.316.418-1.795 0-.838-.538-1.436-1.316-1.436-1.018 0-1.796 1.017-1.796 2.274 0 .658.18 1.077.24 1.256-.12.539-.898 3.71-1.017 4.249-.06.359-.599 3.112.239 3.291.898.24 1.735-2.453 1.795-2.752.06-.24.3-1.197.42-1.736.418.419 1.136.718 1.854.718 1.317 0 2.454-.598 3.291-1.675.778-1.018 1.257-2.454 1.257-4.07-.06-1.077-.539-2.333-1.496-3.23z" fill="#fff"/></svg>