<svg width="16" height="20" fill="none" xmlns="http://www.w3.org/2000/svg"><path d="M15.163 2.969h-4.104V.78a.781.781 0 00-.781-.78H5.723a.781.781 0 00-.781.781V2.97H.838a.781.781 0 00-.781.781V19.22c0 .431.35.781.78.781h14.326c.431 0 .781-.35.781-.781V3.75a.781.781 0 00-.781-.781zM6.504 1.563h2.993v1.406H6.504V1.563zm7.878 16.875H1.619V4.53h12.763v13.907zM6.91 7.143c.305.305.305.8 0 1.105l-1.823 1.823a.782.782 0 01-1.105 0l-.831-.831a.781.781 0 111.105-1.105l.279.279 1.27-1.27a.781.781 0 011.105 0zm2.24.683h3.147a.781.781 0 110 1.563H9.15a.781.781 0 110-1.563zm-2.24 5.072a.78.78 0 010 1.104l-1.823 1.823a.781.781 0 01-1.105 0l-.831-.83a.781.781 0 111.105-1.105l.279.278 1.27-1.27a.781.781 0 011.105 0zm6.169 1.463c0 .432-.35.782-.782.782H9.15a.781.781 0 110-1.563h3.147c.432 0 .782.35.782.781z" fill="#222"/></svg>