<svg width="20" height="16" fill="none" xmlns="http://www.w3.org/2000/svg"><path d="M19.22 3.8h-2.15c-.227 0-.444.1-.593.274l-2.57 3.001V3.703a.781.781 0 00-.781-.781h-2.802L8.248.846a.781.781 0 00-.552-.229H2.969a.781.781 0 100 1.563h4.403l.742.742H.782A.781.781 0 000 3.703v10.899c0 .431.35.78.78.78h12.345a.78.78 0 00.78-.78v-3.296l2.532 2.963a.781.781 0 00.594.274h2.187c.432 0 .782-.35.782-.781v-9.18a.781.781 0 00-.782-.781zm-6.876 10.02H1.564V4.484h10.78v9.336zm6.094-.84h-1.046l-3.238-3.79 3.276-3.826h1.008v7.617zm-7.5-6.582a.977.977 0 11-1.953 0 .977.977 0 011.953 0zm-2.734 0a.976.976 0 11-1.953 0 .976.976 0 011.953 0z" fill="#222"/></svg>