<svg width="20" height="20" fill="none" xmlns="http://www.w3.org/2000/svg"><path fill-rule="evenodd" clip-rule="evenodd" d="M10.244 5.244a.833.833 0 000 1.179L13.822 10l-3.578 3.577a.833.833 0 001.179 1.179l4.166-4.167a.833.833 0 000-1.178l-4.166-4.167a.833.833 0 00-1.179 0z" fill="#999"/><path fill-rule="evenodd" clip-rule="evenodd" d="M4.41 5.244a.833.833 0 000 1.179L7.989 10l-3.577 3.577a.833.833 0 001.178 1.179l4.167-4.167a.833.833 0 000-1.178L5.589 5.244a.833.833 0 00-1.178 0z" fill="#999"/></svg>