<svg width="19" height="20" fill="none" xmlns="http://www.w3.org/2000/svg"><path d="M9.5 11.228c3.166 0 9.5 1.696 9.5 5.03V20H0v-3.743c0-3.333 6.334-5.029 9.5-5.029zM9.5 0c2.61 0 4.721 2.28 4.721 5.029 0 2.748-2.11 4.97-4.722 4.97-2.61 0-4.721-2.222-4.721-4.97C4.778 2.281 6.888 0 9.499 0zm0 13.626c-3.5 0-7.223 1.813-7.223 2.631v1.345h14.445v-1.345c0-.818-3.723-2.63-7.223-2.63zm0-11.228c-1.39 0-2.5 1.17-2.5 2.631 0 1.46 1.112 2.574 2.5 2.574 1.387 0 2.499-1.112 2.499-2.574 0-1.462-1.112-2.631-2.5-2.631z" fill="#AFAFAF"/></svg>