<svg width="81" height="73" fill="none" xmlns="http://www.w3.org/2000/svg"><path d="M0 0h76a5 5 0 015 5v63a5 5 0 01-5 5H0V0z" fill="#AC1919"/><path d="M0 0h76a5 5 0 015 5v58a5 5 0 01-5 5H0V0z" fill="url(#paint0_linear)"/><path d="M46.633 13.325a1.016 1.016 0 00-.73-.325H29.519C26.496 13 24 15.486 24 18.509V49.49c0 3.024 2.495 5.51 5.519 5.51h22.237c3.024 0 5.52-2.486 5.52-5.509V24.89c0-.264-.123-.518-.295-.71L46.633 13.325zm.294 3.256l6.93 7.274h-4.505a2.416 2.416 0 01-2.425-2.414v-4.86zm4.83 36.39H29.518c-1.897 0-3.49-1.572-3.49-3.48V18.51c0-1.897 1.583-3.48 3.49-3.48h15.38v6.412a4.438 4.438 0 004.453 4.443h5.894v23.607c0 1.908-1.582 3.48-3.49 3.48z" fill="#fff"/><path d="M48.987 45.971H32.288c-.558 0-1.014.457-1.014 1.015 0 .558.456 1.014 1.014 1.014h16.709c.558 0 1.014-.456 1.014-1.014a1.02 1.02 0 00-1.024-1.015zm-9.09-3.641c.193.202.456.324.74.324.285 0 .548-.122.74-.325l5.946-6.381a1.01 1.01 0 10-1.481-1.38l-4.19 4.494V27.984c0-.558-.457-1.014-1.015-1.014-.557 0-1.014.456-1.014 1.014v11.078l-4.18-4.494a1.011 1.011 0 00-1.43-.05 1.011 1.011 0 00-.05 1.43l5.934 6.381z" fill="#fff"/><defs><linearGradient id="paint0_linear" x1="42.016" y1="-8.667" x2="28.087" y2="65.674" gradientUnits="userSpaceOnUse"><stop stop-color="#FC3636"/><stop offset="1" stop-color="#C73737"/></linearGradient></defs></svg>