<svg width="20" height="14" viewBox="0 0 20 14" fill="none" xmlns="http://www.w3.org/2000/svg">
<path d="M17.9764 5.26449V3.68426C17.9764 1.76477 16.4155 0.203125 14.497 0.203125H5.50305C3.58449 0.203125 2.02363 1.76477 2.02363 3.68426V5.26449C0.856094 5.60391 0 6.68301 0 7.95906V12.2339C0 12.6654 0.349766 13.0151 0.78125 13.0151H2.02363V13.0156C2.02363 13.4471 2.3734 13.7969 2.80488 13.7969C3.23637 13.7969 3.58613 13.4471 3.58613 13.0156V13.0151H16.4139V13.0156C16.4139 13.4471 16.7637 13.7969 17.1952 13.7969C17.6266 13.7969 17.9764 13.4471 17.9764 13.0156V13.0151H19.2188C19.6502 13.0151 20 12.6654 20 12.2339V7.95906C20 6.68301 19.1439 5.60391 17.9764 5.26449ZM3.58609 3.68426C3.58613 2.62633 4.44609 1.76562 5.50305 1.76562H14.497C15.5539 1.76562 16.4139 2.62633 16.4139 3.68426V5.26363C15.4154 5.55375 14.6514 6.38262 14.4456 7.40281H5.55438C5.35332 6.40633 4.60492 5.55969 3.58609 5.26363V3.68426ZM18.4375 11.4526H1.5625V7.95906C1.5625 7.27328 2.11984 6.71539 2.80488 6.71539C3.48992 6.71539 4.04727 7.27328 4.04727 7.95906V8.18406C4.04727 8.61555 4.39703 8.96531 4.82852 8.96531H15.1715C15.603 8.96531 15.9528 8.61555 15.9528 8.18406V7.95906C15.9528 7.27328 16.5101 6.71539 17.1952 6.71539C17.8802 6.71539 18.4375 7.27332 18.4375 7.95906V11.4526Z" fill="#222222"/>
</svg>
