<svg width="20" height="20" viewBox="0 0 20 20" fill="none" xmlns="http://www.w3.org/2000/svg">
<path d="M17.5837 4.13504L13.6774 0.228789C13.5309 0.0823047 13.3322 0 13.125 0H2.96875C2.53727 0 2.1875 0.349766 2.1875 0.78125V19.2188C2.1875 19.6502 2.53727 20 2.96875 20H17.0312C17.4627 20 17.8125 19.6502 17.8125 19.2188V4.6875C17.8125 4.48027 17.7302 4.28156 17.5837 4.13504ZM16.25 18.4375H3.75V1.5625H12.8014L16.25 5.01109V18.4375Z" fill="#222222"/>
<path d="M9.21875 4.29688H5.3125C4.88102 4.29688 4.53125 4.64664 4.53125 5.07812C4.53125 5.50961 4.88102 5.85938 5.3125 5.85938H9.21875C9.65023 5.85938 10 5.50961 10 5.07812C10 4.64664 9.65023 4.29688 9.21875 4.29688Z" fill="#222222"/>
<path d="M14.6875 9.76562H5.3125C4.88102 9.76562 4.53125 10.1154 4.53125 10.5469C4.53125 10.9784 4.88102 11.3281 5.3125 11.3281H14.6875C15.119 11.3281 15.4688 10.9784 15.4688 10.5469C15.4688 10.1154 15.119 9.76562 14.6875 9.76562Z" fill="#222222"/>
<path d="M14.6875 12.5H5.3125C4.88102 12.5 4.53125 12.8498 4.53125 13.2812C4.53125 13.7127 4.88102 14.0625 5.3125 14.0625H14.6875C15.119 14.0625 15.4688 13.7127 15.4688 13.2812C15.4688 12.8498 15.119 12.5 14.6875 12.5Z" fill="#222222"/>
<path d="M14.6875 15.2344H5.3125C4.88102 15.2344 4.53125 15.5841 4.53125 16.0156C4.53125 16.4471 4.88102 16.7969 5.3125 16.7969H14.6875C15.119 16.7969 15.4688 16.4471 15.4688 16.0156C15.4688 15.5841 15.119 15.2344 14.6875 15.2344Z" fill="#222222"/>
</svg>
