<svg width="20" height="20" viewBox="0 0 20 20" fill="none" xmlns="http://www.w3.org/2000/svg">
<g clip-path="url(#clip0)">
<path d="M12.2911 5.41673C12.2911 7.36253 11.0828 9.02083 9.3745 9.68748V7.08337C9.3745 6.16255 8.62869 5.41673 7.70787 5.41673C7.24955 5.41673 6.83289 5.60423 6.52873 5.90422C6.22874 6.20838 6.04124 6.62504 6.04124 7.08337V9.68748C4.33294 9.02083 3.12463 7.36253 3.12463 5.41673C3.12463 2.88345 5.17459 0.833496 7.70787 0.833496C10.2412 0.833496 12.2911 2.88345 12.2911 5.41673Z" fill="#D0B576"/>
<path d="M15.6249 10.8335C15.1683 10.8335 14.7337 10.9798 14.375 11.2506C14.0162 10.9798 13.5816 10.8335 13.125 10.8335C12.6567 10.8335 12.2237 10.9889 11.8754 11.2506C11.4046 10.8952 10.775 10.7602 10.2084 10.8752V10.2198C11.9963 9.29439 13.125 7.46818 13.125 5.41655C13.125 2.42995 10.695 0 7.70842 0C4.72182 0 2.29187 2.42995 2.29187 5.41655C2.29187 7.46818 3.4206 9.29439 5.20848 10.2198V19.1667C5.20848 19.6267 5.5818 20 6.04179 20C6.50178 20 6.87511 19.6267 6.87511 19.1667V9.68771V7.0836C6.87511 6.86236 6.96302 6.65153 7.11427 6.49778C7.27635 6.3382 7.48718 6.25029 7.70842 6.25029C8.168 6.25029 8.54174 6.62403 8.54174 7.0836V9.68771V12.9168V15.8334C8.54174 16.2934 8.91507 16.6667 9.37506 16.6667C9.83505 16.6667 10.2084 16.2934 10.2084 15.8334V12.9168C10.2084 12.6872 10.3955 12.5002 10.625 12.5002C10.7742 12.5002 10.8734 12.5768 10.9192 12.6227C10.965 12.6685 11.0417 12.7677 11.0417 12.9168V15.8334C11.0417 16.2934 11.415 16.6667 11.875 16.6667C12.335 16.6667 12.7083 16.2934 12.7083 15.8334V12.9168C12.7083 12.6872 12.8954 12.5002 13.125 12.5002C13.2741 12.5002 13.3733 12.5768 13.4191 12.6227C13.465 12.6685 13.5416 12.7677 13.5416 12.9168V15.8334C13.5416 16.2934 13.915 16.6667 14.375 16.6667C14.8349 16.6667 15.2083 16.2934 15.2083 15.8334V12.9168C15.2083 12.7677 15.2849 12.6685 15.3308 12.6227C15.3766 12.5768 15.4758 12.5002 15.6249 12.5002C15.8545 12.5002 16.0416 12.6872 16.0416 12.9168V19.1667C16.0416 19.6267 16.4149 20 16.8749 20C17.3349 20 17.7082 19.6267 17.7082 19.1667V12.9168C17.7082 11.7681 16.7737 10.8335 15.6249 10.8335ZM7.70842 4.58365C7.04635 4.58365 6.42012 4.84198 5.93596 5.31947C5.46722 5.7953 5.20848 6.42195 5.20848 7.0836V8.21775C4.42474 7.52193 3.9585 6.5157 3.9585 5.41697C3.9585 3.34951 5.64097 1.66705 7.70842 1.66705C9.77588 1.66705 11.4583 3.34951 11.4583 5.41697C11.4583 6.5157 10.9921 7.52193 10.2084 8.21775V7.0836C10.2084 5.70488 9.08715 4.58365 7.70842 4.58365Z" fill="#17181C"/>
</g>
<defs>
<clipPath id="clip0">
<rect width="20" height="20" fill="white"/>
</clipPath>
</defs>
</svg>
