<svg width="20" height="20" viewBox="0 0 20 20" fill="none" xmlns="http://www.w3.org/2000/svg">
<g clip-path="url(#clip0)">
<path d="M18.1362 10.9304C18.2041 10.3316 18.2088 9.71031 18.1362 9.06961L19.4908 7.47543C19.7047 7.22379 19.7372 6.86492 19.5721 6.57891L17.7489 3.42102C17.5837 3.13504 17.2567 2.98371 16.9318 3.04312L14.8736 3.41926C14.3726 3.0475 13.8328 2.73539 13.2619 2.48742L12.5592 0.518594C12.4482 0.207617 12.1537 0 11.8234 0H8.17702C7.84679 0 7.55225 0.207617 7.44124 0.518633L6.7385 2.48746C6.16772 2.73543 5.62788 3.04758 5.12683 3.4193L3.06862 3.04316C2.74393 2.98391 2.41671 3.13508 2.25159 3.42105L0.428388 6.57895C0.263271 6.86492 0.295771 7.22383 0.509638 7.47547L1.86429 9.06965C1.79636 9.66844 1.79163 10.2897 1.86429 10.9304L0.509638 12.5246C0.295771 12.7763 0.263271 13.1351 0.428388 13.4211L2.25159 16.579C2.41671 16.865 2.74358 17.0161 3.06862 16.9569L5.12683 16.5808C5.62788 16.9525 6.16768 17.2646 6.7385 17.5126L7.44124 19.4814C7.55225 19.7925 7.84679 20.0001 8.17702 20.0001H11.8234C12.1537 20.0001 12.4482 19.7925 12.5592 19.4814L13.2619 17.5126C13.8327 17.2646 14.3726 16.9525 14.8736 16.5808L16.9318 16.9569C17.2566 17.0162 17.5837 16.865 17.7489 16.579L19.5721 13.4211C19.7372 13.1352 19.7047 12.7763 19.4908 12.5246L18.1362 10.9304ZM16.5437 8.95168C16.6539 9.64609 16.6541 10.353 16.5437 11.0484C16.5079 11.2735 16.5723 11.503 16.7199 11.6767L17.9436 13.1167L16.6711 15.3208L14.811 14.9809C14.5863 14.9399 14.3548 14.9991 14.1776 15.1433C13.6305 15.5882 13.0205 15.9409 12.3646 16.1916C12.1514 16.273 11.9844 16.4438 11.9077 16.6587L11.2727 18.4375H8.72772L8.0928 16.6587C8.01604 16.4437 7.84913 16.273 7.63589 16.1916C6.97995 15.9409 6.36999 15.5882 5.82288 15.1433C5.64569 14.9991 5.41425 14.9399 5.18948 14.9809L3.3294 15.3208L2.05686 13.1167L3.2805 11.6767C3.42811 11.503 3.49253 11.2735 3.45679 11.0484C3.34655 10.3539 3.3464 9.64699 3.45679 8.95168C3.49253 8.72652 3.42815 8.49703 3.2805 8.32332L2.05686 6.88328L3.32936 4.67918L5.18944 5.01914C5.41417 5.06012 5.64561 5.00086 5.82284 4.85672C6.36995 4.41176 6.97991 4.05906 7.63585 3.80844C7.84909 3.72695 8.016 3.55625 8.09276 3.34129L8.72772 1.5625H11.2727L11.9076 3.34129C11.9844 3.55629 12.1513 3.72699 12.3646 3.80844C13.0205 4.05906 13.6305 4.41176 14.1776 4.85672C14.3548 5.00086 14.5864 5.0602 14.811 5.01914L16.671 4.67918L17.9435 6.88328L16.7199 8.32328C16.5723 8.49699 16.5079 8.72652 16.5437 8.95168V8.95168ZM10.0002 6.09375C7.84628 6.09375 6.09397 7.84609 6.09397 10C6.09397 12.1539 7.84628 13.9062 10.0002 13.9062C12.1542 13.9062 13.9065 12.1539 13.9065 10C13.9065 7.84609 12.1542 6.09375 10.0002 6.09375ZM10.0002 12.3438C8.70788 12.3438 7.65647 11.2923 7.65647 10C7.65647 8.70766 8.70788 7.65625 10.0002 7.65625C11.2926 7.65625 12.344 8.70766 12.344 10C12.344 11.2923 11.2926 12.3438 10.0002 12.3438ZM10.9768 10C10.9768 10.5393 10.5396 10.9766 10.0002 10.9766C9.46089 10.9766 9.02366 10.5393 9.02366 10C9.02366 9.46066 9.46089 9.02344 10.0002 9.02344C10.5396 9.02344 10.9768 9.46066 10.9768 10Z" fill="#222222"/>
</g>
<defs>
<clipPath id="clip0">
<rect width="20" height="20" fill="white"/>
</clipPath>
</defs>
</svg>
