<svg width="20" height="20" viewBox="0 0 20 20" fill="none" xmlns="http://www.w3.org/2000/svg">
<path d="M18.7088 3.17363L10.2713 0.0486328C10.0963 -0.0162109 9.90375 -0.0162109 9.72863 0.0486328L1.29113 3.17363C0.984688 3.28715 0.78125 3.57945 0.78125 3.90625C0.78125 13.4943 6.17301 18.6349 9.72863 19.9514C9.90367 20.0162 10.0962 20.0163 10.2713 19.9514C12.5946 19.0915 19.2188 14.7795 19.2188 3.90625C19.2188 3.57945 19.0153 3.28715 18.7088 3.17363ZM6.40625 15.6577C3.57887 12.6011 2.43938 8.57711 2.34961 4.44785L6.40625 2.94539V15.6577ZM12.0312 17.0935C11.2203 17.7266 10.4851 18.1476 10.0031 18.37C9.62035 18.1916 8.86383 17.795 7.96875 17.0969V2.36668L10 1.61437L12.0312 2.36668V17.0935ZM13.5938 15.6579V2.94539L17.6504 4.44785C17.5609 8.5648 16.4251 12.6014 13.5938 15.6579V15.6579Z" fill="#222222"/>
</svg>
