<svg width="20" height="20" viewBox="0 0 20 20" fill="none" xmlns="http://www.w3.org/2000/svg">
<g clip-path="url(#clip0)">
<path d="M19.7643 5.62272L14.3766 0.234985C14.235 0.0898285 14.0323 -0.00169496 13.8094 2.37926e-05H6.18968C5.98843 -0.00153871 5.77655 0.0767816 5.62245 0.235024L0.234443 5.62307C0.0896385 5.76358 -0.00309586 5.97096 -0.000400546 6.19022V13.8099C-0.00301773 14.0228 0.0862401 14.2303 0.228428 14.371L5.62245 19.765C5.7737 19.9203 5.98257 20.0021 6.18616 20H13.8129C14.0416 20 14.2416 19.9033 14.3766 19.765L19.7707 14.3709C19.9259 14.2165 20.0019 14.0036 19.9995 13.8098V6.19018C20.002 5.98514 19.918 5.77393 19.7643 5.62272V5.62272ZM14.0924 2.16049L17.8391 5.90717L14.802 7.16518L12.8344 5.1976L14.0924 2.16049ZM13.8374 8.4103V11.5897L11.5892 13.8379H8.40983L6.16167 11.5897V8.4103L8.40983 6.16209H11.5892L13.8374 8.4103ZM12.6489 1.56252L11.3909 4.59963H8.60827L7.35026 1.56252H12.6489ZM5.90671 2.16049L7.16472 5.1976L5.19714 7.16518L2.16003 5.90717L5.90671 2.16049ZM1.5621 7.35073L4.59921 8.60873V11.3913L1.5621 12.6493V7.35073ZM5.90671 17.8396L2.16003 14.0929L5.19714 12.8349L7.16472 14.8024L5.90671 17.8396ZM7.35026 18.4375L8.60827 15.4004H11.3909L12.6489 18.4375L7.35026 18.4375ZM14.0924 17.8396L12.8344 14.8024L14.802 12.8349L17.8391 14.0929L14.0924 17.8396ZM18.437 12.6493L15.3999 11.3913V8.60873L18.437 7.35073V12.6493Z" fill="#222222"/>
</g>
<defs>
<clipPath id="clip0">
<rect width="20" height="20" fill="white"/>
</clipPath>
</defs>
</svg>
