<svg width="20" height="20" viewBox="0 0 20 20" fill="none" xmlns="http://www.w3.org/2000/svg">
<path d="M19.2187 2.96875H17.0312V0.78125C17.0312 0.349731 16.6815 0 16.25 0H0.781235C0.349716 0 -1.52588e-05 0.349731 -1.52588e-05 0.78125V16.25C-1.52588e-05 18.3177 1.68227 20 3.74998 20H16.25C18.3177 20 20 18.3177 20 16.25V3.75C20 3.31848 19.6503 2.96875 19.2187 2.96875ZM15.4687 18.4375H3.74998C2.54378 18.4375 1.56248 17.4562 1.56248 16.25V1.5625H15.4687V18.4375ZM18.4375 16.25C18.4375 17.1811 17.8528 17.9782 17.0312 18.2933V4.53125H18.4375V16.25ZM5.23436 10.3906H11.7969C12.2284 10.3906 12.5781 10.0409 12.5781 9.60938V4.14062C12.5781 3.70911 12.2284 3.35938 11.7969 3.35938H5.23436C4.80284 3.35938 4.45311 3.70911 4.45311 4.14062V9.60938C4.45311 10.0409 4.80284 10.3906 5.23436 10.3906ZM6.01561 4.92188H11.0156V8.82812H6.01561V4.92188ZM2.96873 12.7344C2.96873 12.3029 3.31847 11.9531 3.74998 11.9531H13.2812C13.7128 11.9531 14.0625 12.3029 14.0625 12.7344C14.0625 13.1659 13.7128 13.5156 13.2812 13.5156H3.74998C3.31847 13.5156 2.96873 13.1659 2.96873 12.7344ZM2.96873 15.8594C2.96873 15.4279 3.31847 15.0781 3.74998 15.0781H13.2812C13.7128 15.0781 14.0625 15.4279 14.0625 15.8594C14.0625 16.2909 13.7128 16.6406 13.2812 16.6406H3.74998C3.31847 16.6406 2.96873 16.2909 2.96873 15.8594Z" fill="#222222"/>
</svg>
