<svg width="30" height="30" viewBox="0 0 30 30" fill="none" xmlns="http://www.w3.org/2000/svg">
<path d="M21.9938 26.2575H21.9588C17.1567 26.1393 12.5741 24.2219 9.11875 20.885C5.78065 17.4328 3.86212 12.852 3.74361 8.05126C3.73654 7.37875 4.00058 6.73171 4.47625 6.25626L7.86875 2.86626C8.35688 2.37828 9.14813 2.37828 9.63625 2.86626L14.6363 7.86626C15.1242 8.35438 15.1242 9.14563 14.6363 9.63376L12.6413 11.625C13.0113 13.0074 13.6928 14.2868 14.6338 15.365C15.7101 16.3063 16.9878 16.9883 18.3688 17.3588L20.3688 15.3663C20.8569 14.8783 21.6481 14.8783 22.1363 15.3663L27.1363 20.3663C27.6242 20.8544 27.6242 21.6456 27.1363 22.1338L23.7438 25.525C23.2812 25.9924 22.6513 26.256 21.9938 26.2575ZM8.75 5.51876H8.74375L6.24375 8.02376C6.34568 12.1721 8.00165 16.1309 10.8838 19.1163C13.8693 21.9973 17.8273 23.6532 21.975 23.7563L24.4838 21.25L21.2438 18.0188L19.6275 19.6338C19.3963 19.8676 19.0813 19.9994 18.7525 20C18.6647 20 18.5771 19.9908 18.4913 19.9725C16.4083 19.5117 14.4742 18.5357 12.8663 17.1338C11.4643 15.5258 10.4883 13.5917 10.0275 11.5088C9.94058 11.0947 10.069 10.6648 10.3688 10.3663L11.9838 8.75001L8.75 5.51876Z" fill="#D0B576"/>
</svg>
