<svg width="30" height="30" viewBox="0 0 30 30" fill="none" xmlns="http://www.w3.org/2000/svg">
<circle cx="15" cy="15" r="15" fill="#BE1326"/>
<path d="M19.504 9.68618C18.5465 8.72873 17.1702 8.25 15.6742 8.25C13.4003 8.25 12.0239 9.20745 11.246 9.98538C10.2886 10.9428 9.75 12.1995 9.75 13.516C9.75 15.1317 10.4082 16.3285 11.5452 16.8072C11.6051 16.867 11.7247 16.867 11.7846 16.867C12.0239 16.867 12.2035 16.6875 12.2633 16.4481C12.3231 16.3285 12.383 15.9694 12.4428 15.7899C12.5027 15.4907 12.4428 15.371 12.2633 15.1317C11.9641 14.7726 11.7846 14.2939 11.7846 13.6955C11.7846 11.9601 13.1011 10.1051 15.4947 10.1051C17.4096 10.1051 18.6064 11.1822 18.6064 12.9176C18.6064 13.9947 18.367 15.012 17.9482 15.7899C17.6489 16.3285 17.1104 16.9269 16.3325 16.9269C15.9734 16.9269 15.6742 16.8072 15.4947 16.508C15.3152 16.2686 15.2553 15.9694 15.3152 15.6702C15.375 15.3112 15.4947 14.9521 15.6144 14.5931C15.7939 13.9348 16.0332 13.2766 16.0332 12.7979C16.0332 11.9601 15.4947 11.3617 14.7168 11.3617C13.6995 11.3617 12.9215 12.379 12.9215 13.6356C12.9215 14.2939 13.1011 14.7128 13.1609 14.8923C13.0412 15.4309 12.2633 18.6024 12.1436 19.141C12.0838 19.5 11.5452 22.2527 12.383 22.4322C13.2806 22.6715 14.1184 19.9787 14.1782 19.6795C14.238 19.4402 14.4774 18.4827 14.5971 17.9442C15.016 18.363 15.7341 18.6622 16.4521 18.6622C17.7686 18.6622 18.9056 18.0638 19.7434 16.9867C20.5213 15.9694 21 14.5333 21 12.9176C20.9402 11.8404 20.4614 10.5838 19.504 9.68618Z" fill="white"/>
</svg>
