<svg width="16" height="20" viewBox="0 0 16 20" fill="none" xmlns="http://www.w3.org/2000/svg">
<path d="M15.163 2.96875H11.0592V0.78125C11.0592 0.349766 10.7094 0 10.2779 0H5.72291C5.29142 0 4.94166 0.349766 4.94166 0.78125V2.96875H0.83783C0.406345 2.96875 0.0565796 3.31852 0.0565796 3.75V19.2188C0.0565796 19.6502 0.406345 20 0.83783 20H15.163C15.5945 20 15.9443 19.6502 15.9443 19.2188V3.75C15.9442 3.31852 15.5945 2.96875 15.163 2.96875V2.96875ZM6.50416 1.5625H9.49662V2.96875H6.50416V1.5625ZM14.3817 18.4375H1.61908V4.53125H14.3818V18.4375H14.3817ZM6.91017 7.14324C7.21525 7.44836 7.21525 7.94305 6.91017 8.24812L5.08705 10.0713C4.78193 10.3763 4.28709 10.3761 3.98217 10.0712L3.15099 9.24C2.84588 8.93488 2.84592 8.44023 3.15103 8.13516C3.45615 7.83012 3.95088 7.83008 4.25588 8.1352L4.53463 8.41398L5.80529 7.14328C6.11037 6.83816 6.60506 6.83816 6.91017 7.14324V7.14324ZM9.14959 7.82602H12.2974C12.7289 7.82602 13.0786 8.17578 13.0786 8.60727C13.0786 9.03875 12.7289 9.38852 12.2974 9.38852H9.14959C8.7181 9.38852 8.36834 9.03875 8.36834 8.60727C8.36834 8.17578 8.7181 7.82602 9.14959 7.82602ZM6.91017 12.8975C7.21525 13.2026 7.21525 13.6973 6.91017 14.0024L5.08705 15.8255C4.78193 16.1306 4.2872 16.1305 3.98217 15.8255L3.15099 14.9943C2.84588 14.6892 2.84588 14.1945 3.15099 13.8895C3.45611 13.5844 3.9508 13.5843 4.25588 13.8895L4.53463 14.1682L5.80529 12.8975C6.11037 12.5924 6.60506 12.5924 6.91017 12.8975ZM13.0786 14.3615C13.0786 14.793 12.7289 15.1427 12.2974 15.1427H9.14959C8.7181 15.1427 8.36834 14.793 8.36834 14.3615C8.36834 13.93 8.7181 13.5802 9.14959 13.5802H12.2974C12.7289 13.5802 13.0786 13.93 13.0786 14.3615Z" fill="#222222"/>
</svg>
