<svg width="20" height="16" viewBox="0 0 20 16" fill="none" xmlns="http://www.w3.org/2000/svg">
<path d="M19.2194 3.80078H17.0709C16.8428 3.80078 16.626 3.90057 16.4775 4.07376L13.9069 7.07516V3.70312C13.9069 3.27161 13.5571 2.92188 13.1256 2.92188H10.3242L8.24829 0.845917C8.10181 0.699432 7.90314 0.617188 7.69592 0.617188H2.96936C2.53784 0.617188 2.18811 0.966919 2.18811 1.39844C2.18811 1.82996 2.53784 2.17969 2.96936 2.17969H7.37228L8.11447 2.92188H0.78186C0.350342 2.92188 0.000610352 3.27161 0.000610352 3.70312V14.6016C0.000610352 15.0331 0.350342 15.3828 0.78186 15.3828H13.1256C13.5571 15.3828 13.9069 15.0331 13.9069 14.6016V11.306L16.4378 14.2691C16.5863 14.4429 16.8033 14.543 17.0319 14.543H19.2194C19.6509 14.543 20.0006 14.1932 20.0006 13.7617V4.58203C20.0006 4.15051 19.6509 3.80078 19.2194 3.80078V3.80078ZM12.3444 13.8203H1.56311V4.48438H12.3444V13.8203ZM18.4381 12.9805H17.392L14.1536 9.18896L17.4304 5.36328H18.4381V12.9805ZM10.9381 6.39844C10.9381 6.93784 10.5009 7.375 9.96155 7.375C9.42215 7.375 8.98499 6.93784 8.98499 6.39844C8.98499 5.85904 9.42215 5.42188 9.96155 5.42188C10.5009 5.42188 10.9381 5.85904 10.9381 6.39844ZM8.20374 6.39844C8.20374 6.93784 7.76657 7.375 7.22717 7.375C6.68777 7.375 6.25061 6.93784 6.25061 6.39844C6.25061 5.85904 6.68777 5.42188 7.22717 5.42188C7.76657 5.42188 8.20374 5.85904 8.20374 6.39844Z" fill="#222222"/>
</svg>
