<svg xmlns="http://www.w3.org/2000/svg" width="17.81" height="20.37"><path data-name="Гарантия знак" d="M17.03 14.4a.785.785 0 00.79-.79v-2.95a3.182 3.182 0 00-3.18-3.18h-8.9v-2.8a3.181 3.181 0 016.36.02.794.794 0 00.79.8.8.8 0 00.8-.8 4.776 4.776 0 00-9.55-.02v2.8h-.95a3.188 3.188 0 00-3.18 3.18v6.52a3.182 3.182 0 003.18 3.18h11.45a3.175 3.175 0 003.18-3.18.792.792 0 00-.79-.79.8.8 0 00-.8.79 1.588 1.588 0 01-1.59 1.59H3.19a1.594 1.594 0 01-1.59-1.59v-6.52a1.6 1.6 0 011.59-1.59h11.45a1.594 1.594 0 011.59 1.59v2.95a.794.794 0 00.8.79zm-8.11-1.39a.8.8 0 11-.8.8.8.8 0 01.8-.8z" fill="#f34300" fill-rule="evenodd"/></svg>