<svg xmlns="http://www.w3.org/2000/svg" width="23" height="19.656"><path d="M20.53 6.672H17.8V0H5.19v6.67H2.47A2.48 2.48 0 000 9.152v5.509a2.481 2.481 0 002.47 2.483h2.48v2.507h13.1v-2.507h2.48A2.481 2.481 0 0023 14.661V9.152a2.48 2.48 0 00-2.47-2.48zM6.31 1.122h10.38v5.55H6.31v-5.55zm10.63 16.024v1.387H6.06v-2.416h10.88v1.029zm4.94-2.483a1.354 1.354 0 01-1.35 1.362h-2.48V15H4.95v1.028H2.47a1.362 1.362 0 01-1.36-1.362V9.157a1.362 1.362 0 011.36-1.362h18.06a1.354 1.354 0 011.35 1.362v5.509zm-3.21-4.372a.561.561 0 000-1.121.561.561 0 000 1.121zm.99 1.991H3.34a.561.561 0 000 1.121h16.32a.561.561 0 000-1.121zm-5.25-9.691H8.59a.561.561 0 000 1.121h5.82a.561.561 0 000-1.121zm0 1.868H8.59a.56.56 0 000 1.12h5.82a.56.56 0 000-1.12z" fill="#afafaf" fill-rule="evenodd"/></svg>