<svg width="21" height="21" viewBox="0 0 21 21" fill="none" xmlns="http://www.w3.org/2000/svg">
<path fill-rule="evenodd" clip-rule="evenodd" d="M1.69229 0.591309H5.54571C6.15125 0.591309 6.64669 1.08675 6.64669 1.69229C6.64669 3.06851 6.86688 4.38968 7.27425 5.62278C7.39535 6.00812 7.30728 6.4375 6.999 6.74578L4.57685 9.16793C6.16226 12.2837 8.71653 14.827 11.8323 16.4234L14.2544 14.0012C14.4746 13.792 14.7499 13.6819 15.0361 13.6819C15.1462 13.6819 15.2673 13.6929 15.3774 13.737C16.6105 14.1444 17.9427 14.3645 19.3079 14.3645C19.9135 14.3645 20.4089 14.86 20.4089 15.4655V19.3079C20.4089 19.9135 19.9135 20.4089 19.3079 20.4089C8.96975 20.4089 0.591309 12.0305 0.591309 1.69229C0.591309 1.08675 1.08675 0.591309 1.69229 0.591309ZM4.48875 2.79324C4.55481 3.77311 4.71995 4.73096 4.98419 5.64477L3.66302 6.96595C3.21161 5.64477 2.92536 4.24653 2.82627 2.79324H4.48875ZM15.3443 16.027C16.2801 16.2912 17.238 16.4564 18.2068 16.5224V18.1629C16.7535 18.0638 15.3553 17.7776 14.0231 17.3372L15.3443 16.027Z" fill="#AFAFAF"/>
</svg>
