<svg width="24" height="25" viewBox="0 0 24 25" fill="none" xmlns="http://www.w3.org/2000/svg">
<path d="M12.2924 24.1798C14.6116 24.1798 17.0752 23.5932 18.2032 23.0067L17.4362 20.7146C16.5789 21.0394 14.5033 21.635 12.4459 21.635C6.47193 21.635 3.24131 18.4044 3.24131 12.5568C3.24131 7.10628 6.32754 3.30715 12.2203 3.30715C17.0301 3.30715 20.6126 6.03242 20.6036 11.1581C20.6126 14.885 20.0351 16.5635 18.5912 16.5635C17.8242 16.5635 17.373 15.9499 17.364 15.0565V6.46557H14.8463V7.47627H14.7199C14.4312 6.68215 12.6985 5.9512 10.7403 6.22192C8.22259 6.55581 5.80414 8.62233 5.80414 12.4846C5.80414 16.4642 7.96992 18.8015 10.9118 18.9368C12.9602 19.0361 14.5485 18.1247 14.9726 17.0508H15.0809C15.2975 18.4044 16.4886 19.1444 18.3115 19.0451C22.1918 18.9007 23.3018 15.4355 23.2928 11.3115C23.3018 5.38269 19.3132 0.798461 12.2834 0.798461C4.79345 0.798461 0.434826 5.40976 0.425802 12.5929C0.434826 19.9475 4.72126 24.1798 12.2924 24.1798ZM11.6608 16.3469C9.30548 16.3469 8.51136 14.4338 8.50234 12.3763C8.51136 10.3188 9.65742 8.81183 11.6788 8.81183C13.9258 8.81183 14.756 9.91277 14.765 12.3673C14.7921 15.0023 13.9439 16.3469 11.6608 16.3469Z" fill="#AFAFAF"/>
</svg>
