<svg width="19" height="20" viewBox="0 0 19 20" fill="none" xmlns="http://www.w3.org/2000/svg">
<path d="M9.49941 11.2282C12.6663 11.2282 19 12.9237 19 16.2572V20H0V16.2572C0 12.9237 6.33373 11.2282 9.50059 11.2282H9.49941ZM9.49941 0C12.1104 0 14.2213 2.28058 14.2213 5.02901C14.2213 7.77743 12.1104 9.99937 9.49941 9.99937C6.8884 9.99937 4.77756 7.77743 4.77756 5.02901C4.77756 2.28058 6.8884 0 9.49941 0ZM9.49941 13.6261C5.9995 13.6261 2.27678 15.4388 2.27678 16.2572V17.6021H16.722V16.2572C16.722 15.4388 12.9993 13.6261 9.49941 13.6261ZM9.49941 2.39785C8.11035 2.39785 6.99981 3.56809 6.99981 5.02901C6.99981 6.48993 8.11153 7.60277 9.49941 7.60277C10.8873 7.60277 11.999 6.49117 11.999 5.02901C11.999 3.56684 10.8873 2.39785 9.49941 2.39785Z" fill="#AFAFAF"/>
</svg>
