<svg width="20" height="20" fill="none" xmlns="http://www.w3.org/2000/svg"><path d="M17.584 4.135L13.677.229A.781.781 0 0013.125 0H2.969a.781.781 0 00-.781.781V19.22c0 .431.35.781.78.781h14.063c.432 0 .782-.35.782-.781V4.687a.781.781 0 00-.23-.552zM16.25 18.438H3.75V1.563h9.051L16.25 5.01v13.427z" fill="#222"/><path d="M9.219 4.297H5.313a.781.781 0 100 1.562h3.906a.781.781 0 100-1.562zm5.469 5.469H5.312a.781.781 0 000 1.562h9.375a.781.781 0 100-1.562zm0 2.734H5.312a.781.781 0 100 1.563h9.375a.781.781 0 000-1.563zm0 2.734H5.312a.781.781 0 100 1.563h9.375a.781.781 0 000-1.563z" fill="#222"/></svg>