<svg width="62" height="62" fill="none" xmlns="http://www.w3.org/2000/svg"><path fill-rule="evenodd" clip-rule="evenodd" d="M50.923 5.99h-5.577l-5.698 5.7-1.412-1.413 5.99-5.99a.994.994 0 01.706-.293h5.578l1.997-1.997h-2.582V0h4.992c.552 0 .999.446.999.998v4.993h-1.997V3.409l-2.29 2.29a.994.994 0 01-.706.292zm-7.695 21.262L31.538 38.94H26.96v-1.997h-.026a9.99 9.99 0 003.818-5.99h.202a3.998 3.998 0 003.994-3.995 3.957 3.957 0 00-.999-2.614v-3.377c0-7.157-5.823-12.98-12.98-12.98s-12.98 5.823-12.98 12.98v3.377a3.956 3.956 0 00-1 2.614 3.998 3.998 0 003.995 3.994h.201a9.991 9.991 0 003.819 5.991h-.026v1.997H9.985C4.48 38.941 0 43.421 0 48.926v11.982c0 .552.447.998.999.998h39.94a.998.998 0 00.998-.998V48.926c0-4.76-3.352-8.748-7.818-9.741l10.228-10.229h17.56V26.96H43.934a.994.994 0 00-.706.293zm-27.72 13.686l3.886 4.663-3.833 1.916-2.194-6.579h2.141zm5.281 10.983h.36l1.598 7.988h-3.556l1.598-7.988zm.561-1.997h-.763l-1.074-2.15 1.456-.727 1.455.728-1.074 2.15zm1.193-4.323l3.887-4.663h2.14l-2.194 6.58-3.833-1.917zm8.41-16.645v-3.994a2 2 0 011.998 1.997 1.999 1.999 0 01-1.997 1.997zM8.988 26.96a2 2 0 011.997-1.997v3.994a1.999 1.999 0 01-1.997-1.997zm1.997-3.994c-.347 0-.677.058-.999.142v-2.139c0-6.056 4.928-10.983 10.984-10.983s10.983 4.927 10.983 10.983v2.139a3.932 3.932 0 00-.998-.142.998.998 0 00-.999-.998 5.016 5.016 0 01-3.994-1.998l-1.198-1.598c-.376-.501-1.221-.501-1.598 0l-1.198 1.599a5.017 5.017 0 01-3.994 1.997h-5.99a.998.998 0 00-1 .998zm1.997 5.991v-4.992h4.992a7.024 7.024 0 005.592-2.796l.4-.533.399.532a7.026 7.026 0 004.593 2.724v5.065c0 4.405-3.584 7.988-7.988 7.988-4.405 0-7.988-3.584-7.988-7.988zm7.988 9.985c1.42 0 2.77-.303 3.994-.84v1.477l-3.994 4.793-3.994-4.793v-1.477a9.914 9.914 0 003.994.84zM1.997 48.926c0-4.404 3.584-7.988 7.988-7.988h1.278l2.768 8.303a1 1 0 001.393.579l2.302-1.152 1.197 2.396-1.768 8.845H7.987v-5.99H5.991v5.99H1.997V48.926zm37.943 0v10.983h-3.994v-5.99H33.95v5.99h-9.166l-1.77-8.845 1.198-2.396 2.301 1.152a1.009 1.009 0 00.83.029.993.993 0 00.564-.607l2.768-8.304h1.278c4.404 0 7.988 3.584 7.988 7.988zm19.97-25.96V8.985a.998.998 0 00-.999-.998h-3.994a.998.998 0 00-.998.998v13.98h-1.997v-7.989a.998.998 0 00-.999-.998H46.93a.998.998 0 00-.998.998v7.988h-1.997v-4.992a.998.998 0 00-.998-.999H38.94a.998.998 0 00-.998.999v4.992h-1.997v1.997h25.96v-1.997H59.91zM55.916 9.984h1.997v12.98h-1.997V9.985zm-7.988 5.99h1.997v6.99h-1.997v-6.99zM39.94 18.97h1.997v3.994H39.94V18.97z" fill="url(#paint0_linear)"/><defs><linearGradient id="paint0_linear" x1="-12.955" y1="11.504" x2="77.523" y2="-15.038" gradientUnits="userSpaceOnUse"><stop stop-color="#2C4FCA"/><stop offset="1" stop-color="#047FD8"/></linearGradient></defs></svg>