<svg width="68" height="64" fill="none" xmlns="http://www.w3.org/2000/svg"><path fill-rule="evenodd" clip-rule="evenodd" d="M7.116 27.168H1.087c-.6 0-1.086-.486-1.086-1.087v-6.52c0-.6.486-1.087 1.086-1.087h6.03c.356-1.285.87-2.522 1.53-3.681l-4.268-4.266a1.087 1.087 0 010-1.537l4.61-4.612a1.119 1.119 0 011.538 0l4.267 4.268a16.197 16.197 0 013.681-1.53v-6.03c0-.6.486-1.086 1.087-1.086h6.52c.6 0 1.087.487 1.087 1.087v6.029c1.285.357 2.521.87 3.68 1.53l4.268-4.268a1.087 1.087 0 011.537 0l4.61 4.612a1.087 1.087 0 010 1.537l-4.267 4.266a16.168 16.168 0 011.53 3.681h6.03c.6 0 1.086.487 1.086 1.087v6.52c0 .6-.486 1.087-1.087 1.087h-6.028a16.164 16.164 0 01-1.531 3.682l4.268 4.266a1.087 1.087 0 010 1.537l-4.611 4.612a1.119 1.119 0 01-1.537 0l-4.267-4.268a16.154 16.154 0 01-3.681 1.53v6.029c0 .6-.487 1.087-1.087 1.087h-6.52c-.6 0-1.087-.487-1.087-1.087v-6.029a16.154 16.154 0 01-3.68-1.53l-4.268 4.268a1.088 1.088 0 01-1.537 0l-4.61-4.612a1.087 1.087 0 010-1.537l4.267-4.266a16.161 16.161 0 01-1.53-3.682zm.85-6.52H2.174v4.347h5.792c.511 0 .953.354 1.062.853a13.986 13.986 0 001.904 4.58c.276.43.215.995-.147 1.357l-4.1 4.1 3.073 3.075 4.1-4.102a1.088 1.088 0 011.357-.147 13.97 13.97 0 004.578 1.904c.5.109.855.551.855 1.062v5.792h4.347v-5.792c0-.51.357-.953.856-1.062a13.97 13.97 0 004.578-1.904c.43-.276.995-.215 1.356.147l4.1 4.102 3.075-3.076-4.101-4.1a1.087 1.087 0 01-.147-1.356c.902-1.4 1.546-2.95 1.902-4.578.11-.499.552-.854 1.062-.854h5.794v-4.347h-5.794c-.51 0-.952-.356-1.062-.854-.356-1.628-1-3.18-1.902-4.58a1.087 1.087 0 01.147-1.357l4.1-4.1-3.073-3.075-4.1 4.101a1.087 1.087 0 01-1.357.148 14.003 14.003 0 00-4.58-1.904 1.088 1.088 0 01-.854-1.062V2.173h-4.347v5.793c0 .51-.355.952-.854 1.062a14.003 14.003 0 00-4.58 1.904c-.43.276-.994.215-1.356-.148l-4.1-4.1-3.074 3.074 4.101 4.101c.361.361.422.926.147 1.355a13.982 13.982 0 00-1.904 4.58c-.109.498-.55.854-1.062.854zm26.81 2.173c0 6.603-5.352 11.954-11.954 11.954-6.6-.007-11.946-5.355-11.954-11.954 0-6.602 5.352-11.954 11.954-11.954s11.954 5.352 11.954 11.954zm-2.174 0c0-5.401-4.378-9.78-9.78-9.78-5.4.006-9.775 4.382-9.78 9.78a9.78 9.78 0 009.78 9.78 9.78 9.78 0 009.78-9.78zM61.944 49.99v-8.693c0-.6-.486-1.087-1.087-1.087h-2.173v-8.694c0-.6-.487-1.087-1.087-1.087h-9.78c-.6 0-1.087.487-1.087 1.087v8.694h-5.434c-.6 0-1.087.487-1.087 1.087v8.694H5.434a5.44 5.44 0 00-5.433 5.433v2.174a5.44 5.44 0 005.433 5.433h56.51a5.44 5.44 0 005.434-5.433v-2.174a5.44 5.44 0 00-5.434-5.434zm-2.173 0h-7.607v-7.607h7.607v7.608zM48.903 32.602h7.608v7.607h-7.608v-7.607zm-6.52 9.78h7.607v7.608h-7.607v-7.608zm22.821 15.215c0 1.8-1.46 3.26-3.26 3.26H5.434a3.26 3.26 0 01-3.26-3.26v-2.174c0-1.8 1.46-3.26 3.26-3.26h56.51c1.8 0 3.26 1.46 3.26 3.26v2.174zM30.43 56.51a3.26 3.26 0 116.52 0 3.26 3.26 0 01-6.52 0zm2.173 0a1.087 1.087 0 102.174 0 1.087 1.087 0 00-2.174 0zm-20.647-3.26a3.26 3.26 0 100 6.52 3.26 3.26 0 000-6.52zm0 4.346a1.087 1.087 0 110-2.173 1.087 1.087 0 010 2.173zm40.209-1.086a3.26 3.26 0 116.52 0 3.26 3.26 0 01-6.52 0zm2.173 0a1.087 1.087 0 102.173 0 1.087 1.087 0 00-2.173 0z" fill="url(#paint0_linear)"/><defs><linearGradient id="paint0_linear" x1="-14.1" y1="11.713" x2="83.273" y2="-18.822" gradientUnits="userSpaceOnUse"><stop stop-color="#2C4FCA"/><stop offset="1" stop-color="#047FD8"/></linearGradient></defs></svg>