<svg width="61" height="67" fill="none" xmlns="http://www.w3.org/2000/svg"><mask id="a" fill="#fff"><path fill-rule="evenodd" clip-rule="evenodd" d="M59.823 11.036l-.089-.016A81.307 81.307 0 0131.138.193a1.309 1.309 0 00-1.372.002A80.366 80.366 0 011.35 10.989l-.266.047A1.308 1.308 0 000 12.325v17.129a38.54 38.54 0 008.48 24.072A38.54 38.54 0 0030.173 66.97a1.324 1.324 0 00.562 0 38.56 38.56 0 0021.693-13.455 38.562 38.562 0 008.478-24.079V12.325c0-.636-.456-1.18-1.083-1.289zm-1.534 18.4c0 16.587-11.688 31.223-27.836 34.914C14.306 60.667 2.618 46.038 2.618 29.454V13.42A82.946 82.946 0 0030.455 2.84 83.872 83.872 0 0058.29 13.418v16.018zM24.662 9.714a86.32 86.32 0 01-17.724 6.185 1.309 1.309 0 00-1.014 1.275v12.263c0 1.418.096 2.85.284 4.254a1.308 1.308 0 102.594-.347 29.5 29.5 0 01-.26-3.907v-11.23a88.936 88.936 0 0017.247-6.132 1.309 1.309 0 10-1.127-2.362zm27.703 7.46a1.309 1.309 0 012.617 0v12.263c0 6.246-1.82 12.349-5.267 17.647-3.399 5.226-8.16 9.35-13.77 11.926a1.31 1.31 0 01-1.092-2.378c10.638-4.886 17.512-15.56 17.512-27.195V17.173zm-4.362 16.57a3.452 3.452 0 00-.52-4.288l-1.36-1.339a.85.85 0 01-.252-.666l.137-1.914a3.449 3.449 0 00-2.458-3.566l-1.8-.543a.85.85 0 01-.536-.476l-.753-1.739a3.49 3.49 0 00-3.85-2.023l-1.827.358a.85.85 0 01-.698-.172L32.632 16.2a3.486 3.486 0 00-4.357 0l-1.454 1.175a.849.849 0 01-.698.172l-1.827-.358a3.488 3.488 0 00-3.85 2.023l-.754 1.74a.85.85 0 01-.535.475l-1.8.543a3.449 3.449 0 00-2.458 3.566l.136 1.914a.85.85 0 01-.251.666l-1.36 1.34a3.451 3.451 0 00-.52 4.287l1.006 1.634a.85.85 0 01.085.706l-.588 1.83a3.451 3.451 0 001.53 4.043l1.63.968a.85.85 0 01.404.588l.321 1.881a3.447 3.447 0 003.246 2.881l1.867.093a.85.85 0 01.635.335l1.138 1.497a3.485 3.485 0 004.228 1.043l1.688-.788a.849.849 0 01.72 0l1.686.788a3.487 3.487 0 004.229-1.044l1.137-1.496a.849.849 0 01.635-.335l1.867-.093a3.447 3.447 0 003.247-2.88l.32-1.882a.85.85 0 01.405-.588l1.63-.968a3.45 3.45 0 001.53-4.043l-.588-1.83a.85.85 0 01.085-.706l1.006-1.634zm-2.23-1.371l-1.005 1.634a3.465 3.465 0 00-.348 2.879l.589 1.829a.846.846 0 01-.376.992l-1.63.967a3.462 3.462 0 00-1.648 2.4l-.32 1.88a.846.846 0 01-.796.707l-1.867.093a3.46 3.46 0 00-2.59 1.365l-1.137 1.497a.855.855 0 01-1.037.256l-1.687-.788a3.46 3.46 0 00-2.935 0l-1.687.788a.856.856 0 01-1.037-.256l-1.138-1.497a3.46 3.46 0 00-2.589-1.365l-1.866-.093a.846.846 0 01-.797-.706l-.32-1.882a3.463 3.463 0 00-1.648-2.399l-1.63-.967a.846.846 0 01-.376-.992l.589-1.83a3.464 3.464 0 00-.348-2.878l-1.006-1.634a.847.847 0 01.128-1.052l1.36-1.34a3.463 3.463 0 001.025-2.716l-.136-1.913c-.029-.4.22-.76.603-.875l1.8-.543a3.46 3.46 0 002.18-1.94l.755-1.74a.857.857 0 01.944-.496l1.827.359a3.458 3.458 0 002.846-.705l1.454-1.174a.855.855 0 011.069 0l1.454 1.174a3.46 3.46 0 002.846.705l1.827-.359a.856.856 0 01.944.496l.754 1.74a3.461 3.461 0 002.18 1.94l1.801.543a.846.846 0 01.603.875l-.136 1.913a3.464 3.464 0 001.025 2.717l1.36 1.34a.844.844 0 01.128 1.05zm-13.696-5.067a1.308 1.308 0 112.28 1.286L27.32 41.055a1.308 1.308 0 11-2.279-1.286l7.036-12.464zm2.949 7.312a3.93 3.93 0 00-3.926 3.926 3.93 3.93 0 003.926 3.925 3.93 3.93 0 003.926-3.925 3.93 3.93 0 00-3.926-3.926zm0 5.234a1.31 1.31 0 01-1.309-1.308 1.31 1.31 0 011.309-1.309 1.31 1.31 0 011.308 1.309 1.31 1.31 0 01-1.308 1.308zm-13.07-11.394a3.93 3.93 0 013.925-3.926 3.93 3.93 0 013.926 3.926 3.93 3.93 0 01-3.926 3.926 3.93 3.93 0 01-3.926-3.926zm2.616 0a1.31 1.31 0 001.309 1.308 1.31 1.31 0 001.308-1.308 1.31 1.31 0 00-1.308-1.309 1.31 1.31 0 00-1.309 1.309z"/></mask><path fill-rule="evenodd" clip-rule="evenodd" d="M59.823 11.036l-.089-.016A81.307 81.307 0 0131.138.193a1.309 1.309 0 00-1.372.002A80.366 80.366 0 011.35 10.989l-.266.047A1.308 1.308 0 000 12.325v17.129a38.54 38.54 0 008.48 24.072A38.54 38.54 0 0030.173 66.97a1.324 1.324 0 00.562 0 38.56 38.56 0 0021.693-13.455 38.562 38.562 0 008.478-24.079V12.325c0-.636-.456-1.18-1.083-1.289zm-1.534 18.4c0 16.587-11.688 31.223-27.836 34.914C14.306 60.667 2.618 46.038 2.618 29.454V13.42A82.946 82.946 0 0030.455 2.84 83.872 83.872 0 0058.29 13.418v16.018zM24.662 9.714a86.32 86.32 0 01-17.724 6.185 1.309 1.309 0 00-1.014 1.275v12.263c0 1.418.096 2.85.284 4.254a1.308 1.308 0 102.594-.347 29.5 29.5 0 01-.26-3.907v-11.23a88.936 88.936 0 0017.247-6.132 1.309 1.309 0 10-1.127-2.362zm27.703 7.46a1.309 1.309 0 012.617 0v12.263c0 6.246-1.82 12.349-5.267 17.647-3.399 5.226-8.16 9.35-13.77 11.926a1.31 1.31 0 01-1.092-2.378c10.638-4.886 17.512-15.56 17.512-27.195V17.173zm-4.362 16.57a3.452 3.452 0 00-.52-4.288l-1.36-1.339a.85.85 0 01-.252-.666l.137-1.914a3.449 3.449 0 00-2.458-3.566l-1.8-.543a.85.85 0 01-.536-.476l-.753-1.739a3.49 3.49 0 00-3.85-2.023l-1.827.358a.85.85 0 01-.698-.172L32.632 16.2a3.486 3.486 0 00-4.357 0l-1.454 1.175a.849.849 0 01-.698.172l-1.827-.358a3.488 3.488 0 00-3.85 2.023l-.754 1.74a.85.85 0 01-.535.475l-1.8.543a3.449 3.449 0 00-2.458 3.566l.136 1.914a.85.85 0 01-.251.666l-1.36 1.34a3.451 3.451 0 00-.52 4.287l1.006 1.634a.85.85 0 01.085.706l-.588 1.83a3.451 3.451 0 001.53 4.043l1.63.968a.85.85 0 01.404.588l.321 1.881a3.447 3.447 0 003.246 2.881l1.867.093a.85.85 0 01.635.335l1.138 1.497a3.485 3.485 0 004.228 1.043l1.688-.788a.849.849 0 01.72 0l1.686.788a3.487 3.487 0 004.229-1.044l1.137-1.496a.849.849 0 01.635-.335l1.867-.093a3.447 3.447 0 003.247-2.88l.32-1.882a.85.85 0 01.405-.588l1.63-.968a3.45 3.45 0 001.53-4.043l-.588-1.83a.85.85 0 01.085-.706l1.006-1.634zm-2.23-1.371l-1.005 1.634a3.465 3.465 0 00-.348 2.879l.589 1.829a.846.846 0 01-.376.992l-1.63.967a3.462 3.462 0 00-1.648 2.4l-.32 1.88a.846.846 0 01-.796.707l-1.867.093a3.46 3.46 0 00-2.59 1.365l-1.137 1.497a.855.855 0 01-1.037.256l-1.687-.788a3.46 3.46 0 00-2.935 0l-1.687.788a.856.856 0 01-1.037-.256l-1.138-1.497a3.46 3.46 0 00-2.589-1.365l-1.866-.093a.846.846 0 01-.797-.706l-.32-1.882a3.463 3.463 0 00-1.648-2.399l-1.63-.967a.846.846 0 01-.376-.992l.589-1.83a3.464 3.464 0 00-.348-2.878l-1.006-1.634a.847.847 0 01.128-1.052l1.36-1.34a3.463 3.463 0 001.025-2.716l-.136-1.913c-.029-.4.22-.76.603-.875l1.8-.543a3.46 3.46 0 002.18-1.94l.755-1.74a.857.857 0 01.944-.496l1.827.359a3.458 3.458 0 002.846-.705l1.454-1.174a.855.855 0 011.069 0l1.454 1.174a3.46 3.46 0 002.846.705l1.827-.359a.856.856 0 01.944.496l.754 1.74a3.461 3.461 0 002.18 1.94l1.801.543a.846.846 0 01.603.875l-.136 1.913a3.464 3.464 0 001.025 2.717l1.36 1.34a.844.844 0 01.128 1.05zm-13.696-5.067a1.308 1.308 0 112.28 1.286L27.32 41.055a1.308 1.308 0 11-2.279-1.286l7.036-12.464zm2.949 7.312a3.93 3.93 0 00-3.926 3.926 3.93 3.93 0 003.926 3.925 3.93 3.93 0 003.926-3.925 3.93 3.93 0 00-3.926-3.926zm0 5.234a1.31 1.31 0 01-1.309-1.308 1.31 1.31 0 011.309-1.309 1.31 1.31 0 011.308 1.309 1.31 1.31 0 01-1.308 1.308zm-13.07-11.394a3.93 3.93 0 013.925-3.926 3.93 3.93 0 013.926 3.926 3.93 3.93 0 01-3.926 3.926 3.93 3.93 0 01-3.926-3.926zm2.616 0a1.31 1.31 0 001.309 1.308 1.31 1.31 0 001.308-1.308 1.31 1.31 0 00-1.308-1.309 1.31 1.31 0 00-1.309 1.309z" fill="url(#paint0_linear)"/><path d="M59.734 11.02l-.034.197.034-.197zm.09.016l.034-.197-.035.197zM31.137.193l.104-.17-.104.17zm-1.372.002l.106.17-.105-.17zM1.35 10.989l.035.197-.035-.197zm-.266.047l-.034-.197.034.197zm7.397 42.49l.155-.126-.155.126zM30.173 66.97l-.043.195.043-.195zm.562 0l.043.195-.043-.196zm21.693-13.455l-.156-.126.156.126zM30.453 64.35l-.044.195.044.01.045-.01-.045-.195zM2.618 13.42l-.037-.197-.163.03v.167h.2zM30.455 2.84l.103-.171-.103-.062-.103.062.103.171zM58.29 13.418h.2v-.166l-.163-.03-.037.196zm-51.35 2.48l.044.195-.045-.195zm17.723-6.185l-.086-.18.086.18zM6.208 33.69l.198-.026-.198.026zm1.47 1.123l-.026-.198.027.198zm1.124-1.47l-.198.026.198-.026zm-.26-15.136l-.048-.194-.153.037v.157h.2zm17.247-6.132l-.086-.18.086.18zm.618-1.745l.18-.086-.18.086zm23.308 36.753l.168.108-.168-.108zm-13.77 11.926l-.083-.182.083.182zm-1.735-.643l-.182.084.182-.084zm.643-1.735l-.084-.182.084.182zm12.63-27.176l-.14.143.14-.143zm.52 4.288l.17.105-.17-.105zm-1.88-5.627l.14-.142-.14.142zm-.252-.666l-.199-.014.2.014zm.137-1.914l.2.015-.2-.015zM43.55 21.97l.058-.191-.058.191zm-1.8-.543l.057-.191-.058.191zm-.536-.476l-.183.08.183-.08zm-.753-1.739l.183-.08-.183.08zm-3.85-2.023l-.038-.197.038.197zm-1.827.358l.038.197-.038-.197zm-.698-.172l-.126.155.126-.155zM32.632 16.2l.126-.155-.126.155zm-4.357 0l.126.156-.126-.156zm-1.454 1.175l-.126-.156.126.156zm-.698.172l-.039.197.039-.197zm-1.827-.358l-.039.196.039-.196zm-3.85 2.023l.184.08-.184-.08zm-.754 1.74l.184.079-.184-.08zm-.535.475l-.057-.191.057.191zm-1.8.543l.058.192-.058-.192zM14.9 25.536l-.2.015.2-.015zm.136 1.914l.2-.015-.2.015zm-.251.666l.14.142-.14-.142zm-1.36 1.34l.14.142-.14-.143zm-.52 4.287l.17-.105-.17.105zm1.006 1.634l-.17.105.17-.105zm.085.706l.19.061-.19-.06zm-.588 1.83l-.19-.061.19.06zm1.53 4.043l.103-.172-.102.172zm1.63.968l.102-.172-.102.172zm.404.588l.198-.034-.198.034zm.321 1.881l-.197.034.197-.034zm3.246 2.881l.01-.2-.01.2zm1.867.093l.01-.2-.01.2zm.635.335l.16-.121-.16.12zm1.138 1.497l.16-.121-.16.12zm4.228 1.043l-.084-.18.084.18zm1.688-.788l-.085-.18.084.18zm.72 0l.084-.18-.085.18zm1.686.788l-.084.181.084-.18zm4.229-1.044l-.16-.12.16.12zm1.137-1.496l-.159-.121.16.12zm.635-.335l.01.2-.01-.2zm1.867-.093l-.01-.2.01.2zm3.247-2.88l.197.033-.197-.034zm.32-1.882l-.197-.034.197.034zm.405-.588l.102.172-.102-.172zm1.63-.968l-.103-.172.102.172zm1.53-4.043l.19-.062-.19.062zm-.588-1.83l-.19.062.19-.062zm.085-.706l-.17-.105.17.105zm-2.229-1.371l-.17-.105.17.105zm1.006-1.634l-.17-.105.17.105zm-1.354 4.513l-.19.06.19-.06zm.589 1.829l-.19.061.19-.061zm-.376.992l-.102-.172.102.172zm-1.63.967l.102.172-.102-.172zm-1.648 2.4l-.197-.034.197.033zm-.32 1.88l.197.034-.197-.033zm-.796.707l-.01-.2.01.2zm-1.867.093l-.01-.2.01.2zm-2.59 1.365l.16.121-.16-.12zm-1.137 1.497l.16.121-.16-.12zm-1.037.256l-.085.182.085-.182zm-1.687-.788l.084-.18-.084.18zm-2.935 0l-.085-.18.085.18zm-1.687.788l.084.182-.084-.182zm-1.037-.256l-.16.121.16-.12zm-1.138-1.497l.159-.121-.16.12zm-2.589-1.365l-.01.2.01-.2zm-1.866-.093l.01-.2-.01.2zm-.797-.706l-.197.033.197-.033zm-.32-1.882l.197-.033-.197.033zm-1.648-2.399l.102-.172-.102.172zm-1.63-.967l.102-.172-.102.172zm-.376-.992l-.19-.061.19.061zm.589-1.83l.19.062-.19-.062zm-.348-2.878l.17-.105-.17.105zm-1.006-1.634l-.17.105.17-.105zm.128-1.052l-.14-.143.14.143zm1.36-1.34l.14.143-.14-.143zm1.025-2.716l-.2.014.2-.014zm-.136-1.913l-.2.014.2-.014zm.603-.875l.057.191-.057-.191zm1.8-.543l.058.192-.058-.192zm2.18-1.94l-.183-.08.183.08zm.755-1.74l-.184-.08.183.08zm.944-.496l-.039.196.039-.196zm1.827.359l.038-.197-.038.197zm2.846-.705l-.126-.156.126.156zm1.454-1.174l.126.155-.126-.155zm1.069 0l.125-.156-.125.156zm1.454 1.174l.126-.156-.126.156zm2.846.705l.039.196-.039-.196zm1.827-.359l.039.196-.039-.196zm.944.496l.184-.079-.184.08zm.754 1.74l-.184.079.184-.08zm2.18 1.94l.058-.191-.057.191zm1.801.543l.058-.192-.058.192zm.603.875l.2.014-.2-.014zm-.136 1.913l.2.014-.2-.014zm1.025 2.717l-.14.142.14-.142zm1.36 1.34l.14-.143-.14.142zM33.86 26.807l-.098.175.098-.175zm-1.783.497l-.174-.099.174.099zm2.28 1.286l.174.099-.175-.099zM27.32 41.055l-.174-.098.174.098zm-1.783.496l.099-.174-.099.174zm-.496-1.782l-.174-.099.174.099zM59.7 11.217l.089.016.069-.394-.09-.016-.068.394zM31.033.364A81.508 81.508 0 0059.7 11.217l.069-.394A81.107 81.107 0 0131.242.023l-.209.34zm-1.162 0a1.11 1.11 0 011.162 0l.21-.341a1.509 1.509 0 00-1.581.001l.21.34zM1.385 11.187A80.566 80.566 0 0029.872.365l-.21-.34A80.167 80.167 0 011.315 10.791l.069.394zm-.266.047l.266-.047-.07-.394-.265.047.069.394zM.2 12.325c0-.538.387-.999.918-1.092l-.07-.394A1.508 1.508 0 00-.2 12.325h.4zm0 17.129v-17.13h-.4v17.13h.4zM8.635 53.4A38.34 38.34 0 01.2 29.454h-.4A38.74 38.74 0 008.324 53.65l.311-.25zm21.58 13.374A38.34 38.34 0 018.636 53.4l-.311.251A38.74 38.74 0 0030.13 67.165l.085-.39zm.238.026c-.08 0-.159-.009-.238-.026l-.085.391c.107.023.215.035.323.035v-.4zm.239-.026a1.116 1.116 0 01-.239.026v.4c.11 0 .218-.012.325-.035l-.086-.39zm21.58-13.385a38.362 38.362 0 01-21.58 13.385l.086.39A38.762 38.762 0 0052.584 53.64l-.312-.25zm8.434-23.953a38.358 38.358 0 01-8.434 23.953l.312.251a38.762 38.762 0 008.522-24.204h-.4zm0-17.111v17.111h.4V12.325h-.4zm-.917-1.092c.53.093.917.553.917 1.092h.4c0-.733-.526-1.36-1.248-1.486l-.07.394zM30.498 64.545c16.238-3.712 27.991-18.43 27.991-35.109h-.4c0 16.493-11.624 31.049-27.68 34.72l.089.39zM2.418 29.454c0 16.677 11.753 31.387 27.99 35.091l.09-.39c-16.057-3.662-27.68-18.21-27.68-34.701h-.4zm0-16.034v16.034h.4V13.42h-.4zM30.352 2.669a82.747 82.747 0 01-27.77 10.554l.072.393A83.147 83.147 0 0030.56 3.011l-.207-.342zm27.974 10.552A83.67 83.67 0 0130.558 2.67l-.206.343a84.068 84.068 0 0027.9 10.602l.074-.393zm.163 16.215V13.418h-.4v16.018h.4zM6.983 16.093a86.52 86.52 0 0017.765-6.2l-.172-.36a86.116 86.116 0 01-17.682 6.17l.09.39zm-.859 1.08c0-.517.356-.964.86-1.08l-.09-.39a1.509 1.509 0 00-1.17 1.47h.4zm0 12.263V17.173h-.4v12.263h.4zm.282 4.228a31.944 31.944 0 01-.282-4.228h-.4c0 1.427.096 2.867.286 4.281l.396-.053zm1.097.961a1.108 1.108 0 01-1.097-.961l-.396.053a1.508 1.508 0 001.493 1.308v-.4zm.149-.01c-.05.007-.1.01-.149.01v.4c.067 0 .134-.004.203-.013l-.054-.397zm.952-1.246a1.108 1.108 0 01-.952 1.246l.053.397A1.509 1.509 0 009 33.316l-.396.053zm-.263-3.933c0 1.31.088 2.634.263 3.933L9 33.316a29.3 29.3 0 01-.259-3.88h-.4zm0-11.229v11.23h.4v-11.23h-.4zm17.362-6.313a88.742 88.742 0 01-17.21 6.12l.095.388a89.135 89.135 0 0017.287-6.147l-.172-.36zm.523-1.478c.264.553.03 1.215-.523 1.478l.172.361a1.509 1.509 0 00.712-2.01l-.361.171zm-1.478-.523a1.109 1.109 0 011.478.524l.361-.173a1.509 1.509 0 00-2.011-.712l.172.361zm28.926 5.771c-.833 0-1.509.675-1.509 1.509h.4c0-.613.497-1.109 1.109-1.109v-.4zm1.508 1.509c0-.833-.675-1.509-1.508-1.509v.4c.612 0 1.108.497 1.108 1.109h.4zm0 12.263V17.173h-.4v12.263h.4zm-5.299 17.755c3.467-5.33 5.3-11.47 5.3-17.755h-.4c0 6.207-1.81 12.272-5.235 17.537l.335.218zm-13.854 12c5.644-2.592 10.434-6.742 13.854-12l-.335-.218c-3.38 5.195-8.111 9.294-13.686 11.854l.167.364zm-.629.138c.211 0 .425-.045.629-.138l-.167-.364c-.15.07-.307.102-.462.102v.4zm-1.372-.88c.255.554.801.88 1.372.88v-.4c-.42 0-.822-.24-1.008-.646l-.364.167zm.742-2a1.509 1.509 0 00-.742 2l.364-.166a1.109 1.109 0 01.544-1.47l-.166-.364zm17.395-27.013c0 11.556-6.828 22.16-17.395 27.013l.166.364c10.71-4.919 17.63-15.664 17.63-27.377h-.4zm0-12.263v12.263h.4V17.173h-.4zm-4.823 12.425a3.252 3.252 0 01.49 4.04l.341.21c.9-1.463.674-3.33-.55-4.535l-.28.285zm-1.36-1.34l1.36 1.34.281-.285-1.36-1.34-.28.286zm-.31-.822a1.05 1.05 0 00.31.823l.281-.285a.649.649 0 01-.192-.51l-.4-.028zm.136-1.914l-.136 1.914.399.028.136-1.913-.399-.029zm-2.316-3.36a3.249 3.249 0 012.316 3.36l.4.029a3.65 3.65 0 00-2.6-3.772l-.116.383zm-1.8-.543l1.8.543.116-.383-1.801-.543-.116.383zm-.661-.588c.123.284.364.498.66.588l.116-.383a.65.65 0 01-.41-.364l-.366.159zm-.754-1.74l.754 1.74.367-.16-.754-1.738-.367.159zm-3.627-1.906a3.29 3.29 0 013.627 1.907l.367-.16a3.69 3.69 0 00-4.071-2.14l.077.393zm-1.828.359l1.828-.359-.078-.393-1.827.36.078.392zm-.862-.214c.243.196.558.273.862.214l-.077-.393a.65.65 0 01-.533-.132l-.252.311zm-1.454-1.174l1.454 1.174.252-.311-1.455-1.174-.25.311zm-4.105 0a3.287 3.287 0 014.105 0l.252-.311a3.686 3.686 0 00-4.609 0l.252.311zm-1.455 1.174l1.455-1.174-.252-.311-1.454 1.174.251.311zm-.862.214c.305.06.62-.018.862-.214l-.251-.311a.65.65 0 01-.534.132l-.077.393zm-1.827-.359l1.827.359.077-.393-1.827-.358-.077.392zm-3.627 1.907a3.288 3.288 0 013.627-1.907l.077-.392c-1.68-.33-3.39.57-4.071 2.14l.367.159zm-.754 1.739l.754-1.74-.367-.159-.754 1.74.367.159zm-.661.588a1.05 1.05 0 00.66-.588l-.366-.16a.65.65 0 01-.41.365l.116.383zm-1.8.543l1.8-.543-.116-.383-1.8.543.116.383zm-2.316 3.36a3.249 3.249 0 012.316-3.36l-.116-.383a3.649 3.649 0 00-2.6 3.772l.4-.029zm.136 1.913l-.136-1.913-.4.029.137 1.913.399-.029zm-.31.823a1.05 1.05 0 00.31-.823l-.4.029a.65.65 0 01-.192.51l.281.284zm-1.36 1.34l1.36-1.34-.282-.285-1.36 1.34.281.285zm-.49 4.04a3.252 3.252 0 01.49-4.04l-.281-.285a3.652 3.652 0 00-.55 4.535l.34-.21zm1.005 1.634l-1.005-1.634-.341.21 1.005 1.634.34-.21zm.105.872a1.05 1.05 0 00-.105-.872l-.34.21a.65.65 0 01.065.54l.38.122zm-.588 1.83l.588-1.83-.38-.122-.589 1.83.38.122zm1.443 3.81a3.251 3.251 0 01-1.443-3.81l-.38-.122a3.651 3.651 0 001.618 4.276l.205-.344zm1.63.968l-1.63-.968-.204.344 1.63.968.203-.344zm.499.726a1.05 1.05 0 00-.5-.726l-.204.343a.65.65 0 01.31.45l.394-.067zm.32 1.882l-.32-1.882-.395.068.321 1.88.394-.066zm3.06 2.714a3.247 3.247 0 01-3.06-2.714l-.394.067a3.647 3.647 0 003.434 3.047l.02-.4zm1.866.093l-1.867-.093-.02.4 1.867.093.02-.4zm.784.414a1.05 1.05 0 00-.784-.414l-.02.4a.65.65 0 01.486.256l.318-.242zm1.138 1.497L23.2 48.58l-.318.242 1.138 1.497.318-.242zm2.614 1.287a3.285 3.285 0 01-2.614-1.287l-.318.242a3.685 3.685 0 002.932 1.445v-.4zm1.37-.304a3.23 3.23 0 01-1.37.304v.4a3.63 3.63 0 001.54-.342l-.17-.362zm1.688-.788l-1.688.788.17.362 1.687-.787-.17-.363zm.889 0a1.049 1.049 0 00-.89 0l.17.363a.65.65 0 01.55 0l.17-.363zm1.687.788l-1.687-.788-.17.363 1.688.787.169-.362zm3.984-.984a3.287 3.287 0 01-3.984.984l-.17.362a3.687 3.687 0 004.473-1.104l-.319-.242zm1.138-1.496l-1.138 1.496.319.242 1.138-1.497-.319-.242zm.784-.414a1.05 1.05 0 00-.784.413l.319.243a.649.649 0 01.485-.257l-.02-.4zm1.867-.093l-1.867.093.02.4 1.867-.093-.02-.4zm3.06-2.715a3.247 3.247 0 01-3.06 2.715l.02.4a3.647 3.647 0 003.434-3.047l-.395-.068zm.32-1.88l-.32 1.88.394.068.32-1.881-.394-.068zm.5-.727a1.05 1.05 0 00-.5.726l.394.068a.649.649 0 01.31-.45l-.205-.344zm1.63-.968l-1.63.968.204.343 1.63-.967-.205-.344zm1.442-3.81a3.25 3.25 0 01-1.443 3.81l.204.344a3.65 3.65 0 001.62-4.277l-.381.123zm-.589-1.83l.589 1.83.38-.123-.588-1.829-.38.123zm.106-.872c-.161.262-.2.58-.105.873l.38-.123a.65.65 0 01.065-.54l-.34-.21zm1.005-1.634l-1.005 1.634.34.21 1.006-1.634-.34-.21zm-2.894.473l1.006-1.634-.34-.21-1.006 1.634.34.21zm-.327 2.713a3.264 3.264 0 01.327-2.713l-.34-.21a3.665 3.665 0 00-.368 3.045l.38-.122zm.588 1.829l-.588-1.83-.381.123.588 1.83.381-.123zm-.464 1.225c.424-.252.615-.756.464-1.225l-.38.122a.646.646 0 01-.288.759l.204.344zm-1.63.967l1.63-.967-.204-.344-1.63.968.204.343zm-1.552 2.261a3.262 3.262 0 011.553-2.26l-.205-.344a3.662 3.662 0 00-1.743 2.537l.395.067zm-.321 1.881l.32-1.88-.394-.068-.32 1.881.394.067zm-.984.873c.495-.025.9-.384.984-.873l-.394-.067a.646.646 0 01-.61.54l.02.4zm-1.867.093l1.867-.093-.02-.4-1.866.093.02.4zm-2.44 1.286a3.26 3.26 0 012.44-1.286l-.02-.4a3.661 3.661 0 00-2.738 1.444l.319.242zm-1.137 1.497l1.138-1.497-.319-.242-1.137 1.497.318.242zm-1.28.317c.445.208.983.075 1.28-.317l-.318-.242a.655.655 0 01-.793.196l-.17.363zm-1.688-.788l1.687.788.17-.363-1.688-.788-.169.363zm-2.765 0a3.259 3.259 0 012.765 0l.17-.363a3.659 3.659 0 00-3.105 0l.17.363zm-1.688.788l1.688-.788-.17-.363-1.687.788.17.363zm-1.28-.317c.297.392.834.525 1.28.317l-.169-.363a.656.656 0 01-.793-.196l-.318.242zm-1.139-1.497l1.139 1.497.318-.242-1.138-1.497-.319.242zm-2.439-1.286a3.26 3.26 0 012.44 1.286l.318-.242a3.66 3.66 0 00-2.738-1.444l-.02.4zm-1.866-.093l1.866.093.02-.4-1.867-.093-.02.4zm-.984-.873c.084.489.489.848.983.873l.02-.4a.646.646 0 01-.609-.54l-.394.067zm-.32-1.881l.32 1.881.394-.067-.32-1.881-.395.067zm-1.554-2.26a3.262 3.262 0 011.553 2.26l.395-.067a3.662 3.662 0 00-1.743-2.538l-.205.344zm-1.63-.968l1.63.967.205-.344-1.63-.967-.204.344zm-.463-1.225c-.151.469.04.973.464 1.225l.204-.344a.647.647 0 01-.287-.759l-.381-.122zm.588-1.83l-.588 1.83.38.122.59-1.83-.382-.122zm-.328-2.713c.501.815.62 1.803.328 2.713l.381.123a3.664 3.664 0 00-.368-3.045l-.34.21zm-1.005-1.633l1.005 1.634.341-.21-1.005-1.634-.341.21zm.158-1.3c-.35.346-.416.88-.158 1.3l.34-.21a.647.647 0 01.098-.805l-.28-.285zm1.36-1.339l-1.36 1.34.28.284 1.36-1.339-.28-.285zm.965-2.56a3.263 3.263 0 01-.966 2.56l.281.285a3.663 3.663 0 001.085-2.873l-.4.028zm-.136-1.913l.137 1.913.399-.028-.137-1.913-.399.028zm.745-1.08c-.473.142-.78.587-.745 1.08l.4-.028a.646.646 0 01.46-.67l-.115-.383zm1.8-.543l-1.8.542.115.383 1.8-.542-.115-.383zm2.055-1.83a3.261 3.261 0 01-2.055 1.83l.116.383a3.661 3.661 0 002.306-2.053l-.367-.16zm.754-1.738l-.754 1.739.367.16.754-1.74-.367-.16zm.966-.633c-.41 0-.798.244-.966.633l.367.159a.657.657 0 01.6-.392v-.4zm.2.02a1.041 1.041 0 00-.2-.02v.4a.64.64 0 01.123.012l.077-.392zm1.827.358l-1.827-.358-.077.392 1.827.359.077-.393zm2.682-.664c-.754.61-1.73.851-2.682.664l-.077.393a3.657 3.657 0 003.01-.745l-.25-.312zm1.455-1.174l-1.455 1.174.251.312 1.455-1.175-.252-.31zm1.32 0a1.055 1.055 0 00-1.32 0l.25.311a.655.655 0 01.818 0l.252-.31zm1.454 1.174l-1.454-1.174-.252.311 1.454 1.175.252-.312zm2.682.664a3.26 3.26 0 01-2.682-.664l-.252.312a3.66 3.66 0 003.01.745l-.076-.393zm1.827-.358l-1.827.358.077.393 1.827-.359-.077-.392zm1.166.613a1.056 1.056 0 00-1.166-.613l.077.392a.656.656 0 01.722.38l.367-.16zm.753 1.739l-.753-1.739-.367.159.754 1.739.366-.16zm2.055 1.829a3.261 3.261 0 01-2.055-1.83l-.367.16a3.661 3.661 0 002.307 2.053l.115-.383zm1.801.542l-1.8-.542-.116.383 1.8.542.116-.383zm.745 1.08a1.046 1.046 0 00-.745-1.08l-.115.383a.646.646 0 01.46.67l.4.028zm-.137 1.914l.137-1.913-.4-.028-.136 1.913.4.028zm.967 2.56a3.263 3.263 0 01-.967-2.56l-.399-.028a3.663 3.663 0 001.085 2.873l.28-.285zm1.36 1.34l-1.36-1.34-.281.285 1.36 1.34.28-.285zm.157 1.299a1.047 1.047 0 00-.158-1.3l-.28.286a.647.647 0 01.097.804l.341.21zm-11.986-5.843a1.508 1.508 0 00-2.055.572l.349.197a1.108 1.108 0 011.51-.42l.197-.349zm.573 2.056a1.508 1.508 0 00-.572-2.056l-.197.349c.533.3.721.977.42 1.51l.349.197zm-7.037 12.463l7.037-12.463-.349-.197-7.036 12.464.348.196zm-1.314.768c.525 0 1.037-.276 1.314-.768l-.348-.196c-.204.36-.58.564-.966.564v.4zm-.741-.196c.234.133.489.196.74.196v-.4c-.184 0-.37-.047-.543-.144l-.197.348zm-.572-2.055a1.509 1.509 0 00.572 2.055l.197-.348a1.108 1.108 0 01-.42-1.51l-.349-.197zm7.036-12.464L24.867 39.67l.348.197 7.037-12.464-.349-.197zM31.3 38.543a3.73 3.73 0 013.726-3.726v-.4a4.13 4.13 0 00-4.126 4.126h.4zm3.726 3.726a3.73 3.73 0 01-3.726-3.726h-.4a4.13 4.13 0 004.126 4.126v-.4zm3.726-3.726a3.73 3.73 0 01-3.726 3.726v.4a4.13 4.13 0 004.126-4.126h-.4zm-3.726-3.726a3.73 3.73 0 013.726 3.726h.4a4.13 4.13 0 00-4.126-4.126v.4zm-1.509 3.726a1.51 1.51 0 001.509 1.508v-.4a1.11 1.11 0 01-1.109-1.108h-.4zm1.509-1.509a1.51 1.51 0 00-1.509 1.509h.4a1.11 1.11 0 011.109-1.109v-.4zm1.508 1.509a1.51 1.51 0 00-1.508-1.509v.4a1.11 1.11 0 011.108 1.109h.4zm-1.508 1.508a1.51 1.51 0 001.508-1.508h-.4a1.11 1.11 0 01-1.108 1.108v.4zm-9.145-15.72a4.13 4.13 0 00-4.126 4.126h.4a3.73 3.73 0 013.726-3.726v-.4zm4.126 4.126a4.13 4.13 0 00-4.126-4.126v.4a3.73 3.73 0 013.726 3.726h.4zm-4.126 4.126a4.13 4.13 0 004.126-4.126h-.4a3.73 3.73 0 01-3.726 3.726v.4zm-4.126-4.126a4.13 4.13 0 004.126 4.126v-.4a3.73 3.73 0 01-3.726-3.726h-.4zm4.126 1.108a1.11 1.11 0 01-1.109-1.108h-.4a1.51 1.51 0 001.509 1.508v-.4zm1.108-1.108a1.11 1.11 0 01-1.108 1.108v.4a1.51 1.51 0 001.509-1.508h-.4zm-1.108-1.109a1.11 1.11 0 011.108 1.109h.4a1.51 1.51 0 00-1.508-1.509v.4zm-1.109 1.109a1.11 1.11 0 011.109-1.109v-.4a1.51 1.51 0 00-1.509 1.509h.4z" fill="#fff" mask="url(#a)"/><defs><linearGradient id="paint0_linear" x1="-12.745" y1="12.451" x2="77.512" y2="-11.619" gradientUnits="userSpaceOnUse"><stop stop-color="#2C4FCA"/><stop offset="1" stop-color="#047FD8"/></linearGradient></defs></svg>