<svg width="59" height="69" fill="none" xmlns="http://www.w3.org/2000/svg"><mask id="a" maskUnits="userSpaceOnUse" x="-.402" y="0" width="60" height="69" fill="#000"><path fill="#fff" d="M-.402 0h60v69h-60z"/><path fill-rule="evenodd" clip-rule="evenodd" d="M8.95 52.574l-1.068 1.068a4.263 4.263 0 01-6.034 0 4.264 4.264 0 010-6.034l5.307-5.307a24.808 24.808 0 01-4.557-14.357 24.95 24.95 0 0112.239-21.47c1.71-1.076 3.767-1.827 4.14-1.964l.005-.002a24.869 24.869 0 018.563-1.51 24.888 24.888 0 0114.364 4.55l5.3-5.3a4.271 4.271 0 016.033 0 4.271 4.271 0 010 6.033L52.173 9.35c4.078 5.373 6.23 11.783 6.23 18.595 0 8.245-3.21 15.996-9.04 21.824a30.793 30.793 0 01-10.354 6.842 7.534 7.534 0 013.81 6.574v.357c0 2.458-2 4.458-4.459 4.458H16.73c-2.459 0-4.46-2-4.46-4.458v-.357a7.534 7.534 0 013.8-6.568 30.572 30.572 0 01-7.12-4.043zm8.826-45.442c-3.275 1.368-5.666 3.59-7.38 5.51.063.155.112.349.168.566.19.743.452 1.761 1.571 2.441l3.578 2.171c.555.338 1.01.408 1.696.513.294.045.63.096 1.034.178 2.848.488 4.03 4.12 1.684 5.321-.907.484-1.497.775-1.883.966-.626.309-.718.354-.764.53-1.176 4.542-1.234 4.648-1.223 4.747l.003.023a.36.36 0 00.665.143l.558-.906c.755-1.223 2.355-1.428 3.395-.623.384.297.402.329 1.616 2.431.334.58.76 1.319 1.31 2.264l.009.015.018.029c.088.126.313.156 3.58 1.236a3.231 3.231 0 011.939 4.394 3.94 3.94 0 01-.404.678c-.059.085-.122.175-.19.279a1.275 1.275 0 00.123 1.58l1.173 1.251a3.22 3.22 0 01.874 2.21c-.009.048-.006.139-.002.262.02.634.07 2.123-1.357 3.134a1.27 1.27 0 00-.434 1.514l.353.857c3.687-.295 8.106-1.394 11.824-4.563a.414.414 0 01.092-.048l.538-.418c.399-.308.718-.556.882-.701a22.993 22.993 0 005.072-6.48c-3.855-2.956-4.012-3.105-4.196-3.208l-.047-.025c-.44-.223-.753-.394-.994-.526-.48-.263-.674-.37-1.021-.412-.22-.027-.487-.02-.784-.013-.986.026-2.316.06-3.467-1.11a1.747 1.747 0 00-1.686-.467l-2.467.642a2.397 2.397 0 01-2.008-.378L29.46 31.86a2.394 2.394 0 01-.511-3.375c.6-.833 1.06-1.43 1.414-1.89.77-1 1.05-1.364 1.216-2.13.052-.241.098-.471.143-.693.278-1.367.489-2.408 1.508-3.52 1.8-1.96 4.068-1.743 4.738-1.679.093.01.155.015.181.012a1.359 1.359 0 001.292-.712c.197-.348.358-.66.504-.94.492-.947.802-1.545 1.67-2.038a2.989 2.989 0 011.255-.406c.262-.033.487-.061.746-.227.31-.197.433-.427.663-.856.107-.2.238-.444.422-.748A22.927 22.927 0 0027.546 4.96a22.91 22.91 0 00-7.89 1.392 20.71 20.71 0 00-.517.214c-.341.144-.82.345-1.363.566zm21.379 42.894a24.899 24.899 0 01-11.61 2.865c-5.19 0-10.144-1.567-14.364-4.55l-2.831 2.832c5.098 3.796 11.063 5.667 17.195 5.667 7.695 0 14.967-2.999 20.43-8.46 5.459-5.457 8.465-12.715 8.465-20.436 0-6.287-1.955-12.208-5.667-17.194l-2.831 2.831a24.73 24.73 0 014.55 14.363c0 7.42-3.24 14.075-8.365 18.638-.216.192-1.547 1.256-2.802 2.152a.966.966 0 01-.072.053l-.018.012c-.89.631-1.727 1.166-2.08 1.227zm9.442-46.39L43.48 8.752a.22.22 0 01.009.007l.003.003a25.453 25.453 0 013.157 3.14l.048.059.04.049 5.117-5.117a2.306 2.306 0 000-3.257 2.306 2.306 0 00-3.257 0zm-3.78 30.18c.513.327.96.76 3.934 3.004a22.84 22.84 0 001.777-8.875c0-5.01-1.642-9.794-4.494-13.65l-.255.452a3.321 3.321 0 01-2.628 1.682 1.35 1.35 0 00-1.087.71l-.892 1.663a3.325 3.325 0 01-3.162 1.741 1.262 1.262 0 01-.2-.013c-.548-.055-1.987-.2-3.132 1.048-.69.754-.843 1.581-1.008 2.472-.167.906-.347 1.877-1.117 2.9a135.928 135.928 0 01-1.626 2.169c-.488.638-.494.647-.492.806.002.233.08.288.706.73.284.2.68.481 1.234.894.105.076.237.1.364.068l1.953-.508c.612-.16.617-.161.74-.185a3.729 3.729 0 013.352 1.042c.554.563 1.212.545 1.967.525.719-.02 1.525-.041 2.414.432.99.528 1.333.69 1.652.893zM38.36 66.037a2.498 2.498 0 002.496-2.495v-.357a5.573 5.573 0 00-4.86-5.548 31.116 31.116 0 01-8.45 1.167 31.13 31.13 0 01-8.474-1.164 5.572 5.572 0 00-4.838 5.545v.357a2.498 2.498 0 002.495 2.495H38.36zm-25.795-47.83c-2.083-1.225-3.065-1.803-3.669-3.698a22.994 22.994 0 00-4.335 13.435c0 12.485 10.083 22.895 22.835 22.983a2.07 2.07 0 00-.037-.09 3.237 3.237 0 011.07-3.96c.34-.242.534-.63.534-1.034a3.486 3.486 0 01-.003-.412c.014-.404.027-.827-.34-1.219a67.282 67.282 0 00-.672-.716c-.622-.655-.877-.924-1.11-1.457a3.209 3.209 0 01.297-3.107 1.56 1.56 0 01.137-.204c.216-.292.547-.74.33-1.38-.13-.38-.422-.67-.804-.795l-3.407-1.119a2.32 2.32 0 01-1.284-1.04l-2.336-4.02a.358.358 0 00-.617-.008l-.56.907c-1.381 2.235-4.898.79-4.224-1.805.492-1.857.781-2.983.962-3.685.294-1.142.301-1.169.42-1.405a2.327 2.327 0 011.012-1.022c2.404-1.243 2.48-1.266 2.535-1.315l.013-.012a.358.358 0 00.105-.337 1.61 1.61 0 00-1.305-1.246c-.25-.043-.48-.08-.7-.114-1.067-.169-1.82-.288-2.718-.833-.816-.52-1.52-.933-2.13-1.292zM8.352 43.88l-5.116 5.116a2.302 2.302 0 103.257 3.257l5.117-5.116a25.072 25.072 0 01-3.258-3.257z"/></mask><path fill-rule="evenodd" clip-rule="evenodd" d="M8.95 52.574l-1.068 1.068a4.263 4.263 0 01-6.034 0 4.264 4.264 0 010-6.034l5.307-5.307a24.808 24.808 0 01-4.557-14.357 24.95 24.95 0 0112.239-21.47c1.71-1.076 3.767-1.827 4.14-1.964l.005-.002a24.869 24.869 0 018.563-1.51 24.888 24.888 0 0114.364 4.55l5.3-5.3a4.271 4.271 0 016.033 0 4.271 4.271 0 010 6.033L52.173 9.35c4.078 5.373 6.23 11.783 6.23 18.595 0 8.245-3.21 15.996-9.04 21.824a30.793 30.793 0 01-10.354 6.842 7.534 7.534 0 013.81 6.574v.357c0 2.458-2 4.458-4.459 4.458H16.73c-2.459 0-4.46-2-4.46-4.458v-.357a7.534 7.534 0 013.8-6.568 30.572 30.572 0 01-7.12-4.043zm8.826-45.442c-3.275 1.368-5.666 3.59-7.38 5.51.063.155.112.349.168.566.19.743.452 1.761 1.571 2.441l3.578 2.171c.555.338 1.01.408 1.696.513.294.045.63.096 1.034.178 2.848.488 4.03 4.12 1.684 5.321-.907.484-1.497.775-1.883.966-.626.309-.718.354-.764.53-1.176 4.542-1.234 4.648-1.223 4.747l.003.023a.36.36 0 00.665.143l.558-.906c.755-1.223 2.355-1.428 3.395-.623.384.297.402.329 1.616 2.431.334.58.76 1.319 1.31 2.264l.009.015.018.029c.088.126.313.156 3.58 1.236a3.231 3.231 0 011.939 4.394 3.94 3.94 0 01-.404.678c-.059.085-.122.175-.19.279a1.275 1.275 0 00.123 1.58l1.173 1.251a3.22 3.22 0 01.874 2.21c-.009.048-.006.139-.002.262.02.634.07 2.123-1.357 3.134a1.27 1.27 0 00-.434 1.514l.353.857c3.687-.295 8.106-1.394 11.824-4.563a.414.414 0 01.092-.048l.538-.418c.399-.308.718-.556.882-.701a22.993 22.993 0 005.072-6.48c-3.855-2.956-4.012-3.105-4.196-3.208l-.047-.025c-.44-.223-.753-.394-.994-.526-.48-.263-.674-.37-1.021-.412-.22-.027-.487-.02-.784-.013-.986.026-2.316.06-3.467-1.11a1.747 1.747 0 00-1.686-.467l-2.467.642a2.397 2.397 0 01-2.008-.378L29.46 31.86a2.394 2.394 0 01-.511-3.375c.6-.833 1.06-1.43 1.414-1.89.77-1 1.05-1.364 1.216-2.13.052-.241.098-.471.143-.693.278-1.367.489-2.408 1.508-3.52 1.8-1.96 4.068-1.743 4.738-1.679.093.01.155.015.181.012a1.359 1.359 0 001.292-.712c.197-.348.358-.66.504-.94.492-.947.802-1.545 1.67-2.038a2.989 2.989 0 011.255-.406c.262-.033.487-.061.746-.227.31-.197.433-.427.663-.856.107-.2.238-.444.422-.748A22.927 22.927 0 0027.546 4.96a22.91 22.91 0 00-7.89 1.392 20.71 20.71 0 00-.517.214c-.341.144-.82.345-1.363.566zm21.379 42.894a24.899 24.899 0 01-11.61 2.865c-5.19 0-10.144-1.567-14.364-4.55l-2.831 2.832c5.098 3.796 11.063 5.667 17.195 5.667 7.695 0 14.967-2.999 20.43-8.46 5.459-5.457 8.465-12.715 8.465-20.436 0-6.287-1.955-12.208-5.667-17.194l-2.831 2.831a24.73 24.73 0 014.55 14.363c0 7.42-3.24 14.075-8.365 18.638-.216.192-1.547 1.256-2.802 2.152a.966.966 0 01-.072.053l-.018.012c-.89.631-1.727 1.166-2.08 1.227zm9.442-46.39L43.48 8.752a.22.22 0 01.009.007l.003.003a25.453 25.453 0 013.157 3.14l.048.059.04.049 5.117-5.117a2.306 2.306 0 000-3.257 2.306 2.306 0 00-3.257 0zm-3.78 30.18c.513.327.96.76 3.934 3.004a22.84 22.84 0 001.777-8.875c0-5.01-1.642-9.794-4.494-13.65l-.255.452a3.321 3.321 0 01-2.628 1.682 1.35 1.35 0 00-1.087.71l-.892 1.663a3.325 3.325 0 01-3.162 1.741 1.262 1.262 0 01-.2-.013c-.548-.055-1.987-.2-3.132 1.048-.69.754-.843 1.581-1.008 2.472-.167.906-.347 1.877-1.117 2.9a135.928 135.928 0 01-1.626 2.169c-.488.638-.494.647-.492.806.002.233.08.288.706.73.284.2.68.481 1.234.894.105.076.237.1.364.068l1.953-.508c.612-.16.617-.161.74-.185a3.729 3.729 0 013.352 1.042c.554.563 1.212.545 1.967.525.719-.02 1.525-.041 2.414.432.99.528 1.333.69 1.652.893zM38.36 66.037a2.498 2.498 0 002.496-2.495v-.357a5.573 5.573 0 00-4.86-5.548 31.116 31.116 0 01-8.45 1.167 31.13 31.13 0 01-8.474-1.164 5.572 5.572 0 00-4.838 5.545v.357a2.498 2.498 0 002.495 2.495H38.36zm-25.795-47.83c-2.083-1.225-3.065-1.803-3.669-3.698a22.994 22.994 0 00-4.335 13.435c0 12.485 10.083 22.895 22.835 22.983a2.07 2.07 0 00-.037-.09 3.237 3.237 0 011.07-3.96c.34-.242.534-.63.534-1.034a3.486 3.486 0 01-.003-.412c.014-.404.027-.827-.34-1.219a67.282 67.282 0 00-.672-.716c-.622-.655-.877-.924-1.11-1.457a3.209 3.209 0 01.297-3.107 1.56 1.56 0 01.137-.204c.216-.292.547-.74.33-1.38-.13-.38-.422-.67-.804-.795l-3.407-1.119a2.32 2.32 0 01-1.284-1.04l-2.336-4.02a.358.358 0 00-.617-.008l-.56.907c-1.381 2.235-4.898.79-4.224-1.805.492-1.857.781-2.983.962-3.685.294-1.142.301-1.169.42-1.405a2.327 2.327 0 011.012-1.022c2.404-1.243 2.48-1.266 2.535-1.315l.013-.012a.358.358 0 00.105-.337 1.61 1.61 0 00-1.305-1.246c-.25-.043-.48-.08-.7-.114-1.067-.169-1.82-.288-2.718-.833-.816-.52-1.52-.933-2.13-1.292zM8.352 43.88l-5.116 5.116a2.302 2.302 0 103.257 3.257l5.117-5.116a25.072 25.072 0 01-3.258-3.257z" fill="url(#paint0_linear)"/><path d="M7.881 53.642l-.212-.213.213.212zm1.068-1.068l.182-.24-.209-.157-.185.185.212.212zm-7.1 1.067l.212-.212-.213.212zm0-6.033l.211.212-.212-.212zm5.306-5.307l.212.212.179-.178-.146-.207-.245.173zm1.39-30.522l.228.195.004-.005-.232-.19zm.005-.007l.24.18-.24-.18zm.006-.008l-.228-.195-.001.001.23.194zm6.28-5.29l.154.259.006-.004-.16-.254zm4.14-1.964l.104.282-.103-.282zm.006-.002l-.102-.282.102.282zm22.927 3.04l-.173.245.207.145.178-.178-.212-.212zm5.3-5.3l-.212-.213.212.213zm6.033 0l.213-.213-.213.213zm0 6.033l.213.212-.213-.212zM52.173 9.35l-.212-.212-.185.185.158.208.24-.181zm-2.81 40.419l-.212-.212.212.212zM39.009 56.61l-.112-.278-.579.231.543.308.148-.26zm-22.939.006l.149.26.54-.307-.577-.231-.112.278zm-5.675-43.975l-.223-.2-.125.14.07.173.278-.113zm7.381-5.51l-.113-.278-.002.001.115.277zm-7.212 6.076l.29-.075-.29.075zm1.571 2.441l-.156.257.156-.257zm3.578 2.171l.155-.256-.155.256zm1.696.513l-.045.297.045-.297zm1.034.178l-.06.294.009.002.05-.296zm1.684 5.321l-.137-.267-.004.003.141.264zm-1.883.966l-.133-.27.133.27zm-.764.53l-.29-.075.29.076zm-1.223 4.747l.298-.034-.298.034zm.003.023l.298-.039-.298.039zm.665.143l.255.158-.255-.158zm.558-.906l.256.158-.256-.158zm3.395-.623l-.183.237.183-.237zm1.616 2.431l-.26.15.26-.15zm1.31 2.264l.26-.15-.26.15zm.009.015l-.26.15.26-.15zm.018.029l-.245.172.245-.172zm3.58 1.236l-.095.285h.001l.094-.285zm1.939 4.394l.273.123-.273-.123zm-.404.678l-.246-.171.246.171zm-.19.279l.248.169.003-.004-.25-.165zm.123 1.58l.218-.205-.218.205zm1.173 1.251l.22-.205-.22.205zm.874 2.21l.295.053.005-.027v-.027h-.3zm-.002.262l.3-.01-.3.01zm-1.357 3.134l-.173-.244.173.244zm-.434 1.514l-.278.114.555-.228-.277.114zm.353.857l-.278.113.083.203.218-.017-.023-.3zm11.824-4.563l-.165-.25-.016.01-.014.012.195.228zm.092-.048l.095.284.049-.016.04-.032-.184-.236zm.538-.418l.184.237-.184-.237zm.882-.701l-.2-.224.2.224zm5.072-6.48l.265.14.118-.224-.2-.154-.183.238zm-4.196-3.208l.146-.262-.146.262zm-.047-.025l.14-.265-.005-.003-.135.268zm-.994-.526l.145-.263-.145.263zm-1.021-.412l.037-.298-.037.298zm-.784-.013l.008.3-.008-.3zm-3.467-1.11l-.214.211.214-.21zm-1.686-.467l.075.29-.075-.29zm-2.467.642l.075.29-.075-.29zm-2.008-.378l-.176.242.176-.242zM29.46 31.86l-.176.243.176-.243zm-.511-3.375l.24.18.003-.005-.243-.175zm1.414-1.89l.238.183-.238-.183zm1.216-2.13l-.294-.064.294.063zm.143-.693l-.294-.06.294.06zm1.508-3.52l-.221-.204.221.203zm4.738-1.679l.029-.298-.029.298zm.181.012l.021-.3-.029-.001-.029.003.037.298zm1.292-.712l-.261-.147-.003.006.264.142zm.504-.94l.266.139-.266-.139zm1.67-2.038l-.148-.261.148.26zm1.255-.406l.038.298-.038-.298zm.746-.227l-.161-.253h-.001l.162.253zm.663-.856l-.264-.142.264.142zm.422-.748l.256.155.115-.189-.147-.165-.224.2zM41.417 9.62l.181-.239-.181.239zm-21.76-3.267l.102.282-.103-.282zm-.518.214l.117.276-.117-.276zm20.016 43.46l-.052-.295-.046.008-.042.022.14.265zM13.18 48.342l.173-.245-.206-.146-.18.179.213.212zm-2.831 2.83l-.212-.211-.246.245.279.207.179-.24zm37.625-2.792l-.212-.212.212.212zm2.797-37.63l.241-.179-.207-.278-.246.245.212.212zm-2.83 2.831l-.212-.212-.18.179.147.206.245-.173zm-3.815 33l.2.225-.2-.224zm-2.802 2.153l-.174-.244-.007.005-.006.005.187.234zm-.072.053l-.165-.25.165.25zm-.018.012l-.165-.251-.009.006.174.245zM43.48 8.752l-.212-.212-.237.237.262.21.188-.235zm5.117-5.116l-.212-.213.212.213zM43.49 8.759l.197-.226-.197.226zm.003.003l-.193.23h.001l.192-.23zm3.157 3.14l.23-.192-.23.193zm.048.059l.233-.19-.233.19zm.04.049l-.23.192.21.253.232-.233-.212-.212zm5.117-5.117l.212.212-.212-.212zm0-3.257l.212-.213-.212.213zM48.752 36.82l-.181.24.308.231.149-.355-.276-.116zm-3.935-3.004l-.161.253.16-.253zm1.217-19.522l.24-.178-.275-.373-.227.404.262.147zm-.255.453l-.262-.147.262.147zm-2.628 1.682l.023.3-.023-.3zm-1.087.71l.264.142-.264-.142zm-.892 1.663l-.264-.142.264.142zm-3.162 1.741l.021-.3h-.025l-.026.002.03.298zm-.2-.013l.03-.298-.03.298zm-3.132 1.048l-.221-.203.22.203zM33.67 24.05l-.295-.055.295.055zm-1.117 2.9l-.24-.18-.002.003.242.178zm-1.626 2.169l.239.182-.239-.182zm-.492.806l.3-.003-.3.003zm.706.73l.173-.245-.173.245zm1.234.894l-.18.24.004.003.176-.243zm.364.068l.075.29-.075-.29zm1.953-.508l-.076-.29.076.29zm.74-.185l.057.295-.057-.295zm3.352 1.042l-.214.21.214-.21zm1.967.525l.008.3-.008-.3zm2.414.432l.14-.264-.14.264zm-7.169 24.714l.04-.298-.062-.008-.06.017.082.289zm-16.924.003l.082-.289-.06-.017-.062.009.04.297zM8.896 14.51l.286-.091-.18-.568-.349.484.243.175zm3.669 3.698l-.153.259.153-.259zm14.83 32.72l-.001.3.43.003-.146-.405-.282.102zm-.036-.09l.276-.118-.276.117zm-.25-.858l-.297.044.297-.044zm1.32-3.103l-.173-.245.173.245zm.534-1.033h.3v-.013l-.001-.013-.3.026zm-.003-.412l-.3-.01.3.01zm-.34-1.219l-.22.204.002.001.218-.205zm-.672-.716l.217-.207-.217.207zm-1.11-1.457l.274-.12-.275.12zm.297-3.107l.247.169.012-.017.01-.019-.27-.133zm.137-.204l.24.178-.24-.178zm.33-1.38l-.284.097.284-.096zm-.804-.795l.094-.286-.094.285zm-3.407-1.119l-.094.285.094-.285zm-1.284-1.04l.26-.151-.26.15zm-2.336-4.02l-.26.15v.001l.26-.15zm-.617-.008l.255.158-.255-.158zm-.56.907l.256.157-.255-.157zm-4.224-1.805l-.29-.077v.001l.29.076zm.962-3.685l.29.074-.29-.074zm.42-1.405l-.268-.135.268.135zm1.012-1.022l.137.266-.137-.266zM19.3 22.04l-.2-.224.2.224zm.013-.012l-.204-.22.204.22zm.105-.337l-.293.065.293-.065zm-1.305-1.246l-.051.296.05-.296zm-.7-.114l-.046.297.047-.297zm-2.718-.833l-.161.253.005.003.156-.256zM3.236 48.996l.212.212-.212-.212zm5.116-5.116l.231-.192-.21-.253-.233.233.212.212zm-5.116 8.373l.212-.212-.212.212zm3.257 0l-.212-.212.212.212zm5.117-5.116l.212.212.232-.232-.253-.21-.191.23zm-3.516 6.717l1.067-1.068-.424-.424-1.068 1.067.425.425zm-6.458 0a4.564 4.564 0 006.458 0l-.425-.425a3.964 3.964 0 01-5.608 0l-.425.424zm0-6.458a4.564 4.564 0 000 6.457l.424-.424a3.964 3.964 0 010-5.609l-.424-.424zm5.307-5.307l-5.307 5.307.425.424 5.306-5.307-.424-.424zM2.298 27.944a25.108 25.108 0 004.612 14.53l.49-.346a24.508 24.508 0 01-4.502-14.184h-.6zm6.018-16.36a25.25 25.25 0 00-6.018 16.36h.6a24.65 24.65 0 015.875-15.97l-.457-.39zm-.006.008c0 .001 0 .001 0 0l.002-.003.465.38.013-.016-.48-.361zm.017-.022l-.017.022.48.36c0-.001 0-.001 0 0l-.004.005-.459-.387zm6.357-5.353a25.252 25.252 0 00-6.356 5.352l.457.39a24.653 24.653 0 016.205-5.226l-.306-.516zm4.19-1.989c-.374.137-2.457.898-4.197 1.993l.32.508c1.68-1.058 3.71-1.8 4.083-1.937l-.206-.564zm.005-.002l-.005.002.206.564.005-.002-.206-.564zm8.666-1.529c-2.974 0-5.89.515-8.666 1.53l.206.563a24.569 24.569 0 018.46-1.493v-.6zm14.537 4.605a25.188 25.188 0 00-14.537-4.605v.6c5.145 0 10.08 1.596 14.191 4.496l.346-.49zm4.915-5.267l-5.3 5.3.424.425 5.3-5.3-.424-.425zm6.458 0a4.571 4.571 0 00-6.458 0l.424.425a3.971 3.971 0 015.61 0l.424-.425zm0 6.458a4.571 4.571 0 000-6.458l-.425.425a3.971 3.971 0 010 5.609l.425.424zm-1.07 1.069l1.07-1.07-.425-.423-1.069 1.069.424.424zm6.318 18.383c0-6.877-2.173-13.35-6.29-18.777l-.479.363c4.039 5.321 6.17 11.667 6.17 18.413h.6zM49.575 49.98c5.886-5.885 9.128-13.712 9.128-22.037h-.6c0 8.166-3.179 15.84-8.953 21.613l.425.424zM39.12 56.89a31.094 31.094 0 0010.455-6.909l-.425-.424a30.493 30.493 0 01-10.253 6.776l.223.557zm3.998 6.295c0-2.92-1.574-5.48-3.961-6.835l-.296.522a7.234 7.234 0 013.658 6.313h.6zm0 .357v-.357h-.6v.357h.6zM38.36 68.3a4.763 4.763 0 004.758-4.758h-.6A4.163 4.163 0 0138.36 67.7v.6zm-21.63 0h21.63v-.6H16.73v.6zm-4.76-4.758a4.763 4.763 0 004.76 4.758v-.6a4.163 4.163 0 01-4.16-4.158h-.6zm0-.357v.357h.6v-.357h-.6zm3.951-6.829a7.834 7.834 0 00-3.95 6.83h.6a7.233 7.233 0 013.648-6.308l-.298-.522zm-7.153-3.543a30.874 30.874 0 007.19 4.083l.224-.557a30.26 30.26 0 01-7.051-4.004l-.363.478zm1.851-39.971c1.7-1.905 4.056-4.09 7.273-5.433l-.231-.554c-3.334 1.393-5.76 3.65-7.49 5.587l.448.4zm.236.291a5.03 5.03 0 00-.182-.605l-.555.227c.054.132.098.303.155.527l.582-.149zm1.436 2.26c-1.007-.612-1.246-1.518-1.436-2.26l-.582.15c.191.744.475 1.874 1.706 2.623l.312-.513zm3.577 2.171l-3.577-2.171-.312.513 3.578 2.17.311-.512zm1.587.472c-.688-.105-1.088-.169-1.587-.472l-.311.513c.612.372 1.124.448 1.807.552l.09-.593zm1.047.181a20.433 20.433 0 00-1.047-.18l-.091.593c.293.044.623.095 1.019.175l.119-.588zm1.762 5.882c1.334-.683 1.646-2.063 1.254-3.287a3.863 3.863 0 00-3.025-2.597l-.101.592a3.263 3.263 0 012.555 2.188c.325 1.015.055 2.052-.957 2.57l.274.534zm-1.887.968c.387-.192.98-.484 1.891-.97l-.282-.53a60.84 60.84 0 01-1.875.962l.266.538zm-.607.337c.006-.022.007-.019.002-.012-.003.004.002-.005.04-.03.086-.058.24-.135.565-.295l-.266-.538c-.302.149-.506.249-.634.335a.617.617 0 00-.287.39l.58.15zm-1.215 4.637c.004.032-.007.054.015-.043.021-.09.063-.249.143-.554.16-.606.47-1.769 1.057-4.04l-.58-.15c-.588 2.27-.897 3.43-1.057 4.037-.08.301-.123.47-.147.57a.693.693 0 00-.027.247l.596-.067zm.003.018a1.31 1.31 0 00-.002-.016v-.002l-.597.067a.45.45 0 00.003.02v.008l.596-.077zm.111.024a.057.057 0 01-.027.026.065.065 0 01-.037.002.065.065 0 01-.032-.018.056.056 0 01-.015-.034l-.595.077c.08.615.889.793 1.217.263l-.51-.316zm.56-.905l-.56.905.511.315.559-.905-.51-.315zm3.833-.703c-1.174-.908-2.98-.68-3.834.703l.51.315a2.024 2.024 0 012.957-.544l.367-.474zm1.691 2.518c-.603-1.046-.917-1.59-1.128-1.908a2.565 2.565 0 00-.287-.372 2.375 2.375 0 00-.276-.238l-.367.474c.096.075.153.12.21.18.058.06.123.141.22.287.197.298.499.82 1.109 1.877l.52-.3zm1.31 2.263c-.549-.944-.975-1.682-1.31-2.263l-.52.3c.336.58.762 1.32 1.312 2.265l.519-.302zm.01.016a.926.926 0 00-.01-.016l-.518.302.008.014.52-.3zm.003.006l.001.002a.182.182 0 01-.004-.008l-.52.3c.007.011.018.03.033.051l.49-.345zm3.429 1.125c-1.642-.544-2.502-.817-2.981-.977a5.739 5.739 0 01-.434-.155c-.064-.028-.037-.026-.014.007l-.49.346a.58.58 0 00.26.195c.1.045.253.098.488.177.472.157 1.357.439 2.983.976l.188-.57zm2.118 4.801a3.531 3.531 0 00-2.119-4.802l-.187.57a2.931 2.931 0 011.76 3.985l.546.247zm-.43.726c.151-.218.292-.42.43-.725l-.546-.248a3.66 3.66 0 01-.377.63l.492.343zm-.186.273c.066-.1.126-.188.185-.273l-.492-.342c-.06.084-.124.178-.195.285l.502.33zm.09 1.21a.975.975 0 01-.093-1.206l-.496-.338c-.409.599-.35 1.42.152 1.954l.438-.41zm1.174 1.251l-1.174-1.251-.437.41 1.174 1.252.437-.41zm.955 2.414c0-.897-.337-1.755-.955-2.414l-.438.41c.513.547.793 1.259.793 2.004h.6zm-.002.253a5.328 5.328 0 01-.004-.15l.001-.05-.59-.107a.903.903 0 00-.01.159l.003.168.6-.02zM29.74 48.72c1.565-1.11 1.504-2.752 1.483-3.39l-.6.02c.02.632.058 1.967-1.23 2.88l.347.49zm-.331 1.155a.97.97 0 01.332-1.156l-.349-.488a1.57 1.57 0 00-.538 1.872l.555-.228zm.353.857l-.18-.439-.12-.292-.04-.094-.01-.025-.002-.006-.001-.001-.002-.004c-.391-.159-.553.232-.553.232l.555-.228s-.161.39-.553.232l-.002-.004v.002l.003.006.01.025.04.094.12.292.122.297a42.606 42.606 0 01.057.137v.003l.556-.227zm11.352-4.677c-3.653 3.114-8.003 4.2-11.653 4.492l.047.598c3.725-.298 8.213-1.41 11.995-4.634l-.389-.456zm.192-.105a.706.706 0 00-.162.082l.33.502a.266.266 0 01.024-.015c.005-.003.004-.002-.002 0l-.19-.569zm.45-.37l-.54.418.37.473.536-.417-.367-.474zm.865-.688c-.153.136-.462.375-.866.688l.367.474c.394-.304.725-.56.898-.714l-.399-.448zm5.006-6.396a22.692 22.692 0 01-5.006 6.396l.4.448a23.293 23.293 0 005.137-6.564l-.531-.28zm-4.076-2.806c.067.038.128.081.684.51.544.42 1.547 1.196 3.475 2.674l.365-.476c-1.927-1.478-2.93-2.254-3.474-2.673-.532-.41-.641-.494-.758-.559l-.292.524zm-.042-.022l.042.022.292-.524a2.719 2.719 0 00-.053-.028l-.281.53zm-.997-.528c.242.133.558.306 1.002.53l.271-.535c-.435-.22-.744-.39-.985-.52l-.288.525zm-.914-.377c.281.034.426.11.914.377l.288-.526c-.474-.26-.716-.396-1.128-.447l-.074.596zm-.74-.01a5.23 5.23 0 01.74.01l.074-.596c-.248-.03-.539-.022-.829-.015l.016.6zm-3.688-1.2c1.25 1.27 2.704 1.225 3.689 1.2l-.016-.6c-.987.025-2.192.049-3.245-1.02l-.428.42zm-1.396-.388a1.447 1.447 0 011.396.388l.428-.42a2.047 2.047 0 00-1.976-.548l.152.58zm-2.467.642l2.466-.642-.15-.58-2.467.641.15.581zm-2.26-.425a2.7 2.7 0 002.26.425l-.151-.58a2.097 2.097 0 01-1.757-.331l-.352.486zm-1.763-1.279l1.763 1.279.352-.486-1.763-1.278-.352.485zm-.576-3.798a2.694 2.694 0 00.576 3.798l.352-.485a2.094 2.094 0 01-.447-2.953l-.48-.36zm1.418-1.893a68.18 68.18 0 00-1.42 1.898l.486.35a65.858 65.858 0 011.409-1.882l-.476-.366zm1.16-2.011c-.15.69-.385 1.003-1.16 2.01l.475.367c.765-.993 1.09-1.408 1.27-2.25l-.586-.127zm.142-.688c-.045.221-.091.45-.143.688l.587.127c.052-.243.1-.475.144-.696l-.588-.12zm1.58-3.664c-1.08 1.18-1.303 2.297-1.58 3.664l.588.119c.278-1.368.477-2.332 1.435-3.378l-.442-.405zm4.989-1.774c-.681-.066-3.085-.3-4.988 1.773l.442.406c1.695-1.846 3.83-1.645 4.489-1.582l.057-.597zm.116.012c.015-.002.023 0 .017-.001a.48.48 0 01-.025-.002c-.026-.001-.06-.005-.108-.01l-.057.598c.045.004.087.009.122.011a.655.655 0 00.124 0l-.073-.596zm1.064-.555a1.058 1.058 0 01-1.007.554l-.042.598c.65.046 1.27-.294 1.578-.869l-.53-.283zm.502-.937c-.146.28-.305.588-.499.931l.523.295c.2-.354.363-.67.508-.95l-.532-.276zm1.788-2.161c-.954.542-1.298 1.216-1.788 2.161l.532.277c.494-.951.77-1.471 1.552-1.916l-.296-.522zm1.366-.442a3.283 3.283 0 00-1.366.442l.296.521c.508-.288.84-.33 1.145-.368l-.075-.595zm.62-.182c-.195.125-.359.149-.62.182l.075.595c.262-.033.549-.066.87-.272l-.324-.505zm.562-.746c-.235.438-.326.596-.56.745l.322.506c.386-.245.541-.547.767-.967l-.53-.284zm.429-.76c-.188.31-.322.56-.43.76l.53.284c.107-.2.234-.438.413-.735l-.513-.31zm-3.21-2.646a22.505 22.505 0 013.243 3l.448-.4a23.107 23.107 0 00-3.328-3.078l-.362.478zM27.546 5.26c5 0 9.787 1.638 13.69 4.598l.363-.478a23.227 23.227 0 00-14.053-4.72v.6zM19.76 6.634a22.61 22.61 0 017.786-1.374v-.6a23.21 23.21 0 00-7.992 1.41l.206.564zm-.503.208c.273-.115.447-.188.503-.208l-.206-.564c-.074.027-.268.109-.53.22l.233.552zm-1.366.568c.544-.222 1.024-.424 1.366-.568l-.233-.553c-.342.144-.819.345-1.36.565l.227.556zm9.655 45.781a25.2 25.2 0 0011.75-2.9l-.28-.53a24.6 24.6 0 01-11.47 2.83v.6zm-14.537-4.604c4.271 3.017 9.286 4.604 14.537 4.604v-.6c-5.128 0-10.022-1.549-14.191-4.494l-.346.49zm-2.446 2.798l2.831-2.831-.424-.424-2.831 2.83.424.425zm16.983 5.156c-6.07 0-11.972-1.852-17.016-5.609l-.358.481c5.151 3.837 11.18 5.728 17.374 5.728v-.6zm20.218-8.373c-5.406 5.405-12.602 8.373-20.218 8.373v.6c7.774 0 15.123-3.031 20.642-8.548l-.424-.425zm8.378-20.224c0 7.642-2.975 14.823-8.378 20.224l.424.425c5.515-5.514 8.553-12.848 8.553-20.649h-.6zM50.53 10.93c3.674 4.933 5.61 10.79 5.61 17.014h.6c0-6.351-1.977-12.335-5.728-17.373l-.481.359zm-2.377 2.863l2.83-2.83-.424-.425-2.83 2.831.424.424zm4.637 14.151a25.03 25.03 0 00-4.604-14.536l-.49.346a24.43 24.43 0 014.494 14.19h.6zm-8.464 18.862c5.185-4.617 8.464-11.352 8.464-18.862h-.6c0 7.331-3.2 13.906-8.263 18.414l.399.448zM41.5 48.978c1.258-.899 2.599-1.97 2.827-2.172l-.4-.448c-.204.182-1.526 1.24-2.776 2.132l.349.488zm-.082.06c.032-.022.064-.045.094-.07l-.374-.468a.68.68 0 01-.05.036l.33.501zm-.018.011l.018-.012-.33-.5-.018.011.33.501zm-2.194 1.273c.13-.023.28-.083.428-.155a6.31 6.31 0 00.515-.284c.373-.226.812-.522 1.26-.84l-.348-.489c-.442.314-.867.6-1.222.815a5.874 5.874 0 01-.466.258 1.195 1.195 0 01-.27.104l.103.59zm4.487-41.358l5.116-5.116-.424-.425-5.117 5.117.425.424zm-.007-.431l-.018-.015-.375.468a.165.165 0 01-.004-.003l.002.002.395-.452zm0 0l-.395.452a.406.406 0 00.008.007l.387-.46zm3.193 3.177a25.749 25.749 0 00-3.195-3.178l-.384.46a25.143 25.143 0 013.12 3.104l.459-.386zm.05.061a8.133 8.133 0 00-.05-.06l-.46.384.046.056.465-.38zm.039.047a6.828 6.828 0 01-.038-.046l-.465.379.041.05.462-.383zm4.674-5.137l-5.117 5.117.424.424 5.117-5.117-.424-.424zm0-2.833c.781.78.781 2.052 0 2.833l.424.424a2.606 2.606 0 000-3.682l-.424.425zm-2.833 0a2.006 2.006 0 012.833 0l.424-.425a2.606 2.606 0 00-3.681 0l.424.425zm.123 32.732a175.494 175.494 0 01-2.886-2.217c-.542-.425-.796-.627-1.068-.8l-.322.506c.24.154.466.332 1.02.766.548.43 1.405 1.1 2.895 2.224l.361-.479zm1.296-8.635c0 3.038-.596 6.01-1.753 8.758l.553.233a23.139 23.139 0 001.8-8.991h-.6zm-4.436-13.472a22.695 22.695 0 014.436 13.472h.6a23.3 23.3 0 00-4.553-13.83l-.483.358zm.248.421l.255-.453-.523-.294-.255.453.523.294zm-2.865 1.834a3.621 3.621 0 002.866-1.835l-.524-.293a3.021 3.021 0 01-2.39 1.53l.048.598zm-.847.553a1.05 1.05 0 01.846-.553l-.047-.598a1.65 1.65 0 00-1.327.867l.528.284zm-.892 1.662l.892-1.662-.528-.284-.892 1.663.528.283zm-3.447 1.9a3.625 3.625 0 003.447-1.9l-.528-.283a3.025 3.025 0 01-2.877 1.584l-.042.598zm-.208-.014l.13.012a.775.775 0 00.128 0l-.059-.596c.009-.001.011 0 .004-.001l-.03-.002a5.362 5.362 0 01-.113-.01l-.06.597zm-2.882.952c1.039-1.132 2.34-1.007 2.882-.952l.06-.597c-.556-.056-2.133-.22-3.384 1.143l.442.406zm-.934 2.323c.166-.896.309-1.64.934-2.323l-.442-.406c-.756.825-.919 1.736-1.082 2.62l.59.11zm-1.172 3.027c.816-1.085 1.004-2.119 1.172-3.027l-.59-.109c-.167.904-.337 1.813-1.062 2.775l.48.36zm-1.627 2.17c.31-.405.812-1.063 1.629-2.173l-.484-.355c-.813 1.105-1.314 1.76-1.622 2.164l.477.364zm-.431.621v-.03c-.003.01-.005.003.018-.034.052-.085.162-.23.413-.557l-.477-.364c-.237.31-.375.489-.447.608a.712.712 0 00-.091.206.663.663 0 00-.016.177l.6-.006zm.579.488c-.326-.23-.473-.335-.548-.41-.03-.03-.03-.04-.028-.034.001.005-.003 0-.003-.044l-.6.006c0 .073.007.162.043.256a.696.696 0 00.164.24c.121.12.326.264.626.476l.346-.49zm1.24.899c-.556-.416-.956-.698-1.24-.899l-.346.49c.283.2.677.479 1.228.89l.358-.481zm.11.017a.134.134 0 01-.113-.02l-.352.486c.178.129.403.17.615.115l-.15-.58zm1.952-.507l-1.952.508.15.58c.984-.255 1.581-.41 1.953-.508l-.151-.58zm.76-.19c-.136.026-.152.031-.76.19l.151.58c.618-.161.61-.159.722-.18l-.114-.59zm3.622 1.127a4.029 4.029 0 00-3.623-1.127l.114.59a3.43 3.43 0 013.081.957l.428-.42zm1.745.435c-.774.02-1.295.021-1.745-.436l-.428.421c.658.668 1.453.634 2.19.615l-.017-.6zm2.563.468c-.965-.514-1.844-.487-2.563-.468l.016.6c.719-.02 1.453-.036 2.265.397l.282-.53zm1.672.904c-.331-.21-.7-.385-1.672-.904l-.282.53c1.005.536 1.326.686 1.632.88l.322-.506zm-4.422 29.979c0 1.21-.985 2.195-2.196 2.195v.6a2.798 2.798 0 002.796-2.795h-.6zm0-.357v.357h.6v-.357h-.6zm-4.598-5.25a5.273 5.273 0 014.598 5.25h.6a5.873 5.873 0 00-5.12-5.846l-.078.595zm-8.413 1.169c2.899 0 5.785-.4 8.533-1.179l-.163-.577a30.817 30.817 0 01-8.37 1.156v.6zm-8.554-1.175a31.429 31.429 0 008.554 1.175v-.6c-2.95 0-5.777-.412-8.39-1.153l-.164.578zm-4.457 5.256a5.272 5.272 0 014.578-5.248l-.08-.594a5.873 5.873 0 00-5.098 5.842h.6zm0 .357v-.357h-.6v.357h.6zm2.195 2.195a2.198 2.198 0 01-2.195-2.195h-.6a2.798 2.798 0 002.795 2.795v-.6zm21.631 0H16.73v.6h21.63v-.6zM8.61 14.6c.316.991.739 1.656 1.363 2.23.61.56 1.407 1.029 2.44 1.636l.304-.517c-1.05-.619-1.785-1.052-2.338-1.56-.538-.496-.909-1.067-1.197-1.971l-.571.182zM4.862 27.944c0-4.773 1.508-9.416 4.279-13.26l-.487-.35a23.294 23.294 0 00-4.392 13.61h.6zm22.537 22.683C14.813 50.54 4.861 40.267 4.861 27.944h-.6c0 12.648 10.214 23.194 23.133 23.283l.004-.6zm-.315.326c.017.04.026.062.03.076l.565-.204a1.814 1.814 0 00-.043-.106l-.552.234zm-.271-.93c.066.448.2.765.27.93l.553-.234a3.032 3.032 0 01-.23-.783l-.593.087zm1.443-3.391a3.537 3.537 0 00-1.443 3.391l.593-.087a2.937 2.937 0 011.199-2.816l-.349-.488zm.408-.789a.967.967 0 01-.407.788l.347.49c.42-.299.66-.78.66-1.278h-.6zm-.002-.422a3.74 3.74 0 00.003.448l.598-.052a3.216 3.216 0 01-.002-.376l-.6-.02zm-.26-1.004c.274.292.273.595.26 1.005l.6.02c.012-.4.038-.944-.422-1.435l-.438.41zm-.671-.715c.188.198.407.43.67.714l.44-.407a59.858 59.858 0 00-.675-.72l-.435.413zm-1.168-1.543c.258.589.551.894 1.168 1.543l.435-.413c-.626-.66-.844-.893-1.053-1.37l-.55.24zm.325-3.396a3.509 3.509 0 00-.325 3.397l.55-.241a2.91 2.91 0 01.27-2.818l-.495-.338zm.143-.213c-.052.07-.121.162-.164.248l.538.267c.013-.027.044-.07.109-.159l-.483-.356zm.288-1.105c.163.48-.07.81-.288 1.105l.483.356c.213-.288.645-.855.373-1.654l-.568.193zm-.613-.608a.956.956 0 01.613.608l.568-.193c-.16-.47-.523-.83-.994-.985l-.187.57zm-3.408-1.118l3.408 1.118.187-.57-3.407-1.118-.188.57zm-1.45-1.175a2.62 2.62 0 001.45 1.175l.188-.57a2.02 2.02 0 01-1.119-.906l-.518.3zm-2.336-4.019l2.337 4.019.518-.302-2.336-4.018-.519.301zm-.102-.001a.058.058 0 01.102 0l.52-.3a.658.658 0 00-1.132-.015l.51.315zm-.559.906l.56-.906-.511-.315-.56.906.511.315zm-4.77-2.038c-.765 2.945 3.216 4.552 4.77 2.038l-.51-.315c-1.21 1.957-4.263.673-3.68-1.572l-.58-.15zm.962-3.684c-.181.702-.47 1.827-.962 3.683l.58.154c.492-1.858.782-2.985.963-3.688l-.581-.15zm.442-1.465c-.137.273-.152.338-.442 1.465l.58.15c.299-1.157.297-1.145.398-1.346l-.536-.27zm1.143-1.154a2.628 2.628 0 00-1.143 1.154l.536.27a2.02 2.02 0 01.881-.89l-.274-.534zm2.472-1.271c.014-.013.025-.016-.024.01-.049.027-.134.071-.299.156-.326.167-.947.484-2.15 1.105l.276.533c1.201-.62 1.821-.937 2.148-1.104l.312-.162a.676.676 0 00.138-.092l-.401-.447zm.008-.008l-.004.004-.003.002-.001.002.4.446a.929.929 0 00.017-.015l-.409-.44zm.018-.052a.054.054 0 01-.002.026.056.056 0 01-.015.026l.408.44a.657.657 0 00.194-.624l-.585.132zm-1.064-1.016a1.31 1.31 0 011.064 1.015l.585-.13a1.911 1.911 0 00-1.548-1.476l-.1.591zm-.695-.113c.219.034.448.07.695.113l.102-.591c-.252-.044-.485-.08-.703-.115l-.094.593zm-2.828-.874c.955.58 1.762.705 2.828.874l.094-.593c-1.07-.17-1.768-.282-2.61-.794l-.312.513zm-2.126-1.29c.61.36 1.31.771 2.12 1.287l.323-.507a70.197 70.197 0 00-2.138-1.296l-.305.517zM3.448 49.209l5.116-5.116-.424-.424-5.116 5.116.424.424zm0 2.833a2.002 2.002 0 010-2.833l-.424-.424a2.602 2.602 0 000 3.681l.424-.424zm2.833 0a2.002 2.002 0 01-2.833 0l-.424.425a2.602 2.602 0 003.682 0l-.425-.425zm5.116-5.116l-5.116 5.116.425.425 5.116-5.117-.425-.424zm-3.275-2.853a25.375 25.375 0 003.296 3.296l.383-.461a24.775 24.775 0 01-3.218-3.219l-.461.384z" fill="url(#paint1_linear)" mask="url(#a)"/><defs><linearGradient id="paint0_linear" x1="-11.499" y1="13.451" x2="74.732" y2="-8.374" gradientUnits="userSpaceOnUse"><stop stop-color="#2C4FCA"/><stop offset="1" stop-color="#047FD8"/></linearGradient><linearGradient id="paint1_linear" x1="-11.499" y1="13.451" x2="74.732" y2="-8.374" gradientUnits="userSpaceOnUse"><stop stop-color="#2C4FCA"/><stop offset="1" stop-color="#047FD8"/></linearGradient></defs></svg>