<svg width="23" height="25" fill="none" xmlns="http://www.w3.org/2000/svg"><path d="M19.864 0H2.636C1.183 0 0 1.15 0 2.575v16.9C0 20.9 1.183 22.05 2.636 22.05h14.58l-.682-2.313 1.646 1.488 1.556 1.4L22.5 25V2.575C22.5 1.15 21.317 0 19.864 0zm-4.963 16.325s-.462-.537-.848-1.012c1.684-.463 2.327-1.488 2.327-1.488a7.438 7.438 0 01-1.479.738 8.645 8.645 0 01-1.864.537 9.26 9.26 0 01-3.33-.012 11.028 11.028 0 01-1.89-.538 7.637 7.637 0 01-.938-.425c-.039-.025-.078-.037-.116-.063a.162.162 0 01-.052-.037c-.231-.125-.36-.213-.36-.213s.618 1 2.25 1.476c-.385.474-.861 1.037-.861 1.037-2.841-.087-3.921-1.9-3.921-1.9 0-4.025 1.851-7.288 1.851-7.288 1.851-1.35 3.613-1.312 3.613-1.312l.128.15c-2.314.65-3.381 1.638-3.381 1.638s.283-.15.759-.363c1.375-.588 2.468-.75 2.918-.787.077-.013.142-.026.219-.026.784-.1 1.671-.125 2.597-.025 1.221.138 2.533.488 3.87 1.2 0 0-1.016-.937-3.202-1.587l.18-.2s1.762-.038 3.613 1.313c0 0 1.852 3.262 1.852 7.287 0 0-1.093 1.813-3.935 1.9zm-5.978-5.837c-.733 0-1.312.625-1.312 1.387s.592 1.387 1.312 1.387c.733 0 1.311-.625 1.311-1.387.013-.762-.578-1.387-1.311-1.387zm4.693 0c-.733 0-1.312.625-1.312 1.387s.592 1.387 1.312 1.387c.733 0 1.311-.625 1.311-1.387s-.578-1.387-1.311-1.387z" fill="#F5F5F5"/></svg>