<svg width="120" height="120" fill="none" xmlns="http://www.w3.org/2000/svg"><circle cx="60" cy="60" r="60" fill="#0038FF" fill-opacity=".4"/><circle cx="60" cy="60" r="38" fill="#0038FF" fill-opacity=".4"/><path d="M77.658 76.041l-9.294-9.146c2.434-2.644 3.93-6.141 3.93-9.99C72.291 48.673 65.51 42 57.145 42 48.781 42 42 48.673 42 56.905c0 8.233 6.78 14.906 15.146 14.906 3.614 0 6.93-1.25 9.533-3.33l9.331 9.183a1.178 1.178 0 001.647 0 1.135 1.135 0 00.001-1.623zm-20.512-6.524c-7.078 0-12.816-5.646-12.816-12.612 0-6.965 5.738-12.612 12.816-12.612s12.816 5.647 12.816 12.612c0 6.966-5.738 12.612-12.816 12.612z" fill="#fff"/></svg>