<svg width="30" height="34" fill="none" xmlns="http://www.w3.org/2000/svg"><path d="M26.486 0H3.514C1.577 0 0 1.533 0 3.433v22.534c0 1.9 1.577 3.433 3.514 3.433h19.44l-.908-3.083L24.24 28.3l2.074 1.867L30 33.333v-29.9C30 1.533 28.423 0 26.486 0zm-6.617 21.767s-.618-.717-1.132-1.35c2.246-.617 3.103-1.984 3.103-1.984a9.922 9.922 0 01-1.971.984c-.858.35-1.68.583-2.486.716-1.646.3-3.154.217-4.44-.016a14.703 14.703 0 01-2.52-.717c-.394-.15-.823-.333-1.252-.567-.051-.033-.102-.05-.154-.083a.236.236 0 01-.068-.05c-.309-.167-.48-.283-.48-.283s.822 1.333 3 1.966c-.515.634-1.149 1.384-1.149 1.384-3.789-.117-5.229-2.534-5.229-2.534 0-5.366 2.469-9.716 2.469-9.716 2.469-1.8 4.817-1.75 4.817-1.75l.172.2C9.463 8.833 8.04 10.15 8.04 10.15s.377-.2 1.011-.483c1.835-.784 3.292-1 3.892-1.05.103-.017.188-.034.291-.034a14.916 14.916 0 013.463-.033 14.26 14.26 0 015.16 1.6S20.503 8.9 17.59 8.033l.24-.266s2.348-.05 4.817 1.75c0 0 2.468 4.35 2.468 9.716 0 0-1.457 2.417-5.245 2.534zm-7.972-7.784c-.977 0-1.748.834-1.748 1.85 0 1.017.788 1.85 1.748 1.85.977 0 1.749-.833 1.749-1.85.017-1.016-.772-1.85-1.749-1.85zm6.257 0c-.977 0-1.748.834-1.748 1.85 0 1.017.788 1.85 1.748 1.85.977 0 1.749-.833 1.749-1.85 0-1.016-.772-1.85-1.749-1.85z" fill="#999"/></svg>