<svg width="33" height="33" fill="none" xmlns="http://www.w3.org/2000/svg"><path fill-rule="evenodd" clip-rule="evenodd" d="M5.5 6.875c-.753 0-1.375.622-1.375 1.375v16.5c0 .753.622 1.375 1.375 1.375h22c.753 0 1.375-.622 1.375-1.375V8.25c0-.753-.622-1.375-1.375-1.375h-22zM1.375 8.25A4.133 4.133 0 015.5 4.125h22a4.133 4.133 0 014.125 4.125v16.5a4.133 4.133 0 01-4.125 4.125h-22a4.133 4.133 0 01-4.125-4.125V8.25z" fill="#999"/><path fill-rule="evenodd" clip-rule="evenodd" d="M1.624 7.461a1.375 1.375 0 011.915-.337L16.5 16.197l12.962-9.073a1.375 1.375 0 011.577 2.252l-13.75 9.625a1.375 1.375 0 01-1.577 0L1.962 9.376a1.375 1.375 0 01-.338-1.915z" fill="#999"/></svg>