<svg width="31" height="18" fill="none" xmlns="http://www.w3.org/2000/svg"><path d="M30.712 16.15c0-.123-.123-.123-.123-.246-.494-.986-1.604-2.22-3.084-3.575-.74-.617-1.11-1.11-1.357-1.356-.37-.494-.37-.863-.246-1.357.123-.37.616-.986 1.48-2.095.493-.617.74-.987 1.11-1.357 1.85-2.465 2.713-4.068 2.467-4.808l-.124-.123c-.123-.123-.246-.247-.493-.247-.247-.123-.617-.123-.987 0h-5.55l-.123.124c-.124.123-.124.123-.124.246-.493 1.356-1.11 2.466-1.727 3.699-.37.616-.74 1.233-1.11 1.726-.37.493-.616.863-.863 1.11-.247.246-.493.37-.617.616-.123.123-.37.246-.37.123-.123 0-.246 0-.246-.123l-.37-.37c-.124-.123-.124-.37-.247-.616V1.356c0-.123-.123-.37-.123-.493l-.37-.37C17.39.37 17.145.37 17.02.247A10.998 10.998 0 0014.801 0c-1.973 0-3.33.123-3.824.37-.246.123-.493.246-.616.493-.247.247-.247.37-.124.37.617.123 1.11.37 1.357.74l.123.246c.124.123.124.37.247.74s.123.74.123 1.233v1.972c0 .617-.123.987-.123 1.357s-.123.616-.247.74c-.123.246-.123.37-.246.37 0 0 0 .122-.124.122-.123 0-.246.124-.493.124-.123 0-.37-.124-.493-.247a1.486 1.486 0 01-.617-.616c-.247-.247-.493-.617-.74-1.11-.247-.493-.617-.986-.863-1.726l-.247-.493c-.123-.247-.37-.74-.617-1.356-.247-.617-.493-1.11-.74-1.726a1.702 1.702 0 00-.37-.493h-.123S5.92.986 5.797.986 5.55.863 5.427.863H.987c-.494 0-.74.123-.864.247L0 1.233v.246c0 .124 0 .247.123.494C.74 3.452 1.48 4.932 2.22 6.41 2.96 7.767 3.7 9 4.194 9.863c.616.863 1.11 1.726 1.726 2.466.617.74.987 1.233 1.11 1.48.247.246.37.37.494.492l.37.37c.247.247.617.617 1.11.987.493.37 1.11.74 1.727 1.11.616.369 1.357.616 2.097.862.863.247 1.603.37 2.343.247h1.85c.37 0 .617-.124.863-.37l.124-.123c0-.124.123-.124.123-.247v-.493c0-.493 0-.863.124-1.233.123-.37.123-.617.246-.863.124-.247.247-.37.37-.493l.247-.247h.123c.247-.123.617 0 .864.247.37.246.74.616.986.986.247.37.617.74 1.11 1.233.494.493.864.863 1.11.986l.37.247c.247.123.494.246.864.37.37.123.617.123.863.123l4.194-.123c.37 0 .74-.124.987-.247.246-.123.37-.246.37-.493v-.493c-.247-.247-.247-.37-.247-.493z" fill="#999"/></svg>