<svg width="108" height="108" viewBox="0 0 108 108" fill="none" xmlns="http://www.w3.org/2000/svg">
<path d="M70.7566 92.246C69.7178 93.3418 68.2515 93.9926 66.639 94.0014L46.0869 94.1196C43.7021 94.1333 41.4147 93.2178 39.6462 91.5413C37.8777 89.8648 36.8411 87.6291 36.7274 85.2469L35.7487 64.7179C35.6332 62.3049 36.9729 60.143 39.1612 59.2098C41.3466 58.2778 43.9142 58.771 45.702 60.4659L55.8251 70.0624C71.6903 53.3268 70.3694 26.2228 52.8807 9.6438L49.357 6.30344C48.1405 5.15016 48.0489 3.27194 49.1526 2.10776C50.2562 0.943584 52.1366 0.934752 53.3532 2.08803L56.8768 5.42839C66.5254 14.5751 72.1883 26.77 72.8217 39.7668C73.4546 52.7632 68.9835 65.0057 60.2306 74.2388C58.0269 76.5635 54.2578 76.5812 51.829 74.2787L41.7055 64.6817L41.7042 64.6805C41.6993 64.6822 41.6937 64.6846 41.6889 64.6871C41.6895 64.69 41.6892 64.6929 41.6894 64.6961L42.6685 85.2256C42.7064 86.0205 43.0521 86.7664 43.6424 87.3259C44.2326 87.8854 44.9959 88.1908 45.7916 88.1863L66.3436 88.068L66.3527 88.068C66.3549 88.0631 66.3575 88.0577 66.3589 88.0528L66.3572 88.0512L63.943 85.7625C62.7264 84.6093 62.6353 82.7306 63.7389 81.5665C64.8421 80.4027 66.723 80.3934 67.9395 81.5467L70.3537 83.8353C72.1416 85.5302 72.7711 88.0678 71.9571 90.2998C71.6864 91.0429 71.2745 91.6997 70.7566 92.246Z" fill="#C392E8"/>
</svg>
