<svg width="22" height="22" viewBox="0 0 22 22" fill="none" xmlns="http://www.w3.org/2000/svg">
<rect width="22" height="22" rx="2" fill="white"/>
<path d="M11 20C15.9706 20 20 15.9706 20 11C20 6.02944 15.9706 2 11 2C6.02944 2 2 6.02944 2 11C2 15.9706 6.02944 20 11 20Z" fill="#039BE5"/>
<path d="M4.55875 10.1284L15.2008 6.04992C15.6947 5.87255 16.1261 6.16968 15.9661 6.91205L14.155 15.3963C14.0207 15.9978 13.6611 16.1441 13.1579 15.8607L10.3985 13.8393L9.0676 15.1138C8.92043 15.26 8.79626 15.3835 8.51112 15.3835L8.70704 12.5923L13.8211 8.00001C14.0437 7.80527 13.7714 7.69556 13.478 7.88938L7.1581 11.8444L4.43366 10.9997C3.84223 10.8131 3.82935 10.4118 4.55875 10.1284Z" fill="white"/>
</svg>
