<svg width="50" height="50" viewBox="0 0 50 50" fill="none" xmlns="http://www.w3.org/2000/svg">
<path d="M25 50C38.8071 50 50 38.8071 50 25C50 11.1929 38.8071 0 25 0C11.1929 0 0 11.1929 0 25C0 38.8071 11.1929 50 25 50Z" fill="white"/>
<path d="M11.4395 24.4583L35.5436 15.1646C36.6624 14.7604 37.6395 15.4375 37.277 17.1291L37.2791 17.1271L33.1749 36.4625C32.8707 37.8333 32.0561 38.1666 30.9166 37.5208L24.6666 32.9146L21.652 35.8187C21.3186 36.1521 21.0374 36.4333 20.3916 36.4333L20.8353 30.0729L32.4186 19.6083C32.9228 19.1646 32.3061 18.9146 31.6416 19.3562L17.327 28.3687L11.1561 26.4437C9.81655 26.0187 9.78739 25.1041 11.4395 24.4583Z" fill="#039BE5"/>
</svg>
