<svg width="22" height="22" viewBox="0 0 22 22" fill="none" xmlns="http://www.w3.org/2000/svg">
<rect width="22" height="22" rx="4" fill="#4CAF50"/>
<path d="M2.66699 19.3334L3.84423 15.0539C3.11806 13.8013 2.7361 12.3806 2.73663 10.925C2.7385 6.37138 6.461 2.66669 11.0352 2.66669C13.2549 2.66762 15.3385 3.52768 16.9053 5.08872C18.4719 6.64975 19.3345 8.72475 19.3337 10.9316C19.3317 15.4851 15.6086 19.1903 11.0352 19.1903C11.0349 19.1903 11.0353 19.1903 11.0352 19.1903H11.0316C9.64278 19.1898 8.27822 18.843 7.06616 18.185L2.66699 19.3334ZM7.26989 16.6899L7.5219 16.8385C8.58067 17.4641 9.7946 17.7949 11.0325 17.7956H11.0352C14.8367 17.7956 17.9308 14.716 17.9324 10.9311C17.9331 9.09688 17.2164 7.37209 15.9141 6.07469C14.6118 4.77728 12.8802 4.06237 11.0377 4.06157C7.2332 4.06157 4.13921 7.14074 4.13774 10.9255C4.13721 12.2225 4.50169 13.4855 5.19224 14.5785L5.35634 14.8383L4.65939 17.3712L7.26989 16.6899Z" fill="white"/>
<path fill-rule="evenodd" clip-rule="evenodd" d="M8.96306 7.47247C8.80777 7.12876 8.6442 7.12185 8.49638 7.11588C8.37551 7.1107 8.23716 7.11096 8.09908 7.11096C7.96086 7.11096 7.73619 7.16276 7.54621 7.36928C7.3561 7.57579 6.82031 8.07515 6.82031 9.09074C6.82031 10.1065 7.56342 11.0878 7.66709 11.2256C7.77075 11.3634 9.10155 13.5141 11.2091 14.3415C12.9607 15.0291 13.317 14.8923 13.6972 14.8579C14.0775 14.8236 14.924 14.3586 15.0967 13.8766C15.2696 13.3947 15.2696 12.9816 15.2177 12.8952C15.1658 12.8092 15.0276 12.7576 14.8203 12.6544C14.613 12.5512 13.5936 12.0517 13.4035 11.9829C13.2133 11.914 13.0751 11.8797 12.9369 12.0864C12.7986 12.2928 12.4015 12.7576 12.2805 12.8952C12.1595 13.0332 12.0385 13.0504 11.8312 12.9471C11.6239 12.8436 10.956 12.6258 10.1638 11.9226C9.54741 11.3756 9.13116 10.6998 9.01016 10.4932C8.88928 10.2868 9.00816 10.1848 9.10128 10.0721C9.26898 9.869 9.55035 9.50391 9.61946 9.36632C9.68856 9.22846 9.65401 9.10801 9.60225 9.00468C9.55035 8.90149 9.14731 7.88072 8.96306 7.47247Z" fill="white"/>
</svg>
