<svg width="50" height="50" viewBox="0 0 50 50" fill="none" xmlns="http://www.w3.org/2000/svg">
<path d="M0 50L3.53172 37.1615C1.35321 33.404 0.207324 29.1416 0.208925 24.7749C0.214529 11.1141 11.382 0 25.1047 0C31.7639 0.002789 38.0144 2.58299 42.7148 7.26608C47.4148 11.9492 50.0024 18.1742 50 24.7948C49.994 38.4552 38.8249 49.5709 25.1047 49.5709C25.1039 49.5709 25.1051 49.5709 25.1047 49.5709H25.0939C20.9274 49.5693 16.8337 48.529 13.1975 46.5548L0 50ZM13.8087 42.0697L14.5647 42.5156C17.741 44.3922 21.3828 45.3846 25.0967 45.3866H25.1047C36.5091 45.3866 45.7915 36.1479 45.7963 24.7932C45.7983 19.2906 43.6482 14.1162 39.7414 10.224C35.8343 6.33178 30.6396 4.18705 25.1123 4.18466C13.6986 4.18466 4.41665 13.4222 4.41225 24.7765C4.41065 28.6675 5.5041 32.4565 7.57575 35.7356L8.06804 36.5149L5.97719 44.1137L13.8087 42.0697Z" fill="white"/>
<path fill-rule="evenodd" clip-rule="evenodd" d="M18.8824 14.4174C18.4165 13.3863 17.9258 13.3656 17.4823 13.3477C17.1197 13.3321 16.7046 13.3329 16.2904 13.3329C15.8758 13.3329 15.2017 13.4883 14.6318 14.1079C14.0615 14.7274 12.4541 16.2255 12.4541 19.2723C12.4541 22.3194 14.6834 25.2634 14.9944 25.6769C15.3054 26.0901 19.2978 32.5422 25.6204 35.0244C30.8751 37.0874 31.9442 36.6771 33.0849 36.5739C34.2255 36.4707 36.7651 35.0758 37.2834 33.6299C37.8021 32.184 37.8021 30.9449 37.6464 30.6855C37.4907 30.4278 37.076 30.2728 36.4541 29.9632C35.8321 29.6536 32.7739 28.1551 32.2035 27.9488C31.6332 27.742 31.2185 27.6392 30.8039 28.2591C30.3888 28.8783 29.1977 30.2728 28.8347 30.6855C28.4717 31.0995 28.1087 31.1513 27.4867 30.8413C26.8647 30.531 24.8611 29.8775 22.4845 27.7679C20.6354 26.1268 19.3867 24.0996 19.0236 23.4796C18.661 22.8605 19.0176 22.5545 19.297 22.2162C19.8001 21.607 20.6442 20.5118 20.8515 20.099C21.0589 19.6854 20.9552 19.324 20.7999 19.0141C20.6442 18.7045 19.4351 15.6422 18.8824 14.4174Z" fill="white"/>
</svg>
